G04 PROTEUS GERBER X2 FILE*
%TF.GenerationSoftware,Labcenter,Proteus,8.6-SP2-Build23525*%
%TF.CreationDate,2023-02-23T10:19:36+00:00*%
%TF.FileFunction,Legend,Bot*%
%TF.FilePolarity,Positive*%
%TF.Part,Single*%
%FSLAX45Y45*%
%MOMM*%
G01*
%TA.AperFunction,Material*%
%ADD17C,0.250000*%
%ADD18C,0.200000*%
%ADD19C,0.203200*%
%TA.AperFunction,Profile*%
%ADD16C,0.203200*%
%TD.AperFunction*%
D17*
X+1077500Y+2115000D02*
X+1077457Y+2116039D01*
X+1077105Y+2118118D01*
X+1076368Y+2120197D01*
X+1075164Y+2122276D01*
X+1073323Y+2124326D01*
X+1071244Y+2125829D01*
X+1069165Y+2126786D01*
X+1067086Y+2127325D01*
X+1065007Y+2127500D01*
X+1065000Y+2127500D01*
X+1052500Y+2115000D02*
X+1052543Y+2116039D01*
X+1052895Y+2118118D01*
X+1053632Y+2120197D01*
X+1054836Y+2122276D01*
X+1056677Y+2124326D01*
X+1058756Y+2125829D01*
X+1060835Y+2126786D01*
X+1062914Y+2127325D01*
X+1064993Y+2127500D01*
X+1065000Y+2127500D01*
X+1052500Y+2115000D02*
X+1052543Y+2113961D01*
X+1052895Y+2111882D01*
X+1053632Y+2109803D01*
X+1054836Y+2107724D01*
X+1056677Y+2105674D01*
X+1058756Y+2104171D01*
X+1060835Y+2103214D01*
X+1062914Y+2102675D01*
X+1064993Y+2102500D01*
X+1065000Y+2102500D01*
X+1077500Y+2115000D02*
X+1077457Y+2113961D01*
X+1077105Y+2111882D01*
X+1076368Y+2109803D01*
X+1075164Y+2107724D01*
X+1073323Y+2105674D01*
X+1071244Y+2104171D01*
X+1069165Y+2103214D01*
X+1067086Y+2102675D01*
X+1065007Y+2102500D01*
X+1065000Y+2102500D01*
D18*
X+1735000Y+1885000D02*
X+1735000Y+1595000D01*
X+1065000Y+1595000D01*
X+1065000Y+1885000D01*
X+1735000Y+1885000D01*
D19*
X+918080Y+1867000D02*
X+994280Y+1867000D01*
X+1009520Y+1851125D01*
X+1009520Y+1787625D01*
X+994280Y+1771750D01*
X+918080Y+1771750D01*
X+933320Y+1724125D02*
X+918080Y+1708250D01*
X+918080Y+1660625D01*
X+933320Y+1644750D01*
X+948560Y+1644750D01*
X+963800Y+1660625D01*
X+963800Y+1708250D01*
X+979040Y+1724125D01*
X+1009520Y+1724125D01*
X+1009520Y+1644750D01*
D16*
X-400000Y-850000D02*
X+6100000Y-850000D01*
X+6100000Y+4700000D01*
X-400000Y+4700000D01*
X-400000Y-850000D01*
M02*
