  0
SECTION
  2
HEADER
  9
$ACADVER
  1
AC1006
  9
$EXTMIN
 10
0.0
 20
0.0
  9
$EXTMAX
 10
70.079979
 20
60.57999
  9
$LTSCALE
 40
0.000394
  9
$PDMODE
 70
35
  9
$PDSIZE
 40
0.000315
  0
ENDSEC
  0
SECTION
  2
TABLES
  0
TABLE
  2
LTYPE
 70
  9
  0
LTYPE
  2
CONTINUOUS
 70
 64
  3
Solid line
 72
 65
 73
  0
 40
0.000000
  0
LTYPE
  2
DASHED
 70
 64
  3
__ __ __ __ __ __ __ __ __ __ __ __ __ __ __
 72
 65
 73
  2
 40
0.000003
 49
0.000002
 49
-0.000001
  0
LTYPE
  2
HIDDEN
 70
 64
  3
 _ _ _ _ _ _ _ _ _ _ _ _ _ _ _ _ _ _ _ _ _ _
 72
 65
 73
  2
 40
0.000001
 49
0.000001
 49
-0.000000
  0
LTYPE
  2
CENTER
 70
 64
  3
____ _ ____ _ ____ _ ____ _ ____ _ ____ _ ____
 72
 65
 73
  4
 40
0.000008
 49
0.000005
 49
-0.000001
 49
0.000001
 49
-0.000001
  0
LTYPE
  2
PHANTOM
 70
 64
  3
_____ _ _ _____ _ _ _____ _ _ _____ _ _ ____
 72
 65
 73
  6
 40
0.000010
 49
0.000005
 49
-0.000001
 49
0.000001
 49
-0.000001
 49
0.000001
 49
-0.000001
  0
LTYPE
  2
DOT
 70
 64
  3
...............................................
 72
 65
 73
  2
 40
0.000001
 49
0.000000
 49
-0.000001
  0
LTYPE
  2
DASHDOT
 70
 64
  3
__ . __ . __ . __ . __ . __ . __ . __ . __ . __
 72
 65
 73
  4
 40
0.000004
 49
0.000002
 49
-0.000001
 49
0.000000
 49
-0.000001
  0
LTYPE
  2
BORDER
 70
 64
  3
__ __ . __ __ . __ __ . __ __ . __ __ . __ __
 72
 65
 73
  6
 40
0.000007
 49
0.000002
 49
-0.000001
 49
0.000002
 49
-0.000001
 49
0.000000
 49
-0.000001
  0
LTYPE
  2
DIVIDE
 70
 64
  3
__ . . __ . . __ . . __ . . __ . . __ . . __
 72
 65
 73
  6
 40
0.000005
 49
0.000002
 49
-0.000001
 49
0.000000
 49
-0.000001
 49
0.000000
 49
-0.000001
  0
LTYPE
  2
DOTDOT
 70
 64
  3
 . .  . .  . .  . .  . .  . .
 72
 65
 73
  5
 40
0.000002
 49
-0.000001
 49
0.000000
 49
-0.000001
 49
0.000000
 49
-0.000001
  0
ENDTAB
  0
TABLE
  2
STYLE
 70
  0
  0
ENDTAB
  0
TABLE
  2
LAYER
 70
  4
  0
LAYER
  2
FOREGROUND
 70
 64
 62
  7
  6
CONTINUOUS
  0
LAYER
  2
BACKGROUND
 70
 65
 62
 -7
  6
CONTINUOUS
  0
LAYER
  2
PLAN_1
 70
 64
 62
  7
  6
CONTINUOUS
  0
ENDTAB
  0
ENDSEC
  0
SECTION
  2
ENTITIES
  0
LINE
  8
PLAN_1
 62
7
 10
47.814407
 20
26.03368
 30
0.25
 11
46.517815
 21
26.03368
 31
0.25
  0
LINE
  8
PLAN_1
 62
7
 10
46.517815
 20
26.03368
 30
0.25
 11
45.300346
 21
27.251146
 31
0.25
  0
LINE
  8
PLAN_1
 62
7
 10
45.300346
 20
27.251146
 30
0.25
 11
45.300346
 21
33.413311
 31
0.25
  0
LINE
  8
PLAN_1
 62
7
 10
45.300346
 20
33.413311
 30
0.25
 11
45.262768
 21
33.602242
 31
0.25
  0
LINE
  8
PLAN_1
 62
7
 10
45.262768
 20
33.602242
 30
0.25
 11
45.155746
 21
33.762409
 31
0.25
  0
LINE
  8
PLAN_1
 62
7
 10
45.155746
 20
33.762409
 30
0.25
 11
43.400349
 21
35.517818
 31
0.25
  0
LINE
  8
PLAN_1
 62
7
 10
43.400349
 20
35.517818
 30
0.25
 11
43.400349
 21
38.146648
 31
0.25
  0
LINE
  8
PLAN_1
 62
7
 10
43.400349
 20
38.146648
 30
0.25
 11
43.36277
 21
38.335579
 31
0.25
  0
LINE
  8
PLAN_1
 62
7
 10
43.36277
 20
38.335579
 30
0.25
 11
43.255745
 21
38.495747
 31
0.25
  0
LINE
  8
PLAN_1
 62
7
 10
43.255745
 20
38.495747
 30
0.25
 11
42.022415
 21
39.729076
 31
0.25
  0
LINE
  8
PLAN_1
 62
7
 10
42.022415
 20
39.729076
 30
0.25
 11
41.322418
 21
40.429085
 31
0.25
  0
LINE
  8
PLAN_1
 62
7
 10
41.322418
 20
40.429085
 30
0.25
 11
41.269432
 21
40.464493
 31
0.25
  0
LINE
  8
PLAN_1
 62
7
 10
41.269432
 20
40.464493
 30
0.25
 11
41.162254
 21
40.53611
 31
0.25
  0
LINE
  8
PLAN_1
 62
7
 10
41.162254
 20
40.53611
 30
0.25
 11
40.97332
 21
40.573689
 31
0.25
  0
LINE
  8
PLAN_1
 62
7
 10
40.97332
 20
40.573689
 30
0.25
 11
39.695988
 21
40.573689
 31
0.25
  0
LINE
  8
PLAN_1
 62
7
 10
39.695988
 20
40.573689
 30
0.25
 11
39.695988
 21
41.195992
 31
0.25
  0
LINE
  8
PLAN_1
 62
7
 10
39.695988
 20
41.195992
 30
0.25
 11
39.073689
 21
41.195992
 31
0.25
  0
LINE
  8
PLAN_1
 62
7
 10
39.073689
 20
41.195992
 30
0.25
 11
39.073689
 21
42.154991
 31
0.25
  0
LINE
  8
PLAN_1
 62
7
 10
39.073689
 20
42.154991
 30
0.25
 11
39.03611
 21
42.343922
 31
0.25
  0
LINE
  8
PLAN_1
 62
7
 10
39.03611
 20
42.343922
 30
0.25
 11
38.929085
 21
42.504089
 31
0.25
  0
LINE
  8
PLAN_1
 62
7
 10
38.929085
 20
42.504089
 30
0.25
 11
38.768921
 21
42.611111
 31
0.25
  0
LINE
  8
PLAN_1
 62
7
 10
38.768921
 20
42.611111
 30
0.25
 11
38.579987
 21
42.648689
 31
0.25
  0
LINE
  8
PLAN_1
 62
7
 10
38.579987
 20
42.648689
 30
0.25
 11
38.159988
 21
42.648689
 31
0.25
  0
LINE
  8
PLAN_1
 62
7
 10
38.159988
 20
42.648689
 30
0.25
 11
26.844997
 21
42.648689
 31
0.25
  0
LINE
  8
PLAN_1
 62
7
 10
26.844997
 20
42.648689
 30
0.25
 11
26.656067
 21
42.611111
 31
0.25
  0
LINE
  8
PLAN_1
 62
7
 10
26.656067
 20
42.611111
 30
0.25
 11
26.495899
 21
42.504089
 31
0.25
  0
LINE
  8
PLAN_1
 62
7
 10
26.495899
 20
42.504089
 30
0.25
 11
24.65089
 21
40.659077
 31
0.25
  0
LINE
  8
PLAN_1
 62
7
 10
24.65089
 20
40.659077
 30
0.25
 11
24.543869
 21
40.498909
 31
0.25
  0
LINE
  8
PLAN_1
 62
7
 10
24.543869
 20
40.498909
 30
0.25
 11
24.50629
 21
40.309978
 31
0.25
  0
LINE
  8
PLAN_1
 62
7
 10
24.50629
 20
40.309978
 30
0.25
 11
24.50629
 21
19.155979
 31
0.25
  0
LINE
  8
PLAN_1
 62
7
 10
24.50629
 20
19.155979
 30
0.25
 11
23.883987
 21
19.155979
 31
0.25
  0
LINE
  8
PLAN_1
 62
7
 10
23.883987
 20
19.155979
 30
0.25
 11
23.883987
 21
16.923981
 31
0.25
  0
LINE
  8
PLAN_1
 62
7
 10
23.883987
 20
16.923981
 30
0.25
 11
26.11599
 21
16.923981
 31
0.25
  0
LINE
  8
PLAN_1
 62
7
 10
26.11599
 20
16.923981
 30
0.25
 11
26.11599
 21
19.155979
 31
0.25
  0
LINE
  8
PLAN_1
 62
7
 10
26.11599
 20
19.155979
 30
0.25
 11
25.493687
 21
19.155979
 31
0.25
  0
LINE
  8
PLAN_1
 62
7
 10
25.493687
 20
19.155979
 30
0.25
 11
25.493687
 21
40.10548
 31
0.25
  0
LINE
  8
PLAN_1
 62
7
 10
25.493687
 20
40.10548
 30
0.25
 11
27.049496
 21
41.661293
 31
0.25
  0
LINE
  8
PLAN_1
 62
7
 10
27.049496
 20
41.661293
 30
0.25
 11
38.086288
 21
41.661293
 31
0.25
  0
LINE
  8
PLAN_1
 62
7
 10
38.086288
 20
41.661293
 30
0.25
 11
38.086288
 21
41.195992
 31
0.25
  0
LINE
  8
PLAN_1
 62
7
 10
38.086288
 20
41.195992
 30
0.25
 11
37.463989
 21
41.195992
 31
0.25
  0
LINE
  8
PLAN_1
 62
7
 10
37.463989
 20
41.195992
 30
0.25
 11
37.463989
 21
38.963989
 31
0.25
  0
LINE
  8
PLAN_1
 62
7
 10
37.463989
 20
38.963989
 30
0.25
 11
39.695988
 21
38.963989
 31
0.25
  0
LINE
  8
PLAN_1
 62
7
 10
39.695988
 20
38.963989
 30
0.25
 11
39.695988
 21
39.586292
 31
0.25
  0
LINE
  8
PLAN_1
 62
7
 10
39.695988
 20
39.586292
 30
0.25
 11
40.768818
 21
39.586292
 31
0.25
  0
LINE
  8
PLAN_1
 62
7
 10
40.768818
 20
39.586292
 30
0.25
 11
41.324219
 21
39.03088
 31
0.25
  0
LINE
  8
PLAN_1
 62
7
 10
41.324219
 20
39.03088
 30
0.25
 11
42.412949
 21
37.942154
 31
0.25
  0
LINE
  8
PLAN_1
 62
7
 10
42.412949
 20
37.942154
 30
0.25
 11
42.412949
 21
35.31332
 31
0.25
  0
LINE
  8
PLAN_1
 62
7
 10
42.412949
 20
35.31332
 30
0.25
 11
42.450531
 21
35.12439
 31
0.25
  0
LINE
  8
PLAN_1
 62
7
 10
42.450531
 20
35.12439
 30
0.25
 11
42.557549
 21
34.964222
 31
0.25
  0
LINE
  8
PLAN_1
 62
7
 10
42.557549
 20
34.964222
 30
0.25
 11
44.31295
 21
33.208813
 31
0.25
  0
LINE
  8
PLAN_1
 62
7
 10
44.31295
 20
33.208813
 30
0.25
 11
44.31295
 21
27.04665
 31
0.25
  0
LINE
  8
PLAN_1
 62
7
 10
44.31295
 20
27.04665
 30
0.25
 11
44.350529
 21
26.857719
 31
0.25
  0
LINE
  8
PLAN_1
 62
7
 10
44.350529
 20
26.857719
 30
0.25
 11
44.45755
 21
26.697552
 31
0.25
  0
LINE
  8
PLAN_1
 62
7
 10
44.45755
 20
26.697552
 30
0.25
 11
45.964218
 21
25.190882
 31
0.25
  0
LINE
  8
PLAN_1
 62
7
 10
45.964218
 20
25.190882
 30
0.25
 11
46.12439
 21
25.08386
 31
0.25
  0
LINE
  8
PLAN_1
 62
7
 10
46.12439
 20
25.08386
 30
0.25
 11
46.313316
 21
25.04628
 31
0.25
  0
LINE
  8
PLAN_1
 62
7
 10
46.313316
 20
25.04628
 30
0.25
 11
47.814407
 21
25.04628
 31
0.25
  0
LINE
  8
PLAN_1
 62
7
 10
47.814407
 20
25.04628
 30
0.25
 11
47.814407
 21
24.360491
 31
0.25
  0
LINE
  8
PLAN_1
 62
7
 10
47.814407
 20
24.360491
 30
0.25
 11
51.265587
 21
24.360491
 31
0.25
  0
LINE
  8
PLAN_1
 62
7
 10
51.265587
 20
24.360491
 30
0.25
 11
51.265587
 21
26.719469
 31
0.25
  0
LINE
  8
PLAN_1
 62
7
 10
51.265587
 20
26.719469
 30
0.25
 11
50.033699
 21
26.719469
 31
0.25
  0
LINE
  8
PLAN_1
 62
7
 10
50.033699
 20
26.719469
 30
0.25
 11
50.033699
 21
30.160501
 31
0.25
  0
LINE
  8
PLAN_1
 62
7
 10
50.033699
 20
30.160501
 30
0.25
 11
50.109901
 21
30.160501
 31
0.25
  0
LINE
  8
PLAN_1
 62
7
 10
50.109901
 20
30.160501
 30
0.25
 11
50.109901
 21
32.519482
 31
0.25
  0
LINE
  8
PLAN_1
 62
7
 10
50.109901
 20
32.519482
 30
0.25
 11
50.033699
 21
32.519482
 31
0.25
  0
LINE
  8
PLAN_1
 62
7
 10
50.033699
 20
32.519482
 30
0.25
 11
50.033699
 21
34.424992
 31
0.25
  0
LINE
  8
PLAN_1
 62
7
 10
50.033699
 20
34.424992
 30
0.25
 11
49.996117
 21
34.613922
 31
0.25
  0
LINE
  8
PLAN_1
 62
7
 10
49.996117
 20
34.613922
 30
0.25
 11
49.889099
 21
34.77409
 31
0.25
  0
LINE
  8
PLAN_1
 62
7
 10
49.889099
 20
34.77409
 30
0.25
 11
49.533699
 21
35.129486
 31
0.25
  0
LINE
  8
PLAN_1
 62
7
 10
49.533699
 20
35.129486
 30
0.25
 11
49.533699
 21
37.044544
 31
0.25
  0
LINE
  8
PLAN_1
 62
7
 10
49.533699
 20
37.044544
 30
0.25
 11
49.660015
 21
37.112061
 31
0.25
  0
LINE
  8
PLAN_1
 62
7
 10
49.660015
 20
37.112061
 30
0.25
 11
49.829132
 21
37.250851
 31
0.25
  0
LINE
  8
PLAN_1
 62
7
 10
49.829132
 20
37.250851
 30
0.25
 11
49.967918
 21
37.419964
 31
0.25
  0
LINE
  8
PLAN_1
 62
7
 10
49.967918
 20
37.419964
 30
0.25
 11
50.071049
 21
37.612907
 31
0.25
  0
LINE
  8
PLAN_1
 62
7
 10
50.071049
 20
37.612907
 30
0.25
 11
50.134556
 21
37.822262
 31
0.25
  0
LINE
  8
PLAN_1
 62
7
 10
50.134556
 20
37.822262
 30
0.25
 11
50.155998
 21
38.039982
 31
0.25
  0
LINE
  8
PLAN_1
 62
7
 10
50.155998
 20
38.039982
 30
0.25
 11
50.134556
 21
38.257702
 31
0.25
  0
LINE
  8
PLAN_1
 62
7
 10
50.134556
 20
38.257702
 30
0.25
 11
50.071049
 21
38.467056
 31
0.25
  0
LINE
  8
PLAN_1
 62
7
 10
50.071049
 20
38.467056
 30
0.25
 11
49.967918
 21
38.66
 31
0.25
  0
LINE
  8
PLAN_1
 62
7
 10
49.967918
 20
38.66
 30
0.25
 11
49.829132
 21
38.829113
 31
0.25
  0
LINE
  8
PLAN_1
 62
7
 10
49.829132
 20
38.829113
 30
0.25
 11
49.660015
 21
38.967903
 31
0.25
  0
LINE
  8
PLAN_1
 62
7
 10
49.660015
 20
38.967903
 30
0.25
 11
49.467072
 21
39.07103
 31
0.25
  0
LINE
  8
PLAN_1
 62
7
 10
49.467072
 20
39.07103
 30
0.25
 11
49.257721
 21
39.134537
 31
0.25
  0
LINE
  8
PLAN_1
 62
7
 10
49.257721
 20
39.134537
 30
0.25
 11
49.040001
 21
39.155983
 31
0.25
  0
LINE
  8
PLAN_1
 62
7
 10
49.040001
 20
39.155983
 30
0.25
 11
48.822281
 21
39.134537
 31
0.25
  0
LINE
  8
PLAN_1
 62
7
 10
48.822281
 20
39.134537
 30
0.25
 11
48.612923
 21
39.07103
 31
0.25
  0
LINE
  8
PLAN_1
 62
7
 10
48.612923
 20
39.07103
 30
0.25
 11
48.419983
 21
38.967903
 31
0.25
  0
LINE
  8
PLAN_1
 62
7
 10
48.419983
 20
38.967903
 30
0.25
 11
48.25087
 21
38.829113
 31
0.25
  0
LINE
  8
PLAN_1
 62
7
 10
48.25087
 20
38.829113
 30
0.25
 11
48.11208
 21
38.66
 31
0.25
  0
LINE
  8
PLAN_1
 62
7
 10
48.11208
 20
38.66
 30
0.25
 11
48.008949
 21
38.467056
 31
0.25
  0
LINE
  8
PLAN_1
 62
7
 10
48.008949
 20
38.467056
 30
0.25
 11
47.945442
 21
38.257702
 31
0.25
  0
LINE
  8
PLAN_1
 62
7
 10
47.945442
 20
38.257702
 30
0.25
 11
47.924
 21
38.039982
 31
0.25
  0
LINE
  8
PLAN_1
 62
7
 10
47.924
 20
38.039982
 30
0.25
 11
47.945442
 21
37.822262
 31
0.25
  0
LINE
  8
PLAN_1
 62
7
 10
47.945442
 20
37.822262
 30
0.25
 11
48.008949
 21
37.612907
 31
0.25
  0
LINE
  8
PLAN_1
 62
7
 10
48.008949
 20
37.612907
 30
0.25
 11
48.11208
 21
37.419964
 31
0.25
  0
LINE
  8
PLAN_1
 62
7
 10
48.11208
 20
37.419964
 30
0.25
 11
48.25087
 21
37.250851
 31
0.25
  0
LINE
  8
PLAN_1
 62
7
 10
48.25087
 20
37.250851
 30
0.25
 11
48.419983
 21
37.112061
 31
0.25
  0
LINE
  8
PLAN_1
 62
7
 10
48.419983
 20
37.112061
 30
0.25
 11
48.546299
 21
37.044544
 31
0.25
  0
LINE
  8
PLAN_1
 62
7
 10
48.546299
 20
37.044544
 30
0.25
 11
48.546299
 21
34.924992
 31
0.25
  0
LINE
  8
PLAN_1
 62
7
 10
48.546299
 20
34.924992
 30
0.25
 11
48.583878
 21
34.736061
 31
0.25
  0
LINE
  8
PLAN_1
 62
7
 10
48.583878
 20
34.736061
 30
0.25
 11
48.690903
 21
34.575893
 31
0.25
  0
LINE
  8
PLAN_1
 62
7
 10
48.690903
 20
34.575893
 30
0.25
 11
49.046299
 21
34.220497
 31
0.25
  0
LINE
  8
PLAN_1
 62
7
 10
49.046299
 20
34.220497
 30
0.25
 11
49.046299
 21
32.519482
 31
0.25
  0
LINE
  8
PLAN_1
 62
7
 10
49.046299
 20
32.519482
 30
0.25
 11
48.9701
 21
32.519482
 31
0.25
  0
LINE
  8
PLAN_1
 62
7
 10
48.9701
 20
32.519482
 30
0.25
 11
48.9701
 21
30.160501
 31
0.25
  0
LINE
  8
PLAN_1
 62
7
 10
48.9701
 20
30.160501
 30
0.25
 11
49.046299
 21
30.160501
 31
0.25
  0
LINE
  8
PLAN_1
 62
7
 10
49.046299
 20
30.160501
 30
0.25
 11
49.046299
 21
26.719469
 31
0.25
  0
LINE
  8
PLAN_1
 62
7
 10
49.046299
 20
26.719469
 30
0.25
 11
47.814407
 21
26.719469
 31
0.25
  0
LINE
  8
PLAN_1
 62
7
 10
47.814407
 20
26.719469
 30
0.25
 11
47.814407
 21
26.03368
 31
0.25
  0
LINE
  8
PLAN_1
 62
7
 10
47.809891
 20
30.160501
 30
0.25
 11
47.809891
 21
32.519482
 31
0.25
  0
LINE
  8
PLAN_1
 62
7
 10
47.809891
 20
32.519482
 30
0.25
 11
47.733688
 21
32.519482
 31
0.25
  0
LINE
  8
PLAN_1
 62
7
 10
47.733688
 20
32.519482
 30
0.25
 11
47.733688
 21
34.002022
 31
0.25
  0
LINE
  8
PLAN_1
 62
7
 10
47.733688
 20
34.002022
 30
0.25
 11
47.696106
 21
34.190952
 31
0.25
  0
LINE
  8
PLAN_1
 62
7
 10
47.696106
 20
34.190952
 30
0.25
 11
47.589088
 21
34.35112
 31
0.25
  0
LINE
  8
PLAN_1
 62
7
 10
47.589088
 20
34.35112
 30
0.25
 11
46.343811
 21
35.596409
 31
0.25
  0
LINE
  8
PLAN_1
 62
7
 10
46.343811
 20
35.596409
 30
0.25
 11
46.343811
 21
40.525383
 31
0.25
  0
LINE
  8
PLAN_1
 62
7
 10
46.343811
 20
40.525383
 30
0.25
 11
47.557037
 21
41.738613
 31
0.25
  0
LINE
  8
PLAN_1
 62
7
 10
47.557037
 20
41.738613
 30
0.25
 11
52.083618
 21
41.738613
 31
0.25
  0
LINE
  8
PLAN_1
 62
7
 10
52.083618
 20
41.738613
 30
0.25
 11
54.510468
 21
39.31176
 31
0.25
  0
LINE
  8
PLAN_1
 62
7
 10
54.510468
 20
39.31176
 30
0.25
 11
54.510468
 21
34.385971
 31
0.25
  0
LINE
  8
PLAN_1
 62
7
 10
54.510468
 20
34.385971
 30
0.25
 11
54.510468
 21
21.708647
 31
0.25
  0
LINE
  8
PLAN_1
 62
7
 10
54.510468
 20
21.708647
 30
0.25
 11
52.335503
 21
19.53368
 31
0.25
  0
LINE
  8
PLAN_1
 62
7
 10
52.335503
 20
19.53368
 30
0.25
 11
52.075424
 21
19.53368
 31
0.25
  0
LINE
  8
PLAN_1
 62
7
 10
52.075424
 20
19.53368
 30
0.25
 11
52.007908
 21
19.659996
 31
0.25
  0
LINE
  8
PLAN_1
 62
7
 10
52.007908
 20
19.659996
 30
0.25
 11
51.869118
 21
19.829111
 31
0.25
  0
LINE
  8
PLAN_1
 62
7
 10
51.869118
 20
19.829111
 30
0.25
 11
51.700005
 21
19.967899
 31
0.25
  0
LINE
  8
PLAN_1
 62
7
 10
51.700005
 20
19.967899
 30
0.25
 11
51.507065
 21
20.07103
 31
0.25
  0
LINE
  8
PLAN_1
 62
7
 10
51.507065
 20
20.07103
 30
0.25
 11
51.297707
 21
20.134537
 31
0.25
  0
LINE
  8
PLAN_1
 62
7
 10
51.297707
 20
20.134537
 30
0.25
 11
51.079987
 21
20.155979
 31
0.25
  0
LINE
  8
PLAN_1
 62
7
 10
51.079987
 20
20.155979
 30
0.25
 11
50.862267
 21
20.134537
 31
0.25
  0
LINE
  8
PLAN_1
 62
7
 10
50.862267
 20
20.134537
 30
0.25
 11
50.652916
 21
20.07103
 31
0.25
  0
LINE
  8
PLAN_1
 62
7
 10
50.652916
 20
20.07103
 30
0.25
 11
50.459972
 21
19.967899
 31
0.25
  0
LINE
  8
PLAN_1
 62
7
 10
50.459972
 20
19.967899
 30
0.25
 11
50.290855
 21
19.829111
 31
0.25
  0
LINE
  8
PLAN_1
 62
7
 10
50.290855
 20
19.829111
 30
0.25
 11
50.152069
 21
19.659996
 31
0.25
  0
LINE
  8
PLAN_1
 62
7
 10
50.152069
 20
19.659996
 30
0.25
 11
50.048939
 21
19.467054
 31
0.25
  0
LINE
  8
PLAN_1
 62
7
 10
50.048939
 20
19.467054
 30
0.25
 11
49.985432
 21
19.2577
 31
0.25
  0
LINE
  8
PLAN_1
 62
7
 10
49.985432
 20
19.2577
 30
0.25
 11
49.963989
 21
19.03998
 31
0.25
  0
LINE
  8
PLAN_1
 62
7
 10
49.963989
 20
19.03998
 30
0.25
 11
49.985432
 21
18.82226
 31
0.25
  0
LINE
  8
PLAN_1
 62
7
 10
49.985432
 20
18.82226
 30
0.25
 11
50.048939
 21
18.612906
 31
0.25
  0
LINE
  8
PLAN_1
 62
7
 10
50.048939
 20
18.612906
 30
0.25
 11
50.152069
 21
18.419964
 31
0.25
  0
LINE
  8
PLAN_1
 62
7
 10
50.152069
 20
18.419964
 30
0.25
 11
50.290855
 21
18.250849
 31
0.25
  0
LINE
  8
PLAN_1
 62
7
 10
50.290855
 20
18.250849
 30
0.25
 11
50.459972
 21
18.112061
 31
0.25
  0
LINE
  8
PLAN_1
 62
7
 10
50.459972
 20
18.112061
 30
0.25
 11
50.652916
 21
18.00893
 31
0.25
  0
LINE
  8
PLAN_1
 62
7
 10
50.652916
 20
18.00893
 30
0.25
 11
50.862267
 21
17.945423
 31
0.25
  0
LINE
  8
PLAN_1
 62
7
 10
50.862267
 20
17.945423
 30
0.25
 11
51.079987
 21
17.923981
 31
0.25
  0
LINE
  8
PLAN_1
 62
7
 10
51.079987
 20
17.923981
 30
0.25
 11
51.297707
 21
17.945423
 31
0.25
  0
LINE
  8
PLAN_1
 62
7
 10
51.297707
 20
17.945423
 30
0.25
 11
51.507065
 21
18.00893
 31
0.25
  0
LINE
  8
PLAN_1
 62
7
 10
51.507065
 20
18.00893
 30
0.25
 11
51.700005
 21
18.112061
 31
0.25
  0
LINE
  8
PLAN_1
 62
7
 10
51.700005
 20
18.112061
 30
0.25
 11
51.869118
 21
18.250849
 31
0.25
  0
LINE
  8
PLAN_1
 62
7
 10
51.869118
 20
18.250849
 30
0.25
 11
52.007908
 21
18.419964
 31
0.25
  0
LINE
  8
PLAN_1
 62
7
 10
52.007908
 20
18.419964
 30
0.25
 11
52.075424
 21
18.54628
 31
0.25
  0
LINE
  8
PLAN_1
 62
7
 10
52.075424
 20
18.54628
 30
0.25
 11
52.540001
 21
18.54628
 31
0.25
  0
LINE
  8
PLAN_1
 62
7
 10
52.540001
 20
18.54628
 30
0.25
 11
52.728928
 21
18.58386
 31
0.25
  0
LINE
  8
PLAN_1
 62
7
 10
52.728928
 20
18.58386
 30
0.25
 11
52.889099
 21
18.690882
 31
0.25
  0
LINE
  8
PLAN_1
 62
7
 10
52.889099
 20
18.690882
 30
0.25
 11
55.353268
 21
21.155052
 31
0.25
  0
LINE
  8
PLAN_1
 62
7
 10
55.353268
 20
21.155052
 30
0.25
 11
55.460289
 21
21.31522
 31
0.25
  0
LINE
  8
PLAN_1
 62
7
 10
55.460289
 20
21.31522
 30
0.25
 11
55.497868
 21
21.50415
 31
0.25
  0
LINE
  8
PLAN_1
 62
7
 10
55.497868
 20
21.50415
 30
0.25
 11
55.497868
 21
34.385971
 31
0.25
  0
LINE
  8
PLAN_1
 62
7
 10
55.497868
 20
34.385971
 30
0.25
 11
55.497868
 21
39.516258
 31
0.25
  0
LINE
  8
PLAN_1
 62
7
 10
55.497868
 20
39.516258
 30
0.25
 11
55.460289
 21
39.705189
 31
0.25
  0
LINE
  8
PLAN_1
 62
7
 10
55.460289
 20
39.705189
 30
0.25
 11
55.353268
 21
39.865356
 31
0.25
  0
LINE
  8
PLAN_1
 62
7
 10
55.353268
 20
39.865356
 30
0.25
 11
52.637215
 21
42.581409
 31
0.25
  0
LINE
  8
PLAN_1
 62
7
 10
52.637215
 20
42.581409
 30
0.25
 11
52.477051
 21
42.688431
 31
0.25
  0
LINE
  8
PLAN_1
 62
7
 10
52.477051
 20
42.688431
 30
0.25
 11
52.288116
 21
42.726009
 31
0.25
  0
LINE
  8
PLAN_1
 62
7
 10
52.288116
 20
42.726009
 30
0.25
 11
47.352539
 21
42.726009
 31
0.25
  0
LINE
  8
PLAN_1
 62
7
 10
47.352539
 20
42.726009
 30
0.25
 11
47.163609
 21
42.688431
 31
0.25
  0
LINE
  8
PLAN_1
 62
7
 10
47.163609
 20
42.688431
 30
0.25
 11
47.003441
 21
42.581409
 31
0.25
  0
LINE
  8
PLAN_1
 62
7
 10
47.003441
 20
42.581409
 30
0.25
 11
45.850105
 21
41.428074
 31
0.25
  0
LINE
  8
PLAN_1
 62
7
 10
45.850105
 20
41.428074
 30
0.25
 11
42.889099
 21
44.38908
 31
0.25
  0
LINE
  8
PLAN_1
 62
7
 10
42.889099
 20
44.38908
 30
0.25
 11
42.728928
 21
44.496101
 31
0.25
  0
LINE
  8
PLAN_1
 62
7
 10
42.728928
 20
44.496101
 30
0.25
 11
42.540001
 21
44.53368
 31
0.25
  0
LINE
  8
PLAN_1
 62
7
 10
42.540001
 20
44.53368
 30
0.25
 11
26.539997
 21
44.53368
 31
0.25
  0
LINE
  8
PLAN_1
 62
7
 10
26.539997
 20
44.53368
 30
0.25
 11
25.539997
 21
44.53368
 31
0.25
  0
LINE
  8
PLAN_1
 62
7
 10
25.539997
 20
44.53368
 30
0.25
 11
25.351067
 21
44.496101
 31
0.25
  0
LINE
  8
PLAN_1
 62
7
 10
25.351067
 20
44.496101
 30
0.25
 11
25.190899
 21
44.38908
 31
0.25
  0
LINE
  8
PLAN_1
 62
7
 10
25.190899
 20
44.38908
 30
0.25
 11
21.190899
 21
40.38908
 31
0.25
  0
LINE
  8
PLAN_1
 62
7
 10
21.190899
 20
40.38908
 30
0.25
 11
21.083878
 21
40.228912
 31
0.25
  0
LINE
  8
PLAN_1
 62
7
 10
21.083878
 20
40.228912
 30
0.25
 11
21.046299
 21
40.039982
 31
0.25
  0
LINE
  8
PLAN_1
 62
7
 10
21.046299
 20
40.039982
 30
0.25
 11
21.046299
 21
19.155979
 31
0.25
  0
LINE
  8
PLAN_1
 62
7
 10
21.046299
 20
19.155979
 30
0.25
 11
19.923996
 21
19.155979
 31
0.25
  0
LINE
  8
PLAN_1
 62
7
 10
19.923996
 20
19.155979
 30
0.25
 11
19.923996
 21
16.923981
 31
0.25
  0
LINE
  8
PLAN_1
 62
7
 10
19.923996
 20
16.923981
 30
0.25
 11
22.155998
 21
16.923981
 31
0.25
  0
LINE
  8
PLAN_1
 62
7
 10
22.155998
 20
16.923981
 30
0.25
 11
22.155998
 21
19.155979
 31
0.25
  0
LINE
  8
PLAN_1
 62
7
 10
22.155998
 20
19.155979
 30
0.25
 11
22.033695
 21
19.155979
 31
0.25
  0
LINE
  8
PLAN_1
 62
7
 10
22.033695
 20
19.155979
 30
0.25
 11
22.033695
 21
39.835484
 31
0.25
  0
LINE
  8
PLAN_1
 62
7
 10
22.033695
 20
39.835484
 30
0.25
 11
25.744495
 21
43.546284
 31
0.25
  0
LINE
  8
PLAN_1
 62
7
 10
25.744495
 20
43.546284
 30
0.25
 11
26.539997
 21
43.546284
 31
0.25
  0
LINE
  8
PLAN_1
 62
7
 10
26.539997
 20
43.546284
 30
0.25
 11
42.335503
 21
43.546284
 31
0.25
  0
LINE
  8
PLAN_1
 62
7
 10
42.335503
 20
43.546284
 30
0.25
 11
45.190907
 21
40.690876
 31
0.25
  0
LINE
  8
PLAN_1
 62
7
 10
45.190907
 20
40.690876
 30
0.25
 11
45.356407
 21
40.525379
 31
0.25
  0
LINE
  8
PLAN_1
 62
7
 10
45.356407
 20
40.525379
 30
0.25
 11
45.356407
 21
35.391911
 31
0.25
  0
LINE
  8
PLAN_1
 62
7
 10
45.356407
 20
35.391911
 30
0.25
 11
45.39399
 21
35.20298
 31
0.25
  0
LINE
  8
PLAN_1
 62
7
 10
45.39399
 20
35.20298
 30
0.25
 11
45.501007
 21
35.042812
 31
0.25
  0
LINE
  8
PLAN_1
 62
7
 10
45.501007
 20
35.042812
 30
0.25
 11
46.746288
 21
33.797523
 31
0.25
  0
LINE
  8
PLAN_1
 62
7
 10
46.746288
 20
33.797523
 30
0.25
 11
46.746288
 21
32.519482
 31
0.25
  0
LINE
  8
PLAN_1
 62
7
 10
46.746288
 20
32.519482
 30
0.25
 11
46.67009
 21
32.519482
 31
0.25
  0
LINE
  8
PLAN_1
 62
7
 10
46.67009
 20
32.519482
 30
0.25
 11
46.67009
 21
30.160501
 31
0.25
  0
LINE
  8
PLAN_1
 62
7
 10
46.67009
 20
30.160501
 30
0.25
 11
47.809891
 21
30.160501
 31
0.25
  0
LINE
  8
PLAN_1
 62
7
 10
52.121029
 20
24.319206
 30
0.25
 11
48.190903
 21
20.389078
 31
0.25
  0
LINE
  8
PLAN_1
 62
7
 10
48.190903
 20
20.389078
 30
0.25
 11
48.083878
 21
20.22891
 31
0.25
  0
LINE
  8
PLAN_1
 62
7
 10
48.083878
 20
20.22891
 30
0.25
 11
48.047119
 21
20.035856
 31
0.25
  0
LINE
  8
PLAN_1
 62
7
 10
48.047119
 20
20.035856
 30
0.25
 11
47.919983
 21
19.967899
 31
0.25
  0
LINE
  8
PLAN_1
 62
7
 10
47.919983
 20
19.967899
 30
0.25
 11
47.75087
 21
19.829111
 31
0.25
  0
LINE
  8
PLAN_1
 62
7
 10
47.75087
 20
19.829111
 30
0.25
 11
47.61208
 21
19.659996
 31
0.25
  0
LINE
  8
PLAN_1
 62
7
 10
47.61208
 20
19.659996
 30
0.25
 11
47.508949
 21
19.467054
 31
0.25
  0
LINE
  8
PLAN_1
 62
7
 10
47.508949
 20
19.467054
 30
0.25
 11
47.445442
 21
19.2577
 31
0.25
  0
LINE
  8
PLAN_1
 62
7
 10
47.445442
 20
19.2577
 30
0.25
 11
47.424
 21
19.03998
 31
0.25
  0
LINE
  8
PLAN_1
 62
7
 10
47.424
 20
19.03998
 30
0.25
 11
47.445442
 21
18.82226
 31
0.25
  0
LINE
  8
PLAN_1
 62
7
 10
47.445442
 20
18.82226
 30
0.25
 11
47.487019
 21
18.6852
 31
0.25
  0
LINE
  8
PLAN_1
 62
7
 10
47.487019
 20
18.6852
 30
0.25
 11
44.835503
 21
16.033689
 31
0.25
  0
LINE
  8
PLAN_1
 62
7
 10
44.835503
 20
16.033689
 30
0.25
 11
39.731888
 21
16.033689
 31
0.25
  0
LINE
  8
PLAN_1
 62
7
 10
39.731888
 20
16.033689
 30
0.25
 11
39.849091
 21
16.150894
 31
0.25
  0
LINE
  8
PLAN_1
 62
7
 10
39.849091
 20
16.150894
 30
0.25
 11
39.956108
 21
16.31106
 31
0.25
  0
LINE
  8
PLAN_1
 62
7
 10
39.956108
 20
16.31106
 30
0.25
 11
39.99369
 21
16.49999
 31
0.25
  0
LINE
  8
PLAN_1
 62
7
 10
39.99369
 20
16.49999
 30
0.25
 11
39.99369
 21
16.923981
 31
0.25
  0
LINE
  8
PLAN_1
 62
7
 10
39.99369
 20
16.923981
 30
0.25
 11
40.61599
 21
16.923981
 31
0.25
  0
LINE
  8
PLAN_1
 62
7
 10
40.61599
 20
16.923981
 30
0.25
 11
40.61599
 21
19.155979
 31
0.25
  0
LINE
  8
PLAN_1
 62
7
 10
40.61599
 20
19.155979
 30
0.25
 11
38.383987
 21
19.155979
 31
0.25
  0
LINE
  8
PLAN_1
 62
7
 10
38.383987
 20
19.155979
 30
0.25
 11
38.383987
 21
16.923981
 31
0.25
  0
LINE
  8
PLAN_1
 62
7
 10
38.383987
 20
16.923981
 30
0.25
 11
39.006287
 21
16.923981
 31
0.25
  0
LINE
  8
PLAN_1
 62
7
 10
39.006287
 20
16.923981
 30
0.25
 11
39.006287
 21
16.704485
 31
0.25
  0
LINE
  8
PLAN_1
 62
7
 10
39.006287
 20
16.704485
 30
0.25
 11
38.335503
 21
16.033689
 31
0.25
  0
LINE
  8
PLAN_1
 62
7
 10
38.335503
 20
16.033689
 30
0.25
 11
33.993687
 21
16.033689
 31
0.25
  0
LINE
  8
PLAN_1
 62
7
 10
33.993687
 20
16.033689
 30
0.25
 11
33.993687
 21
16.923981
 31
0.25
  0
LINE
  8
PLAN_1
 62
7
 10
33.993687
 20
16.923981
 30
0.25
 11
34.61599
 21
16.923981
 31
0.25
  0
LINE
  8
PLAN_1
 62
7
 10
34.61599
 20
16.923981
 30
0.25
 11
34.61599
 21
19.155979
 31
0.25
  0
LINE
  8
PLAN_1
 62
7
 10
34.61599
 20
19.155979
 30
0.25
 11
32.383987
 21
19.155979
 31
0.25
  0
LINE
  8
PLAN_1
 62
7
 10
32.383987
 20
19.155979
 30
0.25
 11
32.383987
 21
16.923981
 31
0.25
  0
LINE
  8
PLAN_1
 62
7
 10
32.383987
 20
16.923981
 30
0.25
 11
33.00629
 21
16.923981
 31
0.25
  0
LINE
  8
PLAN_1
 62
7
 10
33.00629
 20
16.923981
 30
0.25
 11
33.00629
 21
16.033689
 31
0.25
  0
LINE
  8
PLAN_1
 62
7
 10
33.00629
 20
16.033689
 30
0.25
 11
28.033695
 21
16.033689
 31
0.25
  0
LINE
  8
PLAN_1
 62
7
 10
28.033695
 20
16.033689
 30
0.25
 11
28.033695
 21
16.923981
 31
0.25
  0
LINE
  8
PLAN_1
 62
7
 10
28.033695
 20
16.923981
 30
0.25
 11
28.655998
 21
16.923981
 31
0.25
  0
LINE
  8
PLAN_1
 62
7
 10
28.655998
 20
16.923981
 30
0.25
 11
28.655998
 21
19.155979
 31
0.25
  0
LINE
  8
PLAN_1
 62
7
 10
28.655998
 20
19.155979
 30
0.25
 11
28.033695
 21
19.155979
 31
0.25
  0
LINE
  8
PLAN_1
 62
7
 10
28.033695
 20
19.155979
 30
0.25
 11
28.033695
 21
33.915493
 31
0.25
  0
LINE
  8
PLAN_1
 62
7
 10
28.033695
 20
33.915493
 30
0.25
 11
30.542183
 21
36.423981
 31
0.25
  0
LINE
  8
PLAN_1
 62
7
 10
30.542183
 20
36.423981
 30
0.25
 11
32.075989
 21
36.423981
 31
0.25
  0
LINE
  8
PLAN_1
 62
7
 10
32.075989
 20
36.423981
 30
0.25
 11
32.075989
 21
38.655983
 31
0.25
  0
LINE
  8
PLAN_1
 62
7
 10
32.075989
 20
38.655983
 30
0.25
 11
29.843987
 21
38.655983
 31
0.25
  0
LINE
  8
PLAN_1
 62
7
 10
29.843987
 20
38.655983
 30
0.25
 11
29.843987
 21
37.122177
 31
0.25
  0
LINE
  8
PLAN_1
 62
7
 10
29.843987
 20
37.122177
 30
0.25
 11
27.190899
 21
34.46909
 31
0.25
  0
LINE
  8
PLAN_1
 62
7
 10
27.190899
 20
34.46909
 30
0.25
 11
27.083878
 21
34.308922
 31
0.25
  0
LINE
  8
PLAN_1
 62
7
 10
27.083878
 20
34.308922
 30
0.25
 11
27.046299
 21
34.119991
 31
0.25
  0
LINE
  8
PLAN_1
 62
7
 10
27.046299
 20
34.119991
 30
0.25
 11
27.046299
 21
19.155979
 31
0.25
  0
LINE
  8
PLAN_1
 62
7
 10
27.046299
 20
19.155979
 30
0.25
 11
26.423996
 21
19.155979
 31
0.25
  0
LINE
  8
PLAN_1
 62
7
 10
26.423996
 20
19.155979
 30
0.25
 11
26.423996
 21
16.923981
 31
0.25
  0
LINE
  8
PLAN_1
 62
7
 10
26.423996
 20
16.923981
 30
0.25
 11
27.046299
 21
16.923981
 31
0.25
  0
LINE
  8
PLAN_1
 62
7
 10
27.046299
 20
16.923981
 30
0.25
 11
27.046299
 21
16.033689
 31
0.25
  0
LINE
  8
PLAN_1
 62
7
 10
27.046299
 20
16.033689
 30
0.25
 11
19.244492
 21
16.033689
 31
0.25
  0
LINE
  8
PLAN_1
 62
7
 10
19.244492
 20
16.033689
 30
0.25
 11
19.033695
 21
16.244482
 31
0.25
  0
LINE
  8
PLAN_1
 62
7
 10
19.033695
 20
16.244482
 30
0.25
 11
19.033695
 21
16.923981
 31
0.25
  0
LINE
  8
PLAN_1
 62
7
 10
19.033695
 20
16.923981
 30
0.25
 11
19.61599
 21
16.923981
 31
0.25
  0
LINE
  8
PLAN_1
 62
7
 10
19.61599
 20
16.923981
 30
0.25
 11
19.61599
 21
19.155979
 31
0.25
  0
LINE
  8
PLAN_1
 62
7
 10
19.61599
 20
19.155979
 30
0.25
 11
17.383987
 21
19.155979
 31
0.25
  0
LINE
  8
PLAN_1
 62
7
 10
17.383987
 20
19.155979
 30
0.25
 11
17.383987
 21
16.923981
 31
0.25
  0
LINE
  8
PLAN_1
 62
7
 10
17.383987
 20
16.923981
 30
0.25
 11
18.046299
 21
16.923981
 31
0.25
  0
LINE
  8
PLAN_1
 62
7
 10
18.046299
 20
16.923981
 30
0.25
 11
18.046299
 21
16.03998
 31
0.25
  0
LINE
  8
PLAN_1
 62
7
 10
18.046299
 20
16.03998
 30
0.25
 11
18.083878
 21
15.851049
 31
0.25
  0
LINE
  8
PLAN_1
 62
7
 10
18.083878
 20
15.851049
 30
0.25
 11
18.190903
 21
15.690878
 31
0.25
  0
LINE
  8
PLAN_1
 62
7
 10
18.190903
 20
15.690878
 30
0.25
 11
18.690899
 21
15.190892
 31
0.25
  0
LINE
  8
PLAN_1
 62
7
 10
18.690899
 20
15.190892
 30
0.25
 11
18.851067
 21
15.083871
 31
0.25
  0
LINE
  8
PLAN_1
 62
7
 10
18.851067
 20
15.083871
 30
0.25
 11
19.039997
 21
15.04629
 31
0.25
  0
LINE
  8
PLAN_1
 62
7
 10
19.039997
 20
15.04629
 30
0.25
 11
27.539997
 21
15.04629
 31
0.25
  0
LINE
  8
PLAN_1
 62
7
 10
27.539997
 20
15.04629
 30
0.25
 11
33.539997
 21
15.04629
 31
0.25
  0
LINE
  8
PLAN_1
 62
7
 10
33.539997
 20
15.04629
 30
0.25
 11
38.540001
 21
15.04629
 31
0.25
  0
LINE
  8
PLAN_1
 62
7
 10
38.540001
 20
15.04629
 30
0.25
 11
45.040001
 21
15.04629
 31
0.25
  0
LINE
  8
PLAN_1
 62
7
 10
45.040001
 20
15.04629
 30
0.25
 11
45.228928
 21
15.083871
 31
0.25
  0
LINE
  8
PLAN_1
 62
7
 10
45.228928
 20
15.083871
 30
0.25
 11
45.389099
 21
15.190891
 31
0.25
  0
LINE
  8
PLAN_1
 62
7
 10
45.389099
 20
15.190891
 30
0.25
 11
48.185215
 21
17.987001
 31
0.25
  0
LINE
  8
PLAN_1
 62
7
 10
48.185215
 20
17.987001
 30
0.25
 11
48.322281
 21
17.945423
 31
0.25
  0
LINE
  8
PLAN_1
 62
7
 10
48.322281
 20
17.945423
 30
0.25
 11
48.540001
 21
17.923981
 31
0.25
  0
LINE
  8
PLAN_1
 62
7
 10
48.540001
 20
17.923981
 30
0.25
 11
48.757721
 21
17.945423
 31
0.25
  0
LINE
  8
PLAN_1
 62
7
 10
48.757721
 20
17.945423
 30
0.25
 11
48.967072
 21
18.00893
 31
0.25
  0
LINE
  8
PLAN_1
 62
7
 10
48.967072
 20
18.00893
 30
0.25
 11
49.160015
 21
18.112061
 31
0.25
  0
LINE
  8
PLAN_1
 62
7
 10
49.160015
 20
18.112061
 30
0.25
 11
49.329132
 21
18.250849
 31
0.25
  0
LINE
  8
PLAN_1
 62
7
 10
49.329132
 20
18.250849
 30
0.25
 11
49.467918
 21
18.419964
 31
0.25
  0
LINE
  8
PLAN_1
 62
7
 10
49.467918
 20
18.419964
 30
0.25
 11
49.571049
 21
18.612906
 31
0.25
  0
LINE
  8
PLAN_1
 62
7
 10
49.571049
 20
18.612906
 30
0.25
 11
49.634556
 21
18.82226
 31
0.25
  0
LINE
  8
PLAN_1
 62
7
 10
49.634556
 20
18.82226
 30
0.25
 11
49.655998
 21
19.03998
 31
0.25
  0
LINE
  8
PLAN_1
 62
7
 10
49.655998
 20
19.03998
 30
0.25
 11
49.634556
 21
19.2577
 31
0.25
  0
LINE
  8
PLAN_1
 62
7
 10
49.634556
 20
19.2577
 30
0.25
 11
49.571049
 21
19.467054
 31
0.25
  0
LINE
  8
PLAN_1
 62
7
 10
49.571049
 20
19.467054
 30
0.25
 11
49.467918
 21
19.659996
 31
0.25
  0
LINE
  8
PLAN_1
 62
7
 10
49.467918
 20
19.659996
 30
0.25
 11
49.329132
 21
19.829111
 31
0.25
  0
LINE
  8
PLAN_1
 62
7
 10
49.329132
 20
19.829111
 30
0.25
 11
49.163364
 21
19.965149
 31
0.25
  0
LINE
  8
PLAN_1
 62
7
 10
49.163364
 20
19.965149
 30
0.25
 11
52.963829
 21
23.765612
 31
0.25
  0
LINE
  8
PLAN_1
 62
7
 10
52.963829
 20
23.765612
 30
0.25
 11
53.070847
 21
23.925779
 31
0.25
  0
LINE
  8
PLAN_1
 62
7
 10
53.070847
 20
23.925779
 30
0.25
 11
53.108429
 21
24.11471
 31
0.25
  0
LINE
  8
PLAN_1
 62
7
 10
53.108429
 20
24.11471
 30
0.25
 11
53.108429
 21
30.56525
 31
0.25
  0
LINE
  8
PLAN_1
 62
7
 10
53.108429
 20
30.56525
 30
0.25
 11
53.070847
 21
30.754181
 31
0.25
  0
LINE
  8
PLAN_1
 62
7
 10
53.070847
 20
30.754181
 30
0.25
 11
52.963829
 21
30.914349
 31
0.25
  0
LINE
  8
PLAN_1
 62
7
 10
52.963829
 20
30.914349
 30
0.25
 11
52.409889
 21
31.468287
 31
0.25
  0
LINE
  8
PLAN_1
 62
7
 10
52.409889
 20
31.468287
 30
0.25
 11
52.409889
 21
32.519482
 31
0.25
  0
LINE
  8
PLAN_1
 62
7
 10
52.409889
 20
32.519482
 30
0.25
 11
52.333687
 21
32.519482
 31
0.25
  0
LINE
  8
PLAN_1
 62
7
 10
52.333687
 20
32.519482
 30
0.25
 11
52.333687
 21
37.221771
 31
0.25
  0
LINE
  8
PLAN_1
 62
7
 10
52.333687
 20
37.221771
 30
0.25
 11
52.369118
 21
37.250851
 31
0.25
  0
LINE
  8
PLAN_1
 62
7
 10
52.369118
 20
37.250851
 30
0.25
 11
52.507908
 21
37.419964
 31
0.25
  0
LINE
  8
PLAN_1
 62
7
 10
52.507908
 20
37.419964
 30
0.25
 11
52.611038
 21
37.612907
 31
0.25
  0
LINE
  8
PLAN_1
 62
7
 10
52.611038
 20
37.612907
 30
0.25
 11
52.674545
 21
37.822262
 31
0.25
  0
LINE
  8
PLAN_1
 62
7
 10
52.674545
 20
37.822262
 30
0.25
 11
52.695988
 21
38.039982
 31
0.25
  0
LINE
  8
PLAN_1
 62
7
 10
52.695988
 20
38.039982
 30
0.25
 11
52.674545
 21
38.257702
 31
0.25
  0
LINE
  8
PLAN_1
 62
7
 10
52.674545
 20
38.257702
 30
0.25
 11
52.611038
 21
38.467056
 31
0.25
  0
LINE
  8
PLAN_1
 62
7
 10
52.611038
 20
38.467056
 30
0.25
 11
52.507908
 21
38.66
 31
0.25
  0
LINE
  8
PLAN_1
 62
7
 10
52.507908
 20
38.66
 30
0.25
 11
52.369118
 21
38.829113
 31
0.25
  0
LINE
  8
PLAN_1
 62
7
 10
52.369118
 20
38.829113
 30
0.25
 11
52.200005
 21
38.967903
 31
0.25
  0
LINE
  8
PLAN_1
 62
7
 10
52.200005
 20
38.967903
 30
0.25
 11
52.007065
 21
39.07103
 31
0.25
  0
LINE
  8
PLAN_1
 62
7
 10
52.007065
 20
39.07103
 30
0.25
 11
51.797707
 21
39.134537
 31
0.25
  0
LINE
  8
PLAN_1
 62
7
 10
51.797707
 20
39.134537
 30
0.25
 11
51.579987
 21
39.155983
 31
0.25
  0
LINE
  8
PLAN_1
 62
7
 10
51.579987
 20
39.155983
 30
0.25
 11
51.362267
 21
39.134537
 31
0.25
  0
LINE
  8
PLAN_1
 62
7
 10
51.362267
 20
39.134537
 30
0.25
 11
51.152916
 21
39.07103
 31
0.25
  0
LINE
  8
PLAN_1
 62
7
 10
51.152916
 20
39.07103
 30
0.25
 11
50.959972
 21
38.967903
 31
0.25
  0
LINE
  8
PLAN_1
 62
7
 10
50.959972
 20
38.967903
 30
0.25
 11
50.790855
 21
38.829113
 31
0.25
  0
LINE
  8
PLAN_1
 62
7
 10
50.790855
 20
38.829113
 30
0.25
 11
50.652069
 21
38.66
 31
0.25
  0
LINE
  8
PLAN_1
 62
7
 10
50.652069
 20
38.66
 30
0.25
 11
50.548939
 21
38.467056
 31
0.25
  0
LINE
  8
PLAN_1
 62
7
 10
50.548939
 20
38.467056
 30
0.25
 11
50.485432
 21
38.257702
 31
0.25
  0
LINE
  8
PLAN_1
 62
7
 10
50.485432
 20
38.257702
 30
0.25
 11
50.463989
 21
38.039982
 31
0.25
  0
LINE
  8
PLAN_1
 62
7
 10
50.463989
 20
38.039982
 30
0.25
 11
50.485432
 21
37.822262
 31
0.25
  0
LINE
  8
PLAN_1
 62
7
 10
50.485432
 20
37.822262
 30
0.25
 11
50.548939
 21
37.612907
 31
0.25
  0
LINE
  8
PLAN_1
 62
7
 10
50.548939
 20
37.612907
 30
0.25
 11
50.652069
 21
37.419964
 31
0.25
  0
LINE
  8
PLAN_1
 62
7
 10
50.652069
 20
37.419964
 30
0.25
 11
50.790855
 21
37.250851
 31
0.25
  0
LINE
  8
PLAN_1
 62
7
 10
50.790855
 20
37.250851
 30
0.25
 11
50.959972
 21
37.112061
 31
0.25
  0
LINE
  8
PLAN_1
 62
7
 10
50.959972
 20
37.112061
 30
0.25
 11
51.152916
 21
37.008934
 31
0.25
  0
LINE
  8
PLAN_1
 62
7
 10
51.152916
 20
37.008934
 30
0.25
 11
51.346291
 21
36.950275
 31
0.25
  0
LINE
  8
PLAN_1
 62
7
 10
51.346291
 20
36.950275
 30
0.25
 11
51.346291
 21
32.519482
 31
0.25
  0
LINE
  8
PLAN_1
 62
7
 10
51.346291
 20
32.519482
 30
0.25
 11
51.270088
 21
32.519482
 31
0.25
  0
LINE
  8
PLAN_1
 62
7
 10
51.270088
 20
32.519482
 30
0.25
 11
51.270088
 21
30.160501
 31
0.25
  0
LINE
  8
PLAN_1
 62
7
 10
51.270088
 20
30.160501
 30
0.25
 11
52.121029
 21
30.160501
 31
0.25
  0
LINE
  8
PLAN_1
 62
7
 10
52.121029
 20
30.160501
 30
0.25
 11
52.121029
 21
24.319206
 31
0.25
  0
LINE
  8
PLAN_1
 62
7
 10
42.496117
 20
24.553339
 30
0.25
 11
42.453297
 21
24.617428
 31
0.25
  0
LINE
  8
PLAN_1
 62
7
 10
42.453297
 20
24.617428
 30
0.25
 11
42.389099
 21
24.713509
 31
0.25
  0
LINE
  8
PLAN_1
 62
7
 10
42.389099
 20
24.713509
 30
0.25
 11
41.263817
 21
25.838797
 31
0.25
  0
LINE
  8
PLAN_1
 62
7
 10
41.263817
 20
25.838797
 30
0.25
 11
41.263817
 21
32.172901
 31
0.25
  0
LINE
  8
PLAN_1
 62
7
 10
41.263817
 20
32.172901
 30
0.25
 11
41.226238
 21
32.361832
 31
0.25
  0
LINE
  8
PLAN_1
 62
7
 10
41.226238
 20
32.361832
 30
0.25
 11
41.119213
 21
32.522003
 31
0.25
  0
LINE
  8
PLAN_1
 62
7
 10
41.119213
 20
32.522003
 30
0.25
 11
40.515636
 21
33.125568
 31
0.25
  0
LINE
  8
PLAN_1
 62
7
 10
40.515636
 20
33.125568
 30
0.25
 11
39.073689
 21
34.567516
 31
0.25
  0
LINE
  8
PLAN_1
 62
7
 10
39.073689
 20
34.567516
 30
0.25
 11
39.073689
 21
36.423981
 31
0.25
  0
LINE
  8
PLAN_1
 62
7
 10
39.073689
 20
36.423981
 30
0.25
 11
39.695988
 21
36.423981
 31
0.25
  0
LINE
  8
PLAN_1
 62
7
 10
39.695988
 20
36.423981
 30
0.25
 11
39.695988
 21
38.655983
 31
0.25
  0
LINE
  8
PLAN_1
 62
7
 10
39.695988
 20
38.655983
 30
0.25
 11
37.463989
 21
38.655983
 31
0.25
  0
LINE
  8
PLAN_1
 62
7
 10
37.463989
 20
38.655983
 30
0.25
 11
37.463989
 21
36.423981
 31
0.25
  0
LINE
  8
PLAN_1
 62
7
 10
37.463989
 20
36.423981
 30
0.25
 11
38.086288
 21
36.423981
 31
0.25
  0
LINE
  8
PLAN_1
 62
7
 10
38.086288
 20
36.423981
 30
0.25
 11
38.086288
 21
34.363022
 31
0.25
  0
LINE
  8
PLAN_1
 62
7
 10
38.086288
 20
34.363022
 30
0.25
 11
38.123871
 21
34.174091
 31
0.25
  0
LINE
  8
PLAN_1
 62
7
 10
38.123871
 20
34.174091
 30
0.25
 11
38.230888
 21
34.013924
 31
0.25
  0
LINE
  8
PLAN_1
 62
7
 10
38.230888
 20
34.013924
 30
0.25
 11
39.81744
 21
32.427372
 31
0.25
  0
LINE
  8
PLAN_1
 62
7
 10
39.81744
 20
32.427372
 30
0.25
 11
40.276421
 21
31.968403
 31
0.25
  0
LINE
  8
PLAN_1
 62
7
 10
40.276421
 20
31.968403
 30
0.25
 11
40.276421
 21
25.6343
 31
0.25
  0
LINE
  8
PLAN_1
 62
7
 10
40.276421
 20
25.6343
 30
0.25
 11
40.313999
 21
25.44537
 31
0.25
  0
LINE
  8
PLAN_1
 62
7
 10
40.313999
 20
25.44537
 30
0.25
 11
40.385548
 21
25.338291
 31
0.25
  0
LINE
  8
PLAN_1
 62
7
 10
40.385548
 20
25.338291
 30
0.25
 11
40.421021
 21
25.285202
 31
0.25
  0
LINE
  8
PLAN_1
 62
7
 10
40.421021
 20
25.285202
 30
0.25
 11
41.546299
 21
24.159916
 31
0.25
  0
LINE
  8
PLAN_1
 62
7
 10
41.546299
 20
24.159916
 30
0.25
 11
41.546299
 21
19.155979
 31
0.25
  0
LINE
  8
PLAN_1
 62
7
 10
41.546299
 20
19.155979
 30
0.25
 11
40.924
 21
19.155979
 31
0.25
  0
LINE
  8
PLAN_1
 62
7
 10
40.924
 20
19.155979
 30
0.25
 11
40.924
 21
16.923981
 31
0.25
  0
LINE
  8
PLAN_1
 62
7
 10
40.924
 20
16.923981
 30
0.25
 11
43.155998
 21
16.923981
 31
0.25
  0
LINE
  8
PLAN_1
 62
7
 10
43.155998
 20
16.923981
 30
0.25
 11
43.155998
 21
19.155979
 31
0.25
  0
LINE
  8
PLAN_1
 62
7
 10
43.155998
 20
19.155979
 30
0.25
 11
42.533699
 21
19.155979
 31
0.25
  0
LINE
  8
PLAN_1
 62
7
 10
42.533699
 20
19.155979
 30
0.25
 11
42.533699
 21
24.364408
 31
0.25
  0
LINE
  8
PLAN_1
 62
7
 10
42.533699
 20
24.364408
 30
0.25
 11
42.496117
 21
24.553339
 31
0.25
  0
LINE
  8
PLAN_1
 62
7
 10
37.009983
 20
23.072922
 30
0.25
 11
36.953705
 21
23.25845
 31
0.25
  0
LINE
  8
PLAN_1
 62
7
 10
36.953705
 20
23.25845
 30
0.25
 11
36.862312
 21
23.429434
 31
0.25
  0
LINE
  8
PLAN_1
 62
7
 10
36.862312
 20
23.429434
 30
0.25
 11
36.739319
 21
23.579302
 31
0.25
  0
LINE
  8
PLAN_1
 62
7
 10
36.739319
 20
23.579302
 30
0.25
 11
36.589451
 21
23.702295
 31
0.25
  0
LINE
  8
PLAN_1
 62
7
 10
36.589451
 20
23.702295
 30
0.25
 11
36.418468
 21
23.793688
 31
0.25
  0
LINE
  8
PLAN_1
 62
7
 10
36.418468
 20
23.793688
 30
0.25
 11
36.232941
 21
23.849966
 31
0.25
  0
LINE
  8
PLAN_1
 62
7
 10
36.232941
 20
23.849966
 30
0.25
 11
36.039997
 21
23.868971
 31
0.25
  0
LINE
  8
PLAN_1
 62
7
 10
36.039997
 20
23.868971
 30
0.25
 11
35.847054
 21
23.849966
 31
0.25
  0
LINE
  8
PLAN_1
 62
7
 10
35.847054
 20
23.849966
 30
0.25
 11
35.661526
 21
23.793688
 31
0.25
  0
LINE
  8
PLAN_1
 62
7
 10
35.661526
 20
23.793688
 30
0.25
 11
35.490543
 21
23.702295
 31
0.25
  0
LINE
  8
PLAN_1
 62
7
 10
35.490543
 20
23.702295
 30
0.25
 11
35.340675
 21
23.579302
 31
0.25
  0
LINE
  8
PLAN_1
 62
7
 10
35.340675
 20
23.579302
 30
0.25
 11
35.217682
 21
23.429434
 31
0.25
  0
LINE
  8
PLAN_1
 62
7
 10
35.217682
 20
23.429434
 30
0.25
 11
35.126289
 21
23.25845
 31
0.25
  0
LINE
  8
PLAN_1
 62
7
 10
35.126289
 20
23.25845
 30
0.25
 11
35.070011
 21
23.072922
 31
0.25
  0
LINE
  8
PLAN_1
 62
7
 10
35.070011
 20
23.072922
 30
0.25
 11
35.051006
 21
22.87998
 31
0.25
  0
LINE
  8
PLAN_1
 62
7
 10
35.051006
 20
22.87998
 30
0.25
 11
35.070011
 21
22.687038
 31
0.25
  0
LINE
  8
PLAN_1
 62
7
 10
35.070011
 20
22.687038
 30
0.25
 11
35.126289
 21
22.501511
 31
0.25
  0
LINE
  8
PLAN_1
 62
7
 10
35.126289
 20
22.501511
 30
0.25
 11
35.217682
 21
22.330526
 31
0.25
  0
LINE
  8
PLAN_1
 62
7
 10
35.217682
 20
22.330526
 30
0.25
 11
35.340675
 21
22.180658
 31
0.25
  0
LINE
  8
PLAN_1
 62
7
 10
35.340675
 20
22.180658
 30
0.25
 11
35.490543
 21
22.057665
 31
0.25
  0
LINE
  8
PLAN_1
 62
7
 10
35.490543
 20
22.057665
 30
0.25
 11
35.546299
 21
22.027863
 31
0.25
  0
LINE
  8
PLAN_1
 62
7
 10
35.546299
 20
22.027863
 30
0.25
 11
35.546299
 21
19.155979
 31
0.25
  0
LINE
  8
PLAN_1
 62
7
 10
35.546299
 20
19.155979
 30
0.25
 11
34.923996
 21
19.155979
 31
0.25
  0
LINE
  8
PLAN_1
 62
7
 10
34.923996
 20
19.155979
 30
0.25
 11
34.923996
 21
16.923981
 31
0.25
  0
LINE
  8
PLAN_1
 62
7
 10
34.923996
 20
16.923981
 30
0.25
 11
37.155998
 21
16.923981
 31
0.25
  0
LINE
  8
PLAN_1
 62
7
 10
37.155998
 20
16.923981
 30
0.25
 11
37.155998
 21
19.155979
 31
0.25
  0
LINE
  8
PLAN_1
 62
7
 10
37.155998
 20
19.155979
 30
0.25
 11
36.533695
 21
19.155979
 31
0.25
  0
LINE
  8
PLAN_1
 62
7
 10
36.533695
 20
19.155979
 30
0.25
 11
36.533695
 21
22.027863
 31
0.25
  0
LINE
  8
PLAN_1
 62
7
 10
36.533695
 20
22.027863
 30
0.25
 11
36.589451
 21
22.057665
 31
0.25
  0
LINE
  8
PLAN_1
 62
7
 10
36.589451
 20
22.057665
 30
0.25
 11
36.739319
 21
22.180658
 31
0.25
  0
LINE
  8
PLAN_1
 62
7
 10
36.739319
 20
22.180658
 30
0.25
 11
36.862312
 21
22.330526
 31
0.25
  0
LINE
  8
PLAN_1
 62
7
 10
36.862312
 20
22.330526
 30
0.25
 11
36.953705
 21
22.501511
 31
0.25
  0
LINE
  8
PLAN_1
 62
7
 10
36.953705
 20
22.501511
 30
0.25
 11
37.009983
 21
22.687038
 31
0.25
  0
LINE
  8
PLAN_1
 62
7
 10
37.009983
 20
22.687038
 30
0.25
 11
37.028988
 21
22.87998
 31
0.25
  0
LINE
  8
PLAN_1
 62
7
 10
37.028988
 20
22.87998
 30
0.25
 11
37.009983
 21
23.072922
 31
0.25
  0
ENDSEC
  0
EOF
