  0
SECTION
  2
HEADER
  9
$ACADVER
  1
AC1006
  9
$EXTMIN
 10
0.0
 20
0.0
  9
$EXTMAX
 10
65.203194
 20
55.70319
  9
$LTSCALE
 40
0.000394
  9
$PDMODE
 70
35
  9
$PDSIZE
 40
0.000315
  0
ENDSEC
  0
SECTION
  2
TABLES
  0
TABLE
  2
LTYPE
 70
  9
  0
LTYPE
  2
CONTINUOUS
 70
 64
  3
Solid line
 72
 65
 73
  0
 40
0.000000
  0
LTYPE
  2
DASHED
 70
 64
  3
__ __ __ __ __ __ __ __ __ __ __ __ __ __ __
 72
 65
 73
  2
 40
0.000003
 49
0.000002
 49
-0.000001
  0
LTYPE
  2
HIDDEN
 70
 64
  3
 _ _ _ _ _ _ _ _ _ _ _ _ _ _ _ _ _ _ _ _ _ _
 72
 65
 73
  2
 40
0.000001
 49
0.000001
 49
-0.000000
  0
LTYPE
  2
CENTER
 70
 64
  3
____ _ ____ _ ____ _ ____ _ ____ _ ____ _ ____
 72
 65
 73
  4
 40
0.000008
 49
0.000005
 49
-0.000001
 49
0.000001
 49
-0.000001
  0
LTYPE
  2
PHANTOM
 70
 64
  3
_____ _ _ _____ _ _ _____ _ _ _____ _ _ ____
 72
 65
 73
  6
 40
0.000010
 49
0.000005
 49
-0.000001
 49
0.000001
 49
-0.000001
 49
0.000001
 49
-0.000001
  0
LTYPE
  2
DOT
 70
 64
  3
...............................................
 72
 65
 73
  2
 40
0.000001
 49
0.000000
 49
-0.000001
  0
LTYPE
  2
DASHDOT
 70
 64
  3
__ . __ . __ . __ . __ . __ . __ . __ . __ . __
 72
 65
 73
  4
 40
0.000004
 49
0.000002
 49
-0.000001
 49
0.000000
 49
-0.000001
  0
LTYPE
  2
BORDER
 70
 64
  3
__ __ . __ __ . __ __ . __ __ . __ __ . __ __
 72
 65
 73
  6
 40
0.000007
 49
0.000002
 49
-0.000001
 49
0.000002
 49
-0.000001
 49
0.000000
 49
-0.000001
  0
LTYPE
  2
DIVIDE
 70
 64
  3
__ . . __ . . __ . . __ . . __ . . __ . . __
 72
 65
 73
  6
 40
0.000005
 49
0.000002
 49
-0.000001
 49
0.000000
 49
-0.000001
 49
0.000000
 49
-0.000001
  0
LTYPE
  2
DOTDOT
 70
 64
  3
 . .  . .  . .  . .  . .  . .
 72
 65
 73
  5
 40
0.000002
 49
-0.000001
 49
0.000000
 49
-0.000001
 49
0.000000
 49
-0.000001
  0
ENDTAB
  0
TABLE
  2
STYLE
 70
  0
  0
ENDTAB
  0
TABLE
  2
LAYER
 70
  4
  0
LAYER
  2
FOREGROUND
 70
 64
 62
  7
  6
CONTINUOUS
  0
LAYER
  2
BACKGROUND
 70
 65
 62
 -7
  6
CONTINUOUS
  0
LAYER
  2
PLAN_1
 70
 64
 62
  7
  6
CONTINUOUS
  0
ENDTAB
  0
ENDSEC
  0
SECTION
  2
ENTITIES
  0
POINT
  8
PLAN_1
 62
3
 10
48.641602
 20
16.601599
 30
-2.0
  0
POINT
  8
PLAN_1
 62
3
 10
46.101604
 20
16.601599
 30
-2.0
  0
POINT
  8
PLAN_1
 62
3
 10
33.601608
 20
20.441599
 30
-2.0
  0
POINT
  8
PLAN_1
 62
3
 10
33.601608
 20
30.601599
 30
-2.0
  0
POINT
  8
PLAN_1
 62
3
 10
46.601604
 20
35.601593
 30
-2.0
  0
POINT
  8
PLAN_1
 62
3
 10
49.141602
 20
35.601593
 30
-2.0
  0
POINT
  8
PLAN_1
 62
2
 10
39.601604
 20
15.6016
 30
-2.0
  0
POINT
  8
PLAN_1
 62
2
 10
37.061607
 20
15.6016
 30
-2.0
  0
POINT
  8
PLAN_1
 62
2
 10
33.601608
 20
15.6016
 30
-2.0
  0
POINT
  8
PLAN_1
 62
2
 10
31.061607
 20
15.6016
 30
-2.0
  0
POINT
  8
PLAN_1
 62
2
 10
27.641609
 20
15.6016
 30
-2.0
  0
POINT
  8
PLAN_1
 62
2
 10
25.101608
 20
15.6016
 30
-2.0
  0
POINT
  8
PLAN_1
 62
2
 10
22.561607
 20
15.6016
 30
-2.0
  0
POINT
  8
PLAN_1
 62
2
 10
18.601608
 20
15.6016
 30
-2.0
  0
POINT
  8
PLAN_1
 62
2
 10
16.061607
 20
15.6016
 30
-2.0
  0
POINT
  8
PLAN_1
 62
2
 10
28.521606
 20
35.101593
 30
-2.0
  0
POINT
  8
PLAN_1
 62
2
 10
28.521606
 20
37.64159
 30
-2.0
  0
POINT
  8
PLAN_1
 62
2
 10
31.061607
 20
37.64159
 30
-2.0
  0
POINT
  8
PLAN_1
 62
2
 10
31.061607
 20
35.101593
 30
-2.0
  0
POINT
  8
PLAN_1
 62
2
 10
33.601608
 20
35.101593
 30
-2.0
  0
POINT
  8
PLAN_1
 62
2
 10
33.601608
 20
37.64159
 30
-2.0
  0
POINT
  8
PLAN_1
 62
2
 10
36.141605
 20
37.64159
 30
-2.0
  0
POINT
  8
PLAN_1
 62
2
 10
36.141605
 20
35.101593
 30
-2.0
  0
LINE
  8
PLAN_1
 62
4
 10
64.900002
 20
0.303185
 30
0.2
 11
64.900002
 21
55.399994
 31
0.2
  0
LINE
  8
PLAN_1
 62
4
 10
64.900002
 20
55.399994
 30
0.2
 11
0.303192
 21
55.399994
 31
0.2
  0
LINE
  8
PLAN_1
 62
4
 10
0.303192
 20
55.399994
 30
0.2
 11
0.303192
 21
0.303185
 31
0.2
  0
LINE
  8
PLAN_1
 62
4
 10
0.303192
 20
0.303185
 30
0.2
 11
64.900002
 21
0.303185
 31
0.2
  0
LINE
  8
PLAN_1
 62
4
 10
65.303185
 20
0.10159
 30
0.2
 11
65.303185
 21
55.601589
 31
0.2
  0
LINE
  8
PLAN_1
 62
4
 10
65.303185
 20
55.601589
 30
0.2
 11
65.299316
 21
55.640919
 31
0.2
  0
LINE
  8
PLAN_1
 62
4
 10
65.299316
 20
55.640919
 30
0.2
 11
65.287842
 21
55.678738
 31
0.2
  0
LINE
  8
PLAN_1
 62
4
 10
65.287842
 20
55.678738
 30
0.2
 11
65.269211
 21
55.713589
 31
0.2
  0
LINE
  8
PLAN_1
 62
4
 10
65.269211
 20
55.713589
 30
0.2
 11
65.244141
 21
55.744137
 31
0.2
  0
LINE
  8
PLAN_1
 62
4
 10
65.244141
 20
55.744137
 30
0.2
 11
65.213593
 21
55.769211
 31
0.2
  0
LINE
  8
PLAN_1
 62
4
 10
65.213593
 20
55.769211
 30
0.2
 11
65.178741
 21
55.787838
 31
0.2
  0
LINE
  8
PLAN_1
 62
4
 10
65.178741
 20
55.787838
 30
0.2
 11
65.140923
 21
55.799309
 31
0.2
  0
LINE
  8
PLAN_1
 62
4
 10
65.140923
 20
55.799309
 30
0.2
 11
65.101593
 21
55.803185
 31
0.2
  0
LINE
  8
PLAN_1
 62
4
 10
65.101593
 20
55.803185
 30
0.2
 11
0.101601
 21
55.803185
 31
0.2
  0
LINE
  8
PLAN_1
 62
4
 10
0.101601
 20
55.803185
 30
0.2
 11
0.062271
 21
55.799309
 31
0.2
  0
LINE
  8
PLAN_1
 62
4
 10
0.062271
 20
55.799309
 30
0.2
 11
0.024452
 21
55.787838
 31
0.2
  0
LINE
  8
PLAN_1
 62
4
 10
0.024452
 20
55.787838
 30
0.2
 11
-0.010399
 21
55.769211
 31
0.2
  0
LINE
  8
PLAN_1
 62
4
 10
-0.010399
 20
55.769211
 30
0.2
 11
-0.040947
 21
55.744137
 31
0.2
  0
LINE
  8
PLAN_1
 62
4
 10
-0.040947
 20
55.744137
 30
0.2
 11
-0.066017
 21
55.713589
 31
0.2
  0
LINE
  8
PLAN_1
 62
4
 10
-0.066017
 20
55.713589
 30
0.2
 11
-0.084648
 21
55.678738
 31
0.2
  0
LINE
  8
PLAN_1
 62
4
 10
-0.084648
 20
55.678738
 30
0.2
 11
-0.096123
 21
55.640919
 31
0.2
  0
LINE
  8
PLAN_1
 62
4
 10
-0.096123
 20
55.640919
 30
0.2
 11
-0.099991
 21
55.601589
 31
0.2
  0
LINE
  8
PLAN_1
 62
4
 10
-0.099991
 20
55.601589
 30
0.2
 11
-0.099991
 21
0.10159
 31
0.2
  0
LINE
  8
PLAN_1
 62
4
 10
-0.099991
 20
0.10159
 30
0.2
 11
-0.096123
 21
0.062261
 31
0.2
  0
LINE
  8
PLAN_1
 62
4
 10
-0.096123
 20
0.062261
 30
0.2
 11
-0.084648
 21
0.024443
 31
0.2
  0
LINE
  8
PLAN_1
 62
4
 10
-0.084648
 20
0.024443
 30
0.2
 11
-0.066017
 21
-0.01041
 31
0.2
  0
LINE
  8
PLAN_1
 62
4
 10
-0.066017
 20
-0.01041
 30
0.2
 11
-0.040947
 21
-0.040959
 31
0.2
  0
LINE
  8
PLAN_1
 62
4
 10
-0.040947
 20
-0.040959
 30
0.2
 11
-0.010399
 21
-0.06603
 31
0.2
  0
LINE
  8
PLAN_1
 62
4
 10
-0.010399
 20
-0.06603
 30
0.2
 11
0.024452
 21
-0.084659
 31
0.2
  0
LINE
  8
PLAN_1
 62
4
 10
0.024452
 20
-0.084659
 30
0.2
 11
0.062271
 21
-0.096131
 31
0.2
  0
LINE
  8
PLAN_1
 62
4
 10
0.062271
 20
-0.096131
 30
0.2
 11
0.101601
 21
-0.100005
 31
0.2
  0
LINE
  8
PLAN_1
 62
4
 10
0.101601
 20
-0.100005
 30
0.2
 11
65.101593
 21
-0.100005
 31
0.2
  0
LINE
  8
PLAN_1
 62
4
 10
65.101593
 20
-0.100005
 30
0.2
 11
65.140923
 21
-0.096131
 31
0.2
  0
LINE
  8
PLAN_1
 62
4
 10
65.140923
 20
-0.096131
 30
0.2
 11
65.178741
 21
-0.084659
 31
0.2
  0
LINE
  8
PLAN_1
 62
4
 10
65.178741
 20
-0.084659
 30
0.2
 11
65.213593
 21
-0.06603
 31
0.2
  0
LINE
  8
PLAN_1
 62
4
 10
65.213593
 20
-0.06603
 30
0.2
 11
65.244141
 21
-0.040959
 31
0.2
  0
LINE
  8
PLAN_1
 62
4
 10
65.244141
 20
-0.040959
 30
0.2
 11
65.269211
 21
-0.01041
 31
0.2
  0
LINE
  8
PLAN_1
 62
4
 10
65.269211
 20
-0.01041
 30
0.2
 11
65.287842
 21
0.024443
 31
0.2
  0
LINE
  8
PLAN_1
 62
4
 10
65.287842
 20
0.024443
 30
0.2
 11
65.299316
 21
0.062261
 31
0.2
  0
LINE
  8
PLAN_1
 62
4
 10
65.299316
 20
0.062261
 30
0.2
 11
65.303185
 21
0.10159
 31
0.2
  0
LINE
  8
PLAN_1
 62
4
 10
50.450703
 20
16.252491
 30
0.2
 11
52.914871
 21
18.716661
 31
0.2
  0
LINE
  8
PLAN_1
 62
4
 10
52.914871
 20
18.716661
 30
0.2
 11
52.976269
 21
18.791475
 31
0.2
  0
LINE
  8
PLAN_1
 62
4
 10
52.976269
 20
18.791475
 30
0.2
 11
53.021893
 21
18.876829
 31
0.2
  0
LINE
  8
PLAN_1
 62
4
 10
53.021893
 20
18.876829
 30
0.2
 11
53.049988
 21
18.969444
 31
0.2
  0
LINE
  8
PLAN_1
 62
4
 10
53.049988
 20
18.969444
 30
0.2
 11
53.059471
 21
19.06576
 31
0.2
  0
LINE
  8
PLAN_1
 62
4
 10
53.059471
 20
19.06576
 30
0.2
 11
53.059471
 21
31.947571
 31
0.2
  0
LINE
  8
PLAN_1
 62
4
 10
53.059471
 20
31.947571
 30
0.2
 11
53.059471
 21
37.077869
 31
0.2
  0
LINE
  8
PLAN_1
 62
4
 10
53.059471
 20
37.077869
 30
0.2
 11
53.049988
 21
37.174187
 31
0.2
  0
LINE
  8
PLAN_1
 62
4
 10
53.049988
 20
37.174187
 30
0.2
 11
53.021893
 21
37.2668
 31
0.2
  0
LINE
  8
PLAN_1
 62
4
 10
53.021893
 20
37.2668
 30
0.2
 11
52.976269
 21
37.352154
 31
0.2
  0
LINE
  8
PLAN_1
 62
4
 10
52.976269
 20
37.352154
 30
0.2
 11
52.914871
 21
37.426968
 31
0.2
  0
LINE
  8
PLAN_1
 62
4
 10
52.914871
 20
37.426968
 30
0.2
 11
50.19883
 21
40.143009
 31
0.2
  0
LINE
  8
PLAN_1
 62
4
 10
50.19883
 20
40.143009
 30
0.2
 11
50.124016
 21
40.204407
 31
0.2
  0
LINE
  8
PLAN_1
 62
4
 10
50.124016
 20
40.204407
 30
0.2
 11
50.038662
 21
40.250031
 31
0.2
  0
LINE
  8
PLAN_1
 62
4
 10
50.038662
 20
40.250031
 30
0.2
 11
49.946049
 21
40.278126
 31
0.2
  0
LINE
  8
PLAN_1
 62
4
 10
49.946049
 20
40.278126
 30
0.2
 11
49.849731
 21
40.287609
 31
0.2
  0
LINE
  8
PLAN_1
 62
4
 10
49.849731
 20
40.287609
 30
0.2
 11
44.914146
 21
40.287609
 31
0.2
  0
LINE
  8
PLAN_1
 62
4
 10
44.914146
 20
40.287609
 30
0.2
 11
44.817833
 21
40.278126
 31
0.2
  0
LINE
  8
PLAN_1
 62
4
 10
44.817833
 20
40.278126
 30
0.2
 11
44.725216
 21
40.250031
 31
0.2
  0
LINE
  8
PLAN_1
 62
4
 10
44.725216
 20
40.250031
 30
0.2
 11
44.639862
 21
40.204407
 31
0.2
  0
LINE
  8
PLAN_1
 62
4
 10
44.639862
 20
40.204407
 30
0.2
 11
44.565048
 21
40.143009
 31
0.2
  0
LINE
  8
PLAN_1
 62
4
 10
44.565048
 20
40.143009
 30
0.2
 11
43.411713
 21
38.989677
 31
0.2
  0
LINE
  8
PLAN_1
 62
4
 10
43.411713
 20
38.989677
 30
0.2
 11
40.450703
 21
41.950687
 31
0.2
  0
LINE
  8
PLAN_1
 62
4
 10
40.450703
 20
41.950687
 30
0.2
 11
40.375889
 21
42.012085
 31
0.2
  0
LINE
  8
PLAN_1
 62
4
 10
40.375889
 20
42.012085
 30
0.2
 11
40.290535
 21
42.057709
 31
0.2
  0
LINE
  8
PLAN_1
 62
4
 10
40.290535
 20
42.057709
 30
0.2
 11
40.197922
 21
42.085804
 31
0.2
  0
LINE
  8
PLAN_1
 62
4
 10
40.197922
 20
42.085804
 30
0.2
 11
40.101604
 21
42.095287
 31
0.2
  0
LINE
  8
PLAN_1
 62
4
 10
40.101604
 20
42.095287
 30
0.2
 11
24.101604
 21
42.095287
 31
0.2
  0
LINE
  8
PLAN_1
 62
4
 10
24.101604
 20
42.095287
 30
0.2
 11
23.101604
 21
42.095287
 31
0.2
  0
LINE
  8
PLAN_1
 62
4
 10
23.101604
 20
42.095287
 30
0.2
 11
23.005287
 21
42.085804
 31
0.2
  0
LINE
  8
PLAN_1
 62
4
 10
23.005287
 20
42.085804
 30
0.2
 11
22.912674
 21
42.057709
 31
0.2
  0
LINE
  8
PLAN_1
 62
4
 10
22.912674
 20
42.057709
 30
0.2
 11
22.82732
 21
42.012085
 31
0.2
  0
LINE
  8
PLAN_1
 62
4
 10
22.82732
 20
42.012085
 30
0.2
 11
22.752506
 21
41.950687
 31
0.2
  0
LINE
  8
PLAN_1
 62
4
 10
22.752506
 20
41.950687
 30
0.2
 11
18.752506
 21
37.950687
 31
0.2
  0
LINE
  8
PLAN_1
 62
4
 10
18.752506
 20
37.950687
 30
0.2
 11
18.691109
 21
37.875874
 31
0.2
  0
LINE
  8
PLAN_1
 62
4
 10
18.691109
 20
37.875874
 30
0.2
 11
18.645485
 21
37.79052
 31
0.2
  0
LINE
  8
PLAN_1
 62
4
 10
18.645485
 20
37.79052
 30
0.2
 11
18.61739
 21
37.697906
 31
0.2
  0
LINE
  8
PLAN_1
 62
4
 10
18.61739
 20
37.697906
 30
0.2
 11
18.607906
 21
37.601589
 31
0.2
  0
LINE
  8
PLAN_1
 62
4
 10
18.607906
 20
37.601589
 30
0.2
 11
18.607906
 21
16.71759
 31
0.2
  0
LINE
  8
PLAN_1
 62
4
 10
18.607906
 20
16.71759
 30
0.2
 11
17.485603
 21
16.71759
 31
0.2
  0
LINE
  8
PLAN_1
 62
4
 10
17.485603
 20
16.71759
 30
0.2
 11
17.485603
 21
14.48559
 31
0.2
  0
LINE
  8
PLAN_1
 62
4
 10
17.485603
 20
14.48559
 30
0.2
 11
19.717606
 21
14.48559
 31
0.2
  0
LINE
  8
PLAN_1
 62
4
 10
19.717606
 20
14.48559
 30
0.2
 11
19.717606
 21
16.71759
 31
0.2
  0
LINE
  8
PLAN_1
 62
4
 10
19.717606
 20
16.71759
 30
0.2
 11
19.595303
 21
16.71759
 31
0.2
  0
LINE
  8
PLAN_1
 62
4
 10
19.595303
 20
16.71759
 30
0.2
 11
19.595303
 21
37.397091
 31
0.2
  0
LINE
  8
PLAN_1
 62
4
 10
19.595303
 20
37.397091
 30
0.2
 11
23.306103
 21
41.107891
 31
0.2
  0
LINE
  8
PLAN_1
 62
4
 10
23.306103
 20
41.107891
 30
0.2
 11
24.101604
 21
41.107891
 31
0.2
  0
LINE
  8
PLAN_1
 62
4
 10
24.101604
 20
41.107891
 30
0.2
 11
39.897106
 21
41.107891
 31
0.2
  0
LINE
  8
PLAN_1
 62
4
 10
39.897106
 20
41.107891
 30
0.2
 11
42.752506
 21
38.252491
 31
0.2
  0
LINE
  8
PLAN_1
 62
4
 10
42.752506
 20
38.252491
 30
0.2
 11
42.918015
 21
38.086983
 31
0.2
  0
LINE
  8
PLAN_1
 62
4
 10
42.918015
 20
38.086983
 30
0.2
 11
42.918015
 21
32.95351
 31
0.2
  0
LINE
  8
PLAN_1
 62
4
 10
42.918015
 20
32.95351
 30
0.2
 11
42.927498
 21
32.857193
 31
0.2
  0
LINE
  8
PLAN_1
 62
4
 10
42.927498
 20
32.857193
 30
0.2
 11
42.955593
 21
32.76458
 31
0.2
  0
LINE
  8
PLAN_1
 62
4
 10
42.955593
 20
32.76458
 30
0.2
 11
43.001217
 21
32.679226
 31
0.2
  0
LINE
  8
PLAN_1
 62
4
 10
43.001217
 20
32.679226
 30
0.2
 11
43.062614
 21
32.604412
 31
0.2
  0
LINE
  8
PLAN_1
 62
4
 10
43.062614
 20
32.604412
 30
0.2
 11
44.307907
 21
31.359123
 31
0.2
  0
LINE
  8
PLAN_1
 62
4
 10
44.307907
 20
31.359123
 30
0.2
 11
44.307907
 21
30.081085
 31
0.2
  0
LINE
  8
PLAN_1
 62
4
 10
44.307907
 20
30.081085
 30
0.2
 11
44.231705
 21
30.081085
 31
0.2
  0
LINE
  8
PLAN_1
 62
4
 10
44.231705
 20
30.081085
 30
0.2
 11
44.231705
 21
27.722095
 31
0.2
  0
LINE
  8
PLAN_1
 62
4
 10
44.231705
 20
27.722095
 30
0.2
 11
45.371506
 21
27.722095
 31
0.2
  0
LINE
  8
PLAN_1
 62
4
 10
45.371506
 20
27.722095
 30
0.2
 11
45.371506
 21
30.081085
 31
0.2
  0
LINE
  8
PLAN_1
 62
4
 10
45.371506
 20
30.081085
 30
0.2
 11
45.295303
 21
30.081085
 31
0.2
  0
LINE
  8
PLAN_1
 62
4
 10
45.295303
 20
30.081085
 30
0.2
 11
45.295303
 21
31.56362
 31
0.2
  0
LINE
  8
PLAN_1
 62
4
 10
45.295303
 20
31.56362
 30
0.2
 11
45.28582
 21
31.659937
 31
0.2
  0
LINE
  8
PLAN_1
 62
4
 10
45.28582
 20
31.659937
 30
0.2
 11
45.257725
 21
31.75255
 31
0.2
  0
LINE
  8
PLAN_1
 62
4
 10
45.257725
 20
31.75255
 30
0.2
 11
45.212101
 21
31.837904
 31
0.2
  0
LINE
  8
PLAN_1
 62
4
 10
45.212101
 20
31.837904
 30
0.2
 11
45.150703
 21
31.912718
 31
0.2
  0
LINE
  8
PLAN_1
 62
4
 10
45.150703
 20
31.912718
 30
0.2
 11
43.905411
 21
33.158009
 31
0.2
  0
LINE
  8
PLAN_1
 62
4
 10
43.905411
 20
33.158009
 30
0.2
 11
43.905411
 21
38.086983
 31
0.2
  0
LINE
  8
PLAN_1
 62
4
 10
43.905411
 20
38.086983
 30
0.2
 11
45.118645
 21
39.300213
 31
0.2
  0
LINE
  8
PLAN_1
 62
4
 10
45.118645
 20
39.300213
 30
0.2
 11
49.645233
 21
39.300213
 31
0.2
  0
LINE
  8
PLAN_1
 62
4
 10
49.645233
 20
39.300213
 30
0.2
 11
52.072075
 21
36.873375
 31
0.2
  0
LINE
  8
PLAN_1
 62
4
 10
52.072075
 20
36.873375
 30
0.2
 11
52.072075
 21
31.947571
 31
0.2
  0
LINE
  8
PLAN_1
 62
4
 10
52.072075
 20
31.947571
 30
0.2
 11
52.072075
 21
19.270256
 31
0.2
  0
LINE
  8
PLAN_1
 62
4
 10
52.072075
 20
19.270256
 30
0.2
 11
49.897106
 21
17.095289
 31
0.2
  0
LINE
  8
PLAN_1
 62
4
 10
49.897106
 20
17.095289
 30
0.2
 11
49.637039
 21
17.095289
 31
0.2
  0
LINE
  8
PLAN_1
 62
4
 10
49.637039
 20
17.095289
 30
0.2
 11
49.569523
 21
17.221605
 31
0.2
  0
LINE
  8
PLAN_1
 62
4
 10
49.569523
 20
17.221605
 30
0.2
 11
49.430733
 21
17.39072
 31
0.2
  0
LINE
  8
PLAN_1
 62
4
 10
49.430733
 20
17.39072
 30
0.2
 11
49.26162
 21
17.529509
 31
0.2
  0
LINE
  8
PLAN_1
 62
4
 10
49.26162
 20
17.529509
 30
0.2
 11
49.068676
 21
17.632639
 31
0.2
  0
LINE
  8
PLAN_1
 62
4
 10
49.068676
 20
17.632639
 30
0.2
 11
48.859322
 21
17.696146
 31
0.2
  0
LINE
  8
PLAN_1
 62
4
 10
48.859322
 20
17.696146
 30
0.2
 11
48.641602
 21
17.717588
 31
0.2
  0
LINE
  8
PLAN_1
 62
4
 10
48.641602
 20
17.717588
 30
0.2
 11
48.423882
 21
17.696146
 31
0.2
  0
LINE
  8
PLAN_1
 62
4
 10
48.423882
 20
17.696146
 30
0.2
 11
48.214527
 21
17.632639
 31
0.2
  0
LINE
  8
PLAN_1
 62
4
 10
48.214527
 20
17.632639
 30
0.2
 11
48.021584
 21
17.529509
 31
0.2
  0
LINE
  8
PLAN_1
 62
4
 10
48.021584
 20
17.529509
 30
0.2
 11
47.85247
 21
17.39072
 31
0.2
  0
LINE
  8
PLAN_1
 62
4
 10
47.85247
 20
17.39072
 30
0.2
 11
47.713684
 21
17.221605
 31
0.2
  0
LINE
  8
PLAN_1
 62
4
 10
47.713684
 20
17.221605
 30
0.2
 11
47.61055
 21
17.028664
 31
0.2
  0
LINE
  8
PLAN_1
 62
4
 10
47.61055
 20
17.028664
 30
0.2
 11
47.547043
 21
16.819309
 31
0.2
  0
LINE
  8
PLAN_1
 62
4
 10
47.547043
 20
16.819309
 30
0.2
 11
47.525604
 21
16.601589
 31
0.2
  0
LINE
  8
PLAN_1
 62
4
 10
47.525604
 20
16.601589
 30
0.2
 11
47.547043
 21
16.383869
 31
0.2
  0
LINE
  8
PLAN_1
 62
4
 10
47.547043
 20
16.383869
 30
0.2
 11
47.61055
 21
16.174515
 31
0.2
  0
LINE
  8
PLAN_1
 62
4
 10
47.61055
 20
16.174515
 30
0.2
 11
47.713684
 21
15.981573
 31
0.2
  0
LINE
  8
PLAN_1
 62
4
 10
47.713684
 20
15.981573
 30
0.2
 11
47.85247
 21
15.812458
 31
0.2
  0
LINE
  8
PLAN_1
 62
4
 10
47.85247
 20
15.812458
 30
0.2
 11
48.021584
 21
15.673669
 31
0.2
  0
LINE
  8
PLAN_1
 62
4
 10
48.021584
 20
15.673669
 30
0.2
 11
48.214527
 21
15.570539
 31
0.2
  0
LINE
  8
PLAN_1
 62
4
 10
48.214527
 20
15.570539
 30
0.2
 11
48.423882
 21
15.507032
 31
0.2
  0
LINE
  8
PLAN_1
 62
4
 10
48.423882
 20
15.507032
 30
0.2
 11
48.641602
 21
15.485589
 31
0.2
  0
LINE
  8
PLAN_1
 62
4
 10
48.641602
 20
15.485589
 30
0.2
 11
48.859322
 21
15.507032
 31
0.2
  0
LINE
  8
PLAN_1
 62
4
 10
48.859322
 20
15.507032
 30
0.2
 11
49.068676
 21
15.570539
 31
0.2
  0
LINE
  8
PLAN_1
 62
4
 10
49.068676
 20
15.570539
 30
0.2
 11
49.26162
 21
15.673669
 31
0.2
  0
LINE
  8
PLAN_1
 62
4
 10
49.26162
 20
15.673669
 30
0.2
 11
49.430733
 21
15.812458
 31
0.2
  0
LINE
  8
PLAN_1
 62
4
 10
49.430733
 20
15.812458
 30
0.2
 11
49.569523
 21
15.981573
 31
0.2
  0
LINE
  8
PLAN_1
 62
4
 10
49.569523
 20
15.981573
 30
0.2
 11
49.637039
 21
16.107889
 31
0.2
  0
LINE
  8
PLAN_1
 62
4
 10
49.637039
 20
16.107889
 30
0.2
 11
50.101604
 21
16.107889
 31
0.2
  0
LINE
  8
PLAN_1
 62
4
 10
50.101604
 20
16.107889
 30
0.2
 11
50.197922
 21
16.117376
 31
0.2
  0
LINE
  8
PLAN_1
 62
4
 10
50.197922
 20
16.117376
 30
0.2
 11
50.290535
 21
16.14547
 31
0.2
  0
LINE
  8
PLAN_1
 62
4
 10
50.290535
 20
16.14547
 30
0.2
 11
50.375889
 21
16.191093
 31
0.2
  0
LINE
  8
PLAN_1
 62
4
 10
50.375889
 20
16.191093
 30
0.2
 11
50.450703
 21
16.252491
 31
0.2
  0
LINE
  8
PLAN_1
 62
4
 10
47.217606
 20
16.601589
 30
0.2
 11
47.196159
 21
16.819309
 31
0.2
  0
LINE
  8
PLAN_1
 62
4
 10
47.196159
 20
16.819309
 30
0.2
 11
47.132652
 21
17.028664
 31
0.2
  0
LINE
  8
PLAN_1
 62
4
 10
47.132652
 20
17.028664
 30
0.2
 11
47.029526
 21
17.221605
 31
0.2
  0
LINE
  8
PLAN_1
 62
4
 10
47.029526
 20
17.221605
 30
0.2
 11
46.890736
 21
17.39072
 31
0.2
  0
LINE
  8
PLAN_1
 62
4
 10
46.890736
 20
17.39072
 30
0.2
 11
46.724968
 21
17.526758
 31
0.2
  0
LINE
  8
PLAN_1
 62
4
 10
46.724968
 20
17.526758
 30
0.2
 11
50.525433
 21
21.327221
 31
0.2
  0
LINE
  8
PLAN_1
 62
4
 10
50.525433
 20
21.327221
 30
0.2
 11
50.58683
 21
21.402035
 31
0.2
  0
LINE
  8
PLAN_1
 62
4
 10
50.58683
 20
21.402035
 30
0.2
 11
50.632454
 21
21.487389
 31
0.2
  0
LINE
  8
PLAN_1
 62
4
 10
50.632454
 20
21.487389
 30
0.2
 11
50.660549
 21
21.580004
 31
0.2
  0
LINE
  8
PLAN_1
 62
4
 10
50.660549
 20
21.580004
 30
0.2
 11
50.670036
 21
21.676319
 31
0.2
  0
LINE
  8
PLAN_1
 62
4
 10
50.670036
 20
21.676319
 30
0.2
 11
50.670036
 21
28.12686
 31
0.2
  0
LINE
  8
PLAN_1
 62
4
 10
50.670036
 20
28.12686
 30
0.2
 11
50.660549
 21
28.223175
 31
0.2
  0
LINE
  8
PLAN_1
 62
4
 10
50.660549
 20
28.223175
 30
0.2
 11
50.632454
 21
28.31579
 31
0.2
  0
LINE
  8
PLAN_1
 62
4
 10
50.632454
 20
28.31579
 30
0.2
 11
50.58683
 21
28.401144
 31
0.2
  0
LINE
  8
PLAN_1
 62
4
 10
50.58683
 20
28.401144
 30
0.2
 11
50.525433
 21
28.475958
 31
0.2
  0
LINE
  8
PLAN_1
 62
4
 10
50.525433
 20
28.475958
 30
0.2
 11
49.971504
 21
29.029886
 31
0.2
  0
LINE
  8
PLAN_1
 62
4
 10
49.971504
 20
29.029886
 30
0.2
 11
49.971504
 21
30.081085
 31
0.2
  0
LINE
  8
PLAN_1
 62
4
 10
49.971504
 20
30.081085
 30
0.2
 11
49.895302
 21
30.081085
 31
0.2
  0
LINE
  8
PLAN_1
 62
4
 10
49.895302
 20
30.081085
 30
0.2
 11
49.895302
 21
34.783382
 31
0.2
  0
LINE
  8
PLAN_1
 62
4
 10
49.895302
 20
34.783382
 30
0.2
 11
49.930733
 21
34.812458
 31
0.2
  0
LINE
  8
PLAN_1
 62
4
 10
49.930733
 20
34.812458
 30
0.2
 11
50.069523
 21
34.981571
 31
0.2
  0
LINE
  8
PLAN_1
 62
4
 10
50.069523
 20
34.981571
 30
0.2
 11
50.172653
 21
35.174515
 31
0.2
  0
LINE
  8
PLAN_1
 62
4
 10
50.172653
 20
35.174515
 30
0.2
 11
50.23616
 21
35.383869
 31
0.2
  0
LINE
  8
PLAN_1
 62
4
 10
50.23616
 20
35.383869
 30
0.2
 11
50.257603
 21
35.601589
 31
0.2
  0
LINE
  8
PLAN_1
 62
4
 10
50.257603
 20
35.601589
 30
0.2
 11
50.23616
 21
35.819309
 31
0.2
  0
LINE
  8
PLAN_1
 62
4
 10
50.23616
 20
35.819309
 30
0.2
 11
50.172653
 21
36.028664
 31
0.2
  0
LINE
  8
PLAN_1
 62
4
 10
50.172653
 20
36.028664
 30
0.2
 11
50.069523
 21
36.221607
 31
0.2
  0
LINE
  8
PLAN_1
 62
4
 10
50.069523
 20
36.221607
 30
0.2
 11
49.930733
 21
36.39072
 31
0.2
  0
LINE
  8
PLAN_1
 62
4
 10
49.930733
 20
36.39072
 30
0.2
 11
49.76162
 21
36.52951
 31
0.2
  0
LINE
  8
PLAN_1
 62
4
 10
49.76162
 20
36.52951
 30
0.2
 11
49.568676
 21
36.632637
 31
0.2
  0
LINE
  8
PLAN_1
 62
4
 10
49.568676
 20
36.632637
 30
0.2
 11
49.359322
 21
36.696144
 31
0.2
  0
LINE
  8
PLAN_1
 62
4
 10
49.359322
 20
36.696144
 30
0.2
 11
49.141602
 21
36.71759
 31
0.2
  0
LINE
  8
PLAN_1
 62
4
 10
49.141602
 20
36.71759
 30
0.2
 11
48.923882
 21
36.696144
 31
0.2
  0
LINE
  8
PLAN_1
 62
4
 10
48.923882
 20
36.696144
 30
0.2
 11
48.714527
 21
36.632637
 31
0.2
  0
LINE
  8
PLAN_1
 62
4
 10
48.714527
 20
36.632637
 30
0.2
 11
48.521584
 21
36.52951
 31
0.2
  0
LINE
  8
PLAN_1
 62
4
 10
48.521584
 20
36.52951
 30
0.2
 11
48.35247
 21
36.39072
 31
0.2
  0
LINE
  8
PLAN_1
 62
4
 10
48.35247
 20
36.39072
 30
0.2
 11
48.213684
 21
36.221607
 31
0.2
  0
LINE
  8
PLAN_1
 62
4
 10
48.213684
 20
36.221607
 30
0.2
 11
48.11055
 21
36.028664
 31
0.2
  0
LINE
  8
PLAN_1
 62
4
 10
48.11055
 20
36.028664
 30
0.2
 11
48.047043
 21
35.819309
 31
0.2
  0
LINE
  8
PLAN_1
 62
4
 10
48.047043
 20
35.819309
 30
0.2
 11
48.025604
 21
35.601589
 31
0.2
  0
LINE
  8
PLAN_1
 62
4
 10
48.025604
 20
35.601589
 30
0.2
 11
48.047043
 21
35.383869
 31
0.2
  0
LINE
  8
PLAN_1
 62
4
 10
48.047043
 20
35.383869
 30
0.2
 11
48.11055
 21
35.174515
 31
0.2
  0
LINE
  8
PLAN_1
 62
4
 10
48.11055
 20
35.174515
 30
0.2
 11
48.213684
 21
34.981571
 31
0.2
  0
LINE
  8
PLAN_1
 62
4
 10
48.213684
 20
34.981571
 30
0.2
 11
48.35247
 21
34.812458
 31
0.2
  0
LINE
  8
PLAN_1
 62
4
 10
48.35247
 20
34.812458
 30
0.2
 11
48.521584
 21
34.673668
 31
0.2
  0
LINE
  8
PLAN_1
 62
4
 10
48.521584
 20
34.673668
 30
0.2
 11
48.714527
 21
34.570541
 31
0.2
  0
LINE
  8
PLAN_1
 62
4
 10
48.714527
 20
34.570541
 30
0.2
 11
48.907906
 21
34.511883
 31
0.2
  0
LINE
  8
PLAN_1
 62
4
 10
48.907906
 20
34.511883
 30
0.2
 11
48.907906
 21
30.081085
 31
0.2
  0
LINE
  8
PLAN_1
 62
4
 10
48.907906
 20
30.081085
 30
0.2
 11
48.831703
 21
30.081085
 31
0.2
  0
LINE
  8
PLAN_1
 62
4
 10
48.831703
 20
30.081085
 30
0.2
 11
48.831703
 21
27.722095
 31
0.2
  0
LINE
  8
PLAN_1
 62
4
 10
48.831703
 20
27.722095
 30
0.2
 11
49.682632
 21
27.722095
 31
0.2
  0
LINE
  8
PLAN_1
 62
4
 10
49.682632
 20
27.722095
 30
0.2
 11
49.682632
 21
21.880816
 31
0.2
  0
LINE
  8
PLAN_1
 62
4
 10
49.682632
 20
21.880816
 30
0.2
 11
45.752506
 21
17.950687
 31
0.2
  0
LINE
  8
PLAN_1
 62
4
 10
45.752506
 20
17.950687
 30
0.2
 11
45.691109
 21
17.875874
 31
0.2
  0
LINE
  8
PLAN_1
 62
4
 10
45.691109
 20
17.875874
 30
0.2
 11
45.645485
 21
17.79052
 31
0.2
  0
LINE
  8
PLAN_1
 62
4
 10
45.645485
 20
17.79052
 30
0.2
 11
45.617393
 21
17.697905
 31
0.2
  0
LINE
  8
PLAN_1
 62
4
 10
45.617393
 20
17.697905
 30
0.2
 11
45.607903
 21
17.597027
 31
0.2
  0
LINE
  8
PLAN_1
 62
4
 10
45.607903
 20
17.597027
 30
0.2
 11
45.48159
 21
17.529509
 31
0.2
  0
LINE
  8
PLAN_1
 62
4
 10
45.48159
 20
17.529509
 30
0.2
 11
45.312473
 21
17.39072
 31
0.2
  0
LINE
  8
PLAN_1
 62
4
 10
45.312473
 20
17.39072
 30
0.2
 11
45.173683
 21
17.221605
 31
0.2
  0
LINE
  8
PLAN_1
 62
4
 10
45.173683
 20
17.221605
 30
0.2
 11
45.070557
 21
17.028664
 31
0.2
  0
LINE
  8
PLAN_1
 62
4
 10
45.070557
 20
17.028664
 30
0.2
 11
45.00705
 21
16.819309
 31
0.2
  0
LINE
  8
PLAN_1
 62
4
 10
45.00705
 20
16.819309
 30
0.2
 11
44.985603
 21
16.601589
 31
0.2
  0
LINE
  8
PLAN_1
 62
4
 10
44.985603
 20
16.601589
 30
0.2
 11
45.00705
 21
16.383869
 31
0.2
  0
LINE
  8
PLAN_1
 62
4
 10
45.00705
 20
16.383869
 30
0.2
 11
45.048626
 21
16.246807
 31
0.2
  0
LINE
  8
PLAN_1
 62
4
 10
45.048626
 20
16.246807
 30
0.2
 11
42.39711
 21
13.59529
 31
0.2
  0
LINE
  8
PLAN_1
 62
4
 10
42.39711
 20
13.59529
 30
0.2
 11
37.293503
 21
13.59529
 31
0.2
  0
LINE
  8
PLAN_1
 62
4
 10
37.293503
 20
13.59529
 30
0.2
 11
37.410702
 21
13.712492
 31
0.2
  0
LINE
  8
PLAN_1
 62
4
 10
37.410702
 20
13.712492
 30
0.2
 11
37.472099
 21
13.787305
 31
0.2
  0
LINE
  8
PLAN_1
 62
4
 10
37.472099
 20
13.787305
 30
0.2
 11
37.517723
 21
13.87266
 31
0.2
  0
LINE
  8
PLAN_1
 62
4
 10
37.517723
 20
13.87266
 30
0.2
 11
37.545815
 21
13.965274
 31
0.2
  0
LINE
  8
PLAN_1
 62
4
 10
37.545815
 20
13.965274
 30
0.2
 11
37.555305
 21
14.06159
 31
0.2
  0
LINE
  8
PLAN_1
 62
4
 10
37.555305
 20
14.06159
 30
0.2
 11
37.555305
 21
14.48559
 31
0.2
  0
LINE
  8
PLAN_1
 62
4
 10
37.555305
 20
14.48559
 30
0.2
 11
38.177605
 21
14.48559
 31
0.2
  0
LINE
  8
PLAN_1
 62
4
 10
38.177605
 20
14.48559
 30
0.2
 11
38.177605
 21
16.71759
 31
0.2
  0
LINE
  8
PLAN_1
 62
4
 10
38.177605
 20
16.71759
 30
0.2
 11
35.945602
 21
16.71759
 31
0.2
  0
LINE
  8
PLAN_1
 62
4
 10
35.945602
 20
16.71759
 30
0.2
 11
35.945602
 21
14.48559
 31
0.2
  0
LINE
  8
PLAN_1
 62
4
 10
35.945602
 20
14.48559
 30
0.2
 11
36.567902
 21
14.48559
 31
0.2
  0
LINE
  8
PLAN_1
 62
4
 10
36.567902
 20
14.48559
 30
0.2
 11
36.567902
 21
14.266087
 31
0.2
  0
LINE
  8
PLAN_1
 62
4
 10
36.567902
 20
14.266087
 30
0.2
 11
35.89711
 21
13.59529
 31
0.2
  0
LINE
  8
PLAN_1
 62
4
 10
35.89711
 20
13.59529
 30
0.2
 11
31.555302
 21
13.59529
 31
0.2
  0
LINE
  8
PLAN_1
 62
4
 10
31.555302
 20
13.59529
 30
0.2
 11
31.555302
 21
14.48559
 31
0.2
  0
LINE
  8
PLAN_1
 62
4
 10
31.555302
 20
14.48559
 30
0.2
 11
32.177605
 21
14.48559
 31
0.2
  0
LINE
  8
PLAN_1
 62
4
 10
32.177605
 20
14.48559
 30
0.2
 11
32.177605
 21
16.71759
 31
0.2
  0
LINE
  8
PLAN_1
 62
4
 10
32.177605
 20
16.71759
 30
0.2
 11
29.945602
 21
16.71759
 31
0.2
  0
LINE
  8
PLAN_1
 62
4
 10
29.945602
 20
16.71759
 30
0.2
 11
29.945602
 21
14.48559
 31
0.2
  0
LINE
  8
PLAN_1
 62
4
 10
29.945602
 20
14.48559
 30
0.2
 11
30.567905
 21
14.48559
 31
0.2
  0
LINE
  8
PLAN_1
 62
4
 10
30.567905
 20
14.48559
 30
0.2
 11
30.567905
 21
13.59529
 31
0.2
  0
LINE
  8
PLAN_1
 62
4
 10
30.567905
 20
13.59529
 30
0.2
 11
25.595303
 21
13.59529
 31
0.2
  0
LINE
  8
PLAN_1
 62
4
 10
25.595303
 20
13.59529
 30
0.2
 11
25.595303
 21
14.48559
 31
0.2
  0
LINE
  8
PLAN_1
 62
4
 10
25.595303
 20
14.48559
 30
0.2
 11
26.217606
 21
14.48559
 31
0.2
  0
LINE
  8
PLAN_1
 62
4
 10
26.217606
 20
14.48559
 30
0.2
 11
26.217606
 21
16.71759
 31
0.2
  0
LINE
  8
PLAN_1
 62
4
 10
26.217606
 20
16.71759
 30
0.2
 11
25.595303
 21
16.71759
 31
0.2
  0
LINE
  8
PLAN_1
 62
4
 10
25.595303
 20
16.71759
 30
0.2
 11
25.595303
 21
31.477091
 31
0.2
  0
LINE
  8
PLAN_1
 62
4
 10
25.595303
 20
31.477091
 30
0.2
 11
28.103798
 21
33.985588
 31
0.2
  0
LINE
  8
PLAN_1
 62
4
 10
28.103798
 20
33.985588
 30
0.2
 11
29.637604
 21
33.985588
 31
0.2
  0
LINE
  8
PLAN_1
 62
4
 10
29.637604
 20
33.985588
 30
0.2
 11
29.637604
 21
36.21759
 31
0.2
  0
LINE
  8
PLAN_1
 62
4
 10
29.637604
 20
36.21759
 30
0.2
 11
27.405602
 21
36.21759
 31
0.2
  0
LINE
  8
PLAN_1
 62
4
 10
27.405602
 20
36.21759
 30
0.2
 11
27.405602
 21
34.683784
 31
0.2
  0
LINE
  8
PLAN_1
 62
4
 10
27.405602
 20
34.683784
 30
0.2
 11
24.752506
 21
32.030689
 31
0.2
  0
LINE
  8
PLAN_1
 62
4
 10
24.752506
 20
32.030689
 30
0.2
 11
24.691109
 21
31.955873
 31
0.2
  0
LINE
  8
PLAN_1
 62
4
 10
24.691109
 20
31.955873
 30
0.2
 11
24.645485
 21
31.87052
 31
0.2
  0
LINE
  8
PLAN_1
 62
4
 10
24.645485
 20
31.87052
 30
0.2
 11
24.61739
 21
31.777905
 31
0.2
  0
LINE
  8
PLAN_1
 62
4
 10
24.61739
 20
31.777905
 30
0.2
 11
24.607906
 21
31.681589
 31
0.2
  0
LINE
  8
PLAN_1
 62
4
 10
24.607906
 20
31.681589
 30
0.2
 11
24.607906
 21
16.71759
 31
0.2
  0
LINE
  8
PLAN_1
 62
4
 10
24.607906
 20
16.71759
 30
0.2
 11
23.985603
 21
16.71759
 31
0.2
  0
LINE
  8
PLAN_1
 62
4
 10
23.985603
 20
16.71759
 30
0.2
 11
23.985603
 21
14.48559
 31
0.2
  0
LINE
  8
PLAN_1
 62
4
 10
23.985603
 20
14.48559
 30
0.2
 11
24.607906
 21
14.48559
 31
0.2
  0
LINE
  8
PLAN_1
 62
4
 10
24.607906
 20
14.48559
 30
0.2
 11
24.607906
 21
13.59529
 31
0.2
  0
LINE
  8
PLAN_1
 62
4
 10
24.607906
 20
13.59529
 30
0.2
 11
16.806099
 21
13.59529
 31
0.2
  0
LINE
  8
PLAN_1
 62
4
 10
16.806099
 20
13.59529
 30
0.2
 11
16.595303
 21
13.806087
 31
0.2
  0
LINE
  8
PLAN_1
 62
4
 10
16.595303
 20
13.806087
 30
0.2
 11
16.595303
 21
14.48559
 31
0.2
  0
LINE
  8
PLAN_1
 62
4
 10
16.595303
 20
14.48559
 30
0.2
 11
17.177605
 21
14.48559
 31
0.2
  0
LINE
  8
PLAN_1
 62
4
 10
17.177605
 20
14.48559
 30
0.2
 11
17.177605
 21
16.71759
 31
0.2
  0
LINE
  8
PLAN_1
 62
4
 10
17.177605
 20
16.71759
 30
0.2
 11
14.945602
 21
16.71759
 31
0.2
  0
LINE
  8
PLAN_1
 62
4
 10
14.945602
 20
16.71759
 30
0.2
 11
14.945602
 21
14.48559
 31
0.2
  0
LINE
  8
PLAN_1
 62
4
 10
14.945602
 20
14.48559
 30
0.2
 11
15.607906
 21
14.48559
 31
0.2
  0
LINE
  8
PLAN_1
 62
4
 10
15.607906
 20
14.48559
 30
0.2
 11
15.607906
 21
13.60159
 31
0.2
  0
LINE
  8
PLAN_1
 62
4
 10
15.607906
 20
13.60159
 30
0.2
 11
15.61739
 21
13.505274
 31
0.2
  0
LINE
  8
PLAN_1
 62
4
 10
15.61739
 20
13.505274
 30
0.2
 11
15.645485
 21
13.41266
 31
0.2
  0
LINE
  8
PLAN_1
 62
4
 10
15.645485
 20
13.41266
 30
0.2
 11
15.691109
 21
13.327305
 31
0.2
  0
LINE
  8
PLAN_1
 62
4
 10
15.691109
 20
13.327305
 30
0.2
 11
15.752506
 21
13.252492
 31
0.2
  0
LINE
  8
PLAN_1
 62
4
 10
15.752506
 20
13.252492
 30
0.2
 11
16.252506
 21
12.752492
 31
0.2
  0
LINE
  8
PLAN_1
 62
4
 10
16.252506
 20
12.752492
 30
0.2
 11
16.32732
 21
12.691093
 31
0.2
  0
LINE
  8
PLAN_1
 62
4
 10
16.32732
 20
12.691093
 30
0.2
 11
16.412674
 21
12.645471
 31
0.2
  0
LINE
  8
PLAN_1
 62
4
 10
16.412674
 20
12.645471
 30
0.2
 11
16.505287
 21
12.617376
 31
0.2
  0
LINE
  8
PLAN_1
 62
4
 10
16.505287
 20
12.617376
 30
0.2
 11
16.601604
 21
12.60789
 31
0.2
  0
LINE
  8
PLAN_1
 62
4
 10
16.601604
 20
12.60789
 30
0.2
 11
25.101604
 21
12.60789
 31
0.2
  0
LINE
  8
PLAN_1
 62
4
 10
25.101604
 20
12.60789
 30
0.2
 11
31.101604
 21
12.60789
 31
0.2
  0
LINE
  8
PLAN_1
 62
4
 10
31.101604
 20
12.60789
 30
0.2
 11
36.101604
 21
12.60789
 31
0.2
  0
LINE
  8
PLAN_1
 62
4
 10
36.101604
 20
12.60789
 30
0.2
 11
42.601604
 21
12.60789
 31
0.2
  0
LINE
  8
PLAN_1
 62
4
 10
42.601604
 20
12.60789
 30
0.2
 11
42.697922
 21
12.617376
 31
0.2
  0
LINE
  8
PLAN_1
 62
4
 10
42.697922
 20
12.617376
 30
0.2
 11
42.790535
 21
12.645471
 31
0.2
  0
LINE
  8
PLAN_1
 62
4
 10
42.790535
 20
12.645471
 30
0.2
 11
42.875889
 21
12.691093
 31
0.2
  0
LINE
  8
PLAN_1
 62
4
 10
42.875889
 20
12.691093
 30
0.2
 11
42.950703
 21
12.752491
 31
0.2
  0
LINE
  8
PLAN_1
 62
4
 10
42.950703
 20
12.752491
 30
0.2
 11
45.746822
 21
15.54861
 31
0.2
  0
LINE
  8
PLAN_1
 62
4
 10
45.746822
 20
15.54861
 30
0.2
 11
45.883884
 21
15.507032
 31
0.2
  0
LINE
  8
PLAN_1
 62
4
 10
45.883884
 20
15.507032
 30
0.2
 11
46.101604
 21
15.485589
 31
0.2
  0
LINE
  8
PLAN_1
 62
4
 10
46.101604
 20
15.485589
 30
0.2
 11
46.319324
 21
15.507032
 31
0.2
  0
LINE
  8
PLAN_1
 62
4
 10
46.319324
 20
15.507032
 30
0.2
 11
46.528679
 21
15.570539
 31
0.2
  0
LINE
  8
PLAN_1
 62
4
 10
46.528679
 20
15.570539
 30
0.2
 11
46.721619
 21
15.673669
 31
0.2
  0
LINE
  8
PLAN_1
 62
4
 10
46.721619
 20
15.673669
 30
0.2
 11
46.890736
 21
15.812458
 31
0.2
  0
LINE
  8
PLAN_1
 62
4
 10
46.890736
 20
15.812458
 30
0.2
 11
47.029526
 21
15.981573
 31
0.2
  0
LINE
  8
PLAN_1
 62
4
 10
47.029526
 20
15.981573
 30
0.2
 11
47.132652
 21
16.174515
 31
0.2
  0
LINE
  8
PLAN_1
 62
4
 10
47.132652
 20
16.174515
 30
0.2
 11
47.196159
 21
16.383869
 31
0.2
  0
LINE
  8
PLAN_1
 62
4
 10
47.196159
 20
16.383869
 30
0.2
 11
47.217606
 21
16.601589
 31
0.2
  0
LINE
  8
PLAN_1
 62
4
 10
48.827202
 20
21.922094
 30
0.2
 11
48.827202
 21
24.281084
 31
0.2
  0
LINE
  8
PLAN_1
 62
4
 10
48.827202
 20
24.281084
 30
0.2
 11
47.595306
 21
24.281084
 31
0.2
  0
LINE
  8
PLAN_1
 62
4
 10
47.595306
 20
24.281084
 30
0.2
 11
47.595306
 21
27.722095
 31
0.2
  0
LINE
  8
PLAN_1
 62
4
 10
47.595306
 20
27.722095
 30
0.2
 11
47.671505
 21
27.722095
 31
0.2
  0
LINE
  8
PLAN_1
 62
4
 10
47.671505
 20
27.722095
 30
0.2
 11
47.671505
 21
30.081085
 31
0.2
  0
LINE
  8
PLAN_1
 62
4
 10
47.671505
 20
30.081085
 30
0.2
 11
47.595306
 21
30.081085
 31
0.2
  0
LINE
  8
PLAN_1
 62
4
 10
47.595306
 20
30.081085
 30
0.2
 11
47.595306
 21
31.986588
 31
0.2
  0
LINE
  8
PLAN_1
 62
4
 10
47.595306
 20
31.986588
 30
0.2
 11
47.585819
 21
32.082905
 31
0.2
  0
LINE
  8
PLAN_1
 62
4
 10
47.585819
 20
32.082905
 30
0.2
 11
47.557724
 21
32.175518
 31
0.2
  0
LINE
  8
PLAN_1
 62
4
 10
47.557724
 20
32.175518
 30
0.2
 11
47.5121
 21
32.260872
 31
0.2
  0
LINE
  8
PLAN_1
 62
4
 10
47.5121
 20
32.260872
 30
0.2
 11
47.450706
 21
32.335686
 31
0.2
  0
LINE
  8
PLAN_1
 62
4
 10
47.450706
 20
32.335686
 30
0.2
 11
47.095306
 21
32.69109
 31
0.2
  0
LINE
  8
PLAN_1
 62
4
 10
47.095306
 20
32.69109
 30
0.2
 11
47.095306
 21
34.606152
 31
0.2
  0
LINE
  8
PLAN_1
 62
4
 10
47.095306
 20
34.606152
 30
0.2
 11
47.221619
 21
34.673668
 31
0.2
  0
LINE
  8
PLAN_1
 62
4
 10
47.221619
 20
34.673668
 30
0.2
 11
47.390736
 21
34.812458
 31
0.2
  0
LINE
  8
PLAN_1
 62
4
 10
47.390736
 20
34.812458
 30
0.2
 11
47.529526
 21
34.981571
 31
0.2
  0
LINE
  8
PLAN_1
 62
4
 10
47.529526
 20
34.981571
 30
0.2
 11
47.632652
 21
35.174515
 31
0.2
  0
LINE
  8
PLAN_1
 62
4
 10
47.632652
 20
35.174515
 30
0.2
 11
47.696159
 21
35.383869
 31
0.2
  0
LINE
  8
PLAN_1
 62
4
 10
47.696159
 20
35.383869
 30
0.2
 11
47.717606
 21
35.601589
 31
0.2
  0
LINE
  8
PLAN_1
 62
4
 10
47.717606
 20
35.601589
 30
0.2
 11
47.696159
 21
35.819309
 31
0.2
  0
LINE
  8
PLAN_1
 62
4
 10
47.696159
 20
35.819309
 30
0.2
 11
47.632652
 21
36.028664
 31
0.2
  0
LINE
  8
PLAN_1
 62
4
 10
47.632652
 20
36.028664
 30
0.2
 11
47.529526
 21
36.221607
 31
0.2
  0
LINE
  8
PLAN_1
 62
4
 10
47.529526
 20
36.221607
 30
0.2
 11
47.390736
 21
36.39072
 31
0.2
  0
LINE
  8
PLAN_1
 62
4
 10
47.390736
 20
36.39072
 30
0.2
 11
47.221619
 21
36.52951
 31
0.2
  0
LINE
  8
PLAN_1
 62
4
 10
47.221619
 20
36.52951
 30
0.2
 11
47.028679
 21
36.632637
 31
0.2
  0
LINE
  8
PLAN_1
 62
4
 10
47.028679
 20
36.632637
 30
0.2
 11
46.819324
 21
36.696144
 31
0.2
  0
LINE
  8
PLAN_1
 62
4
 10
46.819324
 20
36.696144
 30
0.2
 11
46.601604
 21
36.71759
 31
0.2
  0
LINE
  8
PLAN_1
 62
4
 10
46.601604
 20
36.71759
 30
0.2
 11
46.383884
 21
36.696144
 31
0.2
  0
LINE
  8
PLAN_1
 62
4
 10
46.383884
 20
36.696144
 30
0.2
 11
46.17453
 21
36.632637
 31
0.2
  0
LINE
  8
PLAN_1
 62
4
 10
46.17453
 20
36.632637
 30
0.2
 11
45.98159
 21
36.52951
 31
0.2
  0
LINE
  8
PLAN_1
 62
4
 10
45.98159
 20
36.52951
 30
0.2
 11
45.812473
 21
36.39072
 31
0.2
  0
LINE
  8
PLAN_1
 62
4
 10
45.812473
 20
36.39072
 30
0.2
 11
45.673683
 21
36.221607
 31
0.2
  0
LINE
  8
PLAN_1
 62
4
 10
45.673683
 20
36.221607
 30
0.2
 11
45.570557
 21
36.028664
 31
0.2
  0
LINE
  8
PLAN_1
 62
4
 10
45.570557
 20
36.028664
 30
0.2
 11
45.50705
 21
35.819309
 31
0.2
  0
LINE
  8
PLAN_1
 62
4
 10
45.50705
 20
35.819309
 30
0.2
 11
45.485603
 21
35.601589
 31
0.2
  0
LINE
  8
PLAN_1
 62
4
 10
45.485603
 20
35.601589
 30
0.2
 11
45.50705
 21
35.383869
 31
0.2
  0
LINE
  8
PLAN_1
 62
4
 10
45.50705
 20
35.383869
 30
0.2
 11
45.570557
 21
35.174515
 31
0.2
  0
LINE
  8
PLAN_1
 62
4
 10
45.570557
 20
35.174515
 30
0.2
 11
45.673683
 21
34.981571
 31
0.2
  0
LINE
  8
PLAN_1
 62
4
 10
45.673683
 20
34.981571
 30
0.2
 11
45.812473
 21
34.812458
 31
0.2
  0
LINE
  8
PLAN_1
 62
4
 10
45.812473
 20
34.812458
 30
0.2
 11
45.98159
 21
34.673668
 31
0.2
  0
LINE
  8
PLAN_1
 62
4
 10
45.98159
 20
34.673668
 30
0.2
 11
46.107903
 21
34.606152
 31
0.2
  0
LINE
  8
PLAN_1
 62
4
 10
46.107903
 20
34.606152
 30
0.2
 11
46.107903
 21
32.486591
 31
0.2
  0
LINE
  8
PLAN_1
 62
4
 10
46.107903
 20
32.486591
 30
0.2
 11
46.117393
 21
32.390274
 31
0.2
  0
LINE
  8
PLAN_1
 62
4
 10
46.117393
 20
32.390274
 30
0.2
 11
46.145485
 21
32.297661
 31
0.2
  0
LINE
  8
PLAN_1
 62
4
 10
46.145485
 20
32.297661
 30
0.2
 11
46.191109
 21
32.212307
 31
0.2
  0
LINE
  8
PLAN_1
 62
4
 10
46.191109
 20
32.212307
 30
0.2
 11
46.252502
 21
32.137493
 31
0.2
  0
LINE
  8
PLAN_1
 62
4
 10
46.252502
 20
32.137493
 30
0.2
 11
46.607903
 21
31.782091
 31
0.2
  0
LINE
  8
PLAN_1
 62
4
 10
46.607903
 20
31.782091
 30
0.2
 11
46.607903
 21
30.081085
 31
0.2
  0
LINE
  8
PLAN_1
 62
4
 10
46.607903
 20
30.081085
 30
0.2
 11
46.531704
 21
30.081085
 31
0.2
  0
LINE
  8
PLAN_1
 62
4
 10
46.531704
 20
30.081085
 30
0.2
 11
46.531704
 21
27.722095
 31
0.2
  0
LINE
  8
PLAN_1
 62
4
 10
46.531704
 20
27.722095
 30
0.2
 11
46.607903
 21
27.722095
 31
0.2
  0
LINE
  8
PLAN_1
 62
4
 10
46.607903
 20
27.722095
 30
0.2
 11
46.607903
 21
24.281084
 31
0.2
  0
LINE
  8
PLAN_1
 62
4
 10
46.607903
 20
24.281084
 30
0.2
 11
45.376007
 21
24.281084
 31
0.2
  0
LINE
  8
PLAN_1
 62
4
 10
45.376007
 20
24.281084
 30
0.2
 11
45.376007
 21
23.595289
 31
0.2
  0
LINE
  8
PLAN_1
 62
4
 10
45.376007
 20
23.595289
 30
0.2
 11
44.07943
 21
23.595289
 31
0.2
  0
LINE
  8
PLAN_1
 62
4
 10
44.07943
 20
23.595289
 30
0.2
 11
42.861961
 21
24.812756
 31
0.2
  0
LINE
  8
PLAN_1
 62
4
 10
42.861961
 20
24.812756
 30
0.2
 11
42.861961
 21
30.97492
 31
0.2
  0
LINE
  8
PLAN_1
 62
4
 10
42.861961
 20
30.97492
 30
0.2
 11
42.852478
 21
31.071236
 31
0.2
  0
LINE
  8
PLAN_1
 62
4
 10
42.852478
 20
31.071236
 30
0.2
 11
42.824383
 21
31.163851
 31
0.2
  0
LINE
  8
PLAN_1
 62
4
 10
42.824383
 20
31.163851
 30
0.2
 11
42.778759
 21
31.249205
 31
0.2
  0
LINE
  8
PLAN_1
 62
4
 10
42.778759
 20
31.249205
 30
0.2
 11
42.717361
 21
31.324018
 31
0.2
  0
LINE
  8
PLAN_1
 62
4
 10
42.717361
 20
31.324018
 30
0.2
 11
40.96196
 21
33.079418
 31
0.2
  0
LINE
  8
PLAN_1
 62
4
 10
40.96196
 20
33.079418
 30
0.2
 11
40.96196
 21
35.70826
 31
0.2
  0
LINE
  8
PLAN_1
 62
4
 10
40.96196
 20
35.70826
 30
0.2
 11
40.952477
 21
35.804577
 31
0.2
  0
LINE
  8
PLAN_1
 62
4
 10
40.952477
 20
35.804577
 30
0.2
 11
40.924381
 21
35.89719
 31
0.2
  0
LINE
  8
PLAN_1
 62
4
 10
40.924381
 20
35.89719
 30
0.2
 11
40.878757
 21
35.982544
 31
0.2
  0
LINE
  8
PLAN_1
 62
4
 10
40.878757
 20
35.982544
 30
0.2
 11
40.81736
 21
36.057358
 31
0.2
  0
LINE
  8
PLAN_1
 62
4
 10
40.81736
 20
36.057358
 30
0.2
 11
39.58403
 21
37.290688
 31
0.2
  0
LINE
  8
PLAN_1
 62
4
 10
39.58403
 20
37.290688
 30
0.2
 11
38.884033
 21
37.990688
 31
0.2
  0
LINE
  8
PLAN_1
 62
4
 10
38.884033
 20
37.990688
 30
0.2
 11
38.809219
 21
38.052086
 31
0.2
  0
LINE
  8
PLAN_1
 62
4
 10
38.809219
 20
38.052086
 30
0.2
 11
38.723866
 21
38.09771
 31
0.2
  0
LINE
  8
PLAN_1
 62
4
 10
38.723866
 20
38.09771
 30
0.2
 11
38.631248
 21
38.125805
 31
0.2
  0
LINE
  8
PLAN_1
 62
4
 10
38.631248
 20
38.125805
 30
0.2
 11
38.534935
 21
38.135288
 31
0.2
  0
LINE
  8
PLAN_1
 62
4
 10
38.534935
 20
38.135288
 30
0.2
 11
37.257599
 21
38.135288
 31
0.2
  0
LINE
  8
PLAN_1
 62
4
 10
37.257599
 20
38.135288
 30
0.2
 11
37.257599
 21
38.757591
 31
0.2
  0
LINE
  8
PLAN_1
 62
4
 10
37.257599
 20
38.757591
 30
0.2
 11
36.6353
 21
38.757591
 31
0.2
  0
LINE
  8
PLAN_1
 62
4
 10
36.6353
 20
38.757591
 30
0.2
 11
36.6353
 21
39.716591
 31
0.2
  0
LINE
  8
PLAN_1
 62
4
 10
36.6353
 20
39.716591
 30
0.2
 11
36.625816
 21
39.812908
 31
0.2
  0
LINE
  8
PLAN_1
 62
4
 10
36.625816
 20
39.812908
 30
0.2
 11
36.597721
 21
39.905521
 31
0.2
  0
LINE
  8
PLAN_1
 62
4
 10
36.597721
 20
39.905521
 30
0.2
 11
36.552097
 21
39.990875
 31
0.2
  0
LINE
  8
PLAN_1
 62
4
 10
36.552097
 20
39.990875
 30
0.2
 11
36.4907
 21
40.065689
 31
0.2
  0
LINE
  8
PLAN_1
 62
4
 10
36.4907
 20
40.065689
 30
0.2
 11
36.415886
 21
40.127087
 31
0.2
  0
LINE
  8
PLAN_1
 62
4
 10
36.415886
 20
40.127087
 30
0.2
 11
36.330532
 21
40.17271
 31
0.2
  0
LINE
  8
PLAN_1
 62
4
 10
36.330532
 20
40.17271
 30
0.2
 11
36.237915
 21
40.200806
 31
0.2
  0
LINE
  8
PLAN_1
 62
4
 10
36.237915
 20
40.200806
 30
0.2
 11
36.141602
 21
40.210289
 31
0.2
  0
LINE
  8
PLAN_1
 62
4
 10
36.141602
 20
40.210289
 30
0.2
 11
35.721603
 21
40.210289
 31
0.2
  0
LINE
  8
PLAN_1
 62
4
 10
35.721603
 20
40.210289
 30
0.2
 11
24.406605
 21
40.210289
 31
0.2
  0
LINE
  8
PLAN_1
 62
4
 10
24.406605
 20
40.210289
 30
0.2
 11
24.310287
 21
40.200806
 31
0.2
  0
LINE
  8
PLAN_1
 62
4
 10
24.310287
 20
40.200806
 30
0.2
 11
24.217674
 21
40.17271
 31
0.2
  0
LINE
  8
PLAN_1
 62
4
 10
24.217674
 20
40.17271
 30
0.2
 11
24.13232
 21
40.127087
 31
0.2
  0
LINE
  8
PLAN_1
 62
4
 10
24.13232
 20
40.127087
 30
0.2
 11
24.057507
 21
40.065689
 31
0.2
  0
LINE
  8
PLAN_1
 62
4
 10
24.057507
 20
40.065689
 30
0.2
 11
22.212505
 21
38.220688
 31
0.2
  0
LINE
  8
PLAN_1
 62
4
 10
22.212505
 20
38.220688
 30
0.2
 11
22.151108
 21
38.145874
 31
0.2
  0
LINE
  8
PLAN_1
 62
4
 10
22.151108
 20
38.145874
 30
0.2
 11
22.105484
 21
38.06052
 31
0.2
  0
LINE
  8
PLAN_1
 62
4
 10
22.105484
 20
38.06052
 30
0.2
 11
22.077389
 21
37.967907
 31
0.2
  0
LINE
  8
PLAN_1
 62
4
 10
22.077389
 20
37.967907
 30
0.2
 11
22.067905
 21
37.87159
 31
0.2
  0
LINE
  8
PLAN_1
 62
4
 10
22.067905
 20
37.87159
 30
0.2
 11
22.067905
 21
16.71759
 31
0.2
  0
LINE
  8
PLAN_1
 62
4
 10
22.067905
 20
16.71759
 30
0.2
 11
21.445602
 21
16.71759
 31
0.2
  0
LINE
  8
PLAN_1
 62
4
 10
21.445602
 20
16.71759
 30
0.2
 11
21.445602
 21
14.48559
 31
0.2
  0
LINE
  8
PLAN_1
 62
4
 10
21.445602
 20
14.48559
 30
0.2
 11
23.677605
 21
14.48559
 31
0.2
  0
LINE
  8
PLAN_1
 62
4
 10
23.677605
 20
14.48559
 30
0.2
 11
23.677605
 21
16.71759
 31
0.2
  0
LINE
  8
PLAN_1
 62
4
 10
23.677605
 20
16.71759
 30
0.2
 11
23.055302
 21
16.71759
 31
0.2
  0
LINE
  8
PLAN_1
 62
4
 10
23.055302
 20
16.71759
 30
0.2
 11
23.055302
 21
37.667091
 31
0.2
  0
LINE
  8
PLAN_1
 62
4
 10
23.055302
 20
37.667091
 30
0.2
 11
24.611103
 21
39.222893
 31
0.2
  0
LINE
  8
PLAN_1
 62
4
 10
24.611103
 20
39.222893
 30
0.2
 11
35.647903
 21
39.222893
 31
0.2
  0
LINE
  8
PLAN_1
 62
4
 10
35.647903
 20
39.222893
 30
0.2
 11
35.647903
 21
38.757591
 31
0.2
  0
LINE
  8
PLAN_1
 62
4
 10
35.647903
 20
38.757591
 30
0.2
 11
35.025604
 21
38.757591
 31
0.2
  0
LINE
  8
PLAN_1
 62
4
 10
35.025604
 20
38.757591
 30
0.2
 11
35.025604
 21
36.525589
 31
0.2
  0
LINE
  8
PLAN_1
 62
4
 10
35.025604
 20
36.525589
 30
0.2
 11
37.257599
 21
36.525589
 31
0.2
  0
LINE
  8
PLAN_1
 62
4
 10
37.257599
 20
36.525589
 30
0.2
 11
37.257599
 21
37.147892
 31
0.2
  0
LINE
  8
PLAN_1
 62
4
 10
37.257599
 20
37.147892
 30
0.2
 11
38.330437
 21
37.147892
 31
0.2
  0
LINE
  8
PLAN_1
 62
4
 10
38.330437
 20
37.147892
 30
0.2
 11
38.885834
 21
36.592491
 31
0.2
  0
LINE
  8
PLAN_1
 62
4
 10
38.885834
 20
36.592491
 30
0.2
 11
39.974564
 21
35.503761
 31
0.2
  0
LINE
  8
PLAN_1
 62
4
 10
39.974564
 20
35.503761
 30
0.2
 11
39.974564
 21
32.87492
 31
0.2
  0
LINE
  8
PLAN_1
 62
4
 10
39.974564
 20
32.87492
 30
0.2
 11
39.984047
 21
32.778603
 31
0.2
  0
LINE
  8
PLAN_1
 62
4
 10
39.984047
 20
32.778603
 30
0.2
 11
40.012142
 21
32.685989
 31
0.2
  0
LINE
  8
PLAN_1
 62
4
 10
40.012142
 20
32.685989
 30
0.2
 11
40.057766
 21
32.600636
 31
0.2
  0
LINE
  8
PLAN_1
 62
4
 10
40.057766
 20
32.600636
 30
0.2
 11
40.119164
 21
32.525822
 31
0.2
  0
LINE
  8
PLAN_1
 62
4
 10
40.119164
 20
32.525822
 30
0.2
 11
41.874565
 21
30.770424
 31
0.2
  0
LINE
  8
PLAN_1
 62
4
 10
41.874565
 20
30.770424
 30
0.2
 11
41.874565
 21
24.608259
 31
0.2
  0
LINE
  8
PLAN_1
 62
4
 10
41.874565
 20
24.608259
 30
0.2
 11
41.884048
 21
24.511944
 31
0.2
  0
LINE
  8
PLAN_1
 62
4
 10
41.884048
 20
24.511944
 30
0.2
 11
41.912144
 21
24.419329
 31
0.2
  0
LINE
  8
PLAN_1
 62
4
 10
41.912144
 20
24.419329
 30
0.2
 11
41.957767
 21
24.333975
 31
0.2
  0
LINE
  8
PLAN_1
 62
4
 10
41.957767
 20
24.333975
 30
0.2
 11
42.019165
 21
24.259161
 31
0.2
  0
LINE
  8
PLAN_1
 62
4
 10
42.019165
 20
24.259161
 30
0.2
 11
43.525833
 21
22.752491
 31
0.2
  0
LINE
  8
PLAN_1
 62
4
 10
43.525833
 20
22.752491
 30
0.2
 11
43.600647
 21
22.691093
 31
0.2
  0
LINE
  8
PLAN_1
 62
4
 10
43.600647
 20
22.691093
 30
0.2
 11
43.686001
 21
22.64547
 31
0.2
  0
LINE
  8
PLAN_1
 62
4
 10
43.686001
 20
22.64547
 30
0.2
 11
43.778614
 21
22.617376
 31
0.2
  0
LINE
  8
PLAN_1
 62
4
 10
43.778614
 20
22.617376
 30
0.2
 11
43.874931
 21
22.607889
 31
0.2
  0
LINE
  8
PLAN_1
 62
4
 10
43.874931
 20
22.607889
 30
0.2
 11
45.376007
 21
22.607889
 31
0.2
  0
LINE
  8
PLAN_1
 62
4
 10
45.376007
 20
22.607889
 30
0.2
 11
45.376007
 21
21.922094
 31
0.2
  0
LINE
  8
PLAN_1
 62
4
 10
45.376007
 20
21.922094
 30
0.2
 11
48.827202
 21
21.922094
 31
0.2
  0
LINE
  8
PLAN_1
 62
4
 10
40.095306
 20
21.92602
 30
0.2
 11
40.085815
 21
22.022335
 31
0.2
  0
LINE
  8
PLAN_1
 62
4
 10
40.085815
 20
22.022335
 30
0.2
 11
40.057724
 21
22.11495
 31
0.2
  0
LINE
  8
PLAN_1
 62
4
 10
40.057724
 20
22.11495
 30
0.2
 11
40.0121
 21
22.200304
 31
0.2
  0
LINE
  8
PLAN_1
 62
4
 10
40.0121
 20
22.200304
 30
0.2
 11
39.950703
 21
22.275118
 31
0.2
  0
LINE
  8
PLAN_1
 62
4
 10
39.950703
 20
22.275118
 30
0.2
 11
38.825424
 21
23.400396
 31
0.2
  0
LINE
  8
PLAN_1
 62
4
 10
38.825424
 20
23.400396
 30
0.2
 11
38.825424
 21
29.734501
 31
0.2
  0
LINE
  8
PLAN_1
 62
4
 10
38.825424
 20
29.734501
 30
0.2
 11
38.815941
 21
29.830816
 31
0.2
  0
LINE
  8
PLAN_1
 62
4
 10
38.815941
 20
29.830816
 30
0.2
 11
38.787846
 21
29.923431
 31
0.2
  0
LINE
  8
PLAN_1
 62
4
 10
38.787846
 20
29.923431
 30
0.2
 11
38.742222
 21
30.008785
 31
0.2
  0
LINE
  8
PLAN_1
 62
4
 10
38.742222
 20
30.008785
 30
0.2
 11
38.680824
 21
30.083601
 31
0.2
  0
LINE
  8
PLAN_1
 62
4
 10
38.680824
 20
30.083601
 30
0.2
 11
38.077251
 21
30.687168
 31
0.2
  0
LINE
  8
PLAN_1
 62
4
 10
38.077251
 20
30.687168
 30
0.2
 11
36.6353
 21
32.12912
 31
0.2
  0
LINE
  8
PLAN_1
 62
4
 10
36.6353
 20
32.12912
 30
0.2
 11
36.6353
 21
33.985588
 31
0.2
  0
LINE
  8
PLAN_1
 62
4
 10
36.6353
 20
33.985588
 30
0.2
 11
37.257599
 21
33.985588
 31
0.2
  0
LINE
  8
PLAN_1
 62
4
 10
37.257599
 20
33.985588
 30
0.2
 11
37.257599
 21
36.21759
 31
0.2
  0
LINE
  8
PLAN_1
 62
4
 10
37.257599
 20
36.21759
 30
0.2
 11
35.025604
 21
36.21759
 31
0.2
  0
LINE
  8
PLAN_1
 62
4
 10
35.025604
 20
36.21759
 30
0.2
 11
35.025604
 21
33.985588
 31
0.2
  0
LINE
  8
PLAN_1
 62
4
 10
35.025604
 20
33.985588
 30
0.2
 11
35.647903
 21
33.985588
 31
0.2
  0
LINE
  8
PLAN_1
 62
4
 10
35.647903
 20
33.985588
 30
0.2
 11
35.647903
 21
31.92462
 31
0.2
  0
LINE
  8
PLAN_1
 62
4
 10
35.647903
 20
31.92462
 30
0.2
 11
35.657387
 21
31.828304
 31
0.2
  0
LINE
  8
PLAN_1
 62
4
 10
35.657387
 20
31.828304
 30
0.2
 11
35.685482
 21
31.735689
 31
0.2
  0
LINE
  8
PLAN_1
 62
4
 10
35.685482
 20
31.735689
 30
0.2
 11
35.731106
 21
31.650335
 31
0.2
  0
LINE
  8
PLAN_1
 62
4
 10
35.731106
 20
31.650335
 30
0.2
 11
35.792503
 21
31.575521
 31
0.2
  0
LINE
  8
PLAN_1
 62
4
 10
35.792503
 20
31.575521
 30
0.2
 11
37.379055
 21
29.98897
 31
0.2
  0
LINE
  8
PLAN_1
 62
4
 10
37.379055
 20
29.98897
 30
0.2
 11
37.838028
 21
29.530003
 31
0.2
  0
LINE
  8
PLAN_1
 62
4
 10
37.838028
 20
29.530003
 30
0.2
 11
37.838028
 21
23.1959
 31
0.2
  0
LINE
  8
PLAN_1
 62
4
 10
37.838028
 20
23.1959
 30
0.2
 11
37.847511
 21
23.099585
 31
0.2
  0
LINE
  8
PLAN_1
 62
4
 10
37.847511
 20
23.099585
 30
0.2
 11
37.875607
 21
23.006969
 31
0.2
  0
LINE
  8
PLAN_1
 62
4
 10
37.875607
 20
23.006969
 30
0.2
 11
37.921227
 21
22.921616
 31
0.2
  0
LINE
  8
PLAN_1
 62
4
 10
37.921227
 20
22.921616
 30
0.2
 11
37.982628
 21
22.846802
 31
0.2
  0
LINE
  8
PLAN_1
 62
4
 10
37.982628
 20
22.846802
 30
0.2
 11
39.107903
 21
21.721523
 31
0.2
  0
LINE
  8
PLAN_1
 62
4
 10
39.107903
 20
21.721523
 30
0.2
 11
39.107903
 21
16.71759
 31
0.2
  0
LINE
  8
PLAN_1
 62
4
 10
39.107903
 20
16.71759
 30
0.2
 11
38.485603
 21
16.71759
 31
0.2
  0
LINE
  8
PLAN_1
 62
4
 10
38.485603
 20
16.71759
 30
0.2
 11
38.485603
 21
14.48559
 31
0.2
  0
LINE
  8
PLAN_1
 62
4
 10
38.485603
 20
14.48559
 30
0.2
 11
40.717606
 21
14.48559
 31
0.2
  0
LINE
  8
PLAN_1
 62
4
 10
40.717606
 20
14.48559
 30
0.2
 11
40.717606
 21
16.71759
 31
0.2
  0
LINE
  8
PLAN_1
 62
4
 10
40.717606
 20
16.71759
 30
0.2
 11
40.095306
 21
16.71759
 31
0.2
  0
LINE
  8
PLAN_1
 62
4
 10
40.095306
 20
16.71759
 30
0.2
 11
40.095306
 21
21.92602
 31
0.2
  0
LINE
  8
PLAN_1
 62
4
 10
34.571594
 20
20.634533
 30
0.2
 11
34.515316
 21
20.820061
 31
0.2
  0
LINE
  8
PLAN_1
 62
4
 10
34.515316
 20
20.820061
 30
0.2
 11
34.423923
 21
20.991045
 31
0.2
  0
LINE
  8
PLAN_1
 62
4
 10
34.423923
 20
20.991045
 30
0.2
 11
34.30093
 21
21.140915
 31
0.2
  0
LINE
  8
PLAN_1
 62
4
 10
34.30093
 20
21.140915
 30
0.2
 11
34.151062
 21
21.263908
 31
0.2
  0
LINE
  8
PLAN_1
 62
4
 10
34.151062
 20
21.263908
 30
0.2
 11
33.980076
 21
21.355301
 31
0.2
  0
LINE
  8
PLAN_1
 62
4
 10
33.980076
 20
21.355301
 30
0.2
 11
33.794548
 21
21.411581
 31
0.2
  0
LINE
  8
PLAN_1
 62
4
 10
33.794548
 20
21.411581
 30
0.2
 11
33.601604
 21
21.430584
 31
0.2
  0
LINE
  8
PLAN_1
 62
4
 10
33.601604
 20
21.430584
 30
0.2
 11
33.408661
 21
21.411581
 31
0.2
  0
LINE
  8
PLAN_1
 62
4
 10
33.408661
 20
21.411581
 30
0.2
 11
33.223133
 21
21.355301
 31
0.2
  0
LINE
  8
PLAN_1
 62
4
 10
33.223133
 20
21.355301
 30
0.2
 11
33.052147
 21
21.263908
 31
0.2
  0
LINE
  8
PLAN_1
 62
4
 10
33.052147
 20
21.263908
 30
0.2
 11
32.902279
 21
21.140915
 31
0.2
  0
LINE
  8
PLAN_1
 62
4
 10
32.902279
 20
21.140915
 30
0.2
 11
32.779285
 21
20.991045
 31
0.2
  0
LINE
  8
PLAN_1
 62
4
 10
32.779285
 20
20.991045
 30
0.2
 11
32.687893
 21
20.820061
 31
0.2
  0
LINE
  8
PLAN_1
 62
4
 10
32.687893
 20
20.820061
 30
0.2
 11
32.631611
 21
20.634533
 31
0.2
  0
LINE
  8
PLAN_1
 62
4
 10
32.631611
 20
20.634533
 30
0.2
 11
32.61261
 21
20.441589
 31
0.2
  0
LINE
  8
PLAN_1
 62
4
 10
32.61261
 20
20.441589
 30
0.2
 11
32.631611
 21
20.248646
 31
0.2
  0
LINE
  8
PLAN_1
 62
4
 10
32.631611
 20
20.248646
 30
0.2
 11
32.687893
 21
20.063118
 31
0.2
  0
LINE
  8
PLAN_1
 62
4
 10
32.687893
 20
20.063118
 30
0.2
 11
32.779285
 21
19.892134
 31
0.2
  0
LINE
  8
PLAN_1
 62
4
 10
32.779285
 20
19.892134
 30
0.2
 11
32.902279
 21
19.742264
 31
0.2
  0
LINE
  8
PLAN_1
 62
4
 10
32.902279
 20
19.742264
 30
0.2
 11
33.052147
 21
19.61927
 31
0.2
  0
LINE
  8
PLAN_1
 62
4
 10
33.052147
 20
19.61927
 30
0.2
 11
33.107906
 21
19.589466
 31
0.2
  0
LINE
  8
PLAN_1
 62
4
 10
33.107906
 20
19.589466
 30
0.2
 11
33.107906
 21
16.71759
 31
0.2
  0
LINE
  8
PLAN_1
 62
4
 10
33.107906
 20
16.71759
 30
0.2
 11
32.485603
 21
16.71759
 31
0.2
  0
LINE
  8
PLAN_1
 62
4
 10
32.485603
 20
16.71759
 30
0.2
 11
32.485603
 21
14.48559
 31
0.2
  0
LINE
  8
PLAN_1
 62
4
 10
32.485603
 20
14.48559
 30
0.2
 11
34.717606
 21
14.48559
 31
0.2
  0
LINE
  8
PLAN_1
 62
4
 10
34.717606
 20
14.48559
 30
0.2
 11
34.717606
 21
16.71759
 31
0.2
  0
LINE
  8
PLAN_1
 62
4
 10
34.717606
 20
16.71759
 30
0.2
 11
34.095306
 21
16.71759
 31
0.2
  0
LINE
  8
PLAN_1
 62
4
 10
34.095306
 20
16.71759
 30
0.2
 11
34.095306
 21
19.589468
 31
0.2
  0
LINE
  8
PLAN_1
 62
4
 10
34.095306
 20
19.589468
 30
0.2
 11
34.151062
 21
19.61927
 31
0.2
  0
LINE
  8
PLAN_1
 62
4
 10
34.151062
 20
19.61927
 30
0.2
 11
34.30093
 21
19.742264
 31
0.2
  0
LINE
  8
PLAN_1
 62
4
 10
34.30093
 20
19.742264
 30
0.2
 11
34.423923
 21
19.892134
 31
0.2
  0
LINE
  8
PLAN_1
 62
4
 10
34.423923
 20
19.892134
 30
0.2
 11
34.515316
 21
20.063118
 31
0.2
  0
LINE
  8
PLAN_1
 62
4
 10
34.515316
 20
20.063118
 30
0.2
 11
34.571594
 21
20.248646
 31
0.2
  0
LINE
  8
PLAN_1
 62
4
 10
34.571594
 20
20.248646
 30
0.2
 11
34.590599
 21
20.441589
 31
0.2
  0
LINE
  8
PLAN_1
 62
4
 10
34.590599
 20
20.441589
 30
0.2
 11
34.571594
 21
20.634533
 31
0.2
  0
LINE
  8
PLAN_1
 62
4
 10
28.757607
 20
16.71759
 30
0.2
 11
28.595303
 21
16.71759
 31
0.2
  0
LINE
  8
PLAN_1
 62
4
 10
28.595303
 20
16.71759
 30
0.2
 11
28.595303
 21
28.397091
 31
0.2
  0
LINE
  8
PLAN_1
 62
4
 10
28.595303
 20
28.397091
 30
0.2
 11
31.410702
 21
31.212492
 31
0.2
  0
LINE
  8
PLAN_1
 62
4
 10
31.410702
 20
31.212492
 30
0.2
 11
31.472099
 21
31.287306
 31
0.2
  0
LINE
  8
PLAN_1
 62
4
 10
31.472099
 20
31.287306
 30
0.2
 11
31.517723
 21
31.37266
 31
0.2
  0
LINE
  8
PLAN_1
 62
4
 10
31.517723
 20
31.37266
 30
0.2
 11
31.545818
 21
31.465275
 31
0.2
  0
LINE
  8
PLAN_1
 62
4
 10
31.545818
 20
31.465275
 30
0.2
 11
31.555302
 21
31.56159
 31
0.2
  0
LINE
  8
PLAN_1
 62
4
 10
31.555302
 20
31.56159
 30
0.2
 11
31.555302
 21
33.985588
 31
0.2
  0
LINE
  8
PLAN_1
 62
4
 10
31.555302
 20
33.985588
 30
0.2
 11
32.177605
 21
33.985588
 31
0.2
  0
LINE
  8
PLAN_1
 62
4
 10
32.177605
 20
33.985588
 30
0.2
 11
32.177605
 21
36.21759
 31
0.2
  0
LINE
  8
PLAN_1
 62
4
 10
32.177605
 20
36.21759
 30
0.2
 11
29.945602
 21
36.21759
 31
0.2
  0
LINE
  8
PLAN_1
 62
4
 10
29.945602
 20
36.21759
 30
0.2
 11
29.945602
 21
33.985588
 31
0.2
  0
LINE
  8
PLAN_1
 62
4
 10
29.945602
 20
33.985588
 30
0.2
 11
30.567905
 21
33.985588
 31
0.2
  0
LINE
  8
PLAN_1
 62
4
 10
30.567905
 20
33.985588
 30
0.2
 11
30.567905
 21
31.766088
 31
0.2
  0
LINE
  8
PLAN_1
 62
4
 10
30.567905
 20
31.766088
 30
0.2
 11
27.752506
 21
28.950687
 31
0.2
  0
LINE
  8
PLAN_1
 62
4
 10
27.752506
 20
28.950687
 30
0.2
 11
27.691109
 21
28.875874
 31
0.2
  0
LINE
  8
PLAN_1
 62
4
 10
27.691109
 20
28.875874
 30
0.2
 11
27.645485
 21
28.79052
 31
0.2
  0
LINE
  8
PLAN_1
 62
4
 10
27.645485
 20
28.79052
 30
0.2
 11
27.61739
 21
28.697905
 31
0.2
  0
LINE
  8
PLAN_1
 62
4
 10
27.61739
 20
28.697905
 30
0.2
 11
27.607906
 21
28.601589
 31
0.2
  0
LINE
  8
PLAN_1
 62
4
 10
27.607906
 20
28.601589
 30
0.2
 11
27.607906
 21
16.71759
 31
0.2
  0
LINE
  8
PLAN_1
 62
4
 10
27.607906
 20
16.71759
 30
0.2
 11
26.525604
 21
16.71759
 31
0.2
  0
LINE
  8
PLAN_1
 62
4
 10
26.525604
 20
16.71759
 30
0.2
 11
26.525604
 21
14.48559
 31
0.2
  0
LINE
  8
PLAN_1
 62
4
 10
26.525604
 20
14.48559
 30
0.2
 11
28.757607
 21
14.48559
 31
0.2
  0
LINE
  8
PLAN_1
 62
4
 10
28.757607
 20
14.48559
 30
0.2
 11
28.757607
 21
16.71759
 31
0.2
  0
LINE
  8
PLAN_1
 62
4
 10
33.223133
 20
29.687878
 30
0.2
 11
33.408661
 21
29.631598
 31
0.2
  0
LINE
  8
PLAN_1
 62
4
 10
33.408661
 20
29.631598
 30
0.2
 11
33.601604
 21
29.612595
 31
0.2
  0
LINE
  8
PLAN_1
 62
4
 10
33.601604
 20
29.612595
 30
0.2
 11
33.794548
 21
29.631598
 31
0.2
  0
LINE
  8
PLAN_1
 62
4
 10
33.794548
 20
29.631598
 30
0.2
 11
33.980076
 21
29.687878
 31
0.2
  0
LINE
  8
PLAN_1
 62
4
 10
33.980076
 20
29.687878
 30
0.2
 11
34.151062
 21
29.77927
 31
0.2
  0
LINE
  8
PLAN_1
 62
4
 10
34.151062
 20
29.77927
 30
0.2
 11
34.30093
 21
29.902264
 31
0.2
  0
LINE
  8
PLAN_1
 62
4
 10
34.30093
 20
29.902264
 30
0.2
 11
34.423923
 21
30.052134
 31
0.2
  0
LINE
  8
PLAN_1
 62
4
 10
34.423923
 20
30.052134
 30
0.2
 11
34.515316
 21
30.223118
 31
0.2
  0
LINE
  8
PLAN_1
 62
4
 10
34.515316
 20
30.223118
 30
0.2
 11
34.571594
 21
30.408646
 31
0.2
  0
LINE
  8
PLAN_1
 62
4
 10
34.571594
 20
30.408646
 30
0.2
 11
34.590599
 21
30.601589
 31
0.2
  0
LINE
  8
PLAN_1
 62
4
 10
34.590599
 20
30.601589
 30
0.2
 11
34.571594
 21
30.794533
 31
0.2
  0
LINE
  8
PLAN_1
 62
4
 10
34.571594
 20
30.794533
 30
0.2
 11
34.515316
 21
30.980061
 31
0.2
  0
LINE
  8
PLAN_1
 62
4
 10
34.515316
 20
30.980061
 30
0.2
 11
34.423923
 21
31.151045
 31
0.2
  0
LINE
  8
PLAN_1
 62
4
 10
34.423923
 20
31.151045
 30
0.2
 11
34.30093
 21
31.300915
 31
0.2
  0
LINE
  8
PLAN_1
 62
4
 10
34.30093
 20
31.300915
 30
0.2
 11
34.151062
 21
31.423908
 31
0.2
  0
LINE
  8
PLAN_1
 62
4
 10
34.151062
 20
31.423908
 30
0.2
 11
34.095306
 21
31.453711
 31
0.2
  0
LINE
  8
PLAN_1
 62
4
 10
34.095306
 20
31.453711
 30
0.2
 11
34.095306
 21
33.985588
 31
0.2
  0
LINE
  8
PLAN_1
 62
4
 10
34.095306
 20
33.985588
 30
0.2
 11
34.717606
 21
33.985588
 31
0.2
  0
LINE
  8
PLAN_1
 62
4
 10
34.717606
 20
33.985588
 30
0.2
 11
34.717606
 21
36.21759
 31
0.2
  0
LINE
  8
PLAN_1
 62
4
 10
34.717606
 20
36.21759
 30
0.2
 11
32.485603
 21
36.21759
 31
0.2
  0
LINE
  8
PLAN_1
 62
4
 10
32.485603
 20
36.21759
 30
0.2
 11
32.485603
 21
33.985588
 31
0.2
  0
LINE
  8
PLAN_1
 62
4
 10
32.485603
 20
33.985588
 30
0.2
 11
33.107906
 21
33.985588
 31
0.2
  0
LINE
  8
PLAN_1
 62
4
 10
33.107906
 20
33.985588
 30
0.2
 11
33.107906
 21
31.453712
 31
0.2
  0
LINE
  8
PLAN_1
 62
4
 10
33.107906
 20
31.453712
 30
0.2
 11
33.052147
 21
31.423908
 31
0.2
  0
LINE
  8
PLAN_1
 62
4
 10
33.052147
 20
31.423908
 30
0.2
 11
32.902279
 21
31.300915
 31
0.2
  0
LINE
  8
PLAN_1
 62
4
 10
32.902279
 20
31.300915
 30
0.2
 11
32.779285
 21
31.151045
 31
0.2
  0
LINE
  8
PLAN_1
 62
4
 10
32.779285
 20
31.151045
 30
0.2
 11
32.687893
 21
30.980061
 31
0.2
  0
LINE
  8
PLAN_1
 62
4
 10
32.687893
 20
30.980061
 30
0.2
 11
32.631611
 21
30.794533
 31
0.2
  0
LINE
  8
PLAN_1
 62
4
 10
32.631611
 20
30.794533
 30
0.2
 11
32.61261
 21
30.601589
 31
0.2
  0
LINE
  8
PLAN_1
 62
4
 10
32.61261
 20
30.601589
 30
0.2
 11
32.631611
 21
30.408646
 31
0.2
  0
LINE
  8
PLAN_1
 62
4
 10
32.631611
 20
30.408646
 30
0.2
 11
32.687893
 21
30.223118
 31
0.2
  0
LINE
  8
PLAN_1
 62
4
 10
32.687893
 20
30.223118
 30
0.2
 11
32.779285
 21
30.052134
 31
0.2
  0
LINE
  8
PLAN_1
 62
4
 10
32.779285
 20
30.052134
 30
0.2
 11
32.902279
 21
29.902264
 31
0.2
  0
LINE
  8
PLAN_1
 62
4
 10
32.902279
 20
29.902264
 30
0.2
 11
33.052147
 21
29.77927
 31
0.2
  0
LINE
  8
PLAN_1
 62
4
 10
33.052147
 20
29.77927
 30
0.2
 11
33.223133
 21
29.687878
 31
0.2
  0
LINE
  8
PLAN_1
 62
4
 10
32.485603
 20
36.525589
 30
0.2
 11
34.717606
 21
36.525589
 31
0.2
  0
LINE
  8
PLAN_1
 62
4
 10
34.717606
 20
36.525589
 30
0.2
 11
34.717606
 21
38.757591
 31
0.2
  0
LINE
  8
PLAN_1
 62
4
 10
34.717606
 20
38.757591
 30
0.2
 11
32.485603
 21
38.757591
 31
0.2
  0
LINE
  8
PLAN_1
 62
4
 10
32.485603
 20
38.757591
 30
0.2
 11
32.485603
 21
36.525589
 31
0.2
  0
LINE
  8
PLAN_1
 62
4
 10
32.177605
 20
36.525589
 30
0.2
 11
32.177605
 21
38.757591
 31
0.2
  0
LINE
  8
PLAN_1
 62
4
 10
32.177605
 20
38.757591
 30
0.2
 11
29.945602
 21
38.757591
 31
0.2
  0
LINE
  8
PLAN_1
 62
4
 10
29.945602
 20
38.757591
 30
0.2
 11
29.945602
 21
36.525589
 31
0.2
  0
LINE
  8
PLAN_1
 62
4
 10
29.945602
 20
36.525589
 30
0.2
 11
32.177605
 21
36.525589
 31
0.2
  0
LINE
  8
PLAN_1
 62
4
 10
29.637604
 20
36.525589
 30
0.2
 11
29.637604
 21
38.757591
 31
0.2
  0
LINE
  8
PLAN_1
 62
4
 10
29.637604
 20
38.757591
 30
0.2
 11
27.405602
 21
38.757591
 31
0.2
  0
LINE
  8
PLAN_1
 62
4
 10
27.405602
 20
38.757591
 30
0.2
 11
27.405602
 21
36.525589
 31
0.2
  0
LINE
  8
PLAN_1
 62
4
 10
27.405602
 20
36.525589
 30
0.2
 11
29.637604
 21
36.525589
 31
0.2
  0
ENDSEC
  0
EOF

