  0
SECTION
  2
HEADER
  9
$ACADVER
  1
AC1006
  9
$EXTMIN
 10
0.0
 20
0.0
  9
$EXTMAX
 10
65.203194
 20
55.70319
  9
$LTSCALE
 40
0.000394
  9
$PDMODE
 70
35
  9
$PDSIZE
 40
0.000315
  0
ENDSEC
  0
SECTION
  2
TABLES
  0
TABLE
  2
LTYPE
 70
  9
  0
LTYPE
  2
CONTINUOUS
 70
 64
  3
Solid line
 72
 65
 73
  0
 40
0.000000
  0
LTYPE
  2
DASHED
 70
 64
  3
__ __ __ __ __ __ __ __ __ __ __ __ __ __ __
 72
 65
 73
  2
 40
0.000003
 49
0.000002
 49
-0.000001
  0
LTYPE
  2
HIDDEN
 70
 64
  3
 _ _ _ _ _ _ _ _ _ _ _ _ _ _ _ _ _ _ _ _ _ _
 72
 65
 73
  2
 40
0.000001
 49
0.000001
 49
-0.000000
  0
LTYPE
  2
CENTER
 70
 64
  3
____ _ ____ _ ____ _ ____ _ ____ _ ____ _ ____
 72
 65
 73
  4
 40
0.000008
 49
0.000005
 49
-0.000001
 49
0.000001
 49
-0.000001
  0
LTYPE
  2
PHANTOM
 70
 64
  3
_____ _ _ _____ _ _ _____ _ _ _____ _ _ ____
 72
 65
 73
  6
 40
0.000010
 49
0.000005
 49
-0.000001
 49
0.000001
 49
-0.000001
 49
0.000001
 49
-0.000001
  0
LTYPE
  2
DOT
 70
 64
  3
...............................................
 72
 65
 73
  2
 40
0.000001
 49
0.000000
 49
-0.000001
  0
LTYPE
  2
DASHDOT
 70
 64
  3
__ . __ . __ . __ . __ . __ . __ . __ . __ . __
 72
 65
 73
  4
 40
0.000004
 49
0.000002
 49
-0.000001
 49
0.000000
 49
-0.000001
  0
LTYPE
  2
BORDER
 70
 64
  3
__ __ . __ __ . __ __ . __ __ . __ __ . __ __
 72
 65
 73
  6
 40
0.000007
 49
0.000002
 49
-0.000001
 49
0.000002
 49
-0.000001
 49
0.000000
 49
-0.000001
  0
LTYPE
  2
DIVIDE
 70
 64
  3
__ . . __ . . __ . . __ . . __ . . __ . . __
 72
 65
 73
  6
 40
0.000005
 49
0.000002
 49
-0.000001
 49
0.000000
 49
-0.000001
 49
0.000000
 49
-0.000001
  0
LTYPE
  2
DOTDOT
 70
 64
  3
 . .  . .  . .  . .  . .  . .
 72
 65
 73
  5
 40
0.000002
 49
-0.000001
 49
0.000000
 49
-0.000001
 49
0.000000
 49
-0.000001
  0
ENDTAB
  0
TABLE
  2
STYLE
 70
  0
  0
ENDTAB
  0
TABLE
  2
LAYER
 70
  4
  0
LAYER
  2
FOREGROUND
 70
 64
 62
  7
  6
CONTINUOUS
  0
LAYER
  2
BACKGROUND
 70
 65
 62
 -7
  6
CONTINUOUS
  0
LAYER
  2
PLAN_1
 70
 64
 62
  7
  6
CONTINUOUS
  0
ENDTAB
  0
ENDSEC
  0
SECTION
  2
ENTITIES
  0
LINE
  8
PLAN_1
 62
4
 10
3.798397
 20
-8.298405
 30
0.2
 11
3.798397
 21
46.798405
 31
0.2
  0
LINE
  8
PLAN_1
 62
4
 10
3.798397
 20
46.798405
 30
0.2
 11
-60.798412
 21
46.798405
 31
0.2
  0
LINE
  8
PLAN_1
 62
4
 10
-60.798412
 20
46.798405
 30
0.2
 11
-60.798412
 21
-8.298405
 31
0.2
  0
LINE
  8
PLAN_1
 62
4
 10
-60.798412
 20
-8.298405
 30
0.2
 11
3.798397
 21
-8.298405
 31
0.2
  0
LINE
  8
PLAN_1
 62
4
 10
4.20158
 20
-8.5
 30
0.2
 11
4.20158
 21
47.0
 31
0.2
  0
LINE
  8
PLAN_1
 62
4
 10
4.20158
 20
47.0
 30
0.2
 11
4.197712
 21
47.03933
 31
0.2
  0
LINE
  8
PLAN_1
 62
4
 10
4.197712
 20
47.03933
 30
0.2
 11
4.186237
 21
47.077148
 31
0.2
  0
LINE
  8
PLAN_1
 62
4
 10
4.186237
 20
47.077148
 30
0.2
 11
4.167606
 21
47.112
 31
0.2
  0
LINE
  8
PLAN_1
 62
4
 10
4.167606
 20
47.112
 30
0.2
 11
4.142536
 21
47.142548
 31
0.2
  0
LINE
  8
PLAN_1
 62
4
 10
4.142536
 20
47.142548
 30
0.2
 11
4.111988
 21
47.167622
 31
0.2
  0
LINE
  8
PLAN_1
 62
4
 10
4.111988
 20
47.167622
 30
0.2
 11
4.077137
 21
47.186249
 31
0.2
  0
LINE
  8
PLAN_1
 62
4
 10
4.077137
 20
47.186249
 30
0.2
 11
4.039318
 21
47.19772
 31
0.2
  0
LINE
  8
PLAN_1
 62
4
 10
4.039318
 20
47.19772
 30
0.2
 11
3.999989
 21
47.201595
 31
0.2
  0
LINE
  8
PLAN_1
 62
4
 10
3.999989
 20
47.201595
 30
0.2
 11
-61.000004
 21
47.201595
 31
0.2
  0
LINE
  8
PLAN_1
 62
4
 10
-61.000004
 20
47.201595
 30
0.2
 11
-61.039333
 21
47.19772
 31
0.2
  0
LINE
  8
PLAN_1
 62
4
 10
-61.039333
 20
47.19772
 30
0.2
 11
-61.077152
 21
47.186249
 31
0.2
  0
LINE
  8
PLAN_1
 62
4
 10
-61.077152
 20
47.186249
 30
0.2
 11
-61.112003
 21
47.167622
 31
0.2
  0
LINE
  8
PLAN_1
 62
4
 10
-61.112003
 20
47.167622
 30
0.2
 11
-61.142551
 21
47.142548
 31
0.2
  0
LINE
  8
PLAN_1
 62
4
 10
-61.142551
 20
47.142548
 30
0.2
 11
-61.167622
 21
47.112
 31
0.2
  0
LINE
  8
PLAN_1
 62
4
 10
-61.167622
 20
47.112
 30
0.2
 11
-61.186253
 21
47.077148
 31
0.2
  0
LINE
  8
PLAN_1
 62
4
 10
-61.186253
 20
47.077148
 30
0.2
 11
-61.197727
 21
47.03933
 31
0.2
  0
LINE
  8
PLAN_1
 62
4
 10
-61.197727
 20
47.03933
 30
0.2
 11
-61.201595
 21
47.0
 31
0.2
  0
LINE
  8
PLAN_1
 62
4
 10
-61.201595
 20
47.0
 30
0.2
 11
-61.201595
 21
-8.5
 31
0.2
  0
LINE
  8
PLAN_1
 62
4
 10
-61.201595
 20
-8.5
 30
0.2
 11
-61.197727
 21
-8.53933
 31
0.2
  0
LINE
  8
PLAN_1
 62
4
 10
-61.197727
 20
-8.53933
 30
0.2
 11
-61.186253
 21
-8.577147
 31
0.2
  0
LINE
  8
PLAN_1
 62
4
 10
-61.186253
 20
-8.577147
 30
0.2
 11
-61.167622
 21
-8.612
 31
0.2
  0
LINE
  8
PLAN_1
 62
4
 10
-61.167622
 20
-8.612
 30
0.2
 11
-61.142551
 21
-8.64255
 31
0.2
  0
LINE
  8
PLAN_1
 62
4
 10
-61.142551
 20
-8.64255
 30
0.2
 11
-61.112003
 21
-8.667621
 31
0.2
  0
LINE
  8
PLAN_1
 62
4
 10
-61.112003
 20
-8.667621
 30
0.2
 11
-61.077152
 21
-8.68625
 31
0.2
  0
LINE
  8
PLAN_1
 62
4
 10
-61.077152
 20
-8.68625
 30
0.2
 11
-61.039333
 21
-8.697721
 31
0.2
  0
LINE
  8
PLAN_1
 62
4
 10
-61.039333
 20
-8.697721
 30
0.2
 11
-61.000004
 21
-8.701595
 31
0.2
  0
LINE
  8
PLAN_1
 62
4
 10
-61.000004
 20
-8.701595
 30
0.2
 11
3.999989
 21
-8.701595
 31
0.2
  0
LINE
  8
PLAN_1
 62
4
 10
3.999989
 20
-8.701595
 30
0.2
 11
4.039318
 21
-8.697721
 31
0.2
  0
LINE
  8
PLAN_1
 62
4
 10
4.039318
 20
-8.697721
 30
0.2
 11
4.077137
 21
-8.68625
 31
0.2
  0
LINE
  8
PLAN_1
 62
4
 10
4.077137
 20
-8.68625
 30
0.2
 11
4.111988
 21
-8.667621
 31
0.2
  0
LINE
  8
PLAN_1
 62
4
 10
4.111988
 20
-8.667621
 30
0.2
 11
4.142536
 21
-8.64255
 31
0.2
  0
LINE
  8
PLAN_1
 62
4
 10
4.142536
 20
-8.64255
 30
0.2
 11
4.167606
 21
-8.612
 31
0.2
  0
LINE
  8
PLAN_1
 62
4
 10
4.167606
 20
-8.612
 30
0.2
 11
4.186237
 21
-8.577147
 31
0.2
  0
LINE
  8
PLAN_1
 62
4
 10
4.186237
 20
-8.577147
 30
0.2
 11
4.197712
 21
-8.53933
 31
0.2
  0
LINE
  8
PLAN_1
 62
4
 10
4.197712
 20
-8.53933
 30
0.2
 11
4.20158
 21
-8.5
 31
0.2
  0
LINE
  8
PLAN_1
 62
4
 10
-10.650902
 20
7.650901
 30
0.2
 11
-8.186733
 21
10.115071
 31
0.2
  0
LINE
  8
PLAN_1
 62
4
 10
-8.186733
 20
10.115071
 30
0.2
 11
-8.125336
 21
10.189885
 31
0.2
  0
LINE
  8
PLAN_1
 62
4
 10
-8.125336
 20
10.189885
 30
0.2
 11
-8.079712
 21
10.275239
 31
0.2
  0
LINE
  8
PLAN_1
 62
4
 10
-8.079712
 20
10.275239
 30
0.2
 11
-8.051617
 21
10.367854
 31
0.2
  0
LINE
  8
PLAN_1
 62
4
 10
-8.051617
 20
10.367854
 30
0.2
 11
-8.042133
 21
10.46417
 31
0.2
  0
LINE
  8
PLAN_1
 62
4
 10
-8.042133
 20
10.46417
 30
0.2
 11
-8.042133
 21
23.345982
 31
0.2
  0
LINE
  8
PLAN_1
 62
4
 10
-8.042133
 20
23.345982
 30
0.2
 11
-8.042133
 21
28.47628
 31
0.2
  0
LINE
  8
PLAN_1
 62
4
 10
-8.042133
 20
28.47628
 30
0.2
 11
-8.051617
 21
28.572598
 31
0.2
  0
LINE
  8
PLAN_1
 62
4
 10
-8.051617
 20
28.572598
 30
0.2
 11
-8.079712
 21
28.665211
 31
0.2
  0
LINE
  8
PLAN_1
 62
4
 10
-8.079712
 20
28.665211
 30
0.2
 11
-8.125336
 21
28.750565
 31
0.2
  0
LINE
  8
PLAN_1
 62
4
 10
-8.125336
 20
28.750565
 30
0.2
 11
-8.186733
 21
28.825378
 31
0.2
  0
LINE
  8
PLAN_1
 62
4
 10
-8.186733
 20
28.825378
 30
0.2
 11
-10.902775
 21
31.54142
 31
0.2
  0
LINE
  8
PLAN_1
 62
4
 10
-10.902775
 20
31.54142
 30
0.2
 11
-10.977589
 21
31.602818
 31
0.2
  0
LINE
  8
PLAN_1
 62
4
 10
-10.977589
 20
31.602818
 30
0.2
 11
-11.062943
 21
31.648441
 31
0.2
  0
LINE
  8
PLAN_1
 62
4
 10
-11.062943
 20
31.648441
 30
0.2
 11
-11.155556
 21
31.676537
 31
0.2
  0
LINE
  8
PLAN_1
 62
4
 10
-11.155556
 20
31.676537
 30
0.2
 11
-11.251873
 21
31.68602
 31
0.2
  0
LINE
  8
PLAN_1
 62
4
 10
-11.251873
 20
31.68602
 30
0.2
 11
-16.187458
 21
31.68602
 31
0.2
  0
LINE
  8
PLAN_1
 62
4
 10
-16.187458
 20
31.68602
 30
0.2
 11
-16.283772
 21
31.676537
 31
0.2
  0
LINE
  8
PLAN_1
 62
4
 10
-16.283772
 20
31.676537
 30
0.2
 11
-16.376389
 21
31.648441
 31
0.2
  0
LINE
  8
PLAN_1
 62
4
 10
-16.376389
 20
31.648441
 30
0.2
 11
-16.461742
 21
31.602818
 31
0.2
  0
LINE
  8
PLAN_1
 62
4
 10
-16.461742
 20
31.602818
 30
0.2
 11
-16.536556
 21
31.54142
 31
0.2
  0
LINE
  8
PLAN_1
 62
4
 10
-16.536556
 20
31.54142
 30
0.2
 11
-17.689892
 21
30.388088
 31
0.2
  0
LINE
  8
PLAN_1
 62
4
 10
-17.689892
 20
30.388088
 30
0.2
 11
-20.650902
 21
33.349098
 31
0.2
  0
LINE
  8
PLAN_1
 62
4
 10
-20.650902
 20
33.349098
 30
0.2
 11
-20.725716
 21
33.410496
 31
0.2
  0
LINE
  8
PLAN_1
 62
4
 10
-20.725716
 20
33.410496
 30
0.2
 11
-20.811069
 21
33.45612
 31
0.2
  0
LINE
  8
PLAN_1
 62
4
 10
-20.811069
 20
33.45612
 30
0.2
 11
-20.903683
 21
33.484215
 31
0.2
  0
LINE
  8
PLAN_1
 62
4
 10
-20.903683
 20
33.484215
 30
0.2
 11
-21.0
 21
33.493698
 31
0.2
  0
LINE
  8
PLAN_1
 62
4
 10
-21.0
 20
33.493698
 30
0.2
 11
-37.0
 21
33.493698
 31
0.2
  0
LINE
  8
PLAN_1
 62
4
 10
-37.0
 20
33.493698
 30
0.2
 11
-38.0
 21
33.493698
 31
0.2
  0
LINE
  8
PLAN_1
 62
4
 10
-38.0
 20
33.493698
 30
0.2
 11
-38.096317
 21
33.484215
 31
0.2
  0
LINE
  8
PLAN_1
 62
4
 10
-38.096317
 20
33.484215
 30
0.2
 11
-38.188931
 21
33.45612
 31
0.2
  0
LINE
  8
PLAN_1
 62
4
 10
-38.188931
 20
33.45612
 30
0.2
 11
-38.274284
 21
33.410496
 31
0.2
  0
LINE
  8
PLAN_1
 62
4
 10
-38.274284
 20
33.410496
 30
0.2
 11
-38.349098
 21
33.349098
 31
0.2
  0
LINE
  8
PLAN_1
 62
4
 10
-38.349098
 20
33.349098
 30
0.2
 11
-42.349098
 21
29.349098
 31
0.2
  0
LINE
  8
PLAN_1
 62
4
 10
-42.349098
 20
29.349098
 30
0.2
 11
-42.410496
 21
29.274284
 31
0.2
  0
LINE
  8
PLAN_1
 62
4
 10
-42.410496
 20
29.274284
 30
0.2
 11
-42.45612
 21
29.188931
 31
0.2
  0
LINE
  8
PLAN_1
 62
4
 10
-42.45612
 20
29.188931
 30
0.2
 11
-42.484215
 21
29.096317
 31
0.2
  0
LINE
  8
PLAN_1
 62
4
 10
-42.484215
 20
29.096317
 30
0.2
 11
-42.493698
 21
29.0
 31
0.2
  0
LINE
  8
PLAN_1
 62
4
 10
-42.493698
 20
29.0
 30
0.2
 11
-42.493698
 21
8.116
 31
0.2
  0
LINE
  8
PLAN_1
 62
4
 10
-42.493698
 20
8.116
 30
0.2
 11
-43.616001
 21
8.116
 31
0.2
  0
LINE
  8
PLAN_1
 62
4
 10
-43.616001
 20
8.116
 30
0.2
 11
-43.616001
 21
5.884
 31
0.2
  0
LINE
  8
PLAN_1
 62
4
 10
-43.616001
 20
5.884
 30
0.2
 11
-41.383999
 21
5.884
 31
0.2
  0
LINE
  8
PLAN_1
 62
4
 10
-41.383999
 20
5.884
 30
0.2
 11
-41.383999
 21
8.116
 31
0.2
  0
LINE
  8
PLAN_1
 62
4
 10
-41.383999
 20
8.116
 30
0.2
 11
-41.506302
 21
8.116
 31
0.2
  0
LINE
  8
PLAN_1
 62
4
 10
-41.506302
 20
8.116
 30
0.2
 11
-41.506302
 21
28.795502
 31
0.2
  0
LINE
  8
PLAN_1
 62
4
 10
-41.506302
 20
28.795502
 30
0.2
 11
-37.795502
 21
32.506302
 31
0.2
  0
LINE
  8
PLAN_1
 62
4
 10
-37.795502
 20
32.506302
 30
0.2
 11
-37.0
 21
32.506302
 31
0.2
  0
LINE
  8
PLAN_1
 62
4
 10
-37.0
 20
32.506302
 30
0.2
 11
-21.204498
 21
32.506302
 31
0.2
  0
LINE
  8
PLAN_1
 62
4
 10
-21.204498
 20
32.506302
 30
0.2
 11
-18.349098
 21
29.650902
 31
0.2
  0
LINE
  8
PLAN_1
 62
4
 10
-18.349098
 20
29.650902
 30
0.2
 11
-18.18359
 21
29.485394
 31
0.2
  0
LINE
  8
PLAN_1
 62
4
 10
-18.18359
 20
29.485394
 30
0.2
 11
-18.18359
 21
24.351921
 31
0.2
  0
LINE
  8
PLAN_1
 62
4
 10
-18.18359
 20
24.351921
 30
0.2
 11
-18.174107
 21
24.255604
 31
0.2
  0
LINE
  8
PLAN_1
 62
4
 10
-18.174107
 20
24.255604
 30
0.2
 11
-18.146011
 21
24.162991
 31
0.2
  0
LINE
  8
PLAN_1
 62
4
 10
-18.146011
 20
24.162991
 30
0.2
 11
-18.100388
 21
24.077637
 31
0.2
  0
LINE
  8
PLAN_1
 62
4
 10
-18.100388
 20
24.077637
 30
0.2
 11
-18.03899
 21
24.002823
 31
0.2
  0
LINE
  8
PLAN_1
 62
4
 10
-18.03899
 20
24.002823
 30
0.2
 11
-16.793697
 21
22.757534
 31
0.2
  0
LINE
  8
PLAN_1
 62
4
 10
-16.793697
 20
22.757534
 30
0.2
 11
-16.793697
 21
21.479496
 31
0.2
  0
LINE
  8
PLAN_1
 62
4
 10
-16.793697
 20
21.479496
 30
0.2
 11
-16.8699
 21
21.479496
 31
0.2
  0
LINE
  8
PLAN_1
 62
4
 10
-16.8699
 20
21.479496
 30
0.2
 11
-16.8699
 21
19.120506
 31
0.2
  0
LINE
  8
PLAN_1
 62
4
 10
-16.8699
 20
19.120506
 30
0.2
 11
-15.730099
 21
19.120506
 31
0.2
  0
LINE
  8
PLAN_1
 62
4
 10
-15.730099
 20
19.120506
 30
0.2
 11
-15.730099
 21
21.479496
 31
0.2
  0
LINE
  8
PLAN_1
 62
4
 10
-15.730099
 20
21.479496
 30
0.2
 11
-15.806301
 21
21.479496
 31
0.2
  0
LINE
  8
PLAN_1
 62
4
 10
-15.806301
 20
21.479496
 30
0.2
 11
-15.806301
 21
22.962029
 31
0.2
  0
LINE
  8
PLAN_1
 62
4
 10
-15.806301
 20
22.962029
 30
0.2
 11
-15.815784
 21
23.058346
 31
0.2
  0
LINE
  8
PLAN_1
 62
4
 10
-15.815784
 20
23.058346
 30
0.2
 11
-15.84388
 21
23.150959
 31
0.2
  0
LINE
  8
PLAN_1
 62
4
 10
-15.84388
 20
23.150959
 30
0.2
 11
-15.889503
 21
23.236313
 31
0.2
  0
LINE
  8
PLAN_1
 62
4
 10
-15.889503
 20
23.236313
 30
0.2
 11
-15.950901
 21
23.311127
 31
0.2
  0
LINE
  8
PLAN_1
 62
4
 10
-15.950901
 20
23.311127
 30
0.2
 11
-17.196194
 21
24.556419
 31
0.2
  0
LINE
  8
PLAN_1
 62
4
 10
-17.196194
 20
24.556419
 30
0.2
 11
-17.196194
 21
29.485394
 31
0.2
  0
LINE
  8
PLAN_1
 62
4
 10
-17.196194
 20
29.485394
 30
0.2
 11
-15.98296
 21
30.698624
 31
0.2
  0
LINE
  8
PLAN_1
 62
4
 10
-15.98296
 20
30.698624
 30
0.2
 11
-11.456371
 21
30.698624
 31
0.2
  0
LINE
  8
PLAN_1
 62
4
 10
-11.456371
 20
30.698624
 30
0.2
 11
-9.02953
 21
28.271786
 31
0.2
  0
LINE
  8
PLAN_1
 62
4
 10
-9.02953
 20
28.271786
 30
0.2
 11
-9.02953
 21
23.345982
 31
0.2
  0
LINE
  8
PLAN_1
 62
4
 10
-9.02953
 20
23.345982
 30
0.2
 11
-9.02953
 21
10.668666
 31
0.2
  0
LINE
  8
PLAN_1
 62
4
 10
-9.02953
 20
10.668666
 30
0.2
 11
-11.204498
 21
8.493699
 31
0.2
  0
LINE
  8
PLAN_1
 62
4
 10
-11.204498
 20
8.493699
 30
0.2
 11
-11.464565
 21
8.493699
 31
0.2
  0
LINE
  8
PLAN_1
 62
4
 10
-11.464565
 20
8.493699
 30
0.2
 11
-11.532082
 21
8.620015
 31
0.2
  0
LINE
  8
PLAN_1
 62
4
 10
-11.532082
 20
8.620015
 30
0.2
 11
-11.670872
 21
8.78913
 31
0.2
  0
LINE
  8
PLAN_1
 62
4
 10
-11.670872
 20
8.78913
 30
0.2
 11
-11.839985
 21
8.927918
 31
0.2
  0
LINE
  8
PLAN_1
 62
4
 10
-11.839985
 20
8.927918
 30
0.2
 11
-12.032928
 21
9.031049
 31
0.2
  0
LINE
  8
PLAN_1
 62
4
 10
-12.032928
 20
9.031049
 30
0.2
 11
-12.242283
 21
9.094556
 31
0.2
  0
LINE
  8
PLAN_1
 62
4
 10
-12.242283
 20
9.094556
 30
0.2
 11
-12.460003
 21
9.115998
 31
0.2
  0
LINE
  8
PLAN_1
 62
4
 10
-12.460003
 20
9.115998
 30
0.2
 11
-12.677723
 21
9.094556
 31
0.2
  0
LINE
  8
PLAN_1
 62
4
 10
-12.677723
 20
9.094556
 30
0.2
 11
-12.887077
 21
9.031049
 31
0.2
  0
LINE
  8
PLAN_1
 62
4
 10
-12.887077
 20
9.031049
 30
0.2
 11
-13.080021
 21
8.927918
 31
0.2
  0
LINE
  8
PLAN_1
 62
4
 10
-13.080021
 20
8.927918
 30
0.2
 11
-13.249134
 21
8.78913
 31
0.2
  0
LINE
  8
PLAN_1
 62
4
 10
-13.249134
 20
8.78913
 30
0.2
 11
-13.38792
 21
8.620015
 31
0.2
  0
LINE
  8
PLAN_1
 62
4
 10
-13.38792
 20
8.620015
 30
0.2
 11
-13.491055
 21
8.427073
 31
0.2
  0
LINE
  8
PLAN_1
 62
4
 10
-13.491055
 20
8.427073
 30
0.2
 11
-13.554562
 21
8.217719
 31
0.2
  0
LINE
  8
PLAN_1
 62
4
 10
-13.554562
 20
8.217719
 30
0.2
 11
-13.576
 21
7.999999
 31
0.2
  0
LINE
  8
PLAN_1
 62
4
 10
-13.576
 20
7.999999
 30
0.2
 11
-13.554562
 21
7.782279
 31
0.2
  0
LINE
  8
PLAN_1
 62
4
 10
-13.554562
 20
7.782279
 30
0.2
 11
-13.491055
 21
7.572925
 31
0.2
  0
LINE
  8
PLAN_1
 62
4
 10
-13.491055
 20
7.572925
 30
0.2
 11
-13.38792
 21
7.379983
 31
0.2
  0
LINE
  8
PLAN_1
 62
4
 10
-13.38792
 20
7.379983
 30
0.2
 11
-13.249134
 21
7.210868
 31
0.2
  0
LINE
  8
PLAN_1
 62
4
 10
-13.249134
 20
7.210868
 30
0.2
 11
-13.080021
 21
7.072079
 31
0.2
  0
LINE
  8
PLAN_1
 62
4
 10
-13.080021
 20
7.072079
 30
0.2
 11
-12.887077
 21
6.968949
 31
0.2
  0
LINE
  8
PLAN_1
 62
4
 10
-12.887077
 20
6.968949
 30
0.2
 11
-12.677723
 21
6.905442
 31
0.2
  0
LINE
  8
PLAN_1
 62
4
 10
-12.677723
 20
6.905442
 30
0.2
 11
-12.460003
 21
6.883999
 31
0.2
  0
LINE
  8
PLAN_1
 62
4
 10
-12.460003
 20
6.883999
 30
0.2
 11
-12.242283
 21
6.905442
 31
0.2
  0
LINE
  8
PLAN_1
 62
4
 10
-12.242283
 20
6.905442
 30
0.2
 11
-12.032928
 21
6.968949
 31
0.2
  0
LINE
  8
PLAN_1
 62
4
 10
-12.032928
 20
6.968949
 30
0.2
 11
-11.839985
 21
7.072079
 31
0.2
  0
LINE
  8
PLAN_1
 62
4
 10
-11.839985
 20
7.072079
 30
0.2
 11
-11.670872
 21
7.210868
 31
0.2
  0
LINE
  8
PLAN_1
 62
4
 10
-11.670872
 20
7.210868
 30
0.2
 11
-11.532082
 21
7.379983
 31
0.2
  0
LINE
  8
PLAN_1
 62
4
 10
-11.532082
 20
7.379983
 30
0.2
 11
-11.464565
 21
7.506299
 31
0.2
  0
LINE
  8
PLAN_1
 62
4
 10
-11.464565
 20
7.506299
 30
0.2
 11
-11.0
 21
7.506299
 31
0.2
  0
LINE
  8
PLAN_1
 62
4
 10
-11.0
 20
7.506299
 30
0.2
 11
-10.903683
 21
7.515786
 31
0.2
  0
LINE
  8
PLAN_1
 62
4
 10
-10.903683
 20
7.515786
 30
0.2
 11
-10.811069
 21
7.54388
 31
0.2
  0
LINE
  8
PLAN_1
 62
4
 10
-10.811069
 20
7.54388
 30
0.2
 11
-10.725716
 21
7.589503
 31
0.2
  0
LINE
  8
PLAN_1
 62
4
 10
-10.725716
 20
7.589503
 30
0.2
 11
-10.650902
 21
7.650901
 31
0.2
  0
LINE
  8
PLAN_1
 62
4
 10
-13.883999
 20
7.999999
 30
0.2
 11
-13.905445
 21
8.217719
 31
0.2
  0
LINE
  8
PLAN_1
 62
4
 10
-13.905445
 20
8.217719
 30
0.2
 11
-13.968952
 21
8.427073
 31
0.2
  0
LINE
  8
PLAN_1
 62
4
 10
-13.968952
 20
8.427073
 30
0.2
 11
-14.072079
 21
8.620015
 31
0.2
  0
LINE
  8
PLAN_1
 62
4
 10
-14.072079
 20
8.620015
 30
0.2
 11
-14.210869
 21
8.78913
 31
0.2
  0
LINE
  8
PLAN_1
 62
4
 10
-14.210869
 20
8.78913
 30
0.2
 11
-14.376637
 21
8.925168
 31
0.2
  0
LINE
  8
PLAN_1
 62
4
 10
-14.376637
 20
8.925168
 30
0.2
 11
-10.576172
 21
12.725631
 31
0.2
  0
LINE
  8
PLAN_1
 62
4
 10
-10.576172
 20
12.725631
 30
0.2
 11
-10.514774
 21
12.800445
 31
0.2
  0
LINE
  8
PLAN_1
 62
4
 10
-10.514774
 20
12.800445
 30
0.2
 11
-10.469151
 21
12.885798
 31
0.2
  0
LINE
  8
PLAN_1
 62
4
 10
-10.469151
 20
12.885798
 30
0.2
 11
-10.441055
 21
12.978414
 31
0.2
  0
LINE
  8
PLAN_1
 62
4
 10
-10.441055
 20
12.978414
 30
0.2
 11
-10.431568
 21
13.074729
 31
0.2
  0
LINE
  8
PLAN_1
 62
4
 10
-10.431568
 20
13.074729
 30
0.2
 11
-10.431568
 21
19.525269
 31
0.2
  0
LINE
  8
PLAN_1
 62
4
 10
-10.431568
 20
19.525269
 30
0.2
 11
-10.441055
 21
19.621586
 31
0.2
  0
LINE
  8
PLAN_1
 62
4
 10
-10.441055
 20
19.621586
 30
0.2
 11
-10.469151
 21
19.714199
 31
0.2
  0
LINE
  8
PLAN_1
 62
4
 10
-10.469151
 20
19.714199
 30
0.2
 11
-10.514774
 21
19.799553
 31
0.2
  0
LINE
  8
PLAN_1
 62
4
 10
-10.514774
 20
19.799553
 30
0.2
 11
-10.576172
 21
19.874367
 31
0.2
  0
LINE
  8
PLAN_1
 62
4
 10
-10.576172
 20
19.874367
 30
0.2
 11
-11.1301
 21
20.428295
 31
0.2
  0
LINE
  8
PLAN_1
 62
4
 10
-11.1301
 20
20.428295
 30
0.2
 11
-11.1301
 21
21.479496
 31
0.2
  0
LINE
  8
PLAN_1
 62
4
 10
-11.1301
 20
21.479496
 30
0.2
 11
-11.206303
 21
21.479496
 31
0.2
  0
LINE
  8
PLAN_1
 62
4
 10
-11.206303
 20
21.479496
 30
0.2
 11
-11.206303
 21
26.181793
 31
0.2
  0
LINE
  8
PLAN_1
 62
4
 10
-11.206303
 20
26.181793
 30
0.2
 11
-11.170872
 21
26.210869
 31
0.2
  0
LINE
  8
PLAN_1
 62
4
 10
-11.170872
 20
26.210869
 30
0.2
 11
-11.032082
 21
26.379982
 31
0.2
  0
LINE
  8
PLAN_1
 62
4
 10
-11.032082
 20
26.379982
 30
0.2
 11
-10.928951
 21
26.572926
 31
0.2
  0
LINE
  8
PLAN_1
 62
4
 10
-10.928951
 20
26.572926
 30
0.2
 11
-10.865444
 21
26.78228
 31
0.2
  0
LINE
  8
PLAN_1
 62
4
 10
-10.865444
 20
26.78228
 30
0.2
 11
-10.844002
 21
27.0
 31
0.2
  0
LINE
  8
PLAN_1
 62
4
 10
-10.844002
 20
27.0
 30
0.2
 11
-10.865444
 21
27.21772
 31
0.2
  0
LINE
  8
PLAN_1
 62
4
 10
-10.865444
 20
27.21772
 30
0.2
 11
-10.928951
 21
27.427074
 31
0.2
  0
LINE
  8
PLAN_1
 62
4
 10
-10.928951
 20
27.427074
 30
0.2
 11
-11.032082
 21
27.620018
 31
0.2
  0
LINE
  8
PLAN_1
 62
4
 10
-11.032082
 20
27.620018
 30
0.2
 11
-11.170872
 21
27.789131
 31
0.2
  0
LINE
  8
PLAN_1
 62
4
 10
-11.170872
 20
27.789131
 30
0.2
 11
-11.339985
 21
27.927921
 31
0.2
  0
LINE
  8
PLAN_1
 62
4
 10
-11.339985
 20
27.927921
 30
0.2
 11
-11.532928
 21
28.031048
 31
0.2
  0
LINE
  8
PLAN_1
 62
4
 10
-11.532928
 20
28.031048
 30
0.2
 11
-11.742283
 21
28.094555
 31
0.2
  0
LINE
  8
PLAN_1
 62
4
 10
-11.742283
 20
28.094555
 30
0.2
 11
-11.960003
 21
28.116001
 31
0.2
  0
LINE
  8
PLAN_1
 62
4
 10
-11.960003
 20
28.116001
 30
0.2
 11
-12.177723
 21
28.094555
 31
0.2
  0
LINE
  8
PLAN_1
 62
4
 10
-12.177723
 20
28.094555
 30
0.2
 11
-12.387077
 21
28.031048
 31
0.2
  0
LINE
  8
PLAN_1
 62
4
 10
-12.387077
 20
28.031048
 30
0.2
 11
-12.580021
 21
27.927921
 31
0.2
  0
LINE
  8
PLAN_1
 62
4
 10
-12.580021
 20
27.927921
 30
0.2
 11
-12.749134
 21
27.789131
 31
0.2
  0
LINE
  8
PLAN_1
 62
4
 10
-12.749134
 20
27.789131
 30
0.2
 11
-12.88792
 21
27.620018
 31
0.2
  0
LINE
  8
PLAN_1
 62
4
 10
-12.88792
 20
27.620018
 30
0.2
 11
-12.991055
 21
27.427074
 31
0.2
  0
LINE
  8
PLAN_1
 62
4
 10
-12.991055
 20
27.427074
 30
0.2
 11
-13.054562
 21
27.21772
 31
0.2
  0
LINE
  8
PLAN_1
 62
4
 10
-13.054562
 20
27.21772
 30
0.2
 11
-13.076
 21
27.0
 31
0.2
  0
LINE
  8
PLAN_1
 62
4
 10
-13.076
 20
27.0
 30
0.2
 11
-13.054562
 21
26.78228
 31
0.2
  0
LINE
  8
PLAN_1
 62
4
 10
-13.054562
 20
26.78228
 30
0.2
 11
-12.991055
 21
26.572926
 31
0.2
  0
LINE
  8
PLAN_1
 62
4
 10
-12.991055
 20
26.572926
 30
0.2
 11
-12.88792
 21
26.379982
 31
0.2
  0
LINE
  8
PLAN_1
 62
4
 10
-12.88792
 20
26.379982
 30
0.2
 11
-12.749134
 21
26.210869
 31
0.2
  0
LINE
  8
PLAN_1
 62
4
 10
-12.749134
 20
26.210869
 30
0.2
 11
-12.580021
 21
26.072079
 31
0.2
  0
LINE
  8
PLAN_1
 62
4
 10
-12.580021
 20
26.072079
 30
0.2
 11
-12.387077
 21
25.968952
 31
0.2
  0
LINE
  8
PLAN_1
 62
4
 10
-12.387077
 20
25.968952
 30
0.2
 11
-12.193699
 21
25.910294
 31
0.2
  0
LINE
  8
PLAN_1
 62
4
 10
-12.193699
 20
25.910294
 30
0.2
 11
-12.193699
 21
21.479496
 31
0.2
  0
LINE
  8
PLAN_1
 62
4
 10
-12.193699
 20
21.479496
 30
0.2
 11
-12.269901
 21
21.479496
 31
0.2
  0
LINE
  8
PLAN_1
 62
4
 10
-12.269901
 20
21.479496
 30
0.2
 11
-12.269901
 21
19.120506
 31
0.2
  0
LINE
  8
PLAN_1
 62
4
 10
-12.269901
 20
19.120506
 30
0.2
 11
-11.418972
 21
19.120506
 31
0.2
  0
LINE
  8
PLAN_1
 62
4
 10
-11.418972
 20
19.120506
 30
0.2
 11
-11.418972
 21
13.279225
 31
0.2
  0
LINE
  8
PLAN_1
 62
4
 10
-11.418972
 20
13.279225
 30
0.2
 11
-15.349098
 21
9.349097
 31
0.2
  0
LINE
  8
PLAN_1
 62
4
 10
-15.349098
 20
9.349097
 30
0.2
 11
-15.410496
 21
9.274283
 31
0.2
  0
LINE
  8
PLAN_1
 62
4
 10
-15.410496
 20
9.274283
 30
0.2
 11
-15.45612
 21
9.18893
 31
0.2
  0
LINE
  8
PLAN_1
 62
4
 10
-15.45612
 20
9.18893
 30
0.2
 11
-15.484211
 21
9.096314
 31
0.2
  0
LINE
  8
PLAN_1
 62
4
 10
-15.484211
 20
9.096314
 30
0.2
 11
-15.493702
 21
8.995437
 31
0.2
  0
LINE
  8
PLAN_1
 62
4
 10
-15.493702
 20
8.995437
 30
0.2
 11
-15.620014
 21
8.927918
 31
0.2
  0
LINE
  8
PLAN_1
 62
4
 10
-15.620014
 20
8.927918
 30
0.2
 11
-15.789131
 21
8.78913
 31
0.2
  0
LINE
  8
PLAN_1
 62
4
 10
-15.789131
 20
8.78913
 30
0.2
 11
-15.927921
 21
8.620015
 31
0.2
  0
LINE
  8
PLAN_1
 62
4
 10
-15.927921
 20
8.620015
 30
0.2
 11
-16.031048
 21
8.427073
 31
0.2
  0
LINE
  8
PLAN_1
 62
4
 10
-16.031048
 20
8.427073
 30
0.2
 11
-16.094555
 21
8.217719
 31
0.2
  0
LINE
  8
PLAN_1
 62
4
 10
-16.094555
 20
8.217719
 30
0.2
 11
-16.116001
 21
7.999999
 31
0.2
  0
LINE
  8
PLAN_1
 62
4
 10
-16.116001
 20
7.999999
 30
0.2
 11
-16.094555
 21
7.782279
 31
0.2
  0
LINE
  8
PLAN_1
 62
4
 10
-16.094555
 20
7.782279
 30
0.2
 11
-16.052979
 21
7.645217
 31
0.2
  0
LINE
  8
PLAN_1
 62
4
 10
-16.052979
 20
7.645217
 30
0.2
 11
-18.704494
 21
4.9937
 31
0.2
  0
LINE
  8
PLAN_1
 62
4
 10
-18.704494
 20
4.9937
 30
0.2
 11
-23.808102
 21
4.9937
 31
0.2
  0
LINE
  8
PLAN_1
 62
4
 10
-23.808102
 20
4.9937
 30
0.2
 11
-23.690903
 21
5.110902
 31
0.2
  0
LINE
  8
PLAN_1
 62
4
 10
-23.690903
 20
5.110902
 30
0.2
 11
-23.629505
 21
5.185715
 31
0.2
  0
LINE
  8
PLAN_1
 62
4
 10
-23.629505
 20
5.185715
 30
0.2
 11
-23.583881
 21
5.27107
 31
0.2
  0
LINE
  8
PLAN_1
 62
4
 10
-23.583881
 20
5.27107
 30
0.2
 11
-23.55579
 21
5.363684
 31
0.2
  0
LINE
  8
PLAN_1
 62
4
 10
-23.55579
 20
5.363684
 30
0.2
 11
-23.546299
 21
5.46
 31
0.2
  0
LINE
  8
PLAN_1
 62
4
 10
-23.546299
 20
5.46
 30
0.2
 11
-23.546299
 21
5.884
 31
0.2
  0
LINE
  8
PLAN_1
 62
4
 10
-23.546299
 20
5.884
 30
0.2
 11
-22.924
 21
5.884
 31
0.2
  0
LINE
  8
PLAN_1
 62
4
 10
-22.924
 20
5.884
 30
0.2
 11
-22.924
 21
8.116
 31
0.2
  0
LINE
  8
PLAN_1
 62
4
 10
-22.924
 20
8.116
 30
0.2
 11
-25.156002
 21
8.116
 31
0.2
  0
LINE
  8
PLAN_1
 62
4
 10
-25.156002
 20
8.116
 30
0.2
 11
-25.156002
 21
5.884
 31
0.2
  0
LINE
  8
PLAN_1
 62
4
 10
-25.156002
 20
5.884
 30
0.2
 11
-24.533703
 21
5.884
 31
0.2
  0
LINE
  8
PLAN_1
 62
4
 10
-24.533703
 20
5.884
 30
0.2
 11
-24.533703
 21
5.664496
 31
0.2
  0
LINE
  8
PLAN_1
 62
4
 10
-24.533703
 20
5.664496
 30
0.2
 11
-25.204494
 21
4.9937
 31
0.2
  0
LINE
  8
PLAN_1
 62
4
 10
-25.204494
 20
4.9937
 30
0.2
 11
-29.546303
 21
4.9937
 31
0.2
  0
LINE
  8
PLAN_1
 62
4
 10
-29.546303
 20
4.9937
 30
0.2
 11
-29.546303
 21
5.884
 31
0.2
  0
LINE
  8
PLAN_1
 62
4
 10
-29.546303
 20
5.884
 30
0.2
 11
-28.924
 21
5.884
 31
0.2
  0
LINE
  8
PLAN_1
 62
4
 10
-28.924
 20
5.884
 30
0.2
 11
-28.924
 21
8.116
 31
0.2
  0
LINE
  8
PLAN_1
 62
4
 10
-28.924
 20
8.116
 30
0.2
 11
-31.156002
 21
8.116
 31
0.2
  0
LINE
  8
PLAN_1
 62
4
 10
-31.156002
 20
8.116
 30
0.2
 11
-31.156002
 21
5.884
 31
0.2
  0
LINE
  8
PLAN_1
 62
4
 10
-31.156002
 20
5.884
 30
0.2
 11
-30.533699
 21
5.884
 31
0.2
  0
LINE
  8
PLAN_1
 62
4
 10
-30.533699
 20
5.884
 30
0.2
 11
-30.533699
 21
4.9937
 31
0.2
  0
LINE
  8
PLAN_1
 62
4
 10
-30.533699
 20
4.9937
 30
0.2
 11
-35.506302
 21
4.9937
 31
0.2
  0
LINE
  8
PLAN_1
 62
4
 10
-35.506302
 20
4.9937
 30
0.2
 11
-35.506302
 21
5.884
 31
0.2
  0
LINE
  8
PLAN_1
 62
4
 10
-35.506302
 20
5.884
 30
0.2
 11
-34.883999
 21
5.884
 31
0.2
  0
LINE
  8
PLAN_1
 62
4
 10
-34.883999
 20
5.884
 30
0.2
 11
-34.883999
 21
8.116
 31
0.2
  0
LINE
  8
PLAN_1
 62
4
 10
-34.883999
 20
8.116
 30
0.2
 11
-35.506302
 21
8.116
 31
0.2
  0
LINE
  8
PLAN_1
 62
4
 10
-35.506302
 20
8.116
 30
0.2
 11
-35.506302
 21
22.8755
 31
0.2
  0
LINE
  8
PLAN_1
 62
4
 10
-35.506302
 20
22.8755
 30
0.2
 11
-32.997807
 21
25.383999
 31
0.2
  0
LINE
  8
PLAN_1
 62
4
 10
-32.997807
 20
25.383999
 30
0.2
 11
-31.464001
 21
25.383999
 31
0.2
  0
LINE
  8
PLAN_1
 62
4
 10
-31.464001
 20
25.383999
 30
0.2
 11
-31.464001
 21
27.616001
 31
0.2
  0
LINE
  8
PLAN_1
 62
4
 10
-31.464001
 20
27.616001
 30
0.2
 11
-33.696003
 21
27.616001
 31
0.2
  0
LINE
  8
PLAN_1
 62
4
 10
-33.696003
 20
27.616001
 30
0.2
 11
-33.696003
 21
26.082195
 31
0.2
  0
LINE
  8
PLAN_1
 62
4
 10
-33.696003
 20
26.082195
 30
0.2
 11
-36.349098
 21
23.4291
 31
0.2
  0
LINE
  8
PLAN_1
 62
4
 10
-36.349098
 20
23.4291
 30
0.2
 11
-36.410496
 21
23.354282
 31
0.2
  0
LINE
  8
PLAN_1
 62
4
 10
-36.410496
 20
23.354282
 30
0.2
 11
-36.45612
 21
23.268929
 31
0.2
  0
LINE
  8
PLAN_1
 62
4
 10
-36.45612
 20
23.268929
 30
0.2
 11
-36.484215
 21
23.176315
 31
0.2
  0
LINE
  8
PLAN_1
 62
4
 10
-36.484215
 20
23.176315
 30
0.2
 11
-36.493698
 21
23.079998
 31
0.2
  0
LINE
  8
PLAN_1
 62
4
 10
-36.493698
 20
23.079998
 30
0.2
 11
-36.493698
 21
8.116
 31
0.2
  0
LINE
  8
PLAN_1
 62
4
 10
-36.493698
 20
8.116
 30
0.2
 11
-37.116001
 21
8.116
 31
0.2
  0
LINE
  8
PLAN_1
 62
4
 10
-37.116001
 20
8.116
 30
0.2
 11
-37.116001
 21
5.884
 31
0.2
  0
LINE
  8
PLAN_1
 62
4
 10
-37.116001
 20
5.884
 30
0.2
 11
-36.493698
 21
5.884
 31
0.2
  0
LINE
  8
PLAN_1
 62
4
 10
-36.493698
 20
5.884
 30
0.2
 11
-36.493698
 21
4.9937
 31
0.2
  0
LINE
  8
PLAN_1
 62
4
 10
-36.493698
 20
4.9937
 30
0.2
 11
-44.295506
 21
4.9937
 31
0.2
  0
LINE
  8
PLAN_1
 62
4
 10
-44.295506
 20
4.9937
 30
0.2
 11
-44.506302
 21
5.204497
 31
0.2
  0
LINE
  8
PLAN_1
 62
4
 10
-44.506302
 20
5.204497
 30
0.2
 11
-44.506302
 21
5.884
 31
0.2
  0
LINE
  8
PLAN_1
 62
4
 10
-44.506302
 20
5.884
 30
0.2
 11
-43.924
 21
5.884
 31
0.2
  0
LINE
  8
PLAN_1
 62
4
 10
-43.924
 20
5.884
 30
0.2
 11
-43.924
 21
8.116
 31
0.2
  0
LINE
  8
PLAN_1
 62
4
 10
-43.924
 20
8.116
 30
0.2
 11
-46.156002
 21
8.116
 31
0.2
  0
LINE
  8
PLAN_1
 62
4
 10
-46.156002
 20
8.116
 30
0.2
 11
-46.156002
 21
5.884
 31
0.2
  0
LINE
  8
PLAN_1
 62
4
 10
-46.156002
 20
5.884
 30
0.2
 11
-45.493698
 21
5.884
 31
0.2
  0
LINE
  8
PLAN_1
 62
4
 10
-45.493698
 20
5.884
 30
0.2
 11
-45.493698
 21
5.0
 31
0.2
  0
LINE
  8
PLAN_1
 62
4
 10
-45.493698
 20
5.0
 30
0.2
 11
-45.484215
 21
4.903684
 31
0.2
  0
LINE
  8
PLAN_1
 62
4
 10
-45.484215
 20
4.903684
 30
0.2
 11
-45.45612
 21
4.811069
 31
0.2
  0
LINE
  8
PLAN_1
 62
4
 10
-45.45612
 20
4.811069
 30
0.2
 11
-45.410496
 21
4.725715
 31
0.2
  0
LINE
  8
PLAN_1
 62
4
 10
-45.410496
 20
4.725715
 30
0.2
 11
-45.349098
 21
4.650902
 31
0.2
  0
LINE
  8
PLAN_1
 62
4
 10
-45.349098
 20
4.650902
 30
0.2
 11
-44.849098
 21
4.150902
 31
0.2
  0
LINE
  8
PLAN_1
 62
4
 10
-44.849098
 20
4.150902
 30
0.2
 11
-44.774284
 21
4.089503
 31
0.2
  0
LINE
  8
PLAN_1
 62
4
 10
-44.774284
 20
4.089503
 30
0.2
 11
-44.688931
 21
4.04388
 31
0.2
  0
LINE
  8
PLAN_1
 62
4
 10
-44.688931
 20
4.04388
 30
0.2
 11
-44.596317
 21
4.015786
 31
0.2
  0
LINE
  8
PLAN_1
 62
4
 10
-44.596317
 20
4.015786
 30
0.2
 11
-44.5
 21
4.0063
 31
0.2
  0
LINE
  8
PLAN_1
 62
4
 10
-44.5
 20
4.0063
 30
0.2
 11
-36.0
 21
4.0063
 31
0.2
  0
LINE
  8
PLAN_1
 62
4
 10
-36.0
 20
4.0063
 30
0.2
 11
-30.0
 21
4.0063
 31
0.2
  0
LINE
  8
PLAN_1
 62
4
 10
-30.0
 20
4.0063
 30
0.2
 11
-25.0
 21
4.0063
 31
0.2
  0
LINE
  8
PLAN_1
 62
4
 10
-25.0
 20
4.0063
 30
0.2
 11
-18.5
 21
4.0063
 31
0.2
  0
LINE
  8
PLAN_1
 62
4
 10
-18.5
 20
4.0063
 30
0.2
 11
-18.403683
 21
4.015786
 31
0.2
  0
LINE
  8
PLAN_1
 62
4
 10
-18.403683
 20
4.015786
 30
0.2
 11
-18.311069
 21
4.04388
 31
0.2
  0
LINE
  8
PLAN_1
 62
4
 10
-18.311069
 20
4.04388
 30
0.2
 11
-18.225716
 21
4.089503
 31
0.2
  0
LINE
  8
PLAN_1
 62
4
 10
-18.225716
 20
4.089503
 30
0.2
 11
-18.150902
 21
4.150901
 31
0.2
  0
LINE
  8
PLAN_1
 62
4
 10
-18.150902
 20
4.150901
 30
0.2
 11
-15.354782
 21
6.94702
 31
0.2
  0
LINE
  8
PLAN_1
 62
4
 10
-15.354782
 20
6.94702
 30
0.2
 11
-15.21772
 21
6.905442
 31
0.2
  0
LINE
  8
PLAN_1
 62
4
 10
-15.21772
 20
6.905442
 30
0.2
 11
-15.0
 21
6.883999
 31
0.2
  0
LINE
  8
PLAN_1
 62
4
 10
-15.0
 20
6.883999
 30
0.2
 11
-14.78228
 21
6.905442
 31
0.2
  0
LINE
  8
PLAN_1
 62
4
 10
-14.78228
 20
6.905442
 30
0.2
 11
-14.572926
 21
6.968949
 31
0.2
  0
LINE
  8
PLAN_1
 62
4
 10
-14.572926
 20
6.968949
 30
0.2
 11
-14.379986
 21
7.072079
 31
0.2
  0
LINE
  8
PLAN_1
 62
4
 10
-14.379986
 20
7.072079
 30
0.2
 11
-14.210869
 21
7.210868
 31
0.2
  0
LINE
  8
PLAN_1
 62
4
 10
-14.210869
 20
7.210868
 30
0.2
 11
-14.072079
 21
7.379983
 31
0.2
  0
LINE
  8
PLAN_1
 62
4
 10
-14.072079
 20
7.379983
 30
0.2
 11
-13.968952
 21
7.572925
 31
0.2
  0
LINE
  8
PLAN_1
 62
4
 10
-13.968952
 20
7.572925
 30
0.2
 11
-13.905445
 21
7.782279
 31
0.2
  0
LINE
  8
PLAN_1
 62
4
 10
-13.905445
 20
7.782279
 30
0.2
 11
-13.883999
 21
7.999999
 31
0.2
  0
LINE
  8
PLAN_1
 62
4
 10
-12.274403
 20
13.320504
 30
0.2
 11
-12.274403
 21
15.679494
 31
0.2
  0
LINE
  8
PLAN_1
 62
4
 10
-12.274403
 20
15.679494
 30
0.2
 11
-13.506298
 21
15.679494
 31
0.2
  0
LINE
  8
PLAN_1
 62
4
 10
-13.506298
 20
15.679494
 30
0.2
 11
-13.506298
 21
19.120506
 31
0.2
  0
LINE
  8
PLAN_1
 62
4
 10
-13.506298
 20
19.120506
 30
0.2
 11
-13.430099
 21
19.120506
 31
0.2
  0
LINE
  8
PLAN_1
 62
4
 10
-13.430099
 20
19.120506
 30
0.2
 11
-13.430099
 21
21.479496
 31
0.2
  0
LINE
  8
PLAN_1
 62
4
 10
-13.430099
 20
21.479496
 30
0.2
 11
-13.506298
 21
21.479496
 31
0.2
  0
LINE
  8
PLAN_1
 62
4
 10
-13.506298
 20
21.479496
 30
0.2
 11
-13.506298
 21
23.384998
 31
0.2
  0
LINE
  8
PLAN_1
 62
4
 10
-13.506298
 20
23.384998
 30
0.2
 11
-13.515785
 21
23.481316
 31
0.2
  0
LINE
  8
PLAN_1
 62
4
 10
-13.515785
 20
23.481316
 30
0.2
 11
-13.54388
 21
23.573929
 31
0.2
  0
LINE
  8
PLAN_1
 62
4
 10
-13.54388
 20
23.573929
 30
0.2
 11
-13.589504
 21
23.659283
 31
0.2
  0
LINE
  8
PLAN_1
 62
4
 10
-13.589504
 20
23.659283
 30
0.2
 11
-13.650898
 21
23.734097
 31
0.2
  0
LINE
  8
PLAN_1
 62
4
 10
-13.650898
 20
23.734097
 30
0.2
 11
-14.006298
 21
24.0895
 31
0.2
  0
LINE
  8
PLAN_1
 62
4
 10
-14.006298
 20
24.0895
 30
0.2
 11
-14.006298
 21
26.004562
 31
0.2
  0
LINE
  8
PLAN_1
 62
4
 10
-14.006298
 20
26.004562
 30
0.2
 11
-13.879986
 21
26.072079
 31
0.2
  0
LINE
  8
PLAN_1
 62
4
 10
-13.879986
 20
26.072079
 30
0.2
 11
-13.710869
 21
26.210869
 31
0.2
  0
LINE
  8
PLAN_1
 62
4
 10
-13.710869
 20
26.210869
 30
0.2
 11
-13.572079
 21
26.379982
 31
0.2
  0
LINE
  8
PLAN_1
 62
4
 10
-13.572079
 20
26.379982
 30
0.2
 11
-13.468952
 21
26.572926
 31
0.2
  0
LINE
  8
PLAN_1
 62
4
 10
-13.468952
 20
26.572926
 30
0.2
 11
-13.405445
 21
26.78228
 31
0.2
  0
LINE
  8
PLAN_1
 62
4
 10
-13.405445
 20
26.78228
 30
0.2
 11
-13.383999
 21
27.0
 31
0.2
  0
LINE
  8
PLAN_1
 62
4
 10
-13.383999
 20
27.0
 30
0.2
 11
-13.405445
 21
27.21772
 31
0.2
  0
LINE
  8
PLAN_1
 62
4
 10
-13.405445
 20
27.21772
 30
0.2
 11
-13.468952
 21
27.427074
 31
0.2
  0
LINE
  8
PLAN_1
 62
4
 10
-13.468952
 20
27.427074
 30
0.2
 11
-13.572079
 21
27.620018
 31
0.2
  0
LINE
  8
PLAN_1
 62
4
 10
-13.572079
 20
27.620018
 30
0.2
 11
-13.710869
 21
27.789131
 31
0.2
  0
LINE
  8
PLAN_1
 62
4
 10
-13.710869
 20
27.789131
 30
0.2
 11
-13.879986
 21
27.927921
 31
0.2
  0
LINE
  8
PLAN_1
 62
4
 10
-13.879986
 20
27.927921
 30
0.2
 11
-14.072926
 21
28.031048
 31
0.2
  0
LINE
  8
PLAN_1
 62
4
 10
-14.072926
 20
28.031048
 30
0.2
 11
-14.28228
 21
28.094555
 31
0.2
  0
LINE
  8
PLAN_1
 62
4
 10
-14.28228
 20
28.094555
 30
0.2
 11
-14.5
 21
28.116001
 31
0.2
  0
LINE
  8
PLAN_1
 62
4
 10
-14.5
 20
28.116001
 30
0.2
 11
-14.71772
 21
28.094555
 31
0.2
  0
LINE
  8
PLAN_1
 62
4
 10
-14.71772
 20
28.094555
 30
0.2
 11
-14.927074
 21
28.031048
 31
0.2
  0
LINE
  8
PLAN_1
 62
4
 10
-14.927074
 20
28.031048
 30
0.2
 11
-15.120014
 21
27.927921
 31
0.2
  0
LINE
  8
PLAN_1
 62
4
 10
-15.120014
 20
27.927921
 30
0.2
 11
-15.289131
 21
27.789131
 31
0.2
  0
LINE
  8
PLAN_1
 62
4
 10
-15.289131
 20
27.789131
 30
0.2
 11
-15.427921
 21
27.620018
 31
0.2
  0
LINE
  8
PLAN_1
 62
4
 10
-15.427921
 20
27.620018
 30
0.2
 11
-15.531048
 21
27.427074
 31
0.2
  0
LINE
  8
PLAN_1
 62
4
 10
-15.531048
 20
27.427074
 30
0.2
 11
-15.594555
 21
27.21772
 31
0.2
  0
LINE
  8
PLAN_1
 62
4
 10
-15.594555
 20
27.21772
 30
0.2
 11
-15.616001
 21
27.0
 31
0.2
  0
LINE
  8
PLAN_1
 62
4
 10
-15.616001
 20
27.0
 30
0.2
 11
-15.594555
 21
26.78228
 31
0.2
  0
LINE
  8
PLAN_1
 62
4
 10
-15.594555
 20
26.78228
 30
0.2
 11
-15.531048
 21
26.572926
 31
0.2
  0
LINE
  8
PLAN_1
 62
4
 10
-15.531048
 20
26.572926
 30
0.2
 11
-15.427921
 21
26.379982
 31
0.2
  0
LINE
  8
PLAN_1
 62
4
 10
-15.427921
 20
26.379982
 30
0.2
 11
-15.289131
 21
26.210869
 31
0.2
  0
LINE
  8
PLAN_1
 62
4
 10
-15.289131
 20
26.210869
 30
0.2
 11
-15.120014
 21
26.072079
 31
0.2
  0
LINE
  8
PLAN_1
 62
4
 10
-15.120014
 20
26.072079
 30
0.2
 11
-14.993702
 21
26.004562
 31
0.2
  0
LINE
  8
PLAN_1
 62
4
 10
-14.993702
 20
26.004562
 30
0.2
 11
-14.993702
 21
23.885002
 31
0.2
  0
LINE
  8
PLAN_1
 62
4
 10
-14.993702
 20
23.885002
 30
0.2
 11
-14.984211
 21
23.788685
 31
0.2
  0
LINE
  8
PLAN_1
 62
4
 10
-14.984211
 20
23.788685
 30
0.2
 11
-14.95612
 21
23.696072
 31
0.2
  0
LINE
  8
PLAN_1
 62
4
 10
-14.95612
 20
23.696072
 30
0.2
 11
-14.910496
 21
23.610718
 31
0.2
  0
LINE
  8
PLAN_1
 62
4
 10
-14.910496
 20
23.610718
 30
0.2
 11
-14.849102
 21
23.535904
 31
0.2
  0
LINE
  8
PLAN_1
 62
4
 10
-14.849102
 20
23.535904
 30
0.2
 11
-14.493702
 21
23.1805
 31
0.2
  0
LINE
  8
PLAN_1
 62
4
 10
-14.493702
 20
23.1805
 30
0.2
 11
-14.493702
 21
21.479496
 31
0.2
  0
LINE
  8
PLAN_1
 62
4
 10
-14.493702
 20
21.479496
 30
0.2
 11
-14.569901
 21
21.479496
 31
0.2
  0
LINE
  8
PLAN_1
 62
4
 10
-14.569901
 20
21.479496
 30
0.2
 11
-14.569901
 21
19.120506
 31
0.2
  0
LINE
  8
PLAN_1
 62
4
 10
-14.569901
 20
19.120506
 30
0.2
 11
-14.493702
 21
19.120506
 31
0.2
  0
LINE
  8
PLAN_1
 62
4
 10
-14.493702
 20
19.120506
 30
0.2
 11
-14.493702
 21
15.679494
 31
0.2
  0
LINE
  8
PLAN_1
 62
4
 10
-14.493702
 20
15.679494
 30
0.2
 11
-15.725597
 21
15.679494
 31
0.2
  0
LINE
  8
PLAN_1
 62
4
 10
-15.725597
 20
15.679494
 30
0.2
 11
-15.725597
 21
14.993699
 31
0.2
  0
LINE
  8
PLAN_1
 62
4
 10
-15.725597
 20
14.993699
 30
0.2
 11
-17.022175
 21
14.993699
 31
0.2
  0
LINE
  8
PLAN_1
 62
4
 10
-17.022175
 20
14.993699
 30
0.2
 11
-18.239643
 21
16.211166
 31
0.2
  0
LINE
  8
PLAN_1
 62
4
 10
-18.239643
 20
16.211166
 30
0.2
 11
-18.239643
 21
22.373329
 31
0.2
  0
LINE
  8
PLAN_1
 62
4
 10
-18.239643
 20
22.373329
 30
0.2
 11
-18.249126
 21
22.469646
 31
0.2
  0
LINE
  8
PLAN_1
 62
4
 10
-18.249126
 20
22.469646
 30
0.2
 11
-18.277222
 21
22.56226
 31
0.2
  0
LINE
  8
PLAN_1
 62
4
 10
-18.277222
 20
22.56226
 30
0.2
 11
-18.322845
 21
22.647614
 31
0.2
  0
LINE
  8
PLAN_1
 62
4
 10
-18.322845
 20
22.647614
 30
0.2
 11
-18.384243
 21
22.722427
 31
0.2
  0
LINE
  8
PLAN_1
 62
4
 10
-18.384243
 20
22.722427
 30
0.2
 11
-20.139645
 21
24.477829
 31
0.2
  0
LINE
  8
PLAN_1
 62
4
 10
-20.139645
 20
24.477829
 30
0.2
 11
-20.139645
 21
27.10667
 31
0.2
  0
LINE
  8
PLAN_1
 62
4
 10
-20.139645
 20
27.10667
 30
0.2
 11
-20.149128
 21
27.202988
 31
0.2
  0
LINE
  8
PLAN_1
 62
4
 10
-20.149128
 20
27.202988
 30
0.2
 11
-20.177223
 21
27.295601
 31
0.2
  0
LINE
  8
PLAN_1
 62
4
 10
-20.177223
 20
27.295601
 30
0.2
 11
-20.222847
 21
27.380955
 31
0.2
  0
LINE
  8
PLAN_1
 62
4
 10
-20.222847
 20
27.380955
 30
0.2
 11
-20.284245
 21
27.455769
 31
0.2
  0
LINE
  8
PLAN_1
 62
4
 10
-20.284245
 20
27.455769
 30
0.2
 11
-21.517574
 21
28.689098
 31
0.2
  0
LINE
  8
PLAN_1
 62
4
 10
-21.517574
 20
28.689098
 30
0.2
 11
-22.217571
 21
29.389099
 31
0.2
  0
LINE
  8
PLAN_1
 62
4
 10
-22.217571
 20
29.389099
 30
0.2
 11
-22.292385
 21
29.450497
 31
0.2
  0
LINE
  8
PLAN_1
 62
4
 10
-22.292385
 20
29.450497
 30
0.2
 11
-22.377739
 21
29.49612
 31
0.2
  0
LINE
  8
PLAN_1
 62
4
 10
-22.377739
 20
29.49612
 30
0.2
 11
-22.470356
 21
29.524216
 31
0.2
  0
LINE
  8
PLAN_1
 62
4
 10
-22.470356
 20
29.524216
 30
0.2
 11
-22.566669
 21
29.533699
 31
0.2
  0
LINE
  8
PLAN_1
 62
4
 10
-22.566669
 20
29.533699
 30
0.2
 11
-23.844006
 21
29.533699
 31
0.2
  0
LINE
  8
PLAN_1
 62
4
 10
-23.844006
 20
29.533699
 30
0.2
 11
-23.844006
 21
30.156002
 31
0.2
  0
LINE
  8
PLAN_1
 62
4
 10
-23.844006
 20
30.156002
 30
0.2
 11
-24.466305
 21
30.156002
 31
0.2
  0
LINE
  8
PLAN_1
 62
4
 10
-24.466305
 20
30.156002
 30
0.2
 11
-24.466305
 21
31.115002
 31
0.2
  0
LINE
  8
PLAN_1
 62
4
 10
-24.466305
 20
31.115002
 30
0.2
 11
-24.475788
 21
31.211319
 31
0.2
  0
LINE
  8
PLAN_1
 62
4
 10
-24.475788
 20
31.211319
 30
0.2
 11
-24.503883
 21
31.303932
 31
0.2
  0
LINE
  8
PLAN_1
 62
4
 10
-24.503883
 20
31.303932
 30
0.2
 11
-24.549507
 21
31.389286
 31
0.2
  0
LINE
  8
PLAN_1
 62
4
 10
-24.549507
 20
31.389286
 30
0.2
 11
-24.610905
 21
31.4641
 31
0.2
  0
LINE
  8
PLAN_1
 62
4
 10
-24.610905
 20
31.4641
 30
0.2
 11
-24.685719
 21
31.525497
 31
0.2
  0
LINE
  8
PLAN_1
 62
4
 10
-24.685719
 20
31.525497
 30
0.2
 11
-24.771072
 21
31.571121
 31
0.2
  0
LINE
  8
PLAN_1
 62
4
 10
-24.771072
 20
31.571121
 30
0.2
 11
-24.863689
 21
31.599216
 31
0.2
  0
LINE
  8
PLAN_1
 62
4
 10
-24.863689
 20
31.599216
 30
0.2
 11
-24.960003
 21
31.6087
 31
0.2
  0
LINE
  8
PLAN_1
 62
4
 10
-24.960003
 20
31.6087
 30
0.2
 11
-25.380001
 21
31.6087
 31
0.2
  0
LINE
  8
PLAN_1
 62
4
 10
-25.380001
 20
31.6087
 30
0.2
 11
-36.695
 21
31.6087
 31
0.2
  0
LINE
  8
PLAN_1
 62
4
 10
-36.695
 20
31.6087
 30
0.2
 11
-36.791317
 21
31.599216
 31
0.2
  0
LINE
  8
PLAN_1
 62
4
 10
-36.791317
 20
31.599216
 30
0.2
 11
-36.88393
 21
31.571121
 31
0.2
  0
LINE
  8
PLAN_1
 62
4
 10
-36.88393
 20
31.571121
 30
0.2
 11
-36.969284
 21
31.525497
 31
0.2
  0
LINE
  8
PLAN_1
 62
4
 10
-36.969284
 20
31.525497
 30
0.2
 11
-37.044098
 21
31.4641
 31
0.2
  0
LINE
  8
PLAN_1
 62
4
 10
-37.044098
 20
31.4641
 30
0.2
 11
-38.889099
 21
29.619099
 31
0.2
  0
LINE
  8
PLAN_1
 62
4
 10
-38.889099
 20
29.619099
 30
0.2
 11
-38.950497
 21
29.544285
 31
0.2
  0
LINE
  8
PLAN_1
 62
4
 10
-38.950497
 20
29.544285
 30
0.2
 11
-38.99612
 21
29.458931
 31
0.2
  0
LINE
  8
PLAN_1
 62
4
 10
-38.99612
 20
29.458931
 30
0.2
 11
-39.024216
 21
29.366318
 31
0.2
  0
LINE
  8
PLAN_1
 62
4
 10
-39.024216
 20
29.366318
 30
0.2
 11
-39.033699
 21
29.27
 31
0.2
  0
LINE
  8
PLAN_1
 62
4
 10
-39.033699
 20
29.27
 30
0.2
 11
-39.033699
 21
8.116
 31
0.2
  0
LINE
  8
PLAN_1
 62
4
 10
-39.033699
 20
8.116
 30
0.2
 11
-39.656002
 21
8.116
 31
0.2
  0
LINE
  8
PLAN_1
 62
4
 10
-39.656002
 20
8.116
 30
0.2
 11
-39.656002
 21
5.884
 31
0.2
  0
LINE
  8
PLAN_1
 62
4
 10
-39.656002
 20
5.884
 30
0.2
 11
-37.424
 21
5.884
 31
0.2
  0
LINE
  8
PLAN_1
 62
4
 10
-37.424
 20
5.884
 30
0.2
 11
-37.424
 21
8.116
 31
0.2
  0
LINE
  8
PLAN_1
 62
4
 10
-37.424
 20
8.116
 30
0.2
 11
-38.046303
 21
8.116
 31
0.2
  0
LINE
  8
PLAN_1
 62
4
 10
-38.046303
 20
8.116
 30
0.2
 11
-38.046303
 21
29.065502
 31
0.2
  0
LINE
  8
PLAN_1
 62
4
 10
-38.046303
 20
29.065502
 30
0.2
 11
-36.490501
 21
30.621304
 31
0.2
  0
LINE
  8
PLAN_1
 62
4
 10
-36.490501
 20
30.621304
 30
0.2
 11
-25.453701
 21
30.621304
 31
0.2
  0
LINE
  8
PLAN_1
 62
4
 10
-25.453701
 20
30.621304
 30
0.2
 11
-25.453701
 21
30.156002
 31
0.2
  0
LINE
  8
PLAN_1
 62
4
 10
-25.453701
 20
30.156002
 30
0.2
 11
-26.076
 21
30.156002
 31
0.2
  0
LINE
  8
PLAN_1
 62
4
 10
-26.076
 20
30.156002
 30
0.2
 11
-26.076
 21
27.924
 31
0.2
  0
LINE
  8
PLAN_1
 62
4
 10
-26.076
 20
27.924
 30
0.2
 11
-23.844006
 21
27.924
 31
0.2
  0
LINE
  8
PLAN_1
 62
4
 10
-23.844006
 20
27.924
 30
0.2
 11
-23.844006
 21
28.546303
 31
0.2
  0
LINE
  8
PLAN_1
 62
4
 10
-23.844006
 20
28.546303
 30
0.2
 11
-22.771168
 21
28.546303
 31
0.2
  0
LINE
  8
PLAN_1
 62
4
 10
-22.771168
 20
28.546303
 30
0.2
 11
-22.215771
 21
27.990902
 31
0.2
  0
LINE
  8
PLAN_1
 62
4
 10
-22.215771
 20
27.990902
 30
0.2
 11
-21.127041
 21
26.902172
 31
0.2
  0
LINE
  8
PLAN_1
 62
4
 10
-21.127041
 20
26.902172
 30
0.2
 11
-21.127041
 21
24.273331
 31
0.2
  0
LINE
  8
PLAN_1
 62
4
 10
-21.127041
 20
24.273331
 30
0.2
 11
-21.117558
 21
24.177013
 31
0.2
  0
LINE
  8
PLAN_1
 62
4
 10
-21.117558
 20
24.177013
 30
0.2
 11
-21.089462
 21
24.0844
 31
0.2
  0
LINE
  8
PLAN_1
 62
4
 10
-21.089462
 20
24.0844
 30
0.2
 11
-21.043839
 21
23.999046
 31
0.2
  0
LINE
  8
PLAN_1
 62
4
 10
-21.043839
 20
23.999046
 30
0.2
 11
-20.982441
 21
23.924232
 31
0.2
  0
LINE
  8
PLAN_1
 62
4
 10
-20.982441
 20
23.924232
 30
0.2
 11
-19.227039
 21
22.168835
 31
0.2
  0
LINE
  8
PLAN_1
 62
4
 10
-19.227039
 20
22.168835
 30
0.2
 11
-19.227039
 21
16.006668
 31
0.2
  0
LINE
  8
PLAN_1
 62
4
 10
-19.227039
 20
16.006668
 30
0.2
 11
-19.217556
 21
15.910354
 31
0.2
  0
LINE
  8
PLAN_1
 62
4
 10
-19.217556
 20
15.910354
 30
0.2
 11
-19.189461
 21
15.817739
 31
0.2
  0
LINE
  8
PLAN_1
 62
4
 10
-19.189461
 20
15.817739
 30
0.2
 11
-19.143837
 21
15.732385
 31
0.2
  0
LINE
  8
PLAN_1
 62
4
 10
-19.143837
 20
15.732385
 30
0.2
 11
-19.082439
 21
15.657571
 31
0.2
  0
LINE
  8
PLAN_1
 62
4
 10
-19.082439
 20
15.657571
 30
0.2
 11
-17.575771
 21
14.150901
 31
0.2
  0
LINE
  8
PLAN_1
 62
4
 10
-17.575771
 20
14.150901
 30
0.2
 11
-17.500957
 21
14.089503
 31
0.2
  0
LINE
  8
PLAN_1
 62
4
 10
-17.500957
 20
14.089503
 30
0.2
 11
-17.415604
 21
14.04388
 31
0.2
  0
LINE
  8
PLAN_1
 62
4
 10
-17.415604
 20
14.04388
 30
0.2
 11
-17.32299
 21
14.015786
 31
0.2
  0
LINE
  8
PLAN_1
 62
4
 10
-17.32299
 20
14.015786
 30
0.2
 11
-17.226673
 21
14.006299
 31
0.2
  0
LINE
  8
PLAN_1
 62
4
 10
-17.226673
 20
14.006299
 30
0.2
 11
-15.725597
 21
14.006299
 31
0.2
  0
LINE
  8
PLAN_1
 62
4
 10
-15.725597
 20
14.006299
 30
0.2
 11
-15.725597
 21
13.320504
 31
0.2
  0
LINE
  8
PLAN_1
 62
4
 10
-15.725597
 20
13.320504
 30
0.2
 11
-12.274403
 21
13.320504
 31
0.2
  0
LINE
  8
PLAN_1
 62
4
 10
-21.006298
 20
13.32443
 30
0.2
 11
-21.015789
 21
13.420745
 31
0.2
  0
LINE
  8
PLAN_1
 62
4
 10
-21.015789
 20
13.420745
 30
0.2
 11
-21.04388
 21
13.51336
 31
0.2
  0
LINE
  8
PLAN_1
 62
4
 10
-21.04388
 20
13.51336
 30
0.2
 11
-21.089504
 21
13.598714
 31
0.2
  0
LINE
  8
PLAN_1
 62
4
 10
-21.089504
 20
13.598714
 30
0.2
 11
-21.150902
 21
13.673528
 31
0.2
  0
LINE
  8
PLAN_1
 62
4
 10
-21.150902
 20
13.673528
 30
0.2
 11
-22.27618
 21
14.798806
 31
0.2
  0
LINE
  8
PLAN_1
 62
4
 10
-22.27618
 20
14.798806
 30
0.2
 11
-22.27618
 21
21.132912
 31
0.2
  0
LINE
  8
PLAN_1
 62
4
 10
-22.27618
 20
21.132912
 30
0.2
 11
-22.285664
 21
21.229225
 31
0.2
  0
LINE
  8
PLAN_1
 62
4
 10
-22.285664
 20
21.229225
 30
0.2
 11
-22.313759
 21
21.321842
 31
0.2
  0
LINE
  8
PLAN_1
 62
4
 10
-22.313759
 20
21.321842
 30
0.2
 11
-22.359383
 21
21.407196
 31
0.2
  0
LINE
  8
PLAN_1
 62
4
 10
-22.359383
 20
21.407196
 30
0.2
 11
-22.42078
 21
21.48201
 31
0.2
  0
LINE
  8
PLAN_1
 62
4
 10
-22.42078
 20
21.48201
 30
0.2
 11
-23.024353
 21
22.085579
 31
0.2
  0
LINE
  8
PLAN_1
 62
4
 10
-23.024353
 20
22.085579
 30
0.2
 11
-24.466305
 21
23.527531
 31
0.2
  0
LINE
  8
PLAN_1
 62
4
 10
-24.466305
 20
23.527531
 30
0.2
 11
-24.466305
 21
25.383999
 31
0.2
  0
LINE
  8
PLAN_1
 62
4
 10
-24.466305
 20
25.383999
 30
0.2
 11
-23.844006
 21
25.383999
 31
0.2
  0
LINE
  8
PLAN_1
 62
4
 10
-23.844006
 20
25.383999
 30
0.2
 11
-23.844006
 21
27.616001
 31
0.2
  0
LINE
  8
PLAN_1
 62
4
 10
-23.844006
 20
27.616001
 30
0.2
 11
-26.076
 21
27.616001
 31
0.2
  0
LINE
  8
PLAN_1
 62
4
 10
-26.076
 20
27.616001
 30
0.2
 11
-26.076
 21
25.383999
 31
0.2
  0
LINE
  8
PLAN_1
 62
4
 10
-26.076
 20
25.383999
 30
0.2
 11
-25.453701
 21
25.383999
 31
0.2
  0
LINE
  8
PLAN_1
 62
4
 10
-25.453701
 20
25.383999
 30
0.2
 11
-25.453701
 21
23.323029
 31
0.2
  0
LINE
  8
PLAN_1
 62
4
 10
-25.453701
 20
23.323029
 30
0.2
 11
-25.444218
 21
23.226715
 31
0.2
  0
LINE
  8
PLAN_1
 62
4
 10
-25.444218
 20
23.226715
 30
0.2
 11
-25.416122
 21
23.134098
 31
0.2
  0
LINE
  8
PLAN_1
 62
4
 10
-25.416122
 20
23.134098
 30
0.2
 11
-25.370499
 21
23.048744
 31
0.2
  0
LINE
  8
PLAN_1
 62
4
 10
-25.370499
 20
23.048744
 30
0.2
 11
-25.309101
 21
22.97393
 31
0.2
  0
LINE
  8
PLAN_1
 62
4
 10
-25.309101
 20
22.97393
 30
0.2
 11
-23.722549
 21
21.387379
 31
0.2
  0
LINE
  8
PLAN_1
 62
4
 10
-23.722549
 20
21.387379
 30
0.2
 11
-23.263577
 21
20.928413
 31
0.2
  0
LINE
  8
PLAN_1
 62
4
 10
-23.263577
 20
20.928413
 30
0.2
 11
-23.263577
 21
14.59431
 31
0.2
  0
LINE
  8
PLAN_1
 62
4
 10
-23.263577
 20
14.59431
 30
0.2
 11
-23.254093
 21
14.497994
 31
0.2
  0
LINE
  8
PLAN_1
 62
4
 10
-23.254093
 20
14.497994
 30
0.2
 11
-23.225998
 21
14.405379
 31
0.2
  0
LINE
  8
PLAN_1
 62
4
 10
-23.225998
 20
14.405379
 30
0.2
 11
-23.180378
 21
14.320025
 31
0.2
  0
LINE
  8
PLAN_1
 62
4
 10
-23.180378
 20
14.320025
 30
0.2
 11
-23.118977
 21
14.245212
 31
0.2
  0
LINE
  8
PLAN_1
 62
4
 10
-23.118977
 20
14.245212
 30
0.2
 11
-21.993702
 21
13.119933
 31
0.2
  0
LINE
  8
PLAN_1
 62
4
 10
-21.993702
 20
13.119933
 30
0.2
 11
-21.993702
 21
8.116
 31
0.2
  0
LINE
  8
PLAN_1
 62
4
 10
-21.993702
 20
8.116
 30
0.2
 11
-22.616001
 21
8.116
 31
0.2
  0
LINE
  8
PLAN_1
 62
4
 10
-22.616001
 20
8.116
 30
0.2
 11
-22.616001
 21
5.884
 31
0.2
  0
LINE
  8
PLAN_1
 62
4
 10
-22.616001
 20
5.884
 30
0.2
 11
-20.383999
 21
5.884
 31
0.2
  0
LINE
  8
PLAN_1
 62
4
 10
-20.383999
 20
5.884
 30
0.2
 11
-20.383999
 21
8.116
 31
0.2
  0
LINE
  8
PLAN_1
 62
4
 10
-20.383999
 20
8.116
 30
0.2
 11
-21.006298
 21
8.116
 31
0.2
  0
LINE
  8
PLAN_1
 62
4
 10
-21.006298
 20
8.116
 30
0.2
 11
-21.006298
 21
13.32443
 31
0.2
  0
LINE
  8
PLAN_1
 62
4
 10
-26.53001
 20
12.032943
 30
0.2
 11
-26.586288
 21
12.218471
 31
0.2
  0
LINE
  8
PLAN_1
 62
4
 10
-26.586288
 20
12.218471
 30
0.2
 11
-26.677681
 21
12.389455
 31
0.2
  0
LINE
  8
PLAN_1
 62
4
 10
-26.677681
 20
12.389455
 30
0.2
 11
-26.800674
 21
12.539325
 31
0.2
  0
LINE
  8
PLAN_1
 62
4
 10
-26.800674
 20
12.539325
 30
0.2
 11
-26.950542
 21
12.662318
 31
0.2
  0
LINE
  8
PLAN_1
 62
4
 10
-26.950542
 20
12.662318
 30
0.2
 11
-27.121529
 21
12.753711
 31
0.2
  0
LINE
  8
PLAN_1
 62
4
 10
-27.121529
 20
12.753711
 30
0.2
 11
-27.307056
 21
12.809991
 31
0.2
  0
LINE
  8
PLAN_1
 62
4
 10
-27.307056
 20
12.809991
 30
0.2
 11
-27.5
 21
12.828994
 31
0.2
  0
LINE
  8
PLAN_1
 62
4
 10
-27.5
 20
12.828994
 30
0.2
 11
-27.692944
 21
12.809991
 31
0.2
  0
LINE
  8
PLAN_1
 62
4
 10
-27.692944
 20
12.809991
 30
0.2
 11
-27.878471
 21
12.753711
 31
0.2
  0
LINE
  8
PLAN_1
 62
4
 10
-27.878471
 20
12.753711
 30
0.2
 11
-28.049458
 21
12.662318
 31
0.2
  0
LINE
  8
PLAN_1
 62
4
 10
-28.049458
 20
12.662318
 30
0.2
 11
-28.199326
 21
12.539325
 31
0.2
  0
LINE
  8
PLAN_1
 62
4
 10
-28.199326
 20
12.539325
 30
0.2
 11
-28.322319
 21
12.389455
 31
0.2
  0
LINE
  8
PLAN_1
 62
4
 10
-28.322319
 20
12.389455
 30
0.2
 11
-28.413712
 21
12.218471
 31
0.2
  0
LINE
  8
PLAN_1
 62
4
 10
-28.413712
 20
12.218471
 30
0.2
 11
-28.469994
 21
12.032943
 31
0.2
  0
LINE
  8
PLAN_1
 62
4
 10
-28.469994
 20
12.032943
 30
0.2
 11
-28.488995
 21
11.839999
 31
0.2
  0
LINE
  8
PLAN_1
 62
4
 10
-28.488995
 20
11.839999
 30
0.2
 11
-28.469994
 21
11.647056
 31
0.2
  0
LINE
  8
PLAN_1
 62
4
 10
-28.469994
 20
11.647056
 30
0.2
 11
-28.413712
 21
11.461528
 31
0.2
  0
LINE
  8
PLAN_1
 62
4
 10
-28.413712
 20
11.461528
 30
0.2
 11
-28.322319
 21
11.290544
 31
0.2
  0
LINE
  8
PLAN_1
 62
4
 10
-28.322319
 20
11.290544
 30
0.2
 11
-28.199326
 21
11.140674
 31
0.2
  0
LINE
  8
PLAN_1
 62
4
 10
-28.199326
 20
11.140674
 30
0.2
 11
-28.049458
 21
11.01768
 31
0.2
  0
LINE
  8
PLAN_1
 62
4
 10
-28.049458
 20
11.01768
 30
0.2
 11
-27.993698
 21
10.987876
 31
0.2
  0
LINE
  8
PLAN_1
 62
4
 10
-27.993698
 20
10.987876
 30
0.2
 11
-27.993698
 21
8.116
 31
0.2
  0
LINE
  8
PLAN_1
 62
4
 10
-27.993698
 20
8.116
 30
0.2
 11
-28.616001
 21
8.116
 31
0.2
  0
LINE
  8
PLAN_1
 62
4
 10
-28.616001
 20
8.116
 30
0.2
 11
-28.616001
 21
5.884
 31
0.2
  0
LINE
  8
PLAN_1
 62
4
 10
-28.616001
 20
5.884
 30
0.2
 11
-26.383999
 21
5.884
 31
0.2
  0
LINE
  8
PLAN_1
 62
4
 10
-26.383999
 20
5.884
 30
0.2
 11
-26.383999
 21
8.116
 31
0.2
  0
LINE
  8
PLAN_1
 62
4
 10
-26.383999
 20
8.116
 30
0.2
 11
-27.006298
 21
8.116
 31
0.2
  0
LINE
  8
PLAN_1
 62
4
 10
-27.006298
 20
8.116
 30
0.2
 11
-27.006298
 21
10.987878
 31
0.2
  0
LINE
  8
PLAN_1
 62
4
 10
-27.006298
 20
10.987878
 30
0.2
 11
-26.950542
 21
11.01768
 31
0.2
  0
LINE
  8
PLAN_1
 62
4
 10
-26.950542
 20
11.01768
 30
0.2
 11
-26.800674
 21
11.140674
 31
0.2
  0
LINE
  8
PLAN_1
 62
4
 10
-26.800674
 20
11.140674
 30
0.2
 11
-26.677681
 21
11.290544
 31
0.2
  0
LINE
  8
PLAN_1
 62
4
 10
-26.677681
 20
11.290544
 30
0.2
 11
-26.586288
 21
11.461528
 31
0.2
  0
LINE
  8
PLAN_1
 62
4
 10
-26.586288
 20
11.461528
 30
0.2
 11
-26.53001
 21
11.647056
 31
0.2
  0
LINE
  8
PLAN_1
 62
4
 10
-26.53001
 20
11.647056
 30
0.2
 11
-26.511005
 21
11.839999
 31
0.2
  0
LINE
  8
PLAN_1
 62
4
 10
-26.511005
 20
11.839999
 30
0.2
 11
-26.53001
 21
12.032943
 31
0.2
  0
LINE
  8
PLAN_1
 62
4
 10
-32.343998
 20
8.116
 30
0.2
 11
-32.506302
 21
8.116
 31
0.2
  0
LINE
  8
PLAN_1
 62
4
 10
-32.506302
 20
8.116
 30
0.2
 11
-32.506302
 21
19.795502
 31
0.2
  0
LINE
  8
PLAN_1
 62
4
 10
-32.506302
 20
19.795502
 30
0.2
 11
-29.690903
 21
22.610901
 31
0.2
  0
LINE
  8
PLAN_1
 62
4
 10
-29.690903
 20
22.610901
 30
0.2
 11
-29.629505
 21
22.685715
 31
0.2
  0
LINE
  8
PLAN_1
 62
4
 10
-29.629505
 20
22.685715
 30
0.2
 11
-29.583881
 21
22.771069
 31
0.2
  0
LINE
  8
PLAN_1
 62
4
 10
-29.583881
 20
22.771069
 30
0.2
 11
-29.555786
 21
22.863686
 31
0.2
  0
LINE
  8
PLAN_1
 62
4
 10
-29.555786
 20
22.863686
 30
0.2
 11
-29.546303
 21
22.959999
 31
0.2
  0
LINE
  8
PLAN_1
 62
4
 10
-29.546303
 20
22.959999
 30
0.2
 11
-29.546303
 21
25.383999
 31
0.2
  0
LINE
  8
PLAN_1
 62
4
 10
-29.546303
 20
25.383999
 30
0.2
 11
-28.924
 21
25.383999
 31
0.2
  0
LINE
  8
PLAN_1
 62
4
 10
-28.924
 20
25.383999
 30
0.2
 11
-28.924
 21
27.616001
 31
0.2
  0
LINE
  8
PLAN_1
 62
4
 10
-28.924
 20
27.616001
 30
0.2
 11
-31.156002
 21
27.616001
 31
0.2
  0
LINE
  8
PLAN_1
 62
4
 10
-31.156002
 20
27.616001
 30
0.2
 11
-31.156002
 21
25.383999
 31
0.2
  0
LINE
  8
PLAN_1
 62
4
 10
-31.156002
 20
25.383999
 30
0.2
 11
-30.533699
 21
25.383999
 31
0.2
  0
LINE
  8
PLAN_1
 62
4
 10
-30.533699
 20
25.383999
 30
0.2
 11
-30.533699
 21
23.164497
 31
0.2
  0
LINE
  8
PLAN_1
 62
4
 10
-30.533699
 20
23.164497
 30
0.2
 11
-33.349098
 21
20.349098
 31
0.2
  0
LINE
  8
PLAN_1
 62
4
 10
-33.349098
 20
20.349098
 30
0.2
 11
-33.410496
 21
20.274284
 31
0.2
  0
LINE
  8
PLAN_1
 62
4
 10
-33.410496
 20
20.274284
 30
0.2
 11
-33.45612
 21
20.188931
 31
0.2
  0
LINE
  8
PLAN_1
 62
4
 10
-33.45612
 20
20.188931
 30
0.2
 11
-33.484215
 21
20.096313
 31
0.2
  0
LINE
  8
PLAN_1
 62
4
 10
-33.484215
 20
20.096313
 30
0.2
 11
-33.493698
 21
20.0
 31
0.2
  0
LINE
  8
PLAN_1
 62
4
 10
-33.493698
 20
20.0
 30
0.2
 11
-33.493698
 21
8.116
 31
0.2
  0
LINE
  8
PLAN_1
 62
4
 10
-33.493698
 20
8.116
 30
0.2
 11
-34.576
 21
8.116
 31
0.2
  0
LINE
  8
PLAN_1
 62
4
 10
-34.576
 20
8.116
 30
0.2
 11
-34.576
 21
5.884
 31
0.2
  0
LINE
  8
PLAN_1
 62
4
 10
-34.576
 20
5.884
 30
0.2
 11
-32.343998
 21
5.884
 31
0.2
  0
LINE
  8
PLAN_1
 62
4
 10
-32.343998
 20
5.884
 30
0.2
 11
-32.343998
 21
8.116
 31
0.2
  0
LINE
  8
PLAN_1
 62
4
 10
-27.878471
 20
21.086288
 30
0.2
 11
-27.692944
 21
21.030006
 31
0.2
  0
LINE
  8
PLAN_1
 62
4
 10
-27.692944
 20
21.030006
 30
0.2
 11
-27.5
 21
21.011005
 31
0.2
  0
LINE
  8
PLAN_1
 62
4
 10
-27.5
 20
21.011005
 30
0.2
 11
-27.307056
 21
21.030006
 31
0.2
  0
LINE
  8
PLAN_1
 62
4
 10
-27.307056
 20
21.030006
 30
0.2
 11
-27.121529
 21
21.086288
 31
0.2
  0
LINE
  8
PLAN_1
 62
4
 10
-27.121529
 20
21.086288
 30
0.2
 11
-26.950542
 21
21.177681
 31
0.2
  0
LINE
  8
PLAN_1
 62
4
 10
-26.950542
 20
21.177681
 30
0.2
 11
-26.800674
 21
21.300674
 31
0.2
  0
LINE
  8
PLAN_1
 62
4
 10
-26.800674
 20
21.300674
 30
0.2
 11
-26.677681
 21
21.450542
 31
0.2
  0
LINE
  8
PLAN_1
 62
4
 10
-26.677681
 20
21.450542
 30
0.2
 11
-26.586288
 21
21.621529
 31
0.2
  0
LINE
  8
PLAN_1
 62
4
 10
-26.586288
 20
21.621529
 30
0.2
 11
-26.53001
 21
21.807056
 31
0.2
  0
LINE
  8
PLAN_1
 62
4
 10
-26.53001
 20
21.807056
 30
0.2
 11
-26.511005
 21
22.0
 31
0.2
  0
LINE
  8
PLAN_1
 62
4
 10
-26.511005
 20
22.0
 30
0.2
 11
-26.53001
 21
22.192944
 31
0.2
  0
LINE
  8
PLAN_1
 62
4
 10
-26.53001
 20
22.192944
 30
0.2
 11
-26.586288
 21
22.378471
 31
0.2
  0
LINE
  8
PLAN_1
 62
4
 10
-26.586288
 20
22.378471
 30
0.2
 11
-26.677681
 21
22.549454
 31
0.2
  0
LINE
  8
PLAN_1
 62
4
 10
-26.677681
 20
22.549454
 30
0.2
 11
-26.800674
 21
22.699326
 31
0.2
  0
LINE
  8
PLAN_1
 62
4
 10
-26.800674
 20
22.699326
 30
0.2
 11
-26.950542
 21
22.822319
 31
0.2
  0
LINE
  8
PLAN_1
 62
4
 10
-26.950542
 20
22.822319
 30
0.2
 11
-27.006298
 21
22.852119
 31
0.2
  0
LINE
  8
PLAN_1
 62
4
 10
-27.006298
 20
22.852119
 30
0.2
 11
-27.006298
 21
25.383999
 31
0.2
  0
LINE
  8
PLAN_1
 62
4
 10
-27.006298
 20
25.383999
 30
0.2
 11
-26.383999
 21
25.383999
 31
0.2
  0
LINE
  8
PLAN_1
 62
4
 10
-26.383999
 20
25.383999
 30
0.2
 11
-26.383999
 21
27.616001
 31
0.2
  0
LINE
  8
PLAN_1
 62
4
 10
-26.383999
 20
27.616001
 30
0.2
 11
-28.616001
 21
27.616001
 31
0.2
  0
LINE
  8
PLAN_1
 62
4
 10
-28.616001
 20
27.616001
 30
0.2
 11
-28.616001
 21
25.383999
 31
0.2
  0
LINE
  8
PLAN_1
 62
4
 10
-28.616001
 20
25.383999
 30
0.2
 11
-27.993698
 21
25.383999
 31
0.2
  0
LINE
  8
PLAN_1
 62
4
 10
-27.993698
 20
25.383999
 30
0.2
 11
-27.993698
 21
22.852123
 31
0.2
  0
LINE
  8
PLAN_1
 62
4
 10
-27.993698
 20
22.852123
 30
0.2
 11
-28.049458
 21
22.822319
 31
0.2
  0
LINE
  8
PLAN_1
 62
4
 10
-28.049458
 20
22.822319
 30
0.2
 11
-28.199326
 21
22.699326
 31
0.2
  0
LINE
  8
PLAN_1
 62
4
 10
-28.199326
 20
22.699326
 30
0.2
 11
-28.322319
 21
22.549454
 31
0.2
  0
LINE
  8
PLAN_1
 62
4
 10
-28.322319
 20
22.549454
 30
0.2
 11
-28.413712
 21
22.378471
 31
0.2
  0
LINE
  8
PLAN_1
 62
4
 10
-28.413712
 20
22.378471
 30
0.2
 11
-28.469994
 21
22.192944
 31
0.2
  0
LINE
  8
PLAN_1
 62
4
 10
-28.469994
 20
22.192944
 30
0.2
 11
-28.488995
 21
22.0
 31
0.2
  0
LINE
  8
PLAN_1
 62
4
 10
-28.488995
 20
22.0
 30
0.2
 11
-28.469994
 21
21.807056
 31
0.2
  0
LINE
  8
PLAN_1
 62
4
 10
-28.469994
 20
21.807056
 30
0.2
 11
-28.413712
 21
21.621529
 31
0.2
  0
LINE
  8
PLAN_1
 62
4
 10
-28.413712
 20
21.621529
 30
0.2
 11
-28.322319
 21
21.450542
 31
0.2
  0
LINE
  8
PLAN_1
 62
4
 10
-28.322319
 20
21.450542
 30
0.2
 11
-28.199326
 21
21.300674
 31
0.2
  0
LINE
  8
PLAN_1
 62
4
 10
-28.199326
 20
21.300674
 30
0.2
 11
-28.049458
 21
21.177681
 31
0.2
  0
LINE
  8
PLAN_1
 62
4
 10
-28.049458
 20
21.177681
 30
0.2
 11
-27.878471
 21
21.086288
 31
0.2
  0
LINE
  8
PLAN_1
 62
4
 10
-28.616001
 20
27.924
 30
0.2
 11
-26.383999
 21
27.924
 31
0.2
  0
LINE
  8
PLAN_1
 62
4
 10
-26.383999
 20
27.924
 30
0.2
 11
-26.383999
 21
30.156002
 31
0.2
  0
LINE
  8
PLAN_1
 62
4
 10
-26.383999
 20
30.156002
 30
0.2
 11
-28.616001
 21
30.156002
 31
0.2
  0
LINE
  8
PLAN_1
 62
4
 10
-28.616001
 20
30.156002
 30
0.2
 11
-28.616001
 21
27.924
 31
0.2
  0
LINE
  8
PLAN_1
 62
4
 10
-28.924
 20
27.924
 30
0.2
 11
-28.924
 21
30.156002
 31
0.2
  0
LINE
  8
PLAN_1
 62
4
 10
-28.924
 20
30.156002
 30
0.2
 11
-31.156002
 21
30.156002
 31
0.2
  0
LINE
  8
PLAN_1
 62
4
 10
-31.156002
 20
30.156002
 30
0.2
 11
-31.156002
 21
27.924
 31
0.2
  0
LINE
  8
PLAN_1
 62
4
 10
-31.156002
 20
27.924
 30
0.2
 11
-28.924
 21
27.924
 31
0.2
  0
LINE
  8
PLAN_1
 62
4
 10
-31.464001
 20
27.924
 30
0.2
 11
-31.464001
 21
30.156002
 31
0.2
  0
LINE
  8
PLAN_1
 62
4
 10
-31.464001
 20
30.156002
 30
0.2
 11
-33.696003
 21
30.156002
 31
0.2
  0
LINE
  8
PLAN_1
 62
4
 10
-33.696003
 20
30.156002
 30
0.2
 11
-33.696003
 21
27.924
 31
0.2
  0
LINE
  8
PLAN_1
 62
4
 10
-33.696003
 20
27.924
 30
0.2
 11
-31.464001
 21
27.924
 31
0.2
  0
LINE
  8
PLAN_1
 62
7
 10
-18.87978
 20
3.726166
 30
0.2
 11
-47.035767
 21
3.726166
 31
0.2
  0
LINE
  8
PLAN_1
 62
7
 10
-47.035767
 20
3.726166
 30
0.2
 11
-47.035767
 21
3.779756
 31
0.2
  0
LINE
  8
PLAN_1
 62
7
 10
-47.035767
 20
3.779756
 30
0.2
 11
-18.87978
 21
3.779756
 31
0.2
  0
LINE
  8
PLAN_1
 62
7
 10
-18.87978
 20
3.779756
 30
0.2
 11
-18.87978
 21
3.833345
 31
0.2
  0
LINE
  8
PLAN_1
 62
7
 10
-18.87978
 20
3.833345
 30
0.2
 11
-47.035767
 21
3.833345
 31
0.2
  0
LINE
  8
PLAN_1
 62
7
 10
-47.035767
 20
3.833345
 30
0.2
 11
-47.035767
 21
3.886935
 31
0.2
  0
LINE
  8
PLAN_1
 62
7
 10
-47.035767
 20
3.886935
 30
0.2
 11
-18.87978
 21
3.886935
 31
0.2
  0
LINE
  8
PLAN_1
 62
7
 10
-18.87978
 20
3.886935
 30
0.2
 11
-18.87978
 21
3.940525
 31
0.2
  0
LINE
  8
PLAN_1
 62
7
 10
-18.87978
 20
3.940525
 30
0.2
 11
-47.035767
 21
3.940525
 31
0.2
  0
LINE
  8
PLAN_1
 62
7
 10
-47.035767
 20
3.940525
 30
0.2
 11
-47.035767
 21
3.994115
 31
0.2
  0
LINE
  8
PLAN_1
 62
7
 10
-47.035767
 20
3.994115
 30
0.2
 11
-18.87978
 21
3.994115
 31
0.2
  0
LINE
  8
PLAN_1
 62
7
 10
-18.87978
 20
5.012321
 30
0.2
 11
-23.789482
 21
5.012321
 31
0.2
  0
LINE
  8
PLAN_1
 62
7
 10
-23.735893
 20
5.065911
 30
0.2
 11
-18.87978
 21
5.065911
 31
0.2
  0
LINE
  8
PLAN_1
 62
7
 10
-18.87978
 20
5.065911
 30
0.2
 11
-18.87978
 21
5.119501
 31
0.2
  0
LINE
  8
PLAN_1
 62
7
 10
-18.87978
 20
5.119501
 30
0.2
 11
-23.682304
 21
5.119501
 31
0.2
  0
LINE
  8
PLAN_1
 62
7
 10
-23.639866
 20
5.173091
 30
0.2
 11
-18.87978
 21
5.173091
 31
0.2
  0
LINE
  8
PLAN_1
 62
7
 10
-18.87978
 20
5.173091
 30
0.2
 11
-18.87978
 21
5.226681
 31
0.2
  0
LINE
  8
PLAN_1
 62
7
 10
-18.87978
 20
5.226681
 30
0.2
 11
-23.607609
 21
5.226681
 31
0.2
  0
LINE
  8
PLAN_1
 62
7
 10
-23.581089
 20
5.280271
 30
0.2
 11
-18.87978
 21
5.280271
 31
0.2
  0
LINE
  8
PLAN_1
 62
7
 10
-18.87978
 20
5.280271
 30
0.2
 11
-18.87978
 21
5.33386
 31
0.2
  0
LINE
  8
PLAN_1
 62
7
 10
-18.87978
 20
5.33386
 30
0.2
 11
-23.564835
 21
5.33386
 31
0.2
  0
LINE
  8
PLAN_1
 62
7
 10
-23.553448
 20
5.38745
 30
0.2
 11
-18.87978
 21
5.38745
 31
0.2
  0
LINE
  8
PLAN_1
 62
7
 10
-18.87978
 20
5.38745
 30
0.2
 11
-18.87978
 21
5.44104
 31
0.2
  0
LINE
  8
PLAN_1
 62
7
 10
-18.87978
 20
5.44104
 30
0.2
 11
-23.548168
 21
5.44104
 31
0.2
  0
LINE
  8
PLAN_1
 62
7
 10
-23.546299
 20
5.49463
 30
0.2
 11
-18.87978
 21
5.49463
 31
0.2
  0
LINE
  8
PLAN_1
 62
7
 10
-18.87978
 20
5.49463
 30
0.2
 11
-18.87978
 21
5.54822
 31
0.2
  0
LINE
  8
PLAN_1
 62
7
 10
-18.87978
 20
5.54822
 30
0.2
 11
-23.546299
 21
5.54822
 31
0.2
  0
LINE
  8
PLAN_1
 62
7
 10
-23.546299
 20
5.54822
 30
0.2
 11
-23.546299
 21
5.60181
 31
0.2
  0
LINE
  8
PLAN_1
 62
7
 10
-23.546299
 20
5.60181
 30
0.2
 11
-18.87978
 21
5.60181
 31
0.2
  0
LINE
  8
PLAN_1
 62
7
 10
-18.87978
 20
5.60181
 30
0.2
 11
-18.87978
 21
5.655399
 31
0.2
  0
LINE
  8
PLAN_1
 62
7
 10
-18.87978
 20
5.655399
 30
0.2
 11
-23.546299
 21
5.655399
 31
0.2
  0
LINE
  8
PLAN_1
 62
7
 10
-23.546299
 20
5.655399
 30
0.2
 11
-23.546299
 21
5.708989
 31
0.2
  0
LINE
  8
PLAN_1
 62
7
 10
-23.546299
 20
5.708989
 30
0.2
 11
-18.87978
 21
5.708989
 31
0.2
  0
LINE
  8
PLAN_1
 62
7
 10
-18.87978
 20
5.708989
 30
0.2
 11
-18.87978
 21
5.762579
 31
0.2
  0
LINE
  8
PLAN_1
 62
7
 10
-18.87978
 20
5.762579
 30
0.2
 11
-23.546299
 21
5.762579
 31
0.2
  0
LINE
  8
PLAN_1
 62
7
 10
-23.546299
 20
5.762579
 30
0.2
 11
-23.546299
 21
5.816169
 31
0.2
  0
LINE
  8
PLAN_1
 62
7
 10
-23.546299
 20
5.816169
 30
0.2
 11
-18.87978
 21
5.816169
 31
0.2
  0
LINE
  8
PLAN_1
 62
7
 10
-18.87978
 20
5.816169
 30
0.2
 11
-18.87978
 21
5.869759
 31
0.2
  0
LINE
  8
PLAN_1
 62
7
 10
-18.87978
 20
5.869759
 30
0.2
 11
-23.546299
 21
5.869759
 31
0.2
  0
LINE
  8
PLAN_1
 62
7
 10
-22.924
 20
5.923348
 30
0.2
 11
-22.616001
 21
5.923348
 31
0.2
  0
LINE
  8
PLAN_1
 62
7
 10
-22.616001
 20
5.923348
 30
0.2
 11
-22.616001
 21
5.976938
 31
0.2
  0
LINE
  8
PLAN_1
 62
7
 10
-22.616001
 20
5.976938
 30
0.2
 11
-22.924
 21
5.976938
 31
0.2
  0
LINE
  8
PLAN_1
 62
7
 10
-22.924
 20
5.976938
 30
0.2
 11
-22.924
 21
6.030528
 31
0.2
  0
LINE
  8
PLAN_1
 62
7
 10
-22.924
 20
6.030528
 30
0.2
 11
-22.616001
 21
6.030528
 31
0.2
  0
LINE
  8
PLAN_1
 62
7
 10
-22.616001
 20
6.030528
 30
0.2
 11
-22.616001
 21
6.084118
 31
0.2
  0
LINE
  8
PLAN_1
 62
7
 10
-22.616001
 20
6.084118
 30
0.2
 11
-22.924
 21
6.084118
 31
0.2
  0
LINE
  8
PLAN_1
 62
7
 10
-22.924
 20
6.084118
 30
0.2
 11
-22.924
 21
6.137708
 31
0.2
  0
LINE
  8
PLAN_1
 62
7
 10
-22.924
 20
6.137708
 30
0.2
 11
-22.616001
 21
6.137708
 31
0.2
  0
LINE
  8
PLAN_1
 62
7
 10
-22.616001
 20
6.137708
 30
0.2
 11
-22.616001
 21
6.191298
 31
0.2
  0
LINE
  8
PLAN_1
 62
7
 10
-22.616001
 20
6.191298
 30
0.2
 11
-22.924
 21
6.191298
 31
0.2
  0
LINE
  8
PLAN_1
 62
7
 10
-22.924
 20
6.191298
 30
0.2
 11
-22.924
 21
6.244887
 31
0.2
  0
LINE
  8
PLAN_1
 62
7
 10
-22.924
 20
6.244887
 30
0.2
 11
-22.616001
 21
6.244887
 31
0.2
  0
LINE
  8
PLAN_1
 62
7
 10
-22.616001
 20
6.244887
 30
0.2
 11
-22.616001
 21
6.298477
 31
0.2
  0
LINE
  8
PLAN_1
 62
7
 10
-22.616001
 20
6.298477
 30
0.2
 11
-22.924
 21
6.298477
 31
0.2
  0
LINE
  8
PLAN_1
 62
7
 10
-22.924
 20
6.298477
 30
0.2
 11
-22.924
 21
6.352067
 31
0.2
  0
LINE
  8
PLAN_1
 62
7
 10
-22.924
 20
6.352067
 30
0.2
 11
-22.616001
 21
6.352067
 31
0.2
  0
LINE
  8
PLAN_1
 62
7
 10
-22.616001
 20
6.352067
 30
0.2
 11
-22.616001
 21
6.405657
 31
0.2
  0
LINE
  8
PLAN_1
 62
7
 10
-22.616001
 20
6.405657
 30
0.2
 11
-22.924
 21
6.405657
 31
0.2
  0
LINE
  8
PLAN_1
 62
7
 10
-22.924
 20
6.405657
 30
0.2
 11
-22.924
 21
6.459247
 31
0.2
  0
LINE
  8
PLAN_1
 62
7
 10
-22.924
 20
6.459247
 30
0.2
 11
-22.616001
 21
6.459247
 31
0.2
  0
LINE
  8
PLAN_1
 62
7
 10
-22.616001
 20
6.459247
 30
0.2
 11
-22.616001
 21
6.512836
 31
0.2
  0
LINE
  8
PLAN_1
 62
7
 10
-22.616001
 20
6.512836
 30
0.2
 11
-22.924
 21
6.512836
 31
0.2
  0
LINE
  8
PLAN_1
 62
7
 10
-22.924
 20
6.512836
 30
0.2
 11
-22.924
 21
6.566426
 31
0.2
  0
LINE
  8
PLAN_1
 62
7
 10
-22.924
 20
6.566426
 30
0.2
 11
-22.616001
 21
6.566426
 31
0.2
  0
LINE
  8
PLAN_1
 62
7
 10
-22.616001
 20
6.566426
 30
0.2
 11
-22.616001
 21
6.620016
 31
0.2
  0
LINE
  8
PLAN_1
 62
7
 10
-22.616001
 20
6.620016
 30
0.2
 11
-22.924
 21
6.620016
 31
0.2
  0
LINE
  8
PLAN_1
 62
7
 10
-22.924
 20
6.620016
 30
0.2
 11
-22.924
 21
6.673606
 31
0.2
  0
LINE
  8
PLAN_1
 62
7
 10
-22.924
 20
6.673606
 30
0.2
 11
-22.616001
 21
6.673606
 31
0.2
  0
LINE
  8
PLAN_1
 62
7
 10
-22.616001
 20
6.673606
 30
0.2
 11
-22.616001
 21
6.727196
 31
0.2
  0
LINE
  8
PLAN_1
 62
7
 10
-22.616001
 20
6.727196
 30
0.2
 11
-22.924
 21
6.727196
 31
0.2
  0
LINE
  8
PLAN_1
 62
7
 10
-22.924
 20
6.727196
 30
0.2
 11
-22.924
 21
6.780786
 31
0.2
  0
LINE
  8
PLAN_1
 62
7
 10
-22.924
 20
6.780786
 30
0.2
 11
-22.616001
 21
6.780786
 31
0.2
  0
LINE
  8
PLAN_1
 62
7
 10
-22.616001
 20
6.780786
 30
0.2
 11
-22.616001
 21
6.834375
 31
0.2
  0
LINE
  8
PLAN_1
 62
7
 10
-22.616001
 20
6.834375
 30
0.2
 11
-22.924
 21
6.834375
 31
0.2
  0
LINE
  8
PLAN_1
 62
7
 10
-22.924
 20
6.834375
 30
0.2
 11
-22.924
 21
6.887965
 31
0.2
  0
LINE
  8
PLAN_1
 62
7
 10
-22.924
 20
6.887965
 30
0.2
 11
-22.616001
 21
6.887965
 31
0.2
  0
LINE
  8
PLAN_1
 62
7
 10
-22.616001
 20
6.887965
 30
0.2
 11
-22.616001
 21
6.941555
 31
0.2
  0
LINE
  8
PLAN_1
 62
7
 10
-22.616001
 20
6.941555
 30
0.2
 11
-22.924
 21
6.941555
 31
0.2
  0
LINE
  8
PLAN_1
 62
7
 10
-22.924
 20
6.941555
 30
0.2
 11
-22.924
 21
6.995145
 31
0.2
  0
LINE
  8
PLAN_1
 62
7
 10
-22.924
 20
6.995145
 30
0.2
 11
-22.616001
 21
6.995145
 31
0.2
  0
LINE
  8
PLAN_1
 62
7
 10
-22.616001
 20
6.995145
 30
0.2
 11
-22.616001
 21
7.048735
 31
0.2
  0
LINE
  8
PLAN_1
 62
7
 10
-22.616001
 20
7.048735
 30
0.2
 11
-22.924
 21
7.048735
 31
0.2
  0
LINE
  8
PLAN_1
 62
7
 10
-22.924
 20
7.048735
 30
0.2
 11
-22.924
 21
7.102324
 31
0.2
  0
LINE
  8
PLAN_1
 62
7
 10
-22.924
 20
7.102324
 30
0.2
 11
-22.616001
 21
7.102324
 31
0.2
  0
LINE
  8
PLAN_1
 62
7
 10
-22.616001
 20
7.102324
 30
0.2
 11
-22.616001
 21
7.155914
 31
0.2
  0
LINE
  8
PLAN_1
 62
7
 10
-22.616001
 20
7.155914
 30
0.2
 11
-22.924
 21
7.155914
 31
0.2
  0
LINE
  8
PLAN_1
 62
7
 10
-22.924
 20
7.155914
 30
0.2
 11
-22.924
 21
7.209504
 31
0.2
  0
LINE
  8
PLAN_1
 62
7
 10
-22.924
 20
7.209504
 30
0.2
 11
-22.616001
 21
7.209504
 31
0.2
  0
LINE
  8
PLAN_1
 62
7
 10
-22.616001
 20
7.209504
 30
0.2
 11
-22.616001
 21
7.263094
 31
0.2
  0
LINE
  8
PLAN_1
 62
7
 10
-22.616001
 20
7.263094
 30
0.2
 11
-22.924
 21
7.263094
 31
0.2
  0
LINE
  8
PLAN_1
 62
7
 10
-22.924
 20
7.263094
 30
0.2
 11
-22.924
 21
7.316684
 31
0.2
  0
LINE
  8
PLAN_1
 62
7
 10
-22.924
 20
7.316684
 30
0.2
 11
-22.616001
 21
7.316684
 31
0.2
  0
LINE
  8
PLAN_1
 62
7
 10
-22.616001
 20
7.316684
 30
0.2
 11
-22.616001
 21
7.370274
 31
0.2
  0
LINE
  8
PLAN_1
 62
7
 10
-22.616001
 20
7.370274
 30
0.2
 11
-22.924
 21
7.370274
 31
0.2
  0
LINE
  8
PLAN_1
 62
7
 10
-22.924
 20
7.370274
 30
0.2
 11
-22.924
 21
7.423863
 31
0.2
  0
LINE
  8
PLAN_1
 62
7
 10
-22.924
 20
7.423863
 30
0.2
 11
-22.616001
 21
7.423863
 31
0.2
  0
LINE
  8
PLAN_1
 62
7
 10
-22.616001
 20
7.423863
 30
0.2
 11
-22.616001
 21
7.477454
 31
0.2
  0
LINE
  8
PLAN_1
 62
7
 10
-22.616001
 20
7.477454
 30
0.2
 11
-22.924
 21
7.477454
 31
0.2
  0
LINE
  8
PLAN_1
 62
7
 10
-22.924
 20
7.477454
 30
0.2
 11
-22.924
 21
7.531045
 31
0.2
  0
LINE
  8
PLAN_1
 62
7
 10
-22.924
 20
7.531045
 30
0.2
 11
-22.616001
 21
7.531045
 31
0.2
  0
LINE
  8
PLAN_1
 62
7
 10
-22.616001
 20
7.531045
 30
0.2
 11
-22.616001
 21
7.584636
 31
0.2
  0
LINE
  8
PLAN_1
 62
7
 10
-22.616001
 20
7.584636
 30
0.2
 11
-22.924
 21
7.584636
 31
0.2
  0
LINE
  8
PLAN_1
 62
7
 10
-22.924
 20
7.584636
 30
0.2
 11
-22.924
 21
7.638227
 31
0.2
  0
LINE
  8
PLAN_1
 62
7
 10
-22.924
 20
7.638227
 30
0.2
 11
-22.616001
 21
7.638227
 31
0.2
  0
LINE
  8
PLAN_1
 62
7
 10
-22.616001
 20
7.638227
 30
0.2
 11
-22.616001
 21
7.691817
 31
0.2
  0
LINE
  8
PLAN_1
 62
7
 10
-22.616001
 20
7.691817
 30
0.2
 11
-22.924
 21
7.691817
 31
0.2
  0
LINE
  8
PLAN_1
 62
7
 10
-22.924
 20
7.691817
 30
0.2
 11
-22.924
 21
7.745408
 31
0.2
  0
LINE
  8
PLAN_1
 62
7
 10
-22.924
 20
7.745408
 30
0.2
 11
-22.616001
 21
7.745408
 31
0.2
  0
LINE
  8
PLAN_1
 62
7
 10
-22.616001
 20
7.745408
 30
0.2
 11
-22.616001
 21
7.798999
 31
0.2
  0
LINE
  8
PLAN_1
 62
7
 10
-22.616001
 20
7.798999
 30
0.2
 11
-22.924
 21
7.798999
 31
0.2
  0
LINE
  8
PLAN_1
 62
7
 10
-22.924
 20
7.798999
 30
0.2
 11
-22.924
 21
7.85259
 31
0.2
  0
LINE
  8
PLAN_1
 62
7
 10
-22.924
 20
7.85259
 30
0.2
 11
-22.616001
 21
7.85259
 31
0.2
  0
LINE
  8
PLAN_1
 62
7
 10
-22.616001
 20
7.85259
 30
0.2
 11
-22.616001
 21
7.90618
 31
0.2
  0
LINE
  8
PLAN_1
 62
7
 10
-22.616001
 20
7.90618
 30
0.2
 11
-22.924
 21
7.90618
 31
0.2
  0
LINE
  8
PLAN_1
 62
7
 10
-22.924
 20
7.90618
 30
0.2
 11
-22.924
 21
7.959771
 31
0.2
  0
LINE
  8
PLAN_1
 62
7
 10
-22.924
 20
7.959771
 30
0.2
 11
-22.616001
 21
7.959771
 31
0.2
  0
LINE
  8
PLAN_1
 62
7
 10
-22.616001
 20
7.959771
 30
0.2
 11
-22.616001
 21
8.013362
 31
0.2
  0
LINE
  8
PLAN_1
 62
7
 10
-22.616001
 20
8.013362
 30
0.2
 11
-22.924
 21
8.013362
 31
0.2
  0
LINE
  8
PLAN_1
 62
7
 10
-22.924
 20
8.013362
 30
0.2
 11
-22.924
 21
8.066953
 31
0.2
  0
LINE
  8
PLAN_1
 62
7
 10
-22.924
 20
8.066953
 30
0.2
 11
-22.616001
 21
8.066953
 31
0.2
  0
LINE
  8
PLAN_1
 62
7
 10
-21.993702
 20
8.120543
 30
0.2
 11
-22.616001
 21
8.120543
 31
0.2
  0
LINE
  8
PLAN_1
 62
7
 10
-22.616001
 20
8.120543
 30
0.2
 11
-22.924
 21
8.120543
 31
0.2
  0
LINE
  8
PLAN_1
 62
7
 10
-22.924
 20
8.120543
 30
0.2
 11
-25.156002
 21
8.120543
 31
0.2
  0
LINE
  8
PLAN_1
 62
7
 10
-25.156002
 20
8.120543
 30
0.2
 11
-26.383999
 21
8.120543
 31
0.2
  0
LINE
  8
PLAN_1
 62
7
 10
-26.383999
 20
8.120543
 30
0.2
 11
-27.006298
 21
8.120543
 31
0.2
  0
LINE
  8
PLAN_1
 62
7
 10
-27.006298
 20
8.120543
 30
0.2
 11
-27.006298
 21
8.174134
 31
0.2
  0
LINE
  8
PLAN_1
 62
7
 10
-27.006298
 20
8.174134
 30
0.2
 11
-21.993702
 21
8.174134
 31
0.2
  0
LINE
  8
PLAN_1
 62
7
 10
-21.993702
 20
8.174134
 30
0.2
 11
-21.993702
 21
8.227725
 31
0.2
  0
LINE
  8
PLAN_1
 62
7
 10
-21.993702
 20
8.227725
 30
0.2
 11
-27.006298
 21
8.227725
 31
0.2
  0
LINE
  8
PLAN_1
 62
7
 10
-27.006298
 20
8.227725
 30
0.2
 11
-27.006298
 21
8.281316
 31
0.2
  0
LINE
  8
PLAN_1
 62
7
 10
-27.006298
 20
8.281316
 30
0.2
 11
-21.993702
 21
8.281316
 31
0.2
  0
LINE
  8
PLAN_1
 62
7
 10
-21.993702
 20
8.281316
 30
0.2
 11
-21.993702
 21
8.334907
 31
0.2
  0
LINE
  8
PLAN_1
 62
7
 10
-21.993702
 20
8.334907
 30
0.2
 11
-27.006298
 21
8.334907
 31
0.2
  0
LINE
  8
PLAN_1
 62
7
 10
-27.006298
 20
8.334907
 30
0.2
 11
-27.006298
 21
8.388497
 31
0.2
  0
LINE
  8
PLAN_1
 62
7
 10
-27.006298
 20
8.388497
 30
0.2
 11
-21.993702
 21
8.388497
 31
0.2
  0
LINE
  8
PLAN_1
 62
7
 10
-21.993702
 20
8.388497
 30
0.2
 11
-21.993702
 21
8.442088
 31
0.2
  0
LINE
  8
PLAN_1
 62
7
 10
-21.993702
 20
8.442088
 30
0.2
 11
-27.006298
 21
8.442088
 31
0.2
  0
LINE
  8
PLAN_1
 62
7
 10
-27.006298
 20
8.442088
 30
0.2
 11
-27.006298
 21
8.495679
 31
0.2
  0
LINE
  8
PLAN_1
 62
7
 10
-27.006298
 20
8.495679
 30
0.2
 11
-21.993702
 21
8.495679
 31
0.2
  0
LINE
  8
PLAN_1
 62
7
 10
-21.993702
 20
8.495679
 30
0.2
 11
-21.993702
 21
8.54927
 31
0.2
  0
LINE
  8
PLAN_1
 62
7
 10
-21.993702
 20
8.54927
 30
0.2
 11
-27.006298
 21
8.54927
 31
0.2
  0
LINE
  8
PLAN_1
 62
7
 10
-27.006298
 20
8.54927
 30
0.2
 11
-27.006298
 21
8.60286
 31
0.2
  0
LINE
  8
PLAN_1
 62
7
 10
-27.006298
 20
8.60286
 30
0.2
 11
-21.993702
 21
8.60286
 31
0.2
  0
LINE
  8
PLAN_1
 62
7
 10
-21.993702
 20
8.60286
 30
0.2
 11
-21.993702
 21
8.656451
 31
0.2
  0
LINE
  8
PLAN_1
 62
7
 10
-21.993702
 20
8.656451
 30
0.2
 11
-27.006298
 21
8.656451
 31
0.2
  0
LINE
  8
PLAN_1
 62
7
 10
-27.006298
 20
8.656451
 30
0.2
 11
-27.006298
 21
8.710042
 31
0.2
  0
LINE
  8
PLAN_1
 62
7
 10
-27.006298
 20
8.710042
 30
0.2
 11
-21.993702
 21
8.710042
 31
0.2
  0
LINE
  8
PLAN_1
 62
7
 10
-21.993702
 20
8.710042
 30
0.2
 11
-21.993702
 21
8.763633
 31
0.2
  0
LINE
  8
PLAN_1
 62
7
 10
-21.993702
 20
8.763633
 30
0.2
 11
-27.006298
 21
8.763633
 31
0.2
  0
LINE
  8
PLAN_1
 62
7
 10
-27.006298
 20
8.763633
 30
0.2
 11
-27.006298
 21
8.817224
 31
0.2
  0
LINE
  8
PLAN_1
 62
7
 10
-27.006298
 20
8.817224
 30
0.2
 11
-21.993702
 21
8.817224
 31
0.2
  0
LINE
  8
PLAN_1
 62
7
 10
-21.993702
 20
8.817224
 30
0.2
 11
-21.993702
 21
8.870814
 31
0.2
  0
LINE
  8
PLAN_1
 62
7
 10
-21.993702
 20
8.870814
 30
0.2
 11
-27.006298
 21
8.870814
 31
0.2
  0
LINE
  8
PLAN_1
 62
7
 10
-27.006298
 20
8.870814
 30
0.2
 11
-27.006298
 21
8.924405
 31
0.2
  0
LINE
  8
PLAN_1
 62
7
 10
-27.006298
 20
8.924405
 30
0.2
 11
-21.993702
 21
8.924405
 31
0.2
  0
LINE
  8
PLAN_1
 62
7
 10
-21.993702
 20
8.924405
 30
0.2
 11
-21.993702
 21
8.977996
 31
0.2
  0
LINE
  8
PLAN_1
 62
7
 10
-21.993702
 20
8.977996
 30
0.2
 11
-27.006298
 21
8.977996
 31
0.2
  0
LINE
  8
PLAN_1
 62
7
 10
-27.006298
 20
8.977996
 30
0.2
 11
-27.006298
 21
9.031587
 31
0.2
  0
LINE
  8
PLAN_1
 62
7
 10
-27.006298
 20
9.031587
 30
0.2
 11
-21.993702
 21
9.031587
 31
0.2
  0
LINE
  8
PLAN_1
 62
7
 10
-21.993702
 20
9.031587
 30
0.2
 11
-21.993702
 21
9.085177
 31
0.2
  0
LINE
  8
PLAN_1
 62
7
 10
-21.993702
 20
9.085177
 30
0.2
 11
-27.006298
 21
9.085177
 31
0.2
  0
LINE
  8
PLAN_1
 62
7
 10
-27.006298
 20
9.085177
 30
0.2
 11
-27.006298
 21
9.138768
 31
0.2
  0
LINE
  8
PLAN_1
 62
7
 10
-27.006298
 20
9.138768
 30
0.2
 11
-21.993702
 21
9.138768
 31
0.2
  0
LINE
  8
PLAN_1
 62
7
 10
-21.993702
 20
9.138768
 30
0.2
 11
-21.993702
 21
9.192359
 31
0.2
  0
LINE
  8
PLAN_1
 62
7
 10
-21.993702
 20
9.192359
 30
0.2
 11
-27.006298
 21
9.192359
 31
0.2
  0
LINE
  8
PLAN_1
 62
7
 10
-27.006298
 20
9.192359
 30
0.2
 11
-27.006298
 21
9.24595
 31
0.2
  0
LINE
  8
PLAN_1
 62
7
 10
-27.006298
 20
9.24595
 30
0.2
 11
-21.993702
 21
9.24595
 31
0.2
  0
LINE
  8
PLAN_1
 62
7
 10
-21.993702
 20
9.24595
 30
0.2
 11
-21.993702
 21
9.299541
 31
0.2
  0
LINE
  8
PLAN_1
 62
7
 10
-21.993702
 20
9.299541
 30
0.2
 11
-27.006298
 21
9.299541
 31
0.2
  0
LINE
  8
PLAN_1
 62
7
 10
-27.006298
 20
9.299541
 30
0.2
 11
-27.006298
 21
9.353131
 31
0.2
  0
LINE
  8
PLAN_1
 62
7
 10
-27.006298
 20
9.353131
 30
0.2
 11
-21.993702
 21
9.353131
 31
0.2
  0
LINE
  8
PLAN_1
 62
7
 10
-21.993702
 20
9.353131
 30
0.2
 11
-21.993702
 21
9.406722
 31
0.2
  0
LINE
  8
PLAN_1
 62
7
 10
-21.993702
 20
9.406722
 30
0.2
 11
-27.006298
 21
9.406722
 31
0.2
  0
LINE
  8
PLAN_1
 62
7
 10
-27.993698
 20
8.120543
 30
0.2
 11
-28.616001
 21
8.120543
 31
0.2
  0
LINE
  8
PLAN_1
 62
7
 10
-28.616001
 20
8.120543
 30
0.2
 11
-28.924
 21
8.120543
 31
0.2
  0
LINE
  8
PLAN_1
 62
7
 10
-28.924
 20
8.120543
 30
0.2
 11
-31.156002
 21
8.120543
 31
0.2
  0
LINE
  8
PLAN_1
 62
7
 10
-31.156002
 20
8.120543
 30
0.2
 11
-32.343998
 21
8.120543
 31
0.2
  0
LINE
  8
PLAN_1
 62
7
 10
-32.343998
 20
8.120543
 30
0.2
 11
-32.506302
 21
8.120543
 31
0.2
  0
LINE
  8
PLAN_1
 62
7
 10
-32.506302
 20
8.120543
 30
0.2
 11
-32.506302
 21
8.174134
 31
0.2
  0
LINE
  8
PLAN_1
 62
7
 10
-32.506302
 20
8.174134
 30
0.2
 11
-27.993698
 21
8.174134
 31
0.2
  0
LINE
  8
PLAN_1
 62
7
 10
-27.993698
 20
8.174134
 30
0.2
 11
-27.993698
 21
8.227725
 31
0.2
  0
LINE
  8
PLAN_1
 62
7
 10
-27.993698
 20
8.227725
 30
0.2
 11
-32.506302
 21
8.227725
 31
0.2
  0
LINE
  8
PLAN_1
 62
7
 10
-32.506302
 20
8.227725
 30
0.2
 11
-32.506302
 21
8.281316
 31
0.2
  0
LINE
  8
PLAN_1
 62
7
 10
-32.506302
 20
8.281316
 30
0.2
 11
-27.993698
 21
8.281316
 31
0.2
  0
LINE
  8
PLAN_1
 62
7
 10
-27.993698
 20
8.281316
 30
0.2
 11
-27.993698
 21
8.334907
 31
0.2
  0
LINE
  8
PLAN_1
 62
7
 10
-27.993698
 20
8.334907
 30
0.2
 11
-32.506302
 21
8.334907
 31
0.2
  0
LINE
  8
PLAN_1
 62
7
 10
-32.506302
 20
8.334907
 30
0.2
 11
-32.506302
 21
8.388497
 31
0.2
  0
LINE
  8
PLAN_1
 62
7
 10
-32.506302
 20
8.388497
 30
0.2
 11
-27.993698
 21
8.388497
 31
0.2
  0
LINE
  8
PLAN_1
 62
7
 10
-27.993698
 20
8.388497
 30
0.2
 11
-27.993698
 21
8.442088
 31
0.2
  0
LINE
  8
PLAN_1
 62
7
 10
-27.993698
 20
8.442088
 30
0.2
 11
-32.506302
 21
8.442088
 31
0.2
  0
LINE
  8
PLAN_1
 62
7
 10
-32.506302
 20
8.442088
 30
0.2
 11
-32.506302
 21
8.495679
 31
0.2
  0
LINE
  8
PLAN_1
 62
7
 10
-32.506302
 20
8.495679
 30
0.2
 11
-27.993698
 21
8.495679
 31
0.2
  0
LINE
  8
PLAN_1
 62
7
 10
-27.993698
 20
8.495679
 30
0.2
 11
-27.993698
 21
8.54927
 31
0.2
  0
LINE
  8
PLAN_1
 62
7
 10
-27.993698
 20
8.54927
 30
0.2
 11
-32.506302
 21
8.54927
 31
0.2
  0
LINE
  8
PLAN_1
 62
7
 10
-32.506302
 20
8.54927
 30
0.2
 11
-32.506302
 21
8.60286
 31
0.2
  0
LINE
  8
PLAN_1
 62
7
 10
-32.506302
 20
8.60286
 30
0.2
 11
-27.993698
 21
8.60286
 31
0.2
  0
LINE
  8
PLAN_1
 62
7
 10
-27.993698
 20
8.60286
 30
0.2
 11
-27.993698
 21
8.656451
 31
0.2
  0
LINE
  8
PLAN_1
 62
7
 10
-27.993698
 20
8.656451
 30
0.2
 11
-32.506302
 21
8.656451
 31
0.2
  0
LINE
  8
PLAN_1
 62
7
 10
-32.506302
 20
8.656451
 30
0.2
 11
-32.506302
 21
8.710042
 31
0.2
  0
LINE
  8
PLAN_1
 62
7
 10
-32.506302
 20
8.710042
 30
0.2
 11
-27.993698
 21
8.710042
 31
0.2
  0
LINE
  8
PLAN_1
 62
7
 10
-27.993698
 20
8.710042
 30
0.2
 11
-27.993698
 21
8.763633
 31
0.2
  0
LINE
  8
PLAN_1
 62
7
 10
-27.993698
 20
8.763633
 30
0.2
 11
-32.506302
 21
8.763633
 31
0.2
  0
LINE
  8
PLAN_1
 62
7
 10
-32.506302
 20
8.763633
 30
0.2
 11
-32.506302
 21
8.817224
 31
0.2
  0
LINE
  8
PLAN_1
 62
7
 10
-32.506302
 20
8.817224
 30
0.2
 11
-27.993698
 21
8.817224
 31
0.2
  0
LINE
  8
PLAN_1
 62
7
 10
-27.993698
 20
8.817224
 30
0.2
 11
-27.993698
 21
8.870814
 31
0.2
  0
LINE
  8
PLAN_1
 62
7
 10
-27.993698
 20
8.870814
 30
0.2
 11
-32.506302
 21
8.870814
 31
0.2
  0
LINE
  8
PLAN_1
 62
7
 10
-32.506302
 20
8.870814
 30
0.2
 11
-32.506302
 21
8.924405
 31
0.2
  0
LINE
  8
PLAN_1
 62
7
 10
-32.506302
 20
8.924405
 30
0.2
 11
-27.993698
 21
8.924405
 31
0.2
  0
LINE
  8
PLAN_1
 62
7
 10
-27.993698
 20
8.924405
 30
0.2
 11
-27.993698
 21
8.977996
 31
0.2
  0
LINE
  8
PLAN_1
 62
7
 10
-27.993698
 20
8.977996
 30
0.2
 11
-32.506302
 21
8.977996
 31
0.2
  0
LINE
  8
PLAN_1
 62
7
 10
-32.506302
 20
8.977996
 30
0.2
 11
-32.506302
 21
9.031587
 31
0.2
  0
LINE
  8
PLAN_1
 62
7
 10
-32.506302
 20
9.031587
 30
0.2
 11
-27.993698
 21
9.031587
 31
0.2
  0
LINE
  8
PLAN_1
 62
7
 10
-27.993698
 20
9.031587
 30
0.2
 11
-27.993698
 21
9.085177
 31
0.2
  0
LINE
  8
PLAN_1
 62
7
 10
-27.993698
 20
9.085177
 30
0.2
 11
-32.506302
 21
9.085177
 31
0.2
  0
LINE
  8
PLAN_1
 62
7
 10
-32.506302
 20
9.085177
 30
0.2
 11
-32.506302
 21
9.138768
 31
0.2
  0
LINE
  8
PLAN_1
 62
7
 10
-32.506302
 20
9.138768
 30
0.2
 11
-27.993698
 21
9.138768
 31
0.2
  0
LINE
  8
PLAN_1
 62
7
 10
-27.993698
 20
9.138768
 30
0.2
 11
-27.993698
 21
9.192359
 31
0.2
  0
LINE
  8
PLAN_1
 62
7
 10
-27.993698
 20
9.192359
 30
0.2
 11
-32.506302
 21
9.192359
 31
0.2
  0
LINE
  8
PLAN_1
 62
7
 10
-32.506302
 20
9.192359
 30
0.2
 11
-32.506302
 21
9.24595
 31
0.2
  0
LINE
  8
PLAN_1
 62
7
 10
-32.506302
 20
9.24595
 30
0.2
 11
-27.993698
 21
9.24595
 31
0.2
  0
LINE
  8
PLAN_1
 62
7
 10
-27.993698
 20
9.24595
 30
0.2
 11
-27.993698
 21
9.299541
 31
0.2
  0
LINE
  8
PLAN_1
 62
7
 10
-27.993698
 20
9.299541
 30
0.2
 11
-32.506302
 21
9.299541
 31
0.2
  0
LINE
  8
PLAN_1
 62
7
 10
-32.506302
 20
9.299541
 30
0.2
 11
-32.506302
 21
9.353131
 31
0.2
  0
LINE
  8
PLAN_1
 62
7
 10
-32.506302
 20
9.353131
 30
0.2
 11
-27.993698
 21
9.353131
 31
0.2
  0
LINE
  8
PLAN_1
 62
7
 10
-27.993698
 20
9.353131
 30
0.2
 11
-27.993698
 21
9.406722
 31
0.2
  0
LINE
  8
PLAN_1
 62
7
 10
-27.993698
 20
9.406722
 30
0.2
 11
-32.506302
 21
9.406722
 31
0.2
  0
LINE
  8
PLAN_1
 62
7
 10
-33.493698
 20
8.120543
 30
0.2
 11
-34.576
 21
8.120543
 31
0.2
  0
LINE
  8
PLAN_1
 62
7
 10
-34.576
 20
8.120543
 30
0.2
 11
-34.883999
 21
8.120543
 31
0.2
  0
LINE
  8
PLAN_1
 62
7
 10
-34.883999
 20
8.120543
 30
0.2
 11
-35.506302
 21
8.120543
 31
0.2
  0
LINE
  8
PLAN_1
 62
7
 10
-35.506302
 20
8.120543
 30
0.2
 11
-35.506302
 21
8.174134
 31
0.2
  0
LINE
  8
PLAN_1
 62
7
 10
-35.506302
 20
8.174134
 30
0.2
 11
-33.493698
 21
8.174134
 31
0.2
  0
LINE
  8
PLAN_1
 62
7
 10
-33.493698
 20
8.174134
 30
0.2
 11
-33.493698
 21
8.227725
 31
0.2
  0
LINE
  8
PLAN_1
 62
7
 10
-33.493698
 20
8.227725
 30
0.2
 11
-35.506302
 21
8.227725
 31
0.2
  0
LINE
  8
PLAN_1
 62
7
 10
-35.506302
 20
8.227725
 30
0.2
 11
-35.506302
 21
8.281316
 31
0.2
  0
LINE
  8
PLAN_1
 62
7
 10
-35.506302
 20
8.281316
 30
0.2
 11
-33.493698
 21
8.281316
 31
0.2
  0
LINE
  8
PLAN_1
 62
7
 10
-33.493698
 20
8.281316
 30
0.2
 11
-33.493698
 21
8.334907
 31
0.2
  0
LINE
  8
PLAN_1
 62
7
 10
-33.493698
 20
8.334907
 30
0.2
 11
-35.506302
 21
8.334907
 31
0.2
  0
LINE
  8
PLAN_1
 62
7
 10
-35.506302
 20
8.334907
 30
0.2
 11
-35.506302
 21
8.388497
 31
0.2
  0
LINE
  8
PLAN_1
 62
7
 10
-35.506302
 20
8.388497
 30
0.2
 11
-33.493698
 21
8.388497
 31
0.2
  0
LINE
  8
PLAN_1
 62
7
 10
-33.493698
 20
8.388497
 30
0.2
 11
-33.493698
 21
8.442088
 31
0.2
  0
LINE
  8
PLAN_1
 62
7
 10
-33.493698
 20
8.442088
 30
0.2
 11
-35.506302
 21
8.442088
 31
0.2
  0
LINE
  8
PLAN_1
 62
7
 10
-35.506302
 20
8.442088
 30
0.2
 11
-35.506302
 21
8.495679
 31
0.2
  0
LINE
  8
PLAN_1
 62
7
 10
-35.506302
 20
8.495679
 30
0.2
 11
-33.493698
 21
8.495679
 31
0.2
  0
LINE
  8
PLAN_1
 62
7
 10
-33.493698
 20
8.495679
 30
0.2
 11
-33.493698
 21
8.54927
 31
0.2
  0
LINE
  8
PLAN_1
 62
7
 10
-33.493698
 20
8.54927
 30
0.2
 11
-35.506302
 21
8.54927
 31
0.2
  0
LINE
  8
PLAN_1
 62
7
 10
-35.506302
 20
8.54927
 30
0.2
 11
-35.506302
 21
8.60286
 31
0.2
  0
LINE
  8
PLAN_1
 62
7
 10
-35.506302
 20
8.60286
 30
0.2
 11
-33.493698
 21
8.60286
 31
0.2
  0
LINE
  8
PLAN_1
 62
7
 10
-33.493698
 20
8.60286
 30
0.2
 11
-33.493698
 21
8.656451
 31
0.2
  0
LINE
  8
PLAN_1
 62
7
 10
-33.493698
 20
8.656451
 30
0.2
 11
-35.506302
 21
8.656451
 31
0.2
  0
LINE
  8
PLAN_1
 62
7
 10
-35.506302
 20
8.656451
 30
0.2
 11
-35.506302
 21
8.710042
 31
0.2
  0
LINE
  8
PLAN_1
 62
7
 10
-35.506302
 20
8.710042
 30
0.2
 11
-33.493698
 21
8.710042
 31
0.2
  0
LINE
  8
PLAN_1
 62
7
 10
-33.493698
 20
8.710042
 30
0.2
 11
-33.493698
 21
8.763633
 31
0.2
  0
LINE
  8
PLAN_1
 62
7
 10
-33.493698
 20
8.763633
 30
0.2
 11
-35.506302
 21
8.763633
 31
0.2
  0
LINE
  8
PLAN_1
 62
7
 10
-35.506302
 20
8.763633
 30
0.2
 11
-35.506302
 21
8.817224
 31
0.2
  0
LINE
  8
PLAN_1
 62
7
 10
-35.506302
 20
8.817224
 30
0.2
 11
-33.493698
 21
8.817224
 31
0.2
  0
LINE
  8
PLAN_1
 62
7
 10
-33.493698
 20
8.817224
 30
0.2
 11
-33.493698
 21
8.870814
 31
0.2
  0
LINE
  8
PLAN_1
 62
7
 10
-33.493698
 20
8.870814
 30
0.2
 11
-35.506302
 21
8.870814
 31
0.2
  0
LINE
  8
PLAN_1
 62
7
 10
-35.506302
 20
8.870814
 30
0.2
 11
-35.506302
 21
8.924405
 31
0.2
  0
LINE
  8
PLAN_1
 62
7
 10
-35.506302
 20
8.924405
 30
0.2
 11
-33.493698
 21
8.924405
 31
0.2
  0
LINE
  8
PLAN_1
 62
7
 10
-33.493698
 20
8.924405
 30
0.2
 11
-33.493698
 21
8.977996
 31
0.2
  0
LINE
  8
PLAN_1
 62
7
 10
-33.493698
 20
8.977996
 30
0.2
 11
-35.506302
 21
8.977996
 31
0.2
  0
LINE
  8
PLAN_1
 62
7
 10
-35.506302
 20
8.977996
 30
0.2
 11
-35.506302
 21
9.031587
 31
0.2
  0
LINE
  8
PLAN_1
 62
7
 10
-35.506302
 20
9.031587
 30
0.2
 11
-33.493698
 21
9.031587
 31
0.2
  0
LINE
  8
PLAN_1
 62
7
 10
-33.493698
 20
9.031587
 30
0.2
 11
-33.493698
 21
9.085177
 31
0.2
  0
LINE
  8
PLAN_1
 62
7
 10
-33.493698
 20
9.085177
 30
0.2
 11
-35.506302
 21
9.085177
 31
0.2
  0
LINE
  8
PLAN_1
 62
7
 10
-35.506302
 20
9.085177
 30
0.2
 11
-35.506302
 21
9.138768
 31
0.2
  0
LINE
  8
PLAN_1
 62
7
 10
-35.506302
 20
9.138768
 30
0.2
 11
-33.493698
 21
9.138768
 31
0.2
  0
LINE
  8
PLAN_1
 62
7
 10
-33.493698
 20
9.138768
 30
0.2
 11
-33.493698
 21
9.192359
 31
0.2
  0
LINE
  8
PLAN_1
 62
7
 10
-33.493698
 20
9.192359
 30
0.2
 11
-35.506302
 21
9.192359
 31
0.2
  0
LINE
  8
PLAN_1
 62
7
 10
-35.506302
 20
9.192359
 30
0.2
 11
-35.506302
 21
9.24595
 31
0.2
  0
LINE
  8
PLAN_1
 62
7
 10
-35.506302
 20
9.24595
 30
0.2
 11
-33.493698
 21
9.24595
 31
0.2
  0
LINE
  8
PLAN_1
 62
7
 10
-33.493698
 20
9.24595
 30
0.2
 11
-33.493698
 21
9.299541
 31
0.2
  0
LINE
  8
PLAN_1
 62
7
 10
-33.493698
 20
9.299541
 30
0.2
 11
-35.506302
 21
9.299541
 31
0.2
  0
LINE
  8
PLAN_1
 62
7
 10
-35.506302
 20
9.299541
 30
0.2
 11
-35.506302
 21
9.353131
 31
0.2
  0
LINE
  8
PLAN_1
 62
7
 10
-35.506302
 20
9.353131
 30
0.2
 11
-33.493698
 21
9.353131
 31
0.2
  0
LINE
  8
PLAN_1
 62
7
 10
-33.493698
 20
9.353131
 30
0.2
 11
-33.493698
 21
9.406722
 31
0.2
  0
LINE
  8
PLAN_1
 62
7
 10
-33.493698
 20
9.406722
 30
0.2
 11
-35.506302
 21
9.406722
 31
0.2
  0
LINE
  8
PLAN_1
 62
7
 10
-36.493698
 20
8.120543
 30
0.2
 11
-37.116001
 21
8.120543
 31
0.2
  0
LINE
  8
PLAN_1
 62
7
 10
-37.116001
 20
8.120543
 30
0.2
 11
-37.424
 21
8.120543
 31
0.2
  0
LINE
  8
PLAN_1
 62
7
 10
-37.424
 20
8.120543
 30
0.2
 11
-38.046303
 21
8.120543
 31
0.2
  0
LINE
  8
PLAN_1
 62
7
 10
-38.046303
 20
8.120543
 30
0.2
 11
-38.046303
 21
8.174134
 31
0.2
  0
LINE
  8
PLAN_1
 62
7
 10
-38.046303
 20
8.174134
 30
0.2
 11
-36.493698
 21
8.174134
 31
0.2
  0
LINE
  8
PLAN_1
 62
7
 10
-36.493698
 20
8.174134
 30
0.2
 11
-36.493698
 21
8.227725
 31
0.2
  0
LINE
  8
PLAN_1
 62
7
 10
-36.493698
 20
8.227725
 30
0.2
 11
-38.046303
 21
8.227725
 31
0.2
  0
LINE
  8
PLAN_1
 62
7
 10
-38.046303
 20
8.227725
 30
0.2
 11
-38.046303
 21
8.281316
 31
0.2
  0
LINE
  8
PLAN_1
 62
7
 10
-38.046303
 20
8.281316
 30
0.2
 11
-36.493698
 21
8.281316
 31
0.2
  0
LINE
  8
PLAN_1
 62
7
 10
-36.493698
 20
8.281316
 30
0.2
 11
-36.493698
 21
8.334907
 31
0.2
  0
LINE
  8
PLAN_1
 62
7
 10
-36.493698
 20
8.334907
 30
0.2
 11
-38.046303
 21
8.334907
 31
0.2
  0
LINE
  8
PLAN_1
 62
7
 10
-38.046303
 20
8.334907
 30
0.2
 11
-38.046303
 21
8.388497
 31
0.2
  0
LINE
  8
PLAN_1
 62
7
 10
-38.046303
 20
8.388497
 30
0.2
 11
-36.493698
 21
8.388497
 31
0.2
  0
LINE
  8
PLAN_1
 62
7
 10
-36.493698
 20
8.388497
 30
0.2
 11
-36.493698
 21
8.442088
 31
0.2
  0
LINE
  8
PLAN_1
 62
7
 10
-36.493698
 20
8.442088
 30
0.2
 11
-38.046303
 21
8.442088
 31
0.2
  0
LINE
  8
PLAN_1
 62
7
 10
-38.046303
 20
8.442088
 30
0.2
 11
-38.046303
 21
8.495679
 31
0.2
  0
LINE
  8
PLAN_1
 62
7
 10
-38.046303
 20
8.495679
 30
0.2
 11
-36.493698
 21
8.495679
 31
0.2
  0
LINE
  8
PLAN_1
 62
7
 10
-36.493698
 20
8.495679
 30
0.2
 11
-36.493698
 21
8.54927
 31
0.2
  0
LINE
  8
PLAN_1
 62
7
 10
-36.493698
 20
8.54927
 30
0.2
 11
-38.046303
 21
8.54927
 31
0.2
  0
LINE
  8
PLAN_1
 62
7
 10
-38.046303
 20
8.54927
 30
0.2
 11
-38.046303
 21
8.60286
 31
0.2
  0
LINE
  8
PLAN_1
 62
7
 10
-38.046303
 20
8.60286
 30
0.2
 11
-36.493698
 21
8.60286
 31
0.2
  0
LINE
  8
PLAN_1
 62
7
 10
-36.493698
 20
8.60286
 30
0.2
 11
-36.493698
 21
8.656451
 31
0.2
  0
LINE
  8
PLAN_1
 62
7
 10
-36.493698
 20
8.656451
 30
0.2
 11
-38.046303
 21
8.656451
 31
0.2
  0
LINE
  8
PLAN_1
 62
7
 10
-38.046303
 20
8.656451
 30
0.2
 11
-38.046303
 21
8.710042
 31
0.2
  0
LINE
  8
PLAN_1
 62
7
 10
-38.046303
 20
8.710042
 30
0.2
 11
-36.493698
 21
8.710042
 31
0.2
  0
LINE
  8
PLAN_1
 62
7
 10
-36.493698
 20
8.710042
 30
0.2
 11
-36.493698
 21
8.763633
 31
0.2
  0
LINE
  8
PLAN_1
 62
7
 10
-36.493698
 20
8.763633
 30
0.2
 11
-38.046303
 21
8.763633
 31
0.2
  0
LINE
  8
PLAN_1
 62
7
 10
-38.046303
 20
8.763633
 30
0.2
 11
-38.046303
 21
8.817224
 31
0.2
  0
LINE
  8
PLAN_1
 62
7
 10
-38.046303
 20
8.817224
 30
0.2
 11
-36.493698
 21
8.817224
 31
0.2
  0
LINE
  8
PLAN_1
 62
7
 10
-36.493698
 20
8.817224
 30
0.2
 11
-36.493698
 21
8.870814
 31
0.2
  0
LINE
  8
PLAN_1
 62
7
 10
-36.493698
 20
8.870814
 30
0.2
 11
-38.046303
 21
8.870814
 31
0.2
  0
LINE
  8
PLAN_1
 62
7
 10
-38.046303
 20
8.870814
 30
0.2
 11
-38.046303
 21
8.924405
 31
0.2
  0
LINE
  8
PLAN_1
 62
7
 10
-38.046303
 20
8.924405
 30
0.2
 11
-36.493698
 21
8.924405
 31
0.2
  0
LINE
  8
PLAN_1
 62
7
 10
-36.493698
 20
8.924405
 30
0.2
 11
-36.493698
 21
8.977996
 31
0.2
  0
LINE
  8
PLAN_1
 62
7
 10
-36.493698
 20
8.977996
 30
0.2
 11
-38.046303
 21
8.977996
 31
0.2
  0
LINE
  8
PLAN_1
 62
7
 10
-38.046303
 20
8.977996
 30
0.2
 11
-38.046303
 21
9.031587
 31
0.2
  0
LINE
  8
PLAN_1
 62
7
 10
-38.046303
 20
9.031587
 30
0.2
 11
-36.493698
 21
9.031587
 31
0.2
  0
LINE
  8
PLAN_1
 62
7
 10
-36.493698
 20
9.031587
 30
0.2
 11
-36.493698
 21
9.085177
 31
0.2
  0
LINE
  8
PLAN_1
 62
7
 10
-36.493698
 20
9.085177
 30
0.2
 11
-38.046303
 21
9.085177
 31
0.2
  0
LINE
  8
PLAN_1
 62
7
 10
-38.046303
 20
9.085177
 30
0.2
 11
-38.046303
 21
9.138768
 31
0.2
  0
LINE
  8
PLAN_1
 62
7
 10
-38.046303
 20
9.138768
 30
0.2
 11
-36.493698
 21
9.138768
 31
0.2
  0
LINE
  8
PLAN_1
 62
7
 10
-36.493698
 20
9.138768
 30
0.2
 11
-36.493698
 21
9.192359
 31
0.2
  0
LINE
  8
PLAN_1
 62
7
 10
-36.493698
 20
9.192359
 30
0.2
 11
-38.046303
 21
9.192359
 31
0.2
  0
LINE
  8
PLAN_1
 62
7
 10
-38.046303
 20
9.192359
 30
0.2
 11
-38.046303
 21
9.24595
 31
0.2
  0
LINE
  8
PLAN_1
 62
7
 10
-38.046303
 20
9.24595
 30
0.2
 11
-36.493698
 21
9.24595
 31
0.2
  0
LINE
  8
PLAN_1
 62
7
 10
-36.493698
 20
9.24595
 30
0.2
 11
-36.493698
 21
9.299541
 31
0.2
  0
LINE
  8
PLAN_1
 62
7
 10
-36.493698
 20
9.299541
 30
0.2
 11
-38.046303
 21
9.299541
 31
0.2
  0
LINE
  8
PLAN_1
 62
7
 10
-38.046303
 20
9.299541
 30
0.2
 11
-38.046303
 21
9.353131
 31
0.2
  0
LINE
  8
PLAN_1
 62
7
 10
-38.046303
 20
9.353131
 30
0.2
 11
-36.493698
 21
9.353131
 31
0.2
  0
LINE
  8
PLAN_1
 62
7
 10
-36.493698
 20
9.353131
 30
0.2
 11
-36.493698
 21
9.406722
 31
0.2
  0
LINE
  8
PLAN_1
 62
7
 10
-36.493698
 20
9.406722
 30
0.2
 11
-38.046303
 21
9.406722
 31
0.2
  0
LINE
  8
PLAN_1
 62
7
 10
-39.033699
 20
8.120543
 30
0.2
 11
-39.656002
 21
8.120543
 31
0.2
  0
LINE
  8
PLAN_1
 62
7
 10
-39.656002
 20
8.120543
 30
0.2
 11
-41.383999
 21
8.120543
 31
0.2
  0
LINE
  8
PLAN_1
 62
7
 10
-41.383999
 20
8.120543
 30
0.2
 11
-41.506302
 21
8.120543
 31
0.2
  0
LINE
  8
PLAN_1
 62
7
 10
-41.506302
 20
8.120543
 30
0.2
 11
-41.506302
 21
8.174134
 31
0.2
  0
LINE
  8
PLAN_1
 62
7
 10
-41.506302
 20
8.174134
 30
0.2
 11
-39.033699
 21
8.174134
 31
0.2
  0
LINE
  8
PLAN_1
 62
7
 10
-39.033699
 20
8.174134
 30
0.2
 11
-39.033699
 21
8.227725
 31
0.2
  0
LINE
  8
PLAN_1
 62
7
 10
-39.033699
 20
8.227725
 30
0.2
 11
-41.506302
 21
8.227725
 31
0.2
  0
LINE
  8
PLAN_1
 62
7
 10
-41.506302
 20
8.227725
 30
0.2
 11
-41.506302
 21
8.281316
 31
0.2
  0
LINE
  8
PLAN_1
 62
7
 10
-41.506302
 20
8.281316
 30
0.2
 11
-39.033699
 21
8.281316
 31
0.2
  0
LINE
  8
PLAN_1
 62
7
 10
-39.033699
 20
8.281316
 30
0.2
 11
-39.033699
 21
8.334907
 31
0.2
  0
LINE
  8
PLAN_1
 62
7
 10
-39.033699
 20
8.334907
 30
0.2
 11
-41.506302
 21
8.334907
 31
0.2
  0
LINE
  8
PLAN_1
 62
7
 10
-41.506302
 20
8.334907
 30
0.2
 11
-41.506302
 21
8.388497
 31
0.2
  0
LINE
  8
PLAN_1
 62
7
 10
-41.506302
 20
8.388497
 30
0.2
 11
-39.033699
 21
8.388497
 31
0.2
  0
LINE
  8
PLAN_1
 62
7
 10
-39.033699
 20
8.388497
 30
0.2
 11
-39.033699
 21
8.442088
 31
0.2
  0
LINE
  8
PLAN_1
 62
7
 10
-39.033699
 20
8.442088
 30
0.2
 11
-41.506302
 21
8.442088
 31
0.2
  0
LINE
  8
PLAN_1
 62
7
 10
-41.506302
 20
8.442088
 30
0.2
 11
-41.506302
 21
8.495679
 31
0.2
  0
LINE
  8
PLAN_1
 62
7
 10
-41.506302
 20
8.495679
 30
0.2
 11
-39.033699
 21
8.495679
 31
0.2
  0
LINE
  8
PLAN_1
 62
7
 10
-39.033699
 20
8.495679
 30
0.2
 11
-39.033699
 21
8.54927
 31
0.2
  0
LINE
  8
PLAN_1
 62
7
 10
-39.033699
 20
8.54927
 30
0.2
 11
-41.506302
 21
8.54927
 31
0.2
  0
LINE
  8
PLAN_1
 62
7
 10
-41.506302
 20
8.54927
 30
0.2
 11
-41.506302
 21
8.60286
 31
0.2
  0
LINE
  8
PLAN_1
 62
7
 10
-41.506302
 20
8.60286
 30
0.2
 11
-39.033699
 21
8.60286
 31
0.2
  0
LINE
  8
PLAN_1
 62
7
 10
-39.033699
 20
8.60286
 30
0.2
 11
-39.033699
 21
8.656451
 31
0.2
  0
LINE
  8
PLAN_1
 62
7
 10
-39.033699
 20
8.656451
 30
0.2
 11
-41.506302
 21
8.656451
 31
0.2
  0
LINE
  8
PLAN_1
 62
7
 10
-41.506302
 20
8.656451
 30
0.2
 11
-41.506302
 21
8.710042
 31
0.2
  0
LINE
  8
PLAN_1
 62
7
 10
-41.506302
 20
8.710042
 30
0.2
 11
-39.033699
 21
8.710042
 31
0.2
  0
LINE
  8
PLAN_1
 62
7
 10
-39.033699
 20
8.710042
 30
0.2
 11
-39.033699
 21
8.763633
 31
0.2
  0
LINE
  8
PLAN_1
 62
7
 10
-39.033699
 20
8.763633
 30
0.2
 11
-41.506302
 21
8.763633
 31
0.2
  0
LINE
  8
PLAN_1
 62
7
 10
-41.506302
 20
8.763633
 30
0.2
 11
-41.506302
 21
8.817224
 31
0.2
  0
LINE
  8
PLAN_1
 62
7
 10
-41.506302
 20
8.817224
 30
0.2
 11
-39.033699
 21
8.817224
 31
0.2
  0
LINE
  8
PLAN_1
 62
7
 10
-39.033699
 20
8.817224
 30
0.2
 11
-39.033699
 21
8.870814
 31
0.2
  0
LINE
  8
PLAN_1
 62
7
 10
-39.033699
 20
8.870814
 30
0.2
 11
-41.506302
 21
8.870814
 31
0.2
  0
LINE
  8
PLAN_1
 62
7
 10
-41.506302
 20
8.870814
 30
0.2
 11
-41.506302
 21
8.924405
 31
0.2
  0
LINE
  8
PLAN_1
 62
7
 10
-41.506302
 20
8.924405
 30
0.2
 11
-39.033699
 21
8.924405
 31
0.2
  0
LINE
  8
PLAN_1
 62
7
 10
-39.033699
 20
8.924405
 30
0.2
 11
-39.033699
 21
8.977996
 31
0.2
  0
LINE
  8
PLAN_1
 62
7
 10
-39.033699
 20
8.977996
 30
0.2
 11
-41.506302
 21
8.977996
 31
0.2
  0
LINE
  8
PLAN_1
 62
7
 10
-41.506302
 20
8.977996
 30
0.2
 11
-41.506302
 21
9.031587
 31
0.2
  0
LINE
  8
PLAN_1
 62
7
 10
-41.506302
 20
9.031587
 30
0.2
 11
-39.033699
 21
9.031587
 31
0.2
  0
LINE
  8
PLAN_1
 62
7
 10
-39.033699
 20
9.031587
 30
0.2
 11
-39.033699
 21
9.085177
 31
0.2
  0
LINE
  8
PLAN_1
 62
7
 10
-39.033699
 20
9.085177
 30
0.2
 11
-41.506302
 21
9.085177
 31
0.2
  0
LINE
  8
PLAN_1
 62
7
 10
-41.506302
 20
9.085177
 30
0.2
 11
-41.506302
 21
9.138768
 31
0.2
  0
LINE
  8
PLAN_1
 62
7
 10
-41.506302
 20
9.138768
 30
0.2
 11
-39.033699
 21
9.138768
 31
0.2
  0
LINE
  8
PLAN_1
 62
7
 10
-39.033699
 20
9.138768
 30
0.2
 11
-39.033699
 21
9.192359
 31
0.2
  0
LINE
  8
PLAN_1
 62
7
 10
-39.033699
 20
9.192359
 30
0.2
 11
-41.506302
 21
9.192359
 31
0.2
  0
LINE
  8
PLAN_1
 62
7
 10
-41.506302
 20
9.192359
 30
0.2
 11
-41.506302
 21
9.24595
 31
0.2
  0
LINE
  8
PLAN_1
 62
7
 10
-41.506302
 20
9.24595
 30
0.2
 11
-39.033699
 21
9.24595
 31
0.2
  0
LINE
  8
PLAN_1
 62
7
 10
-39.033699
 20
9.24595
 30
0.2
 11
-39.033699
 21
9.299541
 31
0.2
  0
LINE
  8
PLAN_1
 62
7
 10
-39.033699
 20
9.299541
 30
0.2
 11
-41.506302
 21
9.299541
 31
0.2
  0
LINE
  8
PLAN_1
 62
7
 10
-41.506302
 20
9.299541
 30
0.2
 11
-41.506302
 21
9.353131
 31
0.2
  0
LINE
  8
PLAN_1
 62
7
 10
-41.506302
 20
9.353131
 30
0.2
 11
-39.033699
 21
9.353131
 31
0.2
  0
LINE
  8
PLAN_1
 62
7
 10
-39.033699
 20
9.353131
 30
0.2
 11
-39.033699
 21
9.406722
 31
0.2
  0
LINE
  8
PLAN_1
 62
7
 10
-39.033699
 20
9.406722
 30
0.2
 11
-41.506302
 21
9.406722
 31
0.2
  0
LINE
  8
PLAN_1
 62
7
 10
-42.493698
 20
8.120543
 30
0.2
 11
-43.616001
 21
8.120543
 31
0.2
  0
LINE
  8
PLAN_1
 62
7
 10
-43.616001
 20
8.120543
 30
0.2
 11
-43.924
 21
8.120543
 31
0.2
  0
LINE
  8
PLAN_1
 62
7
 10
-43.924
 20
8.120543
 30
0.2
 11
-46.156002
 21
8.120543
 31
0.2
  0
LINE
  8
PLAN_1
 62
7
 10
-46.156002
 20
8.120543
 30
0.2
 11
-47.035767
 21
8.120543
 31
0.2
  0
LINE
  8
PLAN_1
 62
7
 10
-47.035767
 20
8.120543
 30
0.2
 11
-47.035767
 21
8.174134
 31
0.2
  0
LINE
  8
PLAN_1
 62
7
 10
-47.035767
 20
8.174134
 30
0.2
 11
-42.493698
 21
8.174134
 31
0.2
  0
LINE
  8
PLAN_1
 62
7
 10
-42.493698
 20
8.174134
 30
0.2
 11
-42.493698
 21
8.227725
 31
0.2
  0
LINE
  8
PLAN_1
 62
7
 10
-42.493698
 20
8.227725
 30
0.2
 11
-47.035767
 21
8.227725
 31
0.2
  0
LINE
  8
PLAN_1
 62
7
 10
-47.035767
 20
8.227725
 30
0.2
 11
-47.035767
 21
8.281316
 31
0.2
  0
LINE
  8
PLAN_1
 62
7
 10
-47.035767
 20
8.281316
 30
0.2
 11
-42.493698
 21
8.281316
 31
0.2
  0
LINE
  8
PLAN_1
 62
7
 10
-42.493698
 20
8.281316
 30
0.2
 11
-42.493698
 21
8.334907
 31
0.2
  0
LINE
  8
PLAN_1
 62
7
 10
-42.493698
 20
8.334907
 30
0.2
 11
-47.035767
 21
8.334907
 31
0.2
  0
LINE
  8
PLAN_1
 62
7
 10
-47.035767
 20
8.334907
 30
0.2
 11
-47.035767
 21
8.388497
 31
0.2
  0
LINE
  8
PLAN_1
 62
7
 10
-47.035767
 20
8.388497
 30
0.2
 11
-42.493698
 21
8.388497
 31
0.2
  0
LINE
  8
PLAN_1
 62
7
 10
-42.493698
 20
8.388497
 30
0.2
 11
-42.493698
 21
8.442088
 31
0.2
  0
LINE
  8
PLAN_1
 62
7
 10
-42.493698
 20
8.442088
 30
0.2
 11
-47.035767
 21
8.442088
 31
0.2
  0
LINE
  8
PLAN_1
 62
7
 10
-47.035767
 20
8.442088
 30
0.2
 11
-47.035767
 21
8.495679
 31
0.2
  0
LINE
  8
PLAN_1
 62
7
 10
-47.035767
 20
8.495679
 30
0.2
 11
-42.493698
 21
8.495679
 31
0.2
  0
LINE
  8
PLAN_1
 62
7
 10
-42.493698
 20
8.495679
 30
0.2
 11
-42.493698
 21
8.54927
 31
0.2
  0
LINE
  8
PLAN_1
 62
7
 10
-42.493698
 20
8.54927
 30
0.2
 11
-47.035767
 21
8.54927
 31
0.2
  0
LINE
  8
PLAN_1
 62
7
 10
-47.035767
 20
8.54927
 30
0.2
 11
-47.035767
 21
8.60286
 31
0.2
  0
LINE
  8
PLAN_1
 62
7
 10
-47.035767
 20
8.60286
 30
0.2
 11
-42.493698
 21
8.60286
 31
0.2
  0
LINE
  8
PLAN_1
 62
7
 10
-42.493698
 20
8.60286
 30
0.2
 11
-42.493698
 21
8.656451
 31
0.2
  0
LINE
  8
PLAN_1
 62
7
 10
-42.493698
 20
8.656451
 30
0.2
 11
-47.035767
 21
8.656451
 31
0.2
  0
LINE
  8
PLAN_1
 62
7
 10
-47.035767
 20
8.656451
 30
0.2
 11
-47.035767
 21
8.710042
 31
0.2
  0
LINE
  8
PLAN_1
 62
7
 10
-47.035767
 20
8.710042
 30
0.2
 11
-42.493698
 21
8.710042
 31
0.2
  0
LINE
  8
PLAN_1
 62
7
 10
-42.493698
 20
8.710042
 30
0.2
 11
-42.493698
 21
8.763633
 31
0.2
  0
LINE
  8
PLAN_1
 62
7
 10
-42.493698
 20
8.763633
 30
0.2
 11
-47.035767
 21
8.763633
 31
0.2
  0
LINE
  8
PLAN_1
 62
7
 10
-47.035767
 20
8.763633
 30
0.2
 11
-47.035767
 21
8.817224
 31
0.2
  0
LINE
  8
PLAN_1
 62
7
 10
-47.035767
 20
8.817224
 30
0.2
 11
-42.493698
 21
8.817224
 31
0.2
  0
LINE
  8
PLAN_1
 62
7
 10
-42.493698
 20
8.817224
 30
0.2
 11
-42.493698
 21
8.870814
 31
0.2
  0
LINE
  8
PLAN_1
 62
7
 10
-42.493698
 20
8.870814
 30
0.2
 11
-47.035767
 21
8.870814
 31
0.2
  0
LINE
  8
PLAN_1
 62
7
 10
-47.035767
 20
8.870814
 30
0.2
 11
-47.035767
 21
8.924405
 31
0.2
  0
LINE
  8
PLAN_1
 62
7
 10
-47.035767
 20
8.924405
 30
0.2
 11
-42.493698
 21
8.924405
 31
0.2
  0
LINE
  8
PLAN_1
 62
7
 10
-42.493698
 20
8.924405
 30
0.2
 11
-42.493698
 21
8.977996
 31
0.2
  0
LINE
  8
PLAN_1
 62
7
 10
-42.493698
 20
8.977996
 30
0.2
 11
-47.035767
 21
8.977996
 31
0.2
  0
LINE
  8
PLAN_1
 62
7
 10
-47.035767
 20
8.977996
 30
0.2
 11
-47.035767
 21
9.031587
 31
0.2
  0
LINE
  8
PLAN_1
 62
7
 10
-47.035767
 20
9.031587
 30
0.2
 11
-42.493698
 21
9.031587
 31
0.2
  0
LINE
  8
PLAN_1
 62
7
 10
-42.493698
 20
9.031587
 30
0.2
 11
-42.493698
 21
9.085177
 31
0.2
  0
LINE
  8
PLAN_1
 62
7
 10
-42.493698
 20
9.085177
 30
0.2
 11
-47.035767
 21
9.085177
 31
0.2
  0
LINE
  8
PLAN_1
 62
7
 10
-47.035767
 20
9.085177
 30
0.2
 11
-47.035767
 21
9.138768
 31
0.2
  0
LINE
  8
PLAN_1
 62
7
 10
-47.035767
 20
9.138768
 30
0.2
 11
-42.493698
 21
9.138768
 31
0.2
  0
LINE
  8
PLAN_1
 62
7
 10
-42.493698
 20
9.138768
 30
0.2
 11
-42.493698
 21
9.192359
 31
0.2
  0
LINE
  8
PLAN_1
 62
7
 10
-42.493698
 20
9.192359
 30
0.2
 11
-47.035767
 21
9.192359
 31
0.2
  0
LINE
  8
PLAN_1
 62
7
 10
-47.035767
 20
9.192359
 30
0.2
 11
-47.035767
 21
9.24595
 31
0.2
  0
LINE
  8
PLAN_1
 62
7
 10
-47.035767
 20
9.24595
 30
0.2
 11
-42.493698
 21
9.24595
 31
0.2
  0
LINE
  8
PLAN_1
 62
7
 10
-42.493698
 20
9.24595
 30
0.2
 11
-42.493698
 21
9.299541
 31
0.2
  0
LINE
  8
PLAN_1
 62
7
 10
-42.493698
 20
9.299541
 30
0.2
 11
-47.035767
 21
9.299541
 31
0.2
  0
LINE
  8
PLAN_1
 62
7
 10
-47.035767
 20
9.299541
 30
0.2
 11
-47.035767
 21
9.353131
 31
0.2
  0
LINE
  8
PLAN_1
 62
7
 10
-47.035767
 20
9.353131
 30
0.2
 11
-42.493698
 21
9.353131
 31
0.2
  0
LINE
  8
PLAN_1
 62
7
 10
-42.493698
 20
9.353131
 30
0.2
 11
-42.493698
 21
9.406722
 31
0.2
  0
LINE
  8
PLAN_1
 62
7
 10
-42.493698
 20
9.406722
 30
0.2
 11
-47.035767
 21
9.406722
 31
0.2
  0
LINE
  8
PLAN_1
 62
7
 10
-46.156002
 20
8.066953
 30
0.2
 11
-47.035767
 21
8.066953
 31
0.2
  0
LINE
  8
PLAN_1
 62
7
 10
-47.035767
 20
8.066953
 30
0.2
 11
-47.035767
 21
8.013362
 31
0.2
  0
LINE
  8
PLAN_1
 62
7
 10
-47.035767
 20
8.013362
 30
0.2
 11
-46.156002
 21
8.013362
 31
0.2
  0
LINE
  8
PLAN_1
 62
7
 10
-46.156002
 20
8.013362
 30
0.2
 11
-46.156002
 21
7.959771
 31
0.2
  0
LINE
  8
PLAN_1
 62
7
 10
-46.156002
 20
7.959771
 30
0.2
 11
-47.035767
 21
7.959771
 31
0.2
  0
LINE
  8
PLAN_1
 62
7
 10
-47.035767
 20
7.959771
 30
0.2
 11
-47.035767
 21
7.90618
 31
0.2
  0
LINE
  8
PLAN_1
 62
7
 10
-47.035767
 20
7.90618
 30
0.2
 11
-46.156002
 21
7.90618
 31
0.2
  0
LINE
  8
PLAN_1
 62
7
 10
-46.156002
 20
7.90618
 30
0.2
 11
-46.156002
 21
7.85259
 31
0.2
  0
LINE
  8
PLAN_1
 62
7
 10
-46.156002
 20
7.85259
 30
0.2
 11
-47.035767
 21
7.85259
 31
0.2
  0
LINE
  8
PLAN_1
 62
7
 10
-47.035767
 20
7.85259
 30
0.2
 11
-47.035767
 21
7.798999
 31
0.2
  0
LINE
  8
PLAN_1
 62
7
 10
-47.035767
 20
7.798999
 30
0.2
 11
-46.156002
 21
7.798999
 31
0.2
  0
LINE
  8
PLAN_1
 62
7
 10
-46.156002
 20
7.798999
 30
0.2
 11
-46.156002
 21
7.745408
 31
0.2
  0
LINE
  8
PLAN_1
 62
7
 10
-46.156002
 20
7.745408
 30
0.2
 11
-47.035767
 21
7.745408
 31
0.2
  0
LINE
  8
PLAN_1
 62
7
 10
-47.035767
 20
7.745408
 30
0.2
 11
-47.035767
 21
7.691817
 31
0.2
  0
LINE
  8
PLAN_1
 62
7
 10
-47.035767
 20
7.691817
 30
0.2
 11
-46.156002
 21
7.691817
 31
0.2
  0
LINE
  8
PLAN_1
 62
7
 10
-46.156002
 20
7.691817
 30
0.2
 11
-46.156002
 21
7.638227
 31
0.2
  0
LINE
  8
PLAN_1
 62
7
 10
-46.156002
 20
7.638227
 30
0.2
 11
-47.035767
 21
7.638227
 31
0.2
  0
LINE
  8
PLAN_1
 62
7
 10
-47.035767
 20
7.638227
 30
0.2
 11
-47.035767
 21
7.584636
 31
0.2
  0
LINE
  8
PLAN_1
 62
7
 10
-47.035767
 20
7.584636
 30
0.2
 11
-46.156002
 21
7.584636
 31
0.2
  0
LINE
  8
PLAN_1
 62
7
 10
-46.156002
 20
7.584636
 30
0.2
 11
-46.156002
 21
7.531045
 31
0.2
  0
LINE
  8
PLAN_1
 62
7
 10
-46.156002
 20
7.531045
 30
0.2
 11
-47.035767
 21
7.531045
 31
0.2
  0
LINE
  8
PLAN_1
 62
7
 10
-47.035767
 20
7.531045
 30
0.2
 11
-47.035767
 21
7.477454
 31
0.2
  0
LINE
  8
PLAN_1
 62
7
 10
-47.035767
 20
7.477454
 30
0.2
 11
-46.156002
 21
7.477454
 31
0.2
  0
LINE
  8
PLAN_1
 62
7
 10
-46.156002
 20
7.477454
 30
0.2
 11
-46.156002
 21
7.423863
 31
0.2
  0
LINE
  8
PLAN_1
 62
7
 10
-46.156002
 20
7.423863
 30
0.2
 11
-47.035767
 21
7.423863
 31
0.2
  0
LINE
  8
PLAN_1
 62
7
 10
-47.035767
 20
7.423863
 30
0.2
 11
-47.035767
 21
7.370274
 31
0.2
  0
LINE
  8
PLAN_1
 62
7
 10
-47.035767
 20
7.370274
 30
0.2
 11
-46.156002
 21
7.370274
 31
0.2
  0
LINE
  8
PLAN_1
 62
7
 10
-46.156002
 20
7.370274
 30
0.2
 11
-46.156002
 21
7.316684
 31
0.2
  0
LINE
  8
PLAN_1
 62
7
 10
-46.156002
 20
7.316684
 30
0.2
 11
-47.035767
 21
7.316684
 31
0.2
  0
LINE
  8
PLAN_1
 62
7
 10
-47.035767
 20
7.316684
 30
0.2
 11
-47.035767
 21
7.263094
 31
0.2
  0
LINE
  8
PLAN_1
 62
7
 10
-47.035767
 20
7.263094
 30
0.2
 11
-46.156002
 21
7.263094
 31
0.2
  0
LINE
  8
PLAN_1
 62
7
 10
-46.156002
 20
7.263094
 30
0.2
 11
-46.156002
 21
7.209504
 31
0.2
  0
LINE
  8
PLAN_1
 62
7
 10
-46.156002
 20
7.209504
 30
0.2
 11
-47.035767
 21
7.209504
 31
0.2
  0
LINE
  8
PLAN_1
 62
7
 10
-47.035767
 20
7.209504
 30
0.2
 11
-47.035767
 21
7.155914
 31
0.2
  0
LINE
  8
PLAN_1
 62
7
 10
-47.035767
 20
7.155914
 30
0.2
 11
-46.156002
 21
7.155914
 31
0.2
  0
LINE
  8
PLAN_1
 62
7
 10
-46.156002
 20
7.155914
 30
0.2
 11
-46.156002
 21
7.102324
 31
0.2
  0
LINE
  8
PLAN_1
 62
7
 10
-46.156002
 20
7.102324
 30
0.2
 11
-47.035767
 21
7.102324
 31
0.2
  0
LINE
  8
PLAN_1
 62
7
 10
-47.035767
 20
7.102324
 30
0.2
 11
-47.035767
 21
7.048735
 31
0.2
  0
LINE
  8
PLAN_1
 62
7
 10
-47.035767
 20
7.048735
 30
0.2
 11
-46.156002
 21
7.048735
 31
0.2
  0
LINE
  8
PLAN_1
 62
7
 10
-46.156002
 20
7.048735
 30
0.2
 11
-46.156002
 21
6.995145
 31
0.2
  0
LINE
  8
PLAN_1
 62
7
 10
-46.156002
 20
6.995145
 30
0.2
 11
-47.035767
 21
6.995145
 31
0.2
  0
LINE
  8
PLAN_1
 62
7
 10
-47.035767
 20
6.995145
 30
0.2
 11
-47.035767
 21
6.941555
 31
0.2
  0
LINE
  8
PLAN_1
 62
7
 10
-47.035767
 20
6.941555
 30
0.2
 11
-46.156002
 21
6.941555
 31
0.2
  0
LINE
  8
PLAN_1
 62
7
 10
-46.156002
 20
6.941555
 30
0.2
 11
-46.156002
 21
6.887965
 31
0.2
  0
LINE
  8
PLAN_1
 62
7
 10
-46.156002
 20
6.887965
 30
0.2
 11
-47.035767
 21
6.887965
 31
0.2
  0
LINE
  8
PLAN_1
 62
7
 10
-47.035767
 20
6.887965
 30
0.2
 11
-47.035767
 21
6.834375
 31
0.2
  0
LINE
  8
PLAN_1
 62
7
 10
-47.035767
 20
6.834375
 30
0.2
 11
-46.156002
 21
6.834375
 31
0.2
  0
LINE
  8
PLAN_1
 62
7
 10
-46.156002
 20
6.834375
 30
0.2
 11
-46.156002
 21
6.780786
 31
0.2
  0
LINE
  8
PLAN_1
 62
7
 10
-46.156002
 20
6.780786
 30
0.2
 11
-47.035767
 21
6.780786
 31
0.2
  0
LINE
  8
PLAN_1
 62
7
 10
-47.035767
 20
6.780786
 30
0.2
 11
-47.035767
 21
6.727196
 31
0.2
  0
LINE
  8
PLAN_1
 62
7
 10
-47.035767
 20
6.727196
 30
0.2
 11
-46.156002
 21
6.727196
 31
0.2
  0
LINE
  8
PLAN_1
 62
7
 10
-46.156002
 20
6.727196
 30
0.2
 11
-46.156002
 21
6.673606
 31
0.2
  0
LINE
  8
PLAN_1
 62
7
 10
-46.156002
 20
6.673606
 30
0.2
 11
-47.035767
 21
6.673606
 31
0.2
  0
LINE
  8
PLAN_1
 62
7
 10
-47.035767
 20
6.673606
 30
0.2
 11
-47.035767
 21
6.620016
 31
0.2
  0
LINE
  8
PLAN_1
 62
7
 10
-47.035767
 20
6.620016
 30
0.2
 11
-46.156002
 21
6.620016
 31
0.2
  0
LINE
  8
PLAN_1
 62
7
 10
-46.156002
 20
6.620016
 30
0.2
 11
-46.156002
 21
6.566426
 31
0.2
  0
LINE
  8
PLAN_1
 62
7
 10
-46.156002
 20
6.566426
 30
0.2
 11
-47.035767
 21
6.566426
 31
0.2
  0
LINE
  8
PLAN_1
 62
7
 10
-47.035767
 20
6.566426
 30
0.2
 11
-47.035767
 21
6.512836
 31
0.2
  0
LINE
  8
PLAN_1
 62
7
 10
-47.035767
 20
6.512836
 30
0.2
 11
-46.156002
 21
6.512836
 31
0.2
  0
LINE
  8
PLAN_1
 62
7
 10
-46.156002
 20
6.512836
 30
0.2
 11
-46.156002
 21
6.459247
 31
0.2
  0
LINE
  8
PLAN_1
 62
7
 10
-46.156002
 20
6.459247
 30
0.2
 11
-47.035767
 21
6.459247
 31
0.2
  0
LINE
  8
PLAN_1
 62
7
 10
-47.035767
 20
6.459247
 30
0.2
 11
-47.035767
 21
6.405657
 31
0.2
  0
LINE
  8
PLAN_1
 62
7
 10
-47.035767
 20
6.405657
 30
0.2
 11
-46.156002
 21
6.405657
 31
0.2
  0
LINE
  8
PLAN_1
 62
7
 10
-46.156002
 20
6.405657
 30
0.2
 11
-46.156002
 21
6.352067
 31
0.2
  0
LINE
  8
PLAN_1
 62
7
 10
-46.156002
 20
6.352067
 30
0.2
 11
-47.035767
 21
6.352067
 31
0.2
  0
LINE
  8
PLAN_1
 62
7
 10
-47.035767
 20
6.352067
 30
0.2
 11
-47.035767
 21
6.298477
 31
0.2
  0
LINE
  8
PLAN_1
 62
7
 10
-47.035767
 20
6.298477
 30
0.2
 11
-46.156002
 21
6.298477
 31
0.2
  0
LINE
  8
PLAN_1
 62
7
 10
-46.156002
 20
6.298477
 30
0.2
 11
-46.156002
 21
6.244887
 31
0.2
  0
LINE
  8
PLAN_1
 62
7
 10
-46.156002
 20
6.244887
 30
0.2
 11
-47.035767
 21
6.244887
 31
0.2
  0
LINE
  8
PLAN_1
 62
7
 10
-47.035767
 20
6.244887
 30
0.2
 11
-47.035767
 21
6.191298
 31
0.2
  0
LINE
  8
PLAN_1
 62
7
 10
-47.035767
 20
6.191298
 30
0.2
 11
-46.156002
 21
6.191298
 31
0.2
  0
LINE
  8
PLAN_1
 62
7
 10
-46.156002
 20
6.191298
 30
0.2
 11
-46.156002
 21
6.137708
 31
0.2
  0
LINE
  8
PLAN_1
 62
7
 10
-46.156002
 20
6.137708
 30
0.2
 11
-47.035767
 21
6.137708
 31
0.2
  0
LINE
  8
PLAN_1
 62
7
 10
-47.035767
 20
6.137708
 30
0.2
 11
-47.035767
 21
6.084118
 31
0.2
  0
LINE
  8
PLAN_1
 62
7
 10
-47.035767
 20
6.084118
 30
0.2
 11
-46.156002
 21
6.084118
 31
0.2
  0
LINE
  8
PLAN_1
 62
7
 10
-46.156002
 20
6.084118
 30
0.2
 11
-46.156002
 21
6.030528
 31
0.2
  0
LINE
  8
PLAN_1
 62
7
 10
-46.156002
 20
6.030528
 30
0.2
 11
-47.035767
 21
6.030528
 31
0.2
  0
LINE
  8
PLAN_1
 62
7
 10
-47.035767
 20
6.030528
 30
0.2
 11
-47.035767
 21
5.976938
 31
0.2
  0
LINE
  8
PLAN_1
 62
7
 10
-47.035767
 20
5.976938
 30
0.2
 11
-46.156002
 21
5.976938
 31
0.2
  0
LINE
  8
PLAN_1
 62
7
 10
-46.156002
 20
5.976938
 30
0.2
 11
-46.156002
 21
5.923348
 31
0.2
  0
LINE
  8
PLAN_1
 62
7
 10
-46.156002
 20
5.923348
 30
0.2
 11
-47.035767
 21
5.923348
 31
0.2
  0
LINE
  8
PLAN_1
 62
7
 10
-47.035767
 20
5.923348
 30
0.2
 11
-47.035767
 21
5.869759
 31
0.2
  0
LINE
  8
PLAN_1
 62
7
 10
-47.035767
 20
5.869759
 30
0.2
 11
-45.493698
 21
5.869759
 31
0.2
  0
LINE
  8
PLAN_1
 62
7
 10
-45.493698
 20
5.869759
 30
0.2
 11
-45.493698
 21
5.816169
 31
0.2
  0
LINE
  8
PLAN_1
 62
7
 10
-45.493698
 20
5.816169
 30
0.2
 11
-47.035767
 21
5.816169
 31
0.2
  0
LINE
  8
PLAN_1
 62
7
 10
-47.035767
 20
5.816169
 30
0.2
 11
-47.035767
 21
5.762579
 31
0.2
  0
LINE
  8
PLAN_1
 62
7
 10
-47.035767
 20
5.762579
 30
0.2
 11
-45.493698
 21
5.762579
 31
0.2
  0
LINE
  8
PLAN_1
 62
7
 10
-45.493698
 20
5.762579
 30
0.2
 11
-45.493698
 21
5.708989
 31
0.2
  0
LINE
  8
PLAN_1
 62
7
 10
-45.493698
 20
5.708989
 30
0.2
 11
-47.035767
 21
5.708989
 31
0.2
  0
LINE
  8
PLAN_1
 62
7
 10
-47.035767
 20
5.708989
 30
0.2
 11
-47.035767
 21
5.655399
 31
0.2
  0
LINE
  8
PLAN_1
 62
7
 10
-47.035767
 20
5.655399
 30
0.2
 11
-45.493698
 21
5.655399
 31
0.2
  0
LINE
  8
PLAN_1
 62
7
 10
-45.493698
 20
5.655399
 30
0.2
 11
-45.493698
 21
5.60181
 31
0.2
  0
LINE
  8
PLAN_1
 62
7
 10
-45.493698
 20
5.60181
 30
0.2
 11
-47.035767
 21
5.60181
 31
0.2
  0
LINE
  8
PLAN_1
 62
7
 10
-47.035767
 20
5.60181
 30
0.2
 11
-47.035767
 21
5.54822
 31
0.2
  0
LINE
  8
PLAN_1
 62
7
 10
-47.035767
 20
5.54822
 30
0.2
 11
-45.493698
 21
5.54822
 31
0.2
  0
LINE
  8
PLAN_1
 62
7
 10
-45.493698
 20
5.54822
 30
0.2
 11
-45.493698
 21
5.49463
 31
0.2
  0
LINE
  8
PLAN_1
 62
7
 10
-45.493698
 20
5.49463
 30
0.2
 11
-47.035767
 21
5.49463
 31
0.2
  0
LINE
  8
PLAN_1
 62
7
 10
-47.035767
 20
5.49463
 30
0.2
 11
-47.035767
 21
5.44104
 31
0.2
  0
LINE
  8
PLAN_1
 62
7
 10
-47.035767
 20
5.44104
 30
0.2
 11
-45.493698
 21
5.44104
 31
0.2
  0
LINE
  8
PLAN_1
 62
7
 10
-45.493698
 20
5.44104
 30
0.2
 11
-45.493698
 21
5.38745
 31
0.2
  0
LINE
  8
PLAN_1
 62
7
 10
-45.493698
 20
5.38745
 30
0.2
 11
-47.035767
 21
5.38745
 31
0.2
  0
LINE
  8
PLAN_1
 62
7
 10
-47.035767
 20
5.38745
 30
0.2
 11
-47.035767
 21
5.33386
 31
0.2
  0
LINE
  8
PLAN_1
 62
7
 10
-47.035767
 20
5.33386
 30
0.2
 11
-45.493698
 21
5.33386
 31
0.2
  0
LINE
  8
PLAN_1
 62
7
 10
-45.493698
 20
5.33386
 30
0.2
 11
-45.493698
 21
5.280271
 31
0.2
  0
LINE
  8
PLAN_1
 62
7
 10
-45.493698
 20
5.280271
 30
0.2
 11
-47.035767
 21
5.280271
 31
0.2
  0
LINE
  8
PLAN_1
 62
7
 10
-47.035767
 20
5.280271
 30
0.2
 11
-47.035767
 21
5.226681
 31
0.2
  0
LINE
  8
PLAN_1
 62
7
 10
-47.035767
 20
5.226681
 30
0.2
 11
-45.493698
 21
5.226681
 31
0.2
  0
LINE
  8
PLAN_1
 62
7
 10
-45.493698
 20
5.226681
 30
0.2
 11
-45.493698
 21
5.173091
 31
0.2
  0
LINE
  8
PLAN_1
 62
7
 10
-45.493698
 20
5.173091
 30
0.2
 11
-47.035767
 21
5.173091
 31
0.2
  0
LINE
  8
PLAN_1
 62
7
 10
-47.035767
 20
5.173091
 30
0.2
 11
-47.035767
 21
5.119501
 31
0.2
  0
LINE
  8
PLAN_1
 62
7
 10
-47.035767
 20
5.119501
 30
0.2
 11
-45.493698
 21
5.119501
 31
0.2
  0
LINE
  8
PLAN_1
 62
7
 10
-45.493698
 20
5.119501
 30
0.2
 11
-45.493698
 21
5.065911
 31
0.2
  0
LINE
  8
PLAN_1
 62
7
 10
-45.493698
 20
5.065911
 30
0.2
 11
-47.035767
 21
5.065911
 31
0.2
  0
LINE
  8
PLAN_1
 62
7
 10
-47.035767
 20
5.065911
 30
0.2
 11
-47.035767
 21
5.012321
 31
0.2
  0
LINE
  8
PLAN_1
 62
7
 10
-47.035767
 20
5.012321
 30
0.2
 11
-45.493698
 21
5.012321
 31
0.2
  0
LINE
  8
PLAN_1
 62
7
 10
-45.489635
 20
4.958732
 30
0.2
 11
-47.035767
 21
4.958732
 31
0.2
  0
LINE
  8
PLAN_1
 62
7
 10
-47.035767
 20
4.958732
 30
0.2
 11
-47.035767
 21
4.905142
 31
0.2
  0
LINE
  8
PLAN_1
 62
7
 10
-47.035767
 20
4.905142
 30
0.2
 11
-45.484657
 21
4.905142
 31
0.2
  0
LINE
  8
PLAN_1
 62
7
 10
-45.468399
 20
4.851552
 30
0.2
 11
-47.035767
 21
4.851552
 31
0.2
  0
LINE
  8
PLAN_1
 62
7
 10
-47.035767
 20
4.851552
 30
0.2
 11
-47.035767
 21
4.797962
 31
0.2
  0
LINE
  8
PLAN_1
 62
7
 10
-47.035767
 20
4.797962
 30
0.2
 11
-45.449112
 21
4.797962
 31
0.2
  0
LINE
  8
PLAN_1
 62
7
 10
-45.449112
 20
4.797962
 30
0.2
 11
-45.420467
 21
4.744372
 31
0.2
  0
LINE
  8
PLAN_1
 62
7
 10
-45.420467
 20
4.744372
 30
0.2
 11
-47.035767
 21
4.744372
 31
0.2
  0
LINE
  8
PLAN_1
 62
7
 10
-47.035767
 20
4.744372
 30
0.2
 11
-47.035767
 21
4.690783
 31
0.2
  0
LINE
  8
PLAN_1
 62
7
 10
-47.035767
 20
4.690783
 30
0.2
 11
-45.381828
 21
4.690783
 31
0.2
  0
LINE
  8
PLAN_1
 62
7
 10
-45.335388
 20
4.637193
 30
0.2
 11
-47.035767
 21
4.637193
 31
0.2
  0
LINE
  8
PLAN_1
 62
7
 10
-47.035767
 20
4.637193
 30
0.2
 11
-47.035767
 21
4.583603
 31
0.2
  0
LINE
  8
PLAN_1
 62
7
 10
-47.035767
 20
4.583603
 30
0.2
 11
-45.281799
 21
4.583603
 31
0.2
  0
LINE
  8
PLAN_1
 62
7
 10
-45.22821
 20
4.530013
 30
0.2
 11
-47.035767
 21
4.530013
 31
0.2
  0
LINE
  8
PLAN_1
 62
7
 10
-47.035767
 20
4.530013
 30
0.2
 11
-47.035767
 21
4.476423
 31
0.2
  0
LINE
  8
PLAN_1
 62
7
 10
-47.035767
 20
4.476423
 30
0.2
 11
-45.174618
 21
4.476423
 31
0.2
  0
LINE
  8
PLAN_1
 62
7
 10
-45.174618
 20
4.476423
 30
0.2
 11
-45.121029
 21
4.422833
 31
0.2
  0
LINE
  8
PLAN_1
 62
7
 10
-45.121029
 20
4.422833
 30
0.2
 11
-47.035767
 21
4.422833
 31
0.2
  0
LINE
  8
PLAN_1
 62
7
 10
-47.035767
 20
4.422833
 30
0.2
 11
-47.035767
 21
4.369244
 31
0.2
  0
LINE
  8
PLAN_1
 62
7
 10
-47.035767
 20
4.369244
 30
0.2
 11
-45.06744
 21
4.369244
 31
0.2
  0
LINE
  8
PLAN_1
 62
7
 10
-45.013851
 20
4.315654
 30
0.2
 11
-47.035767
 21
4.315654
 31
0.2
  0
LINE
  8
PLAN_1
 62
7
 10
-47.035767
 20
4.315654
 30
0.2
 11
-47.035767
 21
4.262064
 31
0.2
  0
LINE
  8
PLAN_1
 62
7
 10
-47.035767
 20
4.262064
 30
0.2
 11
-44.960262
 21
4.262064
 31
0.2
  0
LINE
  8
PLAN_1
 62
7
 10
-44.90667
 20
4.208474
 30
0.2
 11
-47.035767
 21
4.208474
 31
0.2
  0
LINE
  8
PLAN_1
 62
7
 10
-47.035767
 20
4.208474
 30
0.2
 11
-47.035767
 21
4.154884
 31
0.2
  0
LINE
  8
PLAN_1
 62
7
 10
-47.035767
 20
4.154884
 30
0.2
 11
-44.853081
 21
4.154884
 31
0.2
  0
LINE
  8
PLAN_1
 62
7
 10
-44.788651
 20
4.101295
 30
0.2
 11
-47.035767
 21
4.101295
 31
0.2
  0
LINE
  8
PLAN_1
 62
7
 10
-47.035767
 20
4.101295
 30
0.2
 11
-47.035767
 21
4.047705
 31
0.2
  0
LINE
  8
PLAN_1
 62
7
 10
-47.035767
 20
4.047705
 30
0.2
 11
-44.696087
 21
4.047705
 31
0.2
  0
LINE
  8
PLAN_1
 62
7
 10
-44.314125
 20
5.012321
 30
0.2
 11
-36.493698
 21
5.012321
 31
0.2
  0
LINE
  8
PLAN_1
 62
7
 10
-37.424
 20
5.923348
 30
0.2
 11
-37.116001
 21
5.923348
 31
0.2
  0
LINE
  8
PLAN_1
 62
7
 10
-37.116001
 20
5.923348
 30
0.2
 11
-37.116001
 21
5.976938
 31
0.2
  0
LINE
  8
PLAN_1
 62
7
 10
-37.116001
 20
5.976938
 30
0.2
 11
-37.424
 21
5.976938
 31
0.2
  0
LINE
  8
PLAN_1
 62
7
 10
-37.424
 20
5.976938
 30
0.2
 11
-37.424
 21
6.030528
 31
0.2
  0
LINE
  8
PLAN_1
 62
7
 10
-37.424
 20
6.030528
 30
0.2
 11
-37.116001
 21
6.030528
 31
0.2
  0
LINE
  8
PLAN_1
 62
7
 10
-37.116001
 20
6.030528
 30
0.2
 11
-37.116001
 21
6.084118
 31
0.2
  0
LINE
  8
PLAN_1
 62
7
 10
-37.116001
 20
6.084118
 30
0.2
 11
-37.424
 21
6.084118
 31
0.2
  0
LINE
  8
PLAN_1
 62
7
 10
-37.424
 20
6.084118
 30
0.2
 11
-37.424
 21
6.137708
 31
0.2
  0
LINE
  8
PLAN_1
 62
7
 10
-37.424
 20
6.137708
 30
0.2
 11
-37.116001
 21
6.137708
 31
0.2
  0
LINE
  8
PLAN_1
 62
7
 10
-37.116001
 20
6.137708
 30
0.2
 11
-37.116001
 21
6.191298
 31
0.2
  0
LINE
  8
PLAN_1
 62
7
 10
-37.116001
 20
6.191298
 30
0.2
 11
-37.424
 21
6.191298
 31
0.2
  0
LINE
  8
PLAN_1
 62
7
 10
-37.424
 20
6.191298
 30
0.2
 11
-37.424
 21
6.244887
 31
0.2
  0
LINE
  8
PLAN_1
 62
7
 10
-37.424
 20
6.244887
 30
0.2
 11
-37.116001
 21
6.244887
 31
0.2
  0
LINE
  8
PLAN_1
 62
7
 10
-37.116001
 20
6.244887
 30
0.2
 11
-37.116001
 21
6.298477
 31
0.2
  0
LINE
  8
PLAN_1
 62
7
 10
-37.116001
 20
6.298477
 30
0.2
 11
-37.424
 21
6.298477
 31
0.2
  0
LINE
  8
PLAN_1
 62
7
 10
-37.424
 20
6.298477
 30
0.2
 11
-37.424
 21
6.352067
 31
0.2
  0
LINE
  8
PLAN_1
 62
7
 10
-37.424
 20
6.352067
 30
0.2
 11
-37.116001
 21
6.352067
 31
0.2
  0
LINE
  8
PLAN_1
 62
7
 10
-37.116001
 20
6.352067
 30
0.2
 11
-37.116001
 21
6.405657
 31
0.2
  0
LINE
  8
PLAN_1
 62
7
 10
-37.116001
 20
6.405657
 30
0.2
 11
-37.424
 21
6.405657
 31
0.2
  0
LINE
  8
PLAN_1
 62
7
 10
-37.424
 20
6.405657
 30
0.2
 11
-37.424
 21
6.459247
 31
0.2
  0
LINE
  8
PLAN_1
 62
7
 10
-37.424
 20
6.459247
 30
0.2
 11
-37.116001
 21
6.459247
 31
0.2
  0
LINE
  8
PLAN_1
 62
7
 10
-37.116001
 20
6.459247
 30
0.2
 11
-37.116001
 21
6.512836
 31
0.2
  0
LINE
  8
PLAN_1
 62
7
 10
-37.116001
 20
6.512836
 30
0.2
 11
-37.424
 21
6.512836
 31
0.2
  0
LINE
  8
PLAN_1
 62
7
 10
-37.424
 20
6.512836
 30
0.2
 11
-37.424
 21
6.566426
 31
0.2
  0
LINE
  8
PLAN_1
 62
7
 10
-37.424
 20
6.566426
 30
0.2
 11
-37.116001
 21
6.566426
 31
0.2
  0
LINE
  8
PLAN_1
 62
7
 10
-37.116001
 20
6.566426
 30
0.2
 11
-37.116001
 21
6.620016
 31
0.2
  0
LINE
  8
PLAN_1
 62
7
 10
-37.116001
 20
6.620016
 30
0.2
 11
-37.424
 21
6.620016
 31
0.2
  0
LINE
  8
PLAN_1
 62
7
 10
-37.424
 20
6.620016
 30
0.2
 11
-37.424
 21
6.673606
 31
0.2
  0
LINE
  8
PLAN_1
 62
7
 10
-37.424
 20
6.673606
 30
0.2
 11
-37.116001
 21
6.673606
 31
0.2
  0
LINE
  8
PLAN_1
 62
7
 10
-37.116001
 20
6.673606
 30
0.2
 11
-37.116001
 21
6.727196
 31
0.2
  0
LINE
  8
PLAN_1
 62
7
 10
-37.116001
 20
6.727196
 30
0.2
 11
-37.424
 21
6.727196
 31
0.2
  0
LINE
  8
PLAN_1
 62
7
 10
-37.424
 20
6.727196
 30
0.2
 11
-37.424
 21
6.780786
 31
0.2
  0
LINE
  8
PLAN_1
 62
7
 10
-37.424
 20
6.780786
 30
0.2
 11
-37.116001
 21
6.780786
 31
0.2
  0
LINE
  8
PLAN_1
 62
7
 10
-37.116001
 20
6.780786
 30
0.2
 11
-37.116001
 21
6.834375
 31
0.2
  0
LINE
  8
PLAN_1
 62
7
 10
-37.116001
 20
6.834375
 30
0.2
 11
-37.424
 21
6.834375
 31
0.2
  0
LINE
  8
PLAN_1
 62
7
 10
-37.424
 20
6.834375
 30
0.2
 11
-37.424
 21
6.887965
 31
0.2
  0
LINE
  8
PLAN_1
 62
7
 10
-37.424
 20
6.887965
 30
0.2
 11
-37.116001
 21
6.887965
 31
0.2
  0
LINE
  8
PLAN_1
 62
7
 10
-37.116001
 20
6.887965
 30
0.2
 11
-37.116001
 21
6.941555
 31
0.2
  0
LINE
  8
PLAN_1
 62
7
 10
-37.116001
 20
6.941555
 30
0.2
 11
-37.424
 21
6.941555
 31
0.2
  0
LINE
  8
PLAN_1
 62
7
 10
-37.424
 20
6.941555
 30
0.2
 11
-37.424
 21
6.995145
 31
0.2
  0
LINE
  8
PLAN_1
 62
7
 10
-37.424
 20
6.995145
 30
0.2
 11
-37.116001
 21
6.995145
 31
0.2
  0
LINE
  8
PLAN_1
 62
7
 10
-37.116001
 20
6.995145
 30
0.2
 11
-37.116001
 21
7.048735
 31
0.2
  0
LINE
  8
PLAN_1
 62
7
 10
-37.116001
 20
7.048735
 30
0.2
 11
-37.424
 21
7.048735
 31
0.2
  0
LINE
  8
PLAN_1
 62
7
 10
-37.424
 20
7.048735
 30
0.2
 11
-37.424
 21
7.102324
 31
0.2
  0
LINE
  8
PLAN_1
 62
7
 10
-37.424
 20
7.102324
 30
0.2
 11
-37.116001
 21
7.102324
 31
0.2
  0
LINE
  8
PLAN_1
 62
7
 10
-37.116001
 20
7.102324
 30
0.2
 11
-37.116001
 21
7.155914
 31
0.2
  0
LINE
  8
PLAN_1
 62
7
 10
-37.116001
 20
7.155914
 30
0.2
 11
-37.424
 21
7.155914
 31
0.2
  0
LINE
  8
PLAN_1
 62
7
 10
-37.424
 20
7.155914
 30
0.2
 11
-37.424
 21
7.209504
 31
0.2
  0
LINE
  8
PLAN_1
 62
7
 10
-37.424
 20
7.209504
 30
0.2
 11
-37.116001
 21
7.209504
 31
0.2
  0
LINE
  8
PLAN_1
 62
7
 10
-37.116001
 20
7.209504
 30
0.2
 11
-37.116001
 21
7.263094
 31
0.2
  0
LINE
  8
PLAN_1
 62
7
 10
-37.116001
 20
7.263094
 30
0.2
 11
-37.424
 21
7.263094
 31
0.2
  0
LINE
  8
PLAN_1
 62
7
 10
-37.424
 20
7.263094
 30
0.2
 11
-37.424
 21
7.316684
 31
0.2
  0
LINE
  8
PLAN_1
 62
7
 10
-37.424
 20
7.316684
 30
0.2
 11
-37.116001
 21
7.316684
 31
0.2
  0
LINE
  8
PLAN_1
 62
7
 10
-37.116001
 20
7.316684
 30
0.2
 11
-37.116001
 21
7.370274
 31
0.2
  0
LINE
  8
PLAN_1
 62
7
 10
-37.116001
 20
7.370274
 30
0.2
 11
-37.424
 21
7.370274
 31
0.2
  0
LINE
  8
PLAN_1
 62
7
 10
-37.424
 20
7.370274
 30
0.2
 11
-37.424
 21
7.423863
 31
0.2
  0
LINE
  8
PLAN_1
 62
7
 10
-37.424
 20
7.423863
 30
0.2
 11
-37.116001
 21
7.423863
 31
0.2
  0
LINE
  8
PLAN_1
 62
7
 10
-37.116001
 20
7.423863
 30
0.2
 11
-37.116001
 21
7.477454
 31
0.2
  0
LINE
  8
PLAN_1
 62
7
 10
-37.116001
 20
7.477454
 30
0.2
 11
-37.424
 21
7.477454
 31
0.2
  0
LINE
  8
PLAN_1
 62
7
 10
-37.424
 20
7.477454
 30
0.2
 11
-37.424
 21
7.531045
 31
0.2
  0
LINE
  8
PLAN_1
 62
7
 10
-37.424
 20
7.531045
 30
0.2
 11
-37.116001
 21
7.531045
 31
0.2
  0
LINE
  8
PLAN_1
 62
7
 10
-37.116001
 20
7.531045
 30
0.2
 11
-37.116001
 21
7.584636
 31
0.2
  0
LINE
  8
PLAN_1
 62
7
 10
-37.116001
 20
7.584636
 30
0.2
 11
-37.424
 21
7.584636
 31
0.2
  0
LINE
  8
PLAN_1
 62
7
 10
-37.424
 20
7.584636
 30
0.2
 11
-37.424
 21
7.638227
 31
0.2
  0
LINE
  8
PLAN_1
 62
7
 10
-37.424
 20
7.638227
 30
0.2
 11
-37.116001
 21
7.638227
 31
0.2
  0
LINE
  8
PLAN_1
 62
7
 10
-37.116001
 20
7.638227
 30
0.2
 11
-37.116001
 21
7.691817
 31
0.2
  0
LINE
  8
PLAN_1
 62
7
 10
-37.116001
 20
7.691817
 30
0.2
 11
-37.424
 21
7.691817
 31
0.2
  0
LINE
  8
PLAN_1
 62
7
 10
-37.424
 20
7.691817
 30
0.2
 11
-37.424
 21
7.745408
 31
0.2
  0
LINE
  8
PLAN_1
 62
7
 10
-37.424
 20
7.745408
 30
0.2
 11
-37.116001
 21
7.745408
 31
0.2
  0
LINE
  8
PLAN_1
 62
7
 10
-37.116001
 20
7.745408
 30
0.2
 11
-37.116001
 21
7.798999
 31
0.2
  0
LINE
  8
PLAN_1
 62
7
 10
-37.116001
 20
7.798999
 30
0.2
 11
-37.424
 21
7.798999
 31
0.2
  0
LINE
  8
PLAN_1
 62
7
 10
-37.424
 20
7.798999
 30
0.2
 11
-37.424
 21
7.85259
 31
0.2
  0
LINE
  8
PLAN_1
 62
7
 10
-37.424
 20
7.85259
 30
0.2
 11
-37.116001
 21
7.85259
 31
0.2
  0
LINE
  8
PLAN_1
 62
7
 10
-37.116001
 20
7.85259
 30
0.2
 11
-37.116001
 21
7.90618
 31
0.2
  0
LINE
  8
PLAN_1
 62
7
 10
-37.116001
 20
7.90618
 30
0.2
 11
-37.424
 21
7.90618
 31
0.2
  0
LINE
  8
PLAN_1
 62
7
 10
-37.424
 20
7.90618
 30
0.2
 11
-37.424
 21
7.959771
 31
0.2
  0
LINE
  8
PLAN_1
 62
7
 10
-37.424
 20
7.959771
 30
0.2
 11
-37.116001
 21
7.959771
 31
0.2
  0
LINE
  8
PLAN_1
 62
7
 10
-37.116001
 20
7.959771
 30
0.2
 11
-37.116001
 21
8.013362
 31
0.2
  0
LINE
  8
PLAN_1
 62
7
 10
-37.116001
 20
8.013362
 30
0.2
 11
-37.424
 21
8.013362
 31
0.2
  0
LINE
  8
PLAN_1
 62
7
 10
-37.424
 20
8.013362
 30
0.2
 11
-37.424
 21
8.066953
 31
0.2
  0
LINE
  8
PLAN_1
 62
7
 10
-37.424
 20
8.066953
 30
0.2
 11
-37.116001
 21
8.066953
 31
0.2
  0
LINE
  8
PLAN_1
 62
7
 10
-39.656002
 20
8.066953
 30
0.2
 11
-41.383999
 21
8.066953
 31
0.2
  0
LINE
  8
PLAN_1
 62
7
 10
-41.383999
 20
8.066953
 30
0.2
 11
-41.383999
 21
8.013362
 31
0.2
  0
LINE
  8
PLAN_1
 62
7
 10
-41.383999
 20
8.013362
 30
0.2
 11
-39.656002
 21
8.013362
 31
0.2
  0
LINE
  8
PLAN_1
 62
7
 10
-39.656002
 20
8.013362
 30
0.2
 11
-39.656002
 21
7.959771
 31
0.2
  0
LINE
  8
PLAN_1
 62
7
 10
-39.656002
 20
7.959771
 30
0.2
 11
-41.383999
 21
7.959771
 31
0.2
  0
LINE
  8
PLAN_1
 62
7
 10
-41.383999
 20
7.959771
 30
0.2
 11
-41.383999
 21
7.90618
 31
0.2
  0
LINE
  8
PLAN_1
 62
7
 10
-41.383999
 20
7.90618
 30
0.2
 11
-39.656002
 21
7.90618
 31
0.2
  0
LINE
  8
PLAN_1
 62
7
 10
-39.656002
 20
7.90618
 30
0.2
 11
-39.656002
 21
7.85259
 31
0.2
  0
LINE
  8
PLAN_1
 62
7
 10
-39.656002
 20
7.85259
 30
0.2
 11
-41.383999
 21
7.85259
 31
0.2
  0
LINE
  8
PLAN_1
 62
7
 10
-41.383999
 20
7.85259
 30
0.2
 11
-41.383999
 21
7.798999
 31
0.2
  0
LINE
  8
PLAN_1
 62
7
 10
-41.383999
 20
7.798999
 30
0.2
 11
-39.656002
 21
7.798999
 31
0.2
  0
LINE
  8
PLAN_1
 62
7
 10
-39.656002
 20
7.798999
 30
0.2
 11
-39.656002
 21
7.745408
 31
0.2
  0
LINE
  8
PLAN_1
 62
7
 10
-39.656002
 20
7.745408
 30
0.2
 11
-41.383999
 21
7.745408
 31
0.2
  0
LINE
  8
PLAN_1
 62
7
 10
-41.383999
 20
7.745408
 30
0.2
 11
-41.383999
 21
7.691817
 31
0.2
  0
LINE
  8
PLAN_1
 62
7
 10
-41.383999
 20
7.691817
 30
0.2
 11
-39.656002
 21
7.691817
 31
0.2
  0
LINE
  8
PLAN_1
 62
7
 10
-39.656002
 20
7.691817
 30
0.2
 11
-39.656002
 21
7.638227
 31
0.2
  0
LINE
  8
PLAN_1
 62
7
 10
-39.656002
 20
7.638227
 30
0.2
 11
-41.383999
 21
7.638227
 31
0.2
  0
LINE
  8
PLAN_1
 62
7
 10
-41.383999
 20
7.638227
 30
0.2
 11
-41.383999
 21
7.584636
 31
0.2
  0
LINE
  8
PLAN_1
 62
7
 10
-41.383999
 20
7.584636
 30
0.2
 11
-39.656002
 21
7.584636
 31
0.2
  0
LINE
  8
PLAN_1
 62
7
 10
-39.656002
 20
7.584636
 30
0.2
 11
-39.656002
 21
7.531045
 31
0.2
  0
LINE
  8
PLAN_1
 62
7
 10
-39.656002
 20
7.531045
 30
0.2
 11
-41.383999
 21
7.531045
 31
0.2
  0
LINE
  8
PLAN_1
 62
7
 10
-41.383999
 20
7.531045
 30
0.2
 11
-41.383999
 21
7.477454
 31
0.2
  0
LINE
  8
PLAN_1
 62
7
 10
-41.383999
 20
7.477454
 30
0.2
 11
-39.656002
 21
7.477454
 31
0.2
  0
LINE
  8
PLAN_1
 62
7
 10
-39.656002
 20
7.477454
 30
0.2
 11
-39.656002
 21
7.423863
 31
0.2
  0
LINE
  8
PLAN_1
 62
7
 10
-39.656002
 20
7.423863
 30
0.2
 11
-41.383999
 21
7.423863
 31
0.2
  0
LINE
  8
PLAN_1
 62
7
 10
-41.383999
 20
7.423863
 30
0.2
 11
-41.383999
 21
7.370274
 31
0.2
  0
LINE
  8
PLAN_1
 62
7
 10
-41.383999
 20
7.370274
 30
0.2
 11
-39.656002
 21
7.370274
 31
0.2
  0
LINE
  8
PLAN_1
 62
7
 10
-39.656002
 20
7.370274
 30
0.2
 11
-39.656002
 21
7.316684
 31
0.2
  0
LINE
  8
PLAN_1
 62
7
 10
-39.656002
 20
7.316684
 30
0.2
 11
-41.383999
 21
7.316684
 31
0.2
  0
LINE
  8
PLAN_1
 62
7
 10
-41.383999
 20
7.316684
 30
0.2
 11
-41.383999
 21
7.263094
 31
0.2
  0
LINE
  8
PLAN_1
 62
7
 10
-41.383999
 20
7.263094
 30
0.2
 11
-39.656002
 21
7.263094
 31
0.2
  0
LINE
  8
PLAN_1
 62
7
 10
-39.656002
 20
7.263094
 30
0.2
 11
-39.656002
 21
7.209504
 31
0.2
  0
LINE
  8
PLAN_1
 62
7
 10
-39.656002
 20
7.209504
 30
0.2
 11
-41.383999
 21
7.209504
 31
0.2
  0
LINE
  8
PLAN_1
 62
7
 10
-41.383999
 20
7.209504
 30
0.2
 11
-41.383999
 21
7.155914
 31
0.2
  0
LINE
  8
PLAN_1
 62
7
 10
-41.383999
 20
7.155914
 30
0.2
 11
-39.656002
 21
7.155914
 31
0.2
  0
LINE
  8
PLAN_1
 62
7
 10
-39.656002
 20
7.155914
 30
0.2
 11
-39.656002
 21
7.102324
 31
0.2
  0
LINE
  8
PLAN_1
 62
7
 10
-39.656002
 20
7.102324
 30
0.2
 11
-41.383999
 21
7.102324
 31
0.2
  0
LINE
  8
PLAN_1
 62
7
 10
-41.383999
 20
7.102324
 30
0.2
 11
-41.383999
 21
7.048735
 31
0.2
  0
LINE
  8
PLAN_1
 62
7
 10
-41.383999
 20
7.048735
 30
0.2
 11
-39.656002
 21
7.048735
 31
0.2
  0
LINE
  8
PLAN_1
 62
7
 10
-39.656002
 20
7.048735
 30
0.2
 11
-39.656002
 21
6.995145
 31
0.2
  0
LINE
  8
PLAN_1
 62
7
 10
-39.656002
 20
6.995145
 30
0.2
 11
-41.383999
 21
6.995145
 31
0.2
  0
LINE
  8
PLAN_1
 62
7
 10
-41.383999
 20
6.995145
 30
0.2
 11
-41.383999
 21
6.941555
 31
0.2
  0
LINE
  8
PLAN_1
 62
7
 10
-41.383999
 20
6.941555
 30
0.2
 11
-39.656002
 21
6.941555
 31
0.2
  0
LINE
  8
PLAN_1
 62
7
 10
-39.656002
 20
6.941555
 30
0.2
 11
-39.656002
 21
6.887965
 31
0.2
  0
LINE
  8
PLAN_1
 62
7
 10
-39.656002
 20
6.887965
 30
0.2
 11
-41.383999
 21
6.887965
 31
0.2
  0
LINE
  8
PLAN_1
 62
7
 10
-41.383999
 20
6.887965
 30
0.2
 11
-41.383999
 21
6.834375
 31
0.2
  0
LINE
  8
PLAN_1
 62
7
 10
-41.383999
 20
6.834375
 30
0.2
 11
-39.656002
 21
6.834375
 31
0.2
  0
LINE
  8
PLAN_1
 62
7
 10
-39.656002
 20
6.834375
 30
0.2
 11
-39.656002
 21
6.780786
 31
0.2
  0
LINE
  8
PLAN_1
 62
7
 10
-39.656002
 20
6.780786
 30
0.2
 11
-41.383999
 21
6.780786
 31
0.2
  0
LINE
  8
PLAN_1
 62
7
 10
-41.383999
 20
6.780786
 30
0.2
 11
-41.383999
 21
6.727196
 31
0.2
  0
LINE
  8
PLAN_1
 62
7
 10
-41.383999
 20
6.727196
 30
0.2
 11
-39.656002
 21
6.727196
 31
0.2
  0
LINE
  8
PLAN_1
 62
7
 10
-39.656002
 20
6.727196
 30
0.2
 11
-39.656002
 21
6.673606
 31
0.2
  0
LINE
  8
PLAN_1
 62
7
 10
-39.656002
 20
6.673606
 30
0.2
 11
-41.383999
 21
6.673606
 31
0.2
  0
LINE
  8
PLAN_1
 62
7
 10
-41.383999
 20
6.673606
 30
0.2
 11
-41.383999
 21
6.620016
 31
0.2
  0
LINE
  8
PLAN_1
 62
7
 10
-41.383999
 20
6.620016
 30
0.2
 11
-39.656002
 21
6.620016
 31
0.2
  0
LINE
  8
PLAN_1
 62
7
 10
-39.656002
 20
6.620016
 30
0.2
 11
-39.656002
 21
6.566426
 31
0.2
  0
LINE
  8
PLAN_1
 62
7
 10
-39.656002
 20
6.566426
 30
0.2
 11
-41.383999
 21
6.566426
 31
0.2
  0
LINE
  8
PLAN_1
 62
7
 10
-41.383999
 20
6.566426
 30
0.2
 11
-41.383999
 21
6.512836
 31
0.2
  0
LINE
  8
PLAN_1
 62
7
 10
-41.383999
 20
6.512836
 30
0.2
 11
-39.656002
 21
6.512836
 31
0.2
  0
LINE
  8
PLAN_1
 62
7
 10
-39.656002
 20
6.512836
 30
0.2
 11
-39.656002
 21
6.459247
 31
0.2
  0
LINE
  8
PLAN_1
 62
7
 10
-39.656002
 20
6.459247
 30
0.2
 11
-41.383999
 21
6.459247
 31
0.2
  0
LINE
  8
PLAN_1
 62
7
 10
-41.383999
 20
6.459247
 30
0.2
 11
-41.383999
 21
6.405657
 31
0.2
  0
LINE
  8
PLAN_1
 62
7
 10
-41.383999
 20
6.405657
 30
0.2
 11
-39.656002
 21
6.405657
 31
0.2
  0
LINE
  8
PLAN_1
 62
7
 10
-39.656002
 20
6.405657
 30
0.2
 11
-39.656002
 21
6.352067
 31
0.2
  0
LINE
  8
PLAN_1
 62
7
 10
-39.656002
 20
6.352067
 30
0.2
 11
-41.383999
 21
6.352067
 31
0.2
  0
LINE
  8
PLAN_1
 62
7
 10
-41.383999
 20
6.352067
 30
0.2
 11
-41.383999
 21
6.298477
 31
0.2
  0
LINE
  8
PLAN_1
 62
7
 10
-41.383999
 20
6.298477
 30
0.2
 11
-39.656002
 21
6.298477
 31
0.2
  0
LINE
  8
PLAN_1
 62
7
 10
-39.656002
 20
6.298477
 30
0.2
 11
-39.656002
 21
6.244887
 31
0.2
  0
LINE
  8
PLAN_1
 62
7
 10
-39.656002
 20
6.244887
 30
0.2
 11
-41.383999
 21
6.244887
 31
0.2
  0
LINE
  8
PLAN_1
 62
7
 10
-41.383999
 20
6.244887
 30
0.2
 11
-41.383999
 21
6.191298
 31
0.2
  0
LINE
  8
PLAN_1
 62
7
 10
-41.383999
 20
6.191298
 30
0.2
 11
-39.656002
 21
6.191298
 31
0.2
  0
LINE
  8
PLAN_1
 62
7
 10
-39.656002
 20
6.191298
 30
0.2
 11
-39.656002
 21
6.137708
 31
0.2
  0
LINE
  8
PLAN_1
 62
7
 10
-39.656002
 20
6.137708
 30
0.2
 11
-41.383999
 21
6.137708
 31
0.2
  0
LINE
  8
PLAN_1
 62
7
 10
-41.383999
 20
6.137708
 30
0.2
 11
-41.383999
 21
6.084118
 31
0.2
  0
LINE
  8
PLAN_1
 62
7
 10
-41.383999
 20
6.084118
 30
0.2
 11
-39.656002
 21
6.084118
 31
0.2
  0
LINE
  8
PLAN_1
 62
7
 10
-39.656002
 20
6.084118
 30
0.2
 11
-39.656002
 21
6.030528
 31
0.2
  0
LINE
  8
PLAN_1
 62
7
 10
-39.656002
 20
6.030528
 30
0.2
 11
-41.383999
 21
6.030528
 31
0.2
  0
LINE
  8
PLAN_1
 62
7
 10
-41.383999
 20
6.030528
 30
0.2
 11
-41.383999
 21
5.976938
 31
0.2
  0
LINE
  8
PLAN_1
 62
7
 10
-41.383999
 20
5.976938
 30
0.2
 11
-39.656002
 21
5.976938
 31
0.2
  0
LINE
  8
PLAN_1
 62
7
 10
-39.656002
 20
5.976938
 30
0.2
 11
-39.656002
 21
5.923348
 31
0.2
  0
LINE
  8
PLAN_1
 62
7
 10
-39.656002
 20
5.923348
 30
0.2
 11
-41.383999
 21
5.923348
 31
0.2
  0
ENDSEC
  0
EOF

