  0
SECTION
  2
HEADER
  9
$ACADVER
  1
AC1006
  9
$EXTMIN
 10
0.0
 20
0.0
  9
$EXTMAX
 10
70.079987
 20
60.57999
  9
$LTSCALE
 40
0.000394
  9
$PDMODE
 70
35
  9
$PDSIZE
 40
0.000315
  0
ENDSEC
  0
SECTION
  2
TABLES
  0
TABLE
  2
LTYPE
 70
  9
  0
LTYPE
  2
CONTINUOUS
 70
 64
  3
Solid line
 72
 65
 73
  0
 40
0.000000
  0
LTYPE
  2
DASHED
 70
 64
  3
__ __ __ __ __ __ __ __ __ __ __ __ __ __ __
 72
 65
 73
  2
 40
0.000003
 49
0.000002
 49
-0.000001
  0
LTYPE
  2
HIDDEN
 70
 64
  3
 _ _ _ _ _ _ _ _ _ _ _ _ _ _ _ _ _ _ _ _ _ _
 72
 65
 73
  2
 40
0.000001
 49
0.000001
 49
-0.000000
  0
LTYPE
  2
CENTER
 70
 64
  3
____ _ ____ _ ____ _ ____ _ ____ _ ____ _ ____
 72
 65
 73
  4
 40
0.000008
 49
0.000005
 49
-0.000001
 49
0.000001
 49
-0.000001
  0
LTYPE
  2
PHANTOM
 70
 64
  3
_____ _ _ _____ _ _ _____ _ _ _____ _ _ ____
 72
 65
 73
  6
 40
0.000010
 49
0.000005
 49
-0.000001
 49
0.000001
 49
-0.000001
 49
0.000001
 49
-0.000001
  0
LTYPE
  2
DOT
 70
 64
  3
...............................................
 72
 65
 73
  2
 40
0.000001
 49
0.000000
 49
-0.000001
  0
LTYPE
  2
DASHDOT
 70
 64
  3
__ . __ . __ . __ . __ . __ . __ . __ . __ . __
 72
 65
 73
  4
 40
0.000004
 49
0.000002
 49
-0.000001
 49
0.000000
 49
-0.000001
  0
LTYPE
  2
BORDER
 70
 64
  3
__ __ . __ __ . __ __ . __ __ . __ __ . __ __
 72
 65
 73
  6
 40
0.000007
 49
0.000002
 49
-0.000001
 49
0.000002
 49
-0.000001
 49
0.000000
 49
-0.000001
  0
LTYPE
  2
DIVIDE
 70
 64
  3
__ . . __ . . __ . . __ . . __ . . __ . . __
 72
 65
 73
  6
 40
0.000005
 49
0.000002
 49
-0.000001
 49
0.000000
 49
-0.000001
 49
0.000000
 49
-0.000001
  0
LTYPE
  2
DOTDOT
 70
 64
  3
 . .  . .  . .  . .  . .  . .
 72
 65
 73
  5
 40
0.000002
 49
-0.000001
 49
0.000000
 49
-0.000001
 49
0.000000
 49
-0.000001
  0
ENDTAB
  0
TABLE
  2
STYLE
 70
  0
  0
ENDTAB
  0
TABLE
  2
LAYER
 70
  4
  0
LAYER
  2
FOREGROUND
 70
 64
 62
  7
  6
CONTINUOUS
  0
LAYER
  2
BACKGROUND
 70
 65
 62
 -7
  6
CONTINUOUS
  0
LAYER
  2
PLAN_1
 70
 64
 62
  7
  6
CONTINUOUS
  0
ENDTAB
  0
ENDSEC
  0
SECTION
  2
ENTITIES
  0
LINE
  8
PLAN_1
 62
7
 10
22.309921
 20
26.078028
 30
0.25
 11
22.309921
 21
26.763823
 31
0.25
  0
LINE
  8
PLAN_1
 62
7
 10
22.309921
 20
26.763823
 30
0.25
 11
21.078028
 21
26.763823
 31
0.25
  0
LINE
  8
PLAN_1
 62
7
 10
21.078028
 20
26.763823
 30
0.25
 11
21.078028
 21
30.116158
 31
0.25
  0
LINE
  8
PLAN_1
 62
7
 10
21.078028
 20
30.116158
 30
0.25
 11
21.154226
 21
30.116158
 31
0.25
  0
LINE
  8
PLAN_1
 62
7
 10
21.154226
 20
30.116158
 30
0.25
 11
21.154226
 21
32.563824
 31
0.25
  0
LINE
  8
PLAN_1
 62
7
 10
21.154226
 20
32.563824
 30
0.25
 11
21.078028
 21
32.563824
 31
0.25
  0
LINE
  8
PLAN_1
 62
7
 10
21.078028
 20
32.563824
 30
0.25
 11
21.078028
 21
34.202129
 31
0.25
  0
LINE
  8
PLAN_1
 62
7
 10
21.078028
 20
34.202129
 30
0.25
 11
21.420439
 21
34.54454
 31
0.25
  0
LINE
  8
PLAN_1
 62
7
 10
21.420439
 20
34.54454
 30
0.25
 11
21.537071
 21
34.719093
 31
0.25
  0
LINE
  8
PLAN_1
 62
7
 10
21.537071
 20
34.719093
 30
0.25
 11
21.578028
 21
34.924992
 31
0.25
  0
LINE
  8
PLAN_1
 62
7
 10
21.578028
 20
34.924992
 30
0.25
 11
21.578028
 21
37.018219
 31
0.25
  0
LINE
  8
PLAN_1
 62
7
 10
21.578028
 20
37.018219
 30
0.25
 11
21.684639
 21
37.075203
 31
0.25
  0
LINE
  8
PLAN_1
 62
7
 10
21.684639
 20
37.075203
 30
0.25
 11
21.860472
 21
37.219505
 31
0.25
  0
LINE
  8
PLAN_1
 62
7
 10
21.860472
 20
37.219505
 30
0.25
 11
22.004774
 21
37.39534
 31
0.25
  0
LINE
  8
PLAN_1
 62
7
 10
22.004774
 20
37.39534
 30
0.25
 11
22.112001
 21
37.595947
 31
0.25
  0
LINE
  8
PLAN_1
 62
7
 10
22.112001
 20
37.595947
 30
0.25
 11
22.178032
 21
37.813618
 31
0.25
  0
LINE
  8
PLAN_1
 62
7
 10
22.178032
 20
37.813618
 30
0.25
 11
22.200327
 21
38.039989
 31
0.25
  0
LINE
  8
PLAN_1
 62
7
 10
22.200327
 20
38.039989
 30
0.25
 11
22.178032
 21
38.266361
 31
0.25
  0
LINE
  8
PLAN_1
 62
7
 10
22.178032
 20
38.266361
 30
0.25
 11
22.112001
 21
38.484032
 31
0.25
  0
LINE
  8
PLAN_1
 62
7
 10
22.112001
 20
38.484032
 30
0.25
 11
22.004774
 21
38.684639
 31
0.25
  0
LINE
  8
PLAN_1
 62
7
 10
22.004774
 20
38.684639
 30
0.25
 11
21.860472
 21
38.860474
 31
0.25
  0
LINE
  8
PLAN_1
 62
7
 10
21.860472
 20
38.860474
 30
0.25
 11
21.684639
 21
39.004776
 31
0.25
  0
LINE
  8
PLAN_1
 62
7
 10
21.684639
 20
39.004776
 30
0.25
 11
21.484032
 21
39.112003
 31
0.25
  0
LINE
  8
PLAN_1
 62
7
 10
21.484032
 20
39.112003
 30
0.25
 11
21.266359
 21
39.178032
 31
0.25
  0
LINE
  8
PLAN_1
 62
7
 10
21.266359
 20
39.178032
 30
0.25
 11
21.039989
 21
39.200329
 31
0.25
  0
LINE
  8
PLAN_1
 62
7
 10
21.039989
 20
39.200329
 30
0.25
 11
20.81362
 21
39.178032
 31
0.25
  0
LINE
  8
PLAN_1
 62
7
 10
20.81362
 20
39.178032
 30
0.25
 11
20.595947
 21
39.112003
 31
0.25
  0
LINE
  8
PLAN_1
 62
7
 10
20.595947
 20
39.112003
 30
0.25
 11
20.39534
 21
39.004776
 31
0.25
  0
LINE
  8
PLAN_1
 62
7
 10
20.39534
 20
39.004776
 30
0.25
 11
20.219507
 21
38.860474
 31
0.25
  0
LINE
  8
PLAN_1
 62
7
 10
20.219507
 20
38.860474
 30
0.25
 11
20.075205
 21
38.684639
 31
0.25
  0
LINE
  8
PLAN_1
 62
7
 10
20.075205
 20
38.684639
 30
0.25
 11
19.967978
 21
38.484032
 31
0.25
  0
LINE
  8
PLAN_1
 62
7
 10
19.967978
 20
38.484032
 30
0.25
 11
19.901947
 21
38.266361
 31
0.25
  0
LINE
  8
PLAN_1
 62
7
 10
19.901947
 20
38.266361
 30
0.25
 11
19.879652
 21
38.039989
 31
0.25
  0
LINE
  8
PLAN_1
 62
7
 10
19.879652
 20
38.039989
 30
0.25
 11
19.901947
 21
37.813618
 31
0.25
  0
LINE
  8
PLAN_1
 62
7
 10
19.901947
 20
37.813618
 30
0.25
 11
19.967978
 21
37.595947
 31
0.25
  0
LINE
  8
PLAN_1
 62
7
 10
19.967978
 20
37.595947
 30
0.25
 11
20.075205
 21
37.39534
 31
0.25
  0
LINE
  8
PLAN_1
 62
7
 10
20.075205
 20
37.39534
 30
0.25
 11
20.219507
 21
37.219505
 31
0.25
  0
LINE
  8
PLAN_1
 62
7
 10
20.219507
 20
37.219505
 30
0.25
 11
20.39534
 21
37.075203
 31
0.25
  0
LINE
  8
PLAN_1
 62
7
 10
20.39534
 20
37.075203
 30
0.25
 11
20.501951
 21
37.018219
 31
0.25
  0
LINE
  8
PLAN_1
 62
7
 10
20.501951
 20
37.018219
 30
0.25
 11
20.501951
 21
35.147854
 31
0.25
  0
LINE
  8
PLAN_1
 62
7
 10
20.501951
 20
35.147854
 30
0.25
 11
20.15954
 21
34.805443
 31
0.25
  0
LINE
  8
PLAN_1
 62
7
 10
20.15954
 20
34.805443
 30
0.25
 11
20.042908
 21
34.63089
 31
0.25
  0
LINE
  8
PLAN_1
 62
7
 10
20.042908
 20
34.63089
 30
0.25
 11
20.001951
 21
34.424992
 31
0.25
  0
LINE
  8
PLAN_1
 62
7
 10
20.001951
 20
34.424992
 30
0.25
 11
20.001951
 21
32.563824
 31
0.25
  0
LINE
  8
PLAN_1
 62
7
 10
20.001951
 20
32.563824
 30
0.25
 11
19.925753
 21
32.563824
 31
0.25
  0
LINE
  8
PLAN_1
 62
7
 10
19.925753
 20
32.563824
 30
0.25
 11
19.925753
 21
30.116158
 31
0.25
  0
LINE
  8
PLAN_1
 62
7
 10
19.925753
 20
30.116158
 30
0.25
 11
20.001951
 21
30.116158
 31
0.25
  0
LINE
  8
PLAN_1
 62
7
 10
20.001951
 20
30.116158
 30
0.25
 11
20.001951
 21
26.763823
 31
0.25
  0
LINE
  8
PLAN_1
 62
7
 10
20.001951
 20
26.763823
 30
0.25
 11
18.770058
 21
26.763823
 31
0.25
  0
LINE
  8
PLAN_1
 62
7
 10
18.770058
 20
26.763823
 30
0.25
 11
18.770058
 21
24.316156
 31
0.25
  0
LINE
  8
PLAN_1
 62
7
 10
18.770058
 20
24.316156
 30
0.25
 11
22.309921
 21
24.316156
 31
0.25
  0
LINE
  8
PLAN_1
 62
7
 10
22.309921
 20
24.316156
 30
0.25
 11
22.309921
 21
25.001951
 31
0.25
  0
LINE
  8
PLAN_1
 62
7
 10
22.309921
 20
25.001951
 30
0.25
 11
23.766661
 21
25.001951
 31
0.25
  0
LINE
  8
PLAN_1
 62
7
 10
23.766661
 20
25.001951
 30
0.25
 11
23.972559
 21
25.042908
 31
0.25
  0
LINE
  8
PLAN_1
 62
7
 10
23.972559
 20
25.042908
 30
0.25
 11
24.14711
 21
25.15954
 31
0.25
  0
LINE
  8
PLAN_1
 62
7
 10
24.14711
 20
25.15954
 30
0.25
 11
25.65378
 21
26.66621
 31
0.25
  0
LINE
  8
PLAN_1
 62
7
 10
25.65378
 20
26.66621
 30
0.25
 11
25.770412
 21
26.840761
 31
0.25
  0
LINE
  8
PLAN_1
 62
7
 10
25.770412
 20
26.840761
 30
0.25
 11
25.811369
 21
27.046659
 31
0.25
  0
LINE
  8
PLAN_1
 62
7
 10
25.811369
 20
27.046659
 30
0.25
 11
25.811369
 21
33.190456
 31
0.25
  0
LINE
  8
PLAN_1
 62
7
 10
25.811369
 20
33.190456
 30
0.25
 11
27.55378
 21
34.932869
 31
0.25
  0
LINE
  8
PLAN_1
 62
7
 10
27.55378
 20
34.932869
 30
0.25
 11
27.670412
 21
35.107422
 31
0.25
  0
LINE
  8
PLAN_1
 62
7
 10
27.670412
 20
35.107422
 30
0.25
 11
27.711369
 21
35.31332
 31
0.25
  0
LINE
  8
PLAN_1
 62
7
 10
27.711369
 20
35.31332
 30
0.25
 11
27.711369
 21
37.923798
 31
0.25
  0
LINE
  8
PLAN_1
 62
7
 10
27.711369
 20
37.923798
 30
0.25
 11
28.787109
 21
38.999538
 31
0.25
  0
LINE
  8
PLAN_1
 62
7
 10
28.787109
 20
38.999538
 30
0.25
 11
29.329525
 21
39.541954
 31
0.25
  0
LINE
  8
PLAN_1
 62
7
 10
29.329525
 20
39.541954
 30
0.25
 11
30.339653
 21
39.541954
 31
0.25
  0
LINE
  8
PLAN_1
 62
7
 10
30.339653
 20
39.541954
 30
0.25
 11
30.339653
 21
38.919651
 31
0.25
  0
LINE
  8
PLAN_1
 62
7
 10
30.339653
 20
38.919651
 30
0.25
 11
32.660328
 21
38.919651
 31
0.25
  0
LINE
  8
PLAN_1
 62
7
 10
32.660328
 20
38.919651
 30
0.25
 11
32.660328
 21
41.24033
 31
0.25
  0
LINE
  8
PLAN_1
 62
7
 10
32.660328
 20
41.24033
 30
0.25
 11
32.038029
 21
41.24033
 31
0.25
  0
LINE
  8
PLAN_1
 62
7
 10
32.038029
 20
41.24033
 30
0.25
 11
32.038029
 21
41.616955
 31
0.25
  0
LINE
  8
PLAN_1
 62
7
 10
32.038029
 20
41.616955
 30
0.25
 11
43.012123
 21
41.616955
 31
0.25
  0
LINE
  8
PLAN_1
 62
7
 10
43.012123
 20
41.616955
 30
0.25
 11
44.541954
 21
40.087124
 31
0.25
  0
LINE
  8
PLAN_1
 62
7
 10
44.541954
 20
40.087124
 30
0.25
 11
44.541954
 21
19.200327
 31
0.25
  0
LINE
  8
PLAN_1
 62
7
 10
44.541954
 20
19.200327
 30
0.25
 11
43.919651
 21
19.200327
 31
0.25
  0
LINE
  8
PLAN_1
 62
7
 10
43.919651
 20
19.200327
 30
0.25
 11
43.919651
 21
16.879652
 31
0.25
  0
LINE
  8
PLAN_1
 62
7
 10
43.919651
 20
16.879652
 30
0.25
 11
46.24033
 21
16.879652
 31
0.25
  0
LINE
  8
PLAN_1
 62
7
 10
46.24033
 20
16.879652
 30
0.25
 11
46.24033
 21
19.200327
 31
0.25
  0
LINE
  8
PLAN_1
 62
7
 10
46.24033
 20
19.200327
 30
0.25
 11
45.618027
 21
19.200327
 31
0.25
  0
LINE
  8
PLAN_1
 62
7
 10
45.618027
 20
19.200327
 30
0.25
 11
45.618027
 21
40.30999
 31
0.25
  0
LINE
  8
PLAN_1
 62
7
 10
45.618027
 20
40.30999
 30
0.25
 11
45.577072
 21
40.515888
 31
0.25
  0
LINE
  8
PLAN_1
 62
7
 10
45.577072
 20
40.515888
 30
0.25
 11
45.460442
 21
40.690441
 31
0.25
  0
LINE
  8
PLAN_1
 62
7
 10
45.460442
 20
40.690441
 30
0.25
 11
43.61544
 21
42.535442
 31
0.25
  0
LINE
  8
PLAN_1
 62
7
 10
43.61544
 20
42.535442
 30
0.25
 11
43.440887
 21
42.652073
 31
0.25
  0
LINE
  8
PLAN_1
 62
7
 10
43.440887
 20
42.652073
 30
0.25
 11
43.234989
 21
42.693027
 31
0.25
  0
LINE
  8
PLAN_1
 62
7
 10
43.234989
 20
42.693027
 30
0.25
 11
31.919991
 21
42.693027
 31
0.25
  0
LINE
  8
PLAN_1
 62
7
 10
31.919991
 20
42.693027
 30
0.25
 11
31.49999
 21
42.693027
 31
0.25
  0
LINE
  8
PLAN_1
 62
7
 10
31.49999
 20
42.693027
 30
0.25
 11
31.294092
 21
42.652073
 31
0.25
  0
LINE
  8
PLAN_1
 62
7
 10
31.294092
 20
42.652073
 30
0.25
 11
31.119541
 21
42.535442
 31
0.25
  0
LINE
  8
PLAN_1
 62
7
 10
31.119541
 20
42.535442
 30
0.25
 11
31.002909
 21
42.360889
 31
0.25
  0
LINE
  8
PLAN_1
 62
7
 10
31.002909
 20
42.360889
 30
0.25
 11
30.961952
 21
42.154991
 31
0.25
  0
LINE
  8
PLAN_1
 62
7
 10
30.961952
 20
42.154991
 30
0.25
 11
30.961952
 21
41.24033
 31
0.25
  0
LINE
  8
PLAN_1
 62
7
 10
30.961952
 20
41.24033
 30
0.25
 11
30.339653
 21
41.24033
 31
0.25
  0
LINE
  8
PLAN_1
 62
7
 10
30.339653
 20
41.24033
 30
0.25
 11
30.339653
 21
40.618027
 31
0.25
  0
LINE
  8
PLAN_1
 62
7
 10
30.339653
 20
40.618027
 30
0.25
 11
29.106661
 21
40.618027
 31
0.25
  0
LINE
  8
PLAN_1
 62
7
 10
29.106661
 20
40.618027
 30
0.25
 11
28.900763
 21
40.577072
 31
0.25
  0
LINE
  8
PLAN_1
 62
7
 10
28.900763
 20
40.577072
 30
0.25
 11
28.726212
 21
40.460442
 31
0.25
  0
LINE
  8
PLAN_1
 62
7
 10
28.726212
 20
40.460442
 30
0.25
 11
28.026211
 21
39.760441
 31
0.25
  0
LINE
  8
PLAN_1
 62
7
 10
28.026211
 20
39.760441
 30
0.25
 11
26.792881
 21
38.527111
 31
0.25
  0
LINE
  8
PLAN_1
 62
7
 10
26.792881
 20
38.527111
 30
0.25
 11
26.676249
 21
38.352558
 31
0.25
  0
LINE
  8
PLAN_1
 62
7
 10
26.676249
 20
38.352558
 30
0.25
 11
26.635292
 21
38.14666
 31
0.25
  0
LINE
  8
PLAN_1
 62
7
 10
26.635292
 20
38.14666
 30
0.25
 11
26.635292
 21
35.536182
 31
0.25
  0
LINE
  8
PLAN_1
 62
7
 10
26.635292
 20
35.536182
 30
0.25
 11
24.892881
 21
33.79377
 31
0.25
  0
LINE
  8
PLAN_1
 62
7
 10
24.892881
 20
33.79377
 30
0.25
 11
24.776249
 21
33.619217
 31
0.25
  0
LINE
  8
PLAN_1
 62
7
 10
24.776249
 20
33.619217
 30
0.25
 11
24.735292
 21
33.413319
 31
0.25
  0
LINE
  8
PLAN_1
 62
7
 10
24.735292
 20
33.413319
 30
0.25
 11
24.735292
 21
27.26952
 31
0.25
  0
LINE
  8
PLAN_1
 62
7
 10
24.735292
 20
27.26952
 30
0.25
 11
23.5438
 21
26.078028
 31
0.25
  0
LINE
  8
PLAN_1
 62
7
 10
23.5438
 20
26.078028
 30
0.25
 11
22.309921
 21
26.078028
 31
0.25
  0
LINE
  8
PLAN_1
 62
7
 10
22.225754
 20
30.116158
 30
0.25
 11
23.454227
 21
30.116158
 31
0.25
  0
LINE
  8
PLAN_1
 62
7
 10
23.454227
 20
30.116158
 30
0.25
 11
23.454227
 21
32.563824
 31
0.25
  0
LINE
  8
PLAN_1
 62
7
 10
23.454227
 20
32.563824
 30
0.25
 11
23.378029
 21
32.563824
 31
0.25
  0
LINE
  8
PLAN_1
 62
7
 10
23.378029
 20
32.563824
 30
0.25
 11
23.378029
 21
33.77916
 31
0.25
  0
LINE
  8
PLAN_1
 62
7
 10
23.378029
 20
33.77916
 30
0.25
 11
24.610329
 21
35.011459
 31
0.25
  0
LINE
  8
PLAN_1
 62
7
 10
24.610329
 20
35.011459
 30
0.25
 11
24.726961
 21
35.186012
 31
0.25
  0
LINE
  8
PLAN_1
 62
7
 10
24.726961
 20
35.186012
 30
0.25
 11
24.767918
 21
35.391911
 31
0.25
  0
LINE
  8
PLAN_1
 62
7
 10
24.767918
 20
35.391911
 30
0.25
 11
24.767918
 21
40.507019
 31
0.25
  0
LINE
  8
PLAN_1
 62
7
 10
24.767918
 20
40.507019
 30
0.25
 11
24.920439
 21
40.659538
 31
0.25
  0
LINE
  8
PLAN_1
 62
7
 10
24.920439
 20
40.659538
 30
0.25
 11
27.762854
 21
43.501953
 31
0.25
  0
LINE
  8
PLAN_1
 62
7
 10
27.762854
 20
43.501953
 30
0.25
 11
43.539989
 21
43.501953
 31
0.25
  0
LINE
  8
PLAN_1
 62
7
 10
43.539989
 20
43.501953
 30
0.25
 11
44.317123
 21
43.501953
 31
0.25
  0
LINE
  8
PLAN_1
 62
7
 10
44.317123
 20
43.501953
 30
0.25
 11
48.001953
 21
39.817123
 31
0.25
  0
LINE
  8
PLAN_1
 62
7
 10
48.001953
 20
39.817123
 30
0.25
 11
48.001953
 21
19.200327
 31
0.25
  0
LINE
  8
PLAN_1
 62
7
 10
48.001953
 20
19.200327
 30
0.25
 11
47.87965
 21
19.200327
 31
0.25
  0
LINE
  8
PLAN_1
 62
7
 10
47.87965
 20
19.200327
 30
0.25
 11
47.87965
 21
16.879652
 31
0.25
  0
LINE
  8
PLAN_1
 62
7
 10
47.87965
 20
16.879652
 30
0.25
 11
50.200329
 21
16.879652
 31
0.25
  0
LINE
  8
PLAN_1
 62
7
 10
50.200329
 20
16.879652
 30
0.25
 11
50.200329
 21
19.200327
 31
0.25
  0
LINE
  8
PLAN_1
 62
7
 10
50.200329
 20
19.200327
 30
0.25
 11
49.078026
 21
19.200327
 31
0.25
  0
LINE
  8
PLAN_1
 62
7
 10
49.078026
 20
19.200327
 30
0.25
 11
49.078026
 21
40.039989
 31
0.25
  0
LINE
  8
PLAN_1
 62
7
 10
49.078026
 20
40.039989
 30
0.25
 11
49.037071
 21
40.245888
 31
0.25
  0
LINE
  8
PLAN_1
 62
7
 10
49.037071
 20
40.245888
 30
0.25
 11
48.920441
 21
40.420441
 31
0.25
  0
LINE
  8
PLAN_1
 62
7
 10
48.920441
 20
40.420441
 30
0.25
 11
44.920441
 21
44.420441
 31
0.25
  0
LINE
  8
PLAN_1
 62
7
 10
44.920441
 20
44.420441
 30
0.25
 11
44.745888
 21
44.537071
 31
0.25
  0
LINE
  8
PLAN_1
 62
7
 10
44.745888
 20
44.537071
 30
0.25
 11
44.539989
 21
44.578026
 31
0.25
  0
LINE
  8
PLAN_1
 62
7
 10
44.539989
 20
44.578026
 30
0.25
 11
43.539989
 21
44.578026
 31
0.25
  0
LINE
  8
PLAN_1
 62
7
 10
43.539989
 20
44.578026
 30
0.25
 11
27.539989
 21
44.578026
 31
0.25
  0
LINE
  8
PLAN_1
 62
7
 10
27.539989
 20
44.578026
 30
0.25
 11
27.334091
 21
44.537071
 31
0.25
  0
LINE
  8
PLAN_1
 62
7
 10
27.334091
 20
44.537071
 30
0.25
 11
27.15954
 21
44.420441
 31
0.25
  0
LINE
  8
PLAN_1
 62
7
 10
27.15954
 20
44.420441
 30
0.25
 11
24.229879
 21
41.49078
 31
0.25
  0
LINE
  8
PLAN_1
 62
7
 10
24.229879
 20
41.49078
 30
0.25
 11
23.107899
 21
42.612762
 31
0.25
  0
LINE
  8
PLAN_1
 62
7
 10
23.107899
 20
42.612762
 30
0.25
 11
22.933348
 21
42.729393
 31
0.25
  0
LINE
  8
PLAN_1
 62
7
 10
22.933348
 20
42.729393
 30
0.25
 11
22.727449
 21
42.770348
 31
0.25
  0
LINE
  8
PLAN_1
 62
7
 10
22.727449
 20
42.770348
 30
0.25
 11
17.791861
 21
42.770348
 31
0.25
  0
LINE
  8
PLAN_1
 62
7
 10
17.791861
 20
42.770348
 30
0.25
 11
17.585962
 21
42.729393
 31
0.25
  0
LINE
  8
PLAN_1
 62
7
 10
17.585962
 20
42.729393
 30
0.25
 11
17.411411
 21
42.612762
 31
0.25
  0
LINE
  8
PLAN_1
 62
7
 10
17.411411
 20
42.612762
 30
0.25
 11
14.69537
 21
39.896721
 31
0.25
  0
LINE
  8
PLAN_1
 62
7
 10
14.69537
 20
39.896721
 30
0.25
 11
14.578738
 21
39.722168
 31
0.25
  0
LINE
  8
PLAN_1
 62
7
 10
14.578738
 20
39.722168
 30
0.25
 11
14.537783
 21
39.51627
 31
0.25
  0
LINE
  8
PLAN_1
 62
7
 10
14.537783
 20
39.51627
 30
0.25
 11
14.537783
 21
34.385971
 31
0.25
  0
LINE
  8
PLAN_1
 62
7
 10
14.537783
 20
34.385971
 30
0.25
 11
14.537783
 21
21.50416
 31
0.25
  0
LINE
  8
PLAN_1
 62
7
 10
14.537783
 20
21.50416
 30
0.25
 11
14.578738
 21
21.298262
 31
0.25
  0
LINE
  8
PLAN_1
 62
7
 10
14.578738
 20
21.298262
 30
0.25
 11
14.69537
 21
21.123711
 31
0.25
  0
LINE
  8
PLAN_1
 62
7
 10
14.69537
 20
21.123711
 30
0.25
 11
17.15954
 21
18.65954
 31
0.25
  0
LINE
  8
PLAN_1
 62
7
 10
17.15954
 20
18.65954
 30
0.25
 11
17.334091
 21
18.542908
 31
0.25
  0
LINE
  8
PLAN_1
 62
7
 10
17.334091
 20
18.542908
 30
0.25
 11
17.539989
 21
18.501951
 31
0.25
  0
LINE
  8
PLAN_1
 62
7
 10
17.539989
 20
18.501951
 30
0.25
 11
17.97822
 21
18.501951
 31
0.25
  0
LINE
  8
PLAN_1
 62
7
 10
17.97822
 20
18.501951
 30
0.25
 11
18.035206
 21
18.39534
 31
0.25
  0
LINE
  8
PLAN_1
 62
7
 10
18.035206
 20
18.39534
 30
0.25
 11
18.179508
 21
18.219507
 31
0.25
  0
LINE
  8
PLAN_1
 62
7
 10
18.179508
 20
18.219507
 30
0.25
 11
18.355341
 21
18.075205
 31
0.25
  0
LINE
  8
PLAN_1
 62
7
 10
18.355341
 20
18.075205
 30
0.25
 11
18.555948
 21
17.967978
 31
0.25
  0
LINE
  8
PLAN_1
 62
7
 10
18.555948
 20
17.967978
 30
0.25
 11
18.773621
 21
17.901947
 31
0.25
  0
LINE
  8
PLAN_1
 62
7
 10
18.773621
 20
17.901947
 30
0.25
 11
18.99999
 21
17.879652
 31
0.25
  0
LINE
  8
PLAN_1
 62
7
 10
18.99999
 20
17.879652
 30
0.25
 11
19.22636
 21
17.901947
 31
0.25
  0
LINE
  8
PLAN_1
 62
7
 10
19.22636
 20
17.901947
 30
0.25
 11
19.444033
 21
17.967978
 31
0.25
  0
LINE
  8
PLAN_1
 62
7
 10
19.444033
 20
17.967978
 30
0.25
 11
19.64464
 21
18.075205
 31
0.25
  0
LINE
  8
PLAN_1
 62
7
 10
19.64464
 20
18.075205
 30
0.25
 11
19.820473
 21
18.219507
 31
0.25
  0
LINE
  8
PLAN_1
 62
7
 10
19.820473
 20
18.219507
 30
0.25
 11
19.964775
 21
18.39534
 31
0.25
  0
LINE
  8
PLAN_1
 62
7
 10
19.964775
 20
18.39534
 30
0.25
 11
20.072002
 21
18.595947
 31
0.25
  0
LINE
  8
PLAN_1
 62
7
 10
20.072002
 20
18.595947
 30
0.25
 11
20.138033
 21
18.81362
 31
0.25
  0
LINE
  8
PLAN_1
 62
7
 10
20.138033
 20
18.81362
 30
0.25
 11
20.160328
 21
19.039989
 31
0.25
  0
LINE
  8
PLAN_1
 62
7
 10
20.160328
 20
19.039989
 30
0.25
 11
20.138033
 21
19.266359
 31
0.25
  0
LINE
  8
PLAN_1
 62
7
 10
20.138033
 20
19.266359
 30
0.25
 11
20.072002
 21
19.484032
 31
0.25
  0
LINE
  8
PLAN_1
 62
7
 10
20.072002
 20
19.484032
 30
0.25
 11
19.964775
 21
19.684639
 31
0.25
  0
LINE
  8
PLAN_1
 62
7
 10
19.964775
 20
19.684639
 30
0.25
 11
19.820473
 21
19.860472
 31
0.25
  0
LINE
  8
PLAN_1
 62
7
 10
19.820473
 20
19.860472
 30
0.25
 11
19.64464
 21
20.004774
 31
0.25
  0
LINE
  8
PLAN_1
 62
7
 10
19.64464
 20
20.004774
 30
0.25
 11
19.444033
 21
20.112001
 31
0.25
  0
LINE
  8
PLAN_1
 62
7
 10
19.444033
 20
20.112001
 30
0.25
 11
19.22636
 21
20.178032
 31
0.25
  0
LINE
  8
PLAN_1
 62
7
 10
19.22636
 20
20.178032
 30
0.25
 11
18.99999
 21
20.200327
 31
0.25
  0
LINE
  8
PLAN_1
 62
7
 10
18.99999
 20
20.200327
 30
0.25
 11
18.773621
 21
20.178032
 31
0.25
  0
LINE
  8
PLAN_1
 62
7
 10
18.773621
 20
20.178032
 30
0.25
 11
18.555948
 21
20.112001
 31
0.25
  0
LINE
  8
PLAN_1
 62
7
 10
18.555948
 20
20.112001
 30
0.25
 11
18.355341
 21
20.004774
 31
0.25
  0
LINE
  8
PLAN_1
 62
7
 10
18.355341
 20
20.004774
 30
0.25
 11
18.179508
 21
19.860472
 31
0.25
  0
LINE
  8
PLAN_1
 62
7
 10
18.179508
 20
19.860472
 30
0.25
 11
18.035206
 21
19.684639
 31
0.25
  0
LINE
  8
PLAN_1
 62
7
 10
18.035206
 20
19.684639
 30
0.25
 11
17.97822
 21
19.578028
 31
0.25
  0
LINE
  8
PLAN_1
 62
7
 10
17.97822
 20
19.578028
 30
0.25
 11
17.76285
 21
19.578028
 31
0.25
  0
LINE
  8
PLAN_1
 62
7
 10
17.76285
 20
19.578028
 30
0.25
 11
15.613857
 21
21.727022
 31
0.25
  0
LINE
  8
PLAN_1
 62
7
 10
15.613857
 20
21.727022
 30
0.25
 11
15.613857
 21
34.385971
 31
0.25
  0
LINE
  8
PLAN_1
 62
7
 10
15.613857
 20
34.385971
 30
0.25
 11
15.613857
 21
39.293407
 31
0.25
  0
LINE
  8
PLAN_1
 62
7
 10
15.613857
 20
39.293407
 30
0.25
 11
18.014725
 21
41.694275
 31
0.25
  0
LINE
  8
PLAN_1
 62
7
 10
18.014725
 20
41.694275
 30
0.25
 11
22.504585
 21
41.694275
 31
0.25
  0
LINE
  8
PLAN_1
 62
7
 10
22.504585
 20
41.694275
 30
0.25
 11
23.691841
 21
40.507019
 31
0.25
  0
LINE
  8
PLAN_1
 62
7
 10
23.691841
 20
40.507019
 30
0.25
 11
23.691841
 21
35.614773
 31
0.25
  0
LINE
  8
PLAN_1
 62
7
 10
23.691841
 20
35.614773
 30
0.25
 11
22.459541
 21
34.382473
 31
0.25
  0
LINE
  8
PLAN_1
 62
7
 10
22.459541
 20
34.382473
 30
0.25
 11
22.342909
 21
34.20792
 31
0.25
  0
LINE
  8
PLAN_1
 62
7
 10
22.342909
 20
34.20792
 30
0.25
 11
22.301952
 21
34.002022
 31
0.25
  0
LINE
  8
PLAN_1
 62
7
 10
22.301952
 20
34.002022
 30
0.25
 11
22.301952
 21
32.563824
 31
0.25
  0
LINE
  8
PLAN_1
 62
7
 10
22.301952
 20
32.563824
 30
0.25
 11
22.225754
 21
32.563824
 31
0.25
  0
LINE
  8
PLAN_1
 62
7
 10
22.225754
 20
32.563824
 30
0.25
 11
22.225754
 21
30.116158
 31
0.25
  0
LINE
  8
PLAN_1
 62
7
 10
18.003298
 20
24.33758
 30
0.25
 11
18.003298
 21
30.116158
 31
0.25
  0
LINE
  8
PLAN_1
 62
7
 10
18.003298
 20
30.116158
 30
0.25
 11
18.854227
 21
30.116158
 31
0.25
  0
LINE
  8
PLAN_1
 62
7
 10
18.854227
 20
30.116158
 30
0.25
 11
18.854227
 21
32.563824
 31
0.25
  0
LINE
  8
PLAN_1
 62
7
 10
18.854227
 20
32.563824
 30
0.25
 11
18.778028
 21
32.563824
 31
0.25
  0
LINE
  8
PLAN_1
 62
7
 10
18.778028
 20
32.563824
 30
0.25
 11
18.778028
 21
36.917622
 31
0.25
  0
LINE
  8
PLAN_1
 62
7
 10
18.778028
 20
36.917622
 30
0.25
 11
18.944033
 21
36.967976
 31
0.25
  0
LINE
  8
PLAN_1
 62
7
 10
18.944033
 20
36.967976
 30
0.25
 11
19.14464
 21
37.075203
 31
0.25
  0
LINE
  8
PLAN_1
 62
7
 10
19.14464
 20
37.075203
 30
0.25
 11
19.320473
 21
37.219505
 31
0.25
  0
LINE
  8
PLAN_1
 62
7
 10
19.320473
 20
37.219505
 30
0.25
 11
19.464775
 21
37.39534
 31
0.25
  0
LINE
  8
PLAN_1
 62
7
 10
19.464775
 20
37.39534
 30
0.25
 11
19.572002
 21
37.595947
 31
0.25
  0
LINE
  8
PLAN_1
 62
7
 10
19.572002
 20
37.595947
 30
0.25
 11
19.638033
 21
37.813618
 31
0.25
  0
LINE
  8
PLAN_1
 62
7
 10
19.638033
 20
37.813618
 30
0.25
 11
19.660328
 21
38.039989
 31
0.25
  0
LINE
  8
PLAN_1
 62
7
 10
19.660328
 20
38.039989
 30
0.25
 11
19.638033
 21
38.266361
 31
0.25
  0
LINE
  8
PLAN_1
 62
7
 10
19.638033
 20
38.266361
 30
0.25
 11
19.572002
 21
38.484032
 31
0.25
  0
LINE
  8
PLAN_1
 62
7
 10
19.572002
 20
38.484032
 30
0.25
 11
19.464775
 21
38.684639
 31
0.25
  0
LINE
  8
PLAN_1
 62
7
 10
19.464775
 20
38.684639
 30
0.25
 11
19.320473
 21
38.860474
 31
0.25
  0
LINE
  8
PLAN_1
 62
7
 10
19.320473
 20
38.860474
 30
0.25
 11
19.14464
 21
39.004776
 31
0.25
  0
LINE
  8
PLAN_1
 62
7
 10
19.14464
 20
39.004776
 30
0.25
 11
18.944033
 21
39.112003
 31
0.25
  0
LINE
  8
PLAN_1
 62
7
 10
18.944033
 20
39.112003
 30
0.25
 11
18.72636
 21
39.178032
 31
0.25
  0
LINE
  8
PLAN_1
 62
7
 10
18.72636
 20
39.178032
 30
0.25
 11
18.49999
 21
39.200329
 31
0.25
  0
LINE
  8
PLAN_1
 62
7
 10
18.49999
 20
39.200329
 30
0.25
 11
18.273621
 21
39.178032
 31
0.25
  0
LINE
  8
PLAN_1
 62
7
 10
18.273621
 20
39.178032
 30
0.25
 11
18.055948
 21
39.112003
 31
0.25
  0
LINE
  8
PLAN_1
 62
7
 10
18.055948
 20
39.112003
 30
0.25
 11
17.855341
 21
39.004776
 31
0.25
  0
LINE
  8
PLAN_1
 62
7
 10
17.855341
 20
39.004776
 30
0.25
 11
17.679508
 21
38.860474
 31
0.25
  0
LINE
  8
PLAN_1
 62
7
 10
17.679508
 20
38.860474
 30
0.25
 11
17.535206
 21
38.684639
 31
0.25
  0
LINE
  8
PLAN_1
 62
7
 10
17.535206
 20
38.684639
 30
0.25
 11
17.427979
 21
38.484032
 31
0.25
  0
LINE
  8
PLAN_1
 62
7
 10
17.427979
 20
38.484032
 30
0.25
 11
17.361948
 21
38.266361
 31
0.25
  0
LINE
  8
PLAN_1
 62
7
 10
17.361948
 20
38.266361
 30
0.25
 11
17.339653
 21
38.039989
 31
0.25
  0
LINE
  8
PLAN_1
 62
7
 10
17.339653
 20
38.039989
 30
0.25
 11
17.361948
 21
37.813618
 31
0.25
  0
LINE
  8
PLAN_1
 62
7
 10
17.361948
 20
37.813618
 30
0.25
 11
17.427979
 21
37.595947
 31
0.25
  0
LINE
  8
PLAN_1
 62
7
 10
17.427979
 20
37.595947
 30
0.25
 11
17.535206
 21
37.39534
 31
0.25
  0
LINE
  8
PLAN_1
 62
7
 10
17.535206
 20
37.39534
 30
0.25
 11
17.679508
 21
37.219505
 31
0.25
  0
LINE
  8
PLAN_1
 62
7
 10
17.679508
 20
37.219505
 30
0.25
 11
17.701952
 21
37.201088
 31
0.25
  0
LINE
  8
PLAN_1
 62
7
 10
17.701952
 20
37.201088
 30
0.25
 11
17.701952
 21
32.563824
 31
0.25
  0
LINE
  8
PLAN_1
 62
7
 10
17.701952
 20
32.563824
 30
0.25
 11
17.625753
 21
32.563824
 31
0.25
  0
LINE
  8
PLAN_1
 62
7
 10
17.625753
 20
32.563824
 30
0.25
 11
17.625753
 21
31.486652
 31
0.25
  0
LINE
  8
PLAN_1
 62
7
 10
17.625753
 20
31.486652
 30
0.25
 11
17.08481
 21
30.945709
 31
0.25
  0
LINE
  8
PLAN_1
 62
7
 10
17.08481
 20
30.945709
 30
0.25
 11
16.968178
 21
30.771158
 31
0.25
  0
LINE
  8
PLAN_1
 62
7
 10
16.968178
 20
30.771158
 30
0.25
 11
16.927221
 21
30.56526
 31
0.25
  0
LINE
  8
PLAN_1
 62
7
 10
16.927221
 20
30.56526
 30
0.25
 11
16.927221
 21
24.114719
 31
0.25
  0
LINE
  8
PLAN_1
 62
7
 10
16.927221
 20
24.114719
 30
0.25
 11
16.968178
 21
23.908821
 31
0.25
  0
LINE
  8
PLAN_1
 62
7
 10
16.968178
 20
23.908821
 30
0.25
 11
17.08481
 21
23.73427
 31
0.25
  0
LINE
  8
PLAN_1
 62
7
 10
17.08481
 20
23.73427
 30
0.25
 11
20.850832
 21
19.968248
 31
0.25
  0
LINE
  8
PLAN_1
 62
7
 10
20.850832
 20
19.968248
 30
0.25
 11
20.719507
 21
19.860472
 31
0.25
  0
LINE
  8
PLAN_1
 62
7
 10
20.719507
 20
19.860472
 30
0.25
 11
20.575205
 21
19.684639
 31
0.25
  0
LINE
  8
PLAN_1
 62
7
 10
20.575205
 20
19.684639
 30
0.25
 11
20.467978
 21
19.484032
 31
0.25
  0
LINE
  8
PLAN_1
 62
7
 10
20.467978
 20
19.484032
 30
0.25
 11
20.401947
 21
19.266359
 31
0.25
  0
LINE
  8
PLAN_1
 62
7
 10
20.401947
 20
19.266359
 30
0.25
 11
20.379652
 21
19.039989
 31
0.25
  0
LINE
  8
PLAN_1
 62
7
 10
20.379652
 20
19.039989
 30
0.25
 11
20.401947
 21
18.81362
 31
0.25
  0
LINE
  8
PLAN_1
 62
7
 10
20.401947
 20
18.81362
 30
0.25
 11
20.467978
 21
18.595947
 31
0.25
  0
LINE
  8
PLAN_1
 62
7
 10
20.467978
 20
18.595947
 30
0.25
 11
20.575205
 21
18.39534
 31
0.25
  0
LINE
  8
PLAN_1
 62
7
 10
20.575205
 20
18.39534
 30
0.25
 11
20.719507
 21
18.219507
 31
0.25
  0
LINE
  8
PLAN_1
 62
7
 10
20.719507
 20
18.219507
 30
0.25
 11
20.89534
 21
18.075205
 31
0.25
  0
LINE
  8
PLAN_1
 62
7
 10
20.89534
 20
18.075205
 30
0.25
 11
21.095947
 21
17.967978
 31
0.25
  0
LINE
  8
PLAN_1
 62
7
 10
21.095947
 20
17.967978
 30
0.25
 11
21.31362
 21
17.901947
 31
0.25
  0
LINE
  8
PLAN_1
 62
7
 10
21.31362
 20
17.901947
 30
0.25
 11
21.539989
 21
17.879652
 31
0.25
  0
LINE
  8
PLAN_1
 62
7
 10
21.539989
 20
17.879652
 30
0.25
 11
21.766359
 21
17.901947
 31
0.25
  0
LINE
  8
PLAN_1
 62
7
 10
21.766359
 20
17.901947
 30
0.25
 11
21.882042
 21
17.937038
 31
0.25
  0
LINE
  8
PLAN_1
 62
7
 10
21.882042
 20
17.937038
 30
0.25
 11
24.65954
 21
15.15954
 31
0.25
  0
LINE
  8
PLAN_1
 62
7
 10
24.65954
 20
15.15954
 30
0.25
 11
24.834091
 21
15.042909
 31
0.25
  0
LINE
  8
PLAN_1
 62
7
 10
24.834091
 20
15.042909
 30
0.25
 11
25.039989
 21
15.001953
 31
0.25
  0
LINE
  8
PLAN_1
 62
7
 10
25.039989
 20
15.001953
 30
0.25
 11
31.539989
 21
15.001953
 31
0.25
  0
LINE
  8
PLAN_1
 62
7
 10
31.539989
 20
15.001953
 30
0.25
 11
36.539989
 21
15.001953
 31
0.25
  0
LINE
  8
PLAN_1
 62
7
 10
36.539989
 20
15.001953
 30
0.25
 11
42.539989
 21
15.001953
 31
0.25
  0
LINE
  8
PLAN_1
 62
7
 10
42.539989
 20
15.001953
 30
0.25
 11
51.039989
 21
15.001953
 31
0.25
  0
LINE
  8
PLAN_1
 62
7
 10
51.039989
 20
15.001953
 30
0.25
 11
51.245888
 21
15.042909
 31
0.25
  0
LINE
  8
PLAN_1
 62
7
 10
51.245888
 20
15.042909
 30
0.25
 11
51.420441
 21
15.15954
 31
0.25
  0
LINE
  8
PLAN_1
 62
7
 10
51.420441
 20
15.15954
 30
0.25
 11
51.920441
 21
15.659539
 31
0.25
  0
LINE
  8
PLAN_1
 62
7
 10
51.920441
 20
15.659539
 30
0.25
 11
52.037071
 21
15.834091
 31
0.25
  0
LINE
  8
PLAN_1
 62
7
 10
52.037071
 20
15.834091
 30
0.25
 11
52.078026
 21
16.039989
 31
0.25
  0
LINE
  8
PLAN_1
 62
7
 10
52.078026
 20
16.039989
 30
0.25
 11
52.078026
 21
16.879652
 31
0.25
  0
LINE
  8
PLAN_1
 62
7
 10
52.078026
 20
16.879652
 30
0.25
 11
52.74033
 21
16.879652
 31
0.25
  0
LINE
  8
PLAN_1
 62
7
 10
52.74033
 20
16.879652
 30
0.25
 11
52.74033
 21
19.200327
 31
0.25
  0
LINE
  8
PLAN_1
 62
7
 10
52.74033
 20
19.200327
 30
0.25
 11
50.419651
 21
19.200327
 31
0.25
  0
LINE
  8
PLAN_1
 62
7
 10
50.419651
 20
19.200327
 30
0.25
 11
50.419651
 21
16.879652
 31
0.25
  0
LINE
  8
PLAN_1
 62
7
 10
50.419651
 20
16.879652
 30
0.25
 11
51.001953
 21
16.879652
 31
0.25
  0
LINE
  8
PLAN_1
 62
7
 10
51.001953
 20
16.879652
 30
0.25
 11
51.001953
 21
16.262856
 31
0.25
  0
LINE
  8
PLAN_1
 62
7
 10
51.001953
 20
16.262856
 30
0.25
 11
50.817123
 21
16.078028
 31
0.25
  0
LINE
  8
PLAN_1
 62
7
 10
50.817123
 20
16.078028
 30
0.25
 11
43.078026
 21
16.078028
 31
0.25
  0
LINE
  8
PLAN_1
 62
7
 10
43.078026
 20
16.078028
 30
0.25
 11
43.078026
 21
16.879652
 31
0.25
  0
LINE
  8
PLAN_1
 62
7
 10
43.078026
 20
16.879652
 30
0.25
 11
43.700329
 21
16.879652
 31
0.25
  0
LINE
  8
PLAN_1
 62
7
 10
43.700329
 20
16.879652
 30
0.25
 11
43.700329
 21
19.200327
 31
0.25
  0
LINE
  8
PLAN_1
 62
7
 10
43.700329
 20
19.200327
 30
0.25
 11
43.078026
 21
19.200327
 31
0.25
  0
LINE
  8
PLAN_1
 62
7
 10
43.078026
 20
19.200327
 30
0.25
 11
43.078026
 21
34.119991
 31
0.25
  0
LINE
  8
PLAN_1
 62
7
 10
43.078026
 20
34.119991
 30
0.25
 11
43.037071
 21
34.32589
 31
0.25
  0
LINE
  8
PLAN_1
 62
7
 10
43.037071
 20
34.32589
 30
0.25
 11
42.920441
 21
34.500443
 31
0.25
  0
LINE
  8
PLAN_1
 62
7
 10
42.920441
 20
34.500443
 30
0.25
 11
40.280331
 21
37.140553
 31
0.25
  0
LINE
  8
PLAN_1
 62
7
 10
40.280331
 20
37.140553
 30
0.25
 11
40.280331
 21
38.700329
 31
0.25
  0
LINE
  8
PLAN_1
 62
7
 10
40.280331
 20
38.700329
 30
0.25
 11
37.959652
 21
38.700329
 31
0.25
  0
LINE
  8
PLAN_1
 62
7
 10
37.959652
 20
38.700329
 30
0.25
 11
37.959652
 21
36.37965
 31
0.25
  0
LINE
  8
PLAN_1
 62
7
 10
37.959652
 20
36.37965
 30
0.25
 11
39.519428
 21
36.37965
 31
0.25
  0
LINE
  8
PLAN_1
 62
7
 10
39.519428
 20
36.37965
 30
0.25
 11
42.001953
 21
33.897125
 31
0.25
  0
LINE
  8
PLAN_1
 62
7
 10
42.001953
 20
33.897125
 30
0.25
 11
42.001953
 21
19.200327
 31
0.25
  0
LINE
  8
PLAN_1
 62
7
 10
42.001953
 20
19.200327
 30
0.25
 11
41.37965
 21
19.200327
 31
0.25
  0
LINE
  8
PLAN_1
 62
7
 10
41.37965
 20
19.200327
 30
0.25
 11
41.37965
 21
16.879652
 31
0.25
  0
LINE
  8
PLAN_1
 62
7
 10
41.37965
 20
16.879652
 30
0.25
 11
42.001953
 21
16.879652
 31
0.25
  0
LINE
  8
PLAN_1
 62
7
 10
42.001953
 20
16.879652
 30
0.25
 11
42.001953
 21
16.078028
 31
0.25
  0
LINE
  8
PLAN_1
 62
7
 10
42.001953
 20
16.078028
 30
0.25
 11
37.118027
 21
16.078028
 31
0.25
  0
LINE
  8
PLAN_1
 62
7
 10
37.118027
 20
16.078028
 30
0.25
 11
37.118027
 21
16.879652
 31
0.25
  0
LINE
  8
PLAN_1
 62
7
 10
37.118027
 20
16.879652
 30
0.25
 11
37.74033
 21
16.879652
 31
0.25
  0
LINE
  8
PLAN_1
 62
7
 10
37.74033
 20
16.879652
 30
0.25
 11
37.74033
 21
19.200327
 31
0.25
  0
LINE
  8
PLAN_1
 62
7
 10
37.74033
 20
19.200327
 30
0.25
 11
35.419651
 21
19.200327
 31
0.25
  0
LINE
  8
PLAN_1
 62
7
 10
35.419651
 20
19.200327
 30
0.25
 11
35.419651
 21
16.879652
 31
0.25
  0
LINE
  8
PLAN_1
 62
7
 10
35.419651
 20
16.879652
 30
0.25
 11
36.041954
 21
16.879652
 31
0.25
  0
LINE
  8
PLAN_1
 62
7
 10
36.041954
 20
16.879652
 30
0.25
 11
36.041954
 21
16.078028
 31
0.25
  0
LINE
  8
PLAN_1
 62
7
 10
36.041954
 20
16.078028
 30
0.25
 11
31.762852
 21
16.078028
 31
0.25
  0
LINE
  8
PLAN_1
 62
7
 10
31.762852
 20
16.078028
 30
0.25
 11
31.118029
 21
16.722851
 31
0.25
  0
LINE
  8
PLAN_1
 62
7
 10
31.118029
 20
16.722851
 30
0.25
 11
31.118029
 21
16.879652
 31
0.25
  0
LINE
  8
PLAN_1
 62
7
 10
31.118029
 20
16.879652
 30
0.25
 11
31.740328
 21
16.879652
 31
0.25
  0
LINE
  8
PLAN_1
 62
7
 10
31.740328
 20
16.879652
 30
0.25
 11
31.740328
 21
19.200327
 31
0.25
  0
LINE
  8
PLAN_1
 62
7
 10
31.740328
 20
19.200327
 30
0.25
 11
29.419653
 21
19.200327
 31
0.25
  0
LINE
  8
PLAN_1
 62
7
 10
29.419653
 20
19.200327
 30
0.25
 11
29.419653
 21
16.879652
 31
0.25
  0
LINE
  8
PLAN_1
 62
7
 10
29.419653
 20
16.879652
 30
0.25
 11
30.041952
 21
16.879652
 31
0.25
  0
LINE
  8
PLAN_1
 62
7
 10
30.041952
 20
16.879652
 30
0.25
 11
30.041952
 21
16.49999
 31
0.25
  0
LINE
  8
PLAN_1
 62
7
 10
30.041952
 20
16.49999
 30
0.25
 11
30.082909
 21
16.294092
 31
0.25
  0
LINE
  8
PLAN_1
 62
7
 10
30.082909
 20
16.294092
 30
0.25
 11
30.199541
 21
16.119541
 31
0.25
  0
LINE
  8
PLAN_1
 62
7
 10
30.199541
 20
16.119541
 30
0.25
 11
30.241055
 21
16.078028
 31
0.25
  0
LINE
  8
PLAN_1
 62
7
 10
30.241055
 20
16.078028
 30
0.25
 11
25.262852
 21
16.078028
 31
0.25
  0
LINE
  8
PLAN_1
 62
7
 10
25.262852
 20
16.078028
 30
0.25
 11
22.642941
 21
18.697937
 31
0.25
  0
LINE
  8
PLAN_1
 62
7
 10
22.642941
 20
18.697937
 30
0.25
 11
22.678032
 21
18.81362
 31
0.25
  0
LINE
  8
PLAN_1
 62
7
 10
22.678032
 20
18.81362
 30
0.25
 11
22.700327
 21
19.039989
 31
0.25
  0
LINE
  8
PLAN_1
 62
7
 10
22.700327
 20
19.039989
 30
0.25
 11
22.678032
 21
19.266359
 31
0.25
  0
LINE
  8
PLAN_1
 62
7
 10
22.678032
 20
19.266359
 30
0.25
 11
22.612001
 21
19.484032
 31
0.25
  0
LINE
  8
PLAN_1
 62
7
 10
22.612001
 20
19.484032
 30
0.25
 11
22.504774
 21
19.684639
 31
0.25
  0
LINE
  8
PLAN_1
 62
7
 10
22.504774
 20
19.684639
 30
0.25
 11
22.360472
 21
19.860472
 31
0.25
  0
LINE
  8
PLAN_1
 62
7
 10
22.360472
 20
19.860472
 30
0.25
 11
22.184639
 21
20.004774
 31
0.25
  0
LINE
  8
PLAN_1
 62
7
 10
22.184639
 20
20.004774
 30
0.25
 11
22.073183
 21
20.06435
 31
0.25
  0
LINE
  8
PLAN_1
 62
7
 10
22.073183
 20
20.06435
 30
0.25
 11
22.037071
 21
20.245888
 31
0.25
  0
LINE
  8
PLAN_1
 62
7
 10
22.037071
 20
20.245888
 30
0.25
 11
21.920439
 21
20.420439
 31
0.25
  0
LINE
  8
PLAN_1
 62
7
 10
21.920439
 20
20.420439
 30
0.25
 11
18.003298
 21
24.33758
 31
0.25
  0
LINE
  8
PLAN_1
 62
7
 10
27.542908
 20
24.570318
 30
0.25
 11
27.501951
 21
24.36442
 31
0.25
  0
LINE
  8
PLAN_1
 62
7
 10
27.501951
 20
24.36442
 30
0.25
 11
27.501951
 21
19.200327
 31
0.25
  0
LINE
  8
PLAN_1
 62
7
 10
27.501951
 20
19.200327
 30
0.25
 11
26.879652
 21
19.200327
 31
0.25
  0
LINE
  8
PLAN_1
 62
7
 10
26.879652
 20
19.200327
 30
0.25
 11
26.879652
 21
16.879652
 31
0.25
  0
LINE
  8
PLAN_1
 62
7
 10
26.879652
 20
16.879652
 30
0.25
 11
29.200327
 21
16.879652
 31
0.25
  0
LINE
  8
PLAN_1
 62
7
 10
29.200327
 20
16.879652
 30
0.25
 11
29.200327
 21
19.200327
 31
0.25
  0
LINE
  8
PLAN_1
 62
7
 10
29.200327
 20
19.200327
 30
0.25
 11
28.578028
 21
19.200327
 31
0.25
  0
LINE
  8
PLAN_1
 62
7
 10
28.578028
 20
19.200327
 30
0.25
 11
28.578028
 21
24.14156
 31
0.25
  0
LINE
  8
PLAN_1
 62
7
 10
28.578028
 20
24.14156
 30
0.25
 11
29.690319
 21
25.253851
 31
0.25
  0
LINE
  8
PLAN_1
 62
7
 10
29.690319
 20
25.253851
 30
0.25
 11
29.806952
 21
25.428402
 31
0.25
  0
LINE
  8
PLAN_1
 62
7
 10
29.806952
 20
25.428402
 30
0.25
 11
29.847908
 21
25.6343
 31
0.25
  0
LINE
  8
PLAN_1
 62
7
 10
29.847908
 20
25.6343
 30
0.25
 11
29.847908
 21
31.950039
 31
0.25
  0
LINE
  8
PLAN_1
 62
7
 10
29.847908
 20
31.950039
 30
0.25
 11
30.293892
 21
32.396019
 31
0.25
  0
LINE
  8
PLAN_1
 62
7
 10
30.293892
 20
32.396019
 30
0.25
 11
31.88044
 21
33.982571
 31
0.25
  0
LINE
  8
PLAN_1
 62
7
 10
31.88044
 20
33.982571
 30
0.25
 11
31.997072
 21
34.157124
 31
0.25
  0
LINE
  8
PLAN_1
 62
7
 10
31.997072
 20
34.157124
 30
0.25
 11
32.038029
 21
34.363022
 31
0.25
  0
LINE
  8
PLAN_1
 62
7
 10
32.038029
 20
34.363022
 30
0.25
 11
32.038029
 21
36.37965
 31
0.25
  0
LINE
  8
PLAN_1
 62
7
 10
32.038029
 20
36.37965
 30
0.25
 11
32.660328
 21
36.37965
 31
0.25
  0
LINE
  8
PLAN_1
 62
7
 10
32.660328
 20
36.37965
 30
0.25
 11
32.660328
 21
38.700329
 31
0.25
  0
LINE
  8
PLAN_1
 62
7
 10
32.660328
 20
38.700329
 30
0.25
 11
30.339653
 21
38.700329
 31
0.25
  0
LINE
  8
PLAN_1
 62
7
 10
30.339653
 20
38.700329
 30
0.25
 11
30.339653
 21
36.37965
 31
0.25
  0
LINE
  8
PLAN_1
 62
7
 10
30.339653
 20
36.37965
 30
0.25
 11
30.961952
 21
36.37965
 31
0.25
  0
LINE
  8
PLAN_1
 62
7
 10
30.961952
 20
36.37965
 30
0.25
 11
30.961952
 21
34.585884
 31
0.25
  0
LINE
  8
PLAN_1
 62
7
 10
30.961952
 20
34.585884
 30
0.25
 11
29.53299
 21
33.156921
 31
0.25
  0
LINE
  8
PLAN_1
 62
7
 10
29.53299
 20
33.156921
 30
0.25
 11
28.92942
 21
32.553352
 31
0.25
  0
LINE
  8
PLAN_1
 62
7
 10
28.92942
 20
32.553352
 30
0.25
 11
28.812788
 21
32.378799
 31
0.25
  0
LINE
  8
PLAN_1
 62
7
 10
28.812788
 20
32.378799
 30
0.25
 11
28.771832
 21
32.172901
 31
0.25
  0
LINE
  8
PLAN_1
 62
7
 10
28.771832
 20
32.172901
 30
0.25
 11
28.771832
 21
25.857161
 31
0.25
  0
LINE
  8
PLAN_1
 62
7
 10
28.771832
 20
25.857161
 30
0.25
 11
27.65954
 21
24.744869
 31
0.25
  0
LINE
  8
PLAN_1
 62
7
 10
27.65954
 20
24.744869
 30
0.25
 11
27.542908
 21
24.570318
 31
0.25
  0
LINE
  8
PLAN_1
 62
7
 10
33.026512
 20
23.081583
 30
0.25
 11
33.006657
 21
22.87999
 31
0.25
  0
LINE
  8
PLAN_1
 62
7
 10
33.006657
 20
22.87999
 30
0.25
 11
33.026512
 21
22.678396
 31
0.25
  0
LINE
  8
PLAN_1
 62
7
 10
33.026512
 20
22.678396
 30
0.25
 11
33.085316
 21
22.48455
 31
0.25
  0
LINE
  8
PLAN_1
 62
7
 10
33.085316
 20
22.48455
 30
0.25
 11
33.180805
 21
22.305901
 31
0.25
  0
LINE
  8
PLAN_1
 62
7
 10
33.180805
 20
22.305901
 30
0.25
 11
33.309315
 21
22.149313
 31
0.25
  0
LINE
  8
PLAN_1
 62
7
 10
33.309315
 20
22.149313
 30
0.25
 11
33.4659
 21
22.020805
 31
0.25
  0
LINE
  8
PLAN_1
 62
7
 10
33.4659
 20
22.020805
 30
0.25
 11
33.501953
 21
22.001535
 31
0.25
  0
LINE
  8
PLAN_1
 62
7
 10
33.501953
 20
22.001535
 30
0.25
 11
33.501953
 21
19.200327
 31
0.25
  0
LINE
  8
PLAN_1
 62
7
 10
33.501953
 20
19.200327
 30
0.25
 11
32.87965
 21
19.200327
 31
0.25
  0
LINE
  8
PLAN_1
 62
7
 10
32.87965
 20
19.200327
 30
0.25
 11
32.87965
 21
16.879652
 31
0.25
  0
LINE
  8
PLAN_1
 62
7
 10
32.87965
 20
16.879652
 30
0.25
 11
35.200329
 21
16.879652
 31
0.25
  0
LINE
  8
PLAN_1
 62
7
 10
35.200329
 20
16.879652
 30
0.25
 11
35.200329
 21
19.200327
 31
0.25
  0
LINE
  8
PLAN_1
 62
7
 10
35.200329
 20
19.200327
 30
0.25
 11
34.578026
 21
19.200327
 31
0.25
  0
LINE
  8
PLAN_1
 62
7
 10
34.578026
 20
19.200327
 30
0.25
 11
34.578026
 21
22.001535
 31
0.25
  0
LINE
  8
PLAN_1
 62
7
 10
34.578026
 20
22.001535
 30
0.25
 11
34.614079
 21
22.020805
 31
0.25
  0
LINE
  8
PLAN_1
 62
7
 10
34.614079
 20
22.020805
 30
0.25
 11
34.770664
 21
22.149313
 31
0.25
  0
LINE
  8
PLAN_1
 62
7
 10
34.770664
 20
22.149313
 30
0.25
 11
34.899174
 21
22.305901
 31
0.25
  0
LINE
  8
PLAN_1
 62
7
 10
34.899174
 20
22.305901
 30
0.25
 11
34.994663
 21
22.48455
 31
0.25
  0
LINE
  8
PLAN_1
 62
7
 10
34.994663
 20
22.48455
 30
0.25
 11
35.053467
 21
22.678396
 31
0.25
  0
LINE
  8
PLAN_1
 62
7
 10
35.053467
 20
22.678396
 30
0.25
 11
35.073322
 21
22.87999
 31
0.25
  0
LINE
  8
PLAN_1
 62
7
 10
35.073322
 20
22.87999
 30
0.25
 11
35.053467
 21
23.081583
 31
0.25
  0
LINE
  8
PLAN_1
 62
7
 10
35.053467
 20
23.081583
 30
0.25
 11
34.994663
 21
23.275429
 31
0.25
  0
LINE
  8
PLAN_1
 62
7
 10
34.994663
 20
23.275429
 30
0.25
 11
34.899174
 21
23.454079
 31
0.25
  0
LINE
  8
PLAN_1
 62
7
 10
34.899174
 20
23.454079
 30
0.25
 11
34.770664
 21
23.610666
 31
0.25
  0
LINE
  8
PLAN_1
 62
7
 10
34.770664
 20
23.610666
 30
0.25
 11
34.614079
 21
23.739174
 31
0.25
  0
LINE
  8
PLAN_1
 62
7
 10
34.614079
 20
23.739174
 30
0.25
 11
34.435429
 21
23.834665
 31
0.25
  0
LINE
  8
PLAN_1
 62
7
 10
34.435429
 20
23.834665
 30
0.25
 11
34.241581
 21
23.893467
 31
0.25
  0
LINE
  8
PLAN_1
 62
7
 10
34.241581
 20
23.893467
 30
0.25
 11
34.039989
 21
23.913322
 31
0.25
  0
LINE
  8
PLAN_1
 62
7
 10
34.039989
 20
23.913322
 30
0.25
 11
33.838398
 21
23.893467
 31
0.25
  0
LINE
  8
PLAN_1
 62
7
 10
33.838398
 20
23.893467
 30
0.25
 11
33.64455
 21
23.834665
 31
0.25
  0
LINE
  8
PLAN_1
 62
7
 10
33.64455
 20
23.834665
 30
0.25
 11
33.4659
 21
23.739174
 31
0.25
  0
LINE
  8
PLAN_1
 62
7
 10
33.4659
 20
23.739174
 30
0.25
 11
33.309315
 21
23.610666
 31
0.25
  0
LINE
  8
PLAN_1
 62
7
 10
33.309315
 20
23.610666
 30
0.25
 11
33.180805
 21
23.454079
 31
0.25
  0
LINE
  8
PLAN_1
 62
7
 10
33.180805
 20
23.454079
 30
0.25
 11
33.085316
 21
23.275429
 31
0.25
  0
LINE
  8
PLAN_1
 62
7
 10
33.085316
 20
23.275429
 30
0.25
 11
33.026512
 21
23.081583
 31
0.25
  0
ENDSEC
  0
EOF
